G04 #@! TF.GenerationSoftware,KiCad,Pcbnew,5.1.6-c6e7f7d~87~ubuntu18.04.1*
G04 #@! TF.CreationDate,2020-07-20T19:22:24+02:00*
G04 #@! TF.ProjectId,cloud-demo,636c6f75-642d-4646-956d-6f2e6b696361,rev?*
G04 #@! TF.SameCoordinates,Original*
G04 #@! TF.FileFunction,Legend,Top*
G04 #@! TF.FilePolarity,Positive*
%FSLAX46Y46*%
G04 Gerber Fmt 4.6, Leading zero omitted, Abs format (unit mm)*
G04 Created by KiCad (PCBNEW 5.1.6-c6e7f7d~87~ubuntu18.04.1) date 2020-07-20 19:22:24*
%MOMM*%
%LPD*%
G01*
G04 APERTURE LIST*
%ADD10C,0.120000*%
%ADD11C,0.010000*%
%ADD12O,1.800000X1.800000*%
%ADD13R,1.800000X1.800000*%
G04 APERTURE END LIST*
D10*
X142090960Y-84170000D02*
G75*
G03*
X142090960Y-84170000I-1250960J0D01*
G01*
X137490824Y-78860000D02*
G75*
G03*
X137490824Y-78860000I-970824J0D01*
G01*
X135844586Y-73730000D02*
G75*
G03*
X135844586Y-73730000I-874586J0D01*
G01*
X124674548Y-72990000D02*
G75*
G03*
X124674548Y-72990000I-1134548J0D01*
G01*
X124931730Y-78750000D02*
G75*
G03*
X124931730Y-78750000I-1301730J0D01*
G01*
X121663729Y-83800000D02*
G75*
G03*
X121663729Y-83800000I-1503729J0D01*
G01*
X140302017Y-81720000D02*
G75*
G03*
X140302017Y-81720000I-1042017J0D01*
G01*
X123630000Y-89060000D02*
X122230000Y-91740000D01*
X123550000Y-92350000D02*
X122200000Y-95240000D01*
X125630000Y-93130000D02*
X124060000Y-95490000D01*
X133820000Y-93130000D02*
X133030000Y-95740000D01*
X127850000Y-92100000D02*
X126170000Y-95560000D01*
X128850000Y-88910000D02*
X127700000Y-90700000D01*
X131780000Y-88880000D02*
X130350000Y-91270000D01*
X133750000Y-89090000D02*
X132350000Y-91090000D01*
X139080000Y-89020000D02*
X138180000Y-91090000D01*
X136470000Y-92990000D02*
X134790000Y-95890000D01*
X136650000Y-95560000D02*
X136650000Y-95600000D01*
X140080000Y-90020000D02*
X136650000Y-95560000D01*
%LPC*%
D11*
G36*
X137548996Y-69671742D02*
G01*
X138227108Y-69732416D01*
X138436524Y-69763274D01*
X139364180Y-69963460D01*
X140147210Y-70233775D01*
X140798634Y-70582534D01*
X141331474Y-71018051D01*
X141758750Y-71548643D01*
X142041799Y-72065561D01*
X142222459Y-72627748D01*
X142308133Y-73293214D01*
X142299552Y-74025553D01*
X142197446Y-74788360D01*
X142002547Y-75545228D01*
X141969987Y-75642582D01*
X141894329Y-75901568D01*
X141863068Y-76093551D01*
X141875225Y-76163513D01*
X141983298Y-76217393D01*
X142205470Y-76303279D01*
X142494171Y-76402810D01*
X142501402Y-76405175D01*
X143095031Y-76654464D01*
X143609386Y-76999522D01*
X144082993Y-77469202D01*
X144324732Y-77770636D01*
X144847172Y-78545683D01*
X145216594Y-79285299D01*
X145440099Y-80009154D01*
X145524787Y-80736919D01*
X145519038Y-81079237D01*
X145468490Y-81547531D01*
X145372359Y-81890181D01*
X145304171Y-82027160D01*
X145125778Y-82329513D01*
X145401703Y-82630753D01*
X145573589Y-82854241D01*
X145775986Y-83169946D01*
X145969586Y-83515819D01*
X145999140Y-83573840D01*
X146270142Y-84265644D01*
X146380143Y-84933419D01*
X146327933Y-85568450D01*
X146294660Y-85702533D01*
X146135629Y-86040404D01*
X145852629Y-86414819D01*
X145477188Y-86795286D01*
X145040834Y-87151310D01*
X144575097Y-87452397D01*
X144380145Y-87554249D01*
X144044201Y-87705269D01*
X143712246Y-87826196D01*
X143360336Y-87920173D01*
X142964528Y-87990342D01*
X142500879Y-88039846D01*
X141945446Y-88071827D01*
X141274284Y-88089430D01*
X140463452Y-88095795D01*
X140252688Y-88096000D01*
X138030271Y-88096000D01*
X137148635Y-88700455D01*
X136807361Y-88935627D01*
X136515214Y-89139178D01*
X136301617Y-89290450D01*
X136195993Y-89368787D01*
X136192911Y-89371444D01*
X136228773Y-89420088D01*
X136395031Y-89482053D01*
X136637411Y-89540005D01*
X136906692Y-89599485D01*
X137094179Y-89653324D01*
X137156000Y-89686460D01*
X137104375Y-89764729D01*
X136964119Y-89943927D01*
X136757160Y-90196724D01*
X136526312Y-90471257D01*
X135896625Y-91211624D01*
X136907312Y-91317353D01*
X137297699Y-91363005D01*
X137618005Y-91409626D01*
X137835627Y-91451816D01*
X137917957Y-91484174D01*
X137918000Y-91484752D01*
X137853321Y-91548884D01*
X137673390Y-91697373D01*
X137399366Y-91914245D01*
X137052407Y-92183528D01*
X136653671Y-92489249D01*
X136224318Y-92815434D01*
X135785506Y-93146111D01*
X135358393Y-93465308D01*
X134964138Y-93757051D01*
X134623900Y-94005367D01*
X134358837Y-94194284D01*
X134190107Y-94307829D01*
X134145725Y-94332484D01*
X134017174Y-94308226D01*
X133974530Y-94248003D01*
X133995319Y-94120496D01*
X134096355Y-93877777D01*
X134265390Y-93546477D01*
X134436160Y-93244386D01*
X134948020Y-92371667D01*
X134274409Y-92347082D01*
X133600799Y-92322498D01*
X134193066Y-91439738D01*
X134417727Y-91101771D01*
X134603255Y-90816744D01*
X134731631Y-90612769D01*
X134784840Y-90517963D01*
X134785334Y-90515531D01*
X134707800Y-90491961D01*
X134503619Y-90468684D01*
X134215415Y-90450426D01*
X134187247Y-90449209D01*
X133589161Y-90424333D01*
X134446283Y-89281333D01*
X135303404Y-88138333D01*
X131328962Y-88116344D01*
X127354519Y-88094354D01*
X126701115Y-88539677D01*
X126047710Y-88985000D01*
X126564188Y-89105555D01*
X126832085Y-89175210D01*
X127018771Y-89237360D01*
X127080658Y-89274889D01*
X127029023Y-89355254D01*
X126889139Y-89535417D01*
X126683530Y-89787100D01*
X126480325Y-90028611D01*
X126240909Y-90314676D01*
X126052310Y-90549497D01*
X125935680Y-90706097D01*
X125908833Y-90757484D01*
X125999184Y-90775968D01*
X126224158Y-90808739D01*
X126550101Y-90851207D01*
X126943358Y-90898783D01*
X126953667Y-90899987D01*
X127969667Y-91018560D01*
X126082585Y-92439850D01*
X125586061Y-92812238D01*
X125129622Y-93151558D01*
X124731856Y-93444230D01*
X124411355Y-93676673D01*
X124186708Y-93835307D01*
X124076504Y-93906549D01*
X124072466Y-93908355D01*
X123944108Y-93914734D01*
X123919461Y-93794590D01*
X123998978Y-93546286D01*
X124183112Y-93168189D01*
X124369945Y-92833282D01*
X124881537Y-91948333D01*
X124245435Y-91923605D01*
X123941621Y-91906710D01*
X123716762Y-91884518D01*
X123612193Y-91861339D01*
X123609334Y-91857283D01*
X123653845Y-91775161D01*
X123775366Y-91581007D01*
X123955877Y-91302943D01*
X124177361Y-90969092D01*
X124201510Y-90933063D01*
X124793687Y-90050438D01*
X123505685Y-90001000D01*
X124960573Y-88111022D01*
X122443453Y-88074906D01*
X121643550Y-88061862D01*
X120988817Y-88045503D01*
X120455091Y-88022088D01*
X120018208Y-87987877D01*
X119654005Y-87939129D01*
X119338319Y-87872102D01*
X119046987Y-87783057D01*
X118755846Y-87668252D01*
X118440733Y-87523946D01*
X118233000Y-87423067D01*
X117507491Y-86978512D01*
X116882730Y-86415168D01*
X116376414Y-85754294D01*
X116006242Y-85017144D01*
X115864974Y-84578815D01*
X115779462Y-84090158D01*
X115742067Y-83512852D01*
X115746491Y-83270000D01*
X117220964Y-83270000D01*
X117236276Y-83662205D01*
X117273159Y-84043190D01*
X117324202Y-84340405D01*
X117334216Y-84379032D01*
X117560375Y-84895308D01*
X117928339Y-85385363D01*
X118410580Y-85822372D01*
X118979572Y-86179510D01*
X119350699Y-86344122D01*
X119841667Y-86529667D01*
X130848334Y-86572000D01*
X132483213Y-86578257D01*
X133957558Y-86583767D01*
X135280163Y-86588464D01*
X136459827Y-86592278D01*
X137505345Y-86595144D01*
X138425515Y-86596993D01*
X139229132Y-86597757D01*
X139924993Y-86597370D01*
X140521896Y-86595765D01*
X141028636Y-86592872D01*
X141454011Y-86588626D01*
X141806817Y-86582958D01*
X142095850Y-86575802D01*
X142329907Y-86567089D01*
X142517785Y-86556752D01*
X142668281Y-86544724D01*
X142790191Y-86530937D01*
X142892311Y-86515323D01*
X142983439Y-86497816D01*
X143072371Y-86478348D01*
X143072879Y-86478233D01*
X143668557Y-86272824D01*
X144225443Y-85926877D01*
X144534026Y-85663558D01*
X144786412Y-85402537D01*
X144913452Y-85180886D01*
X144929880Y-84942836D01*
X144850431Y-84632617D01*
X144825502Y-84560318D01*
X144642017Y-84135817D01*
X144427227Y-83791881D01*
X144203390Y-83558883D01*
X144027695Y-83471705D01*
X143899470Y-83426354D01*
X143796513Y-83326535D01*
X143694546Y-83137231D01*
X143569289Y-82823425D01*
X143558893Y-82795544D01*
X143324906Y-82166345D01*
X143667419Y-81777230D01*
X143935701Y-81407864D01*
X144062957Y-81043443D01*
X144063417Y-80628635D01*
X144022803Y-80395497D01*
X143895141Y-79980876D01*
X143691566Y-79524771D01*
X143435883Y-79064971D01*
X143151896Y-78639269D01*
X142863412Y-78285457D01*
X142594235Y-78041324D01*
X142505727Y-77987092D01*
X142161667Y-77842689D01*
X141702856Y-77695873D01*
X141182994Y-77561482D01*
X140655783Y-77454349D01*
X140469545Y-77424580D01*
X140153118Y-77370730D01*
X139913316Y-77315482D01*
X139789421Y-77268425D01*
X139780667Y-77256429D01*
X139812027Y-77152820D01*
X139895766Y-76933920D01*
X140016368Y-76639565D01*
X140071986Y-76508381D01*
X140451019Y-75539901D01*
X140707678Y-74684439D01*
X140840022Y-73935978D01*
X140846108Y-73288499D01*
X140723995Y-72735984D01*
X140471740Y-72272413D01*
X140087402Y-71891768D01*
X139569040Y-71588031D01*
X138914710Y-71355183D01*
X138368950Y-71230050D01*
X137863164Y-71163810D01*
X137237940Y-71127025D01*
X136540427Y-71118767D01*
X135817771Y-71138107D01*
X135117122Y-71184118D01*
X134485626Y-71255873D01*
X134148333Y-71313115D01*
X132787958Y-71653186D01*
X131549796Y-72107566D01*
X130429349Y-72678235D01*
X129422115Y-73367174D01*
X129348714Y-73425512D01*
X128562334Y-74057177D01*
X128489592Y-73774088D01*
X128364366Y-73297165D01*
X128264282Y-72952751D01*
X128175707Y-72708522D01*
X128085008Y-72532154D01*
X127978551Y-72391322D01*
X127852099Y-72262618D01*
X127317748Y-71859768D01*
X126665692Y-71537774D01*
X125929382Y-71301170D01*
X125142269Y-71154487D01*
X124337803Y-71102255D01*
X123549436Y-71149006D01*
X122810618Y-71299271D01*
X122260451Y-71505161D01*
X121756548Y-71771390D01*
X121370736Y-72048431D01*
X121054191Y-72375609D01*
X120866573Y-72627769D01*
X120600601Y-73058527D01*
X120411463Y-73480771D01*
X120287821Y-73937409D01*
X120218340Y-74471348D01*
X120191681Y-75125496D01*
X120191058Y-75184333D01*
X120202272Y-75845619D01*
X120254291Y-76372216D01*
X120355125Y-76795561D01*
X120512783Y-77147091D01*
X120735273Y-77458245D01*
X120784670Y-77514434D01*
X121071408Y-77831820D01*
X120987381Y-78413076D01*
X120944882Y-78718631D01*
X120914103Y-78961867D01*
X120901682Y-79090321D01*
X120901677Y-79090553D01*
X120824999Y-79158134D01*
X120631925Y-79221652D01*
X120501160Y-79246583D01*
X119857590Y-79398579D01*
X119322365Y-79654002D01*
X118857160Y-80031651D01*
X118817070Y-80072637D01*
X118388784Y-80541689D01*
X118056269Y-80968470D01*
X117778660Y-81410733D01*
X117534732Y-81884892D01*
X117376337Y-82231618D01*
X117281845Y-82499045D01*
X117235382Y-82757241D01*
X117221077Y-83076271D01*
X117220964Y-83270000D01*
X115746491Y-83270000D01*
X115752898Y-82918309D01*
X115812065Y-82377938D01*
X115861245Y-82144836D01*
X116070588Y-81539412D01*
X116381263Y-80902848D01*
X116770157Y-80265834D01*
X117214156Y-79659060D01*
X117690146Y-79113214D01*
X118175015Y-78658987D01*
X118645649Y-78327069D01*
X118795396Y-78248900D01*
X119273125Y-78024320D01*
X119076267Y-77535660D01*
X118876832Y-76923272D01*
X118755812Y-76254576D01*
X118708310Y-75492976D01*
X118717375Y-74853953D01*
X118744538Y-74350454D01*
X118786814Y-73956779D01*
X118854106Y-73613498D01*
X118956313Y-73261179D01*
X119008550Y-73106260D01*
X119389501Y-72242293D01*
X119891971Y-71495870D01*
X120513606Y-70869082D01*
X121252053Y-70364018D01*
X122104958Y-69982770D01*
X122730982Y-69799617D01*
X123091645Y-69721053D01*
X123414832Y-69672664D01*
X123754764Y-69650481D01*
X124165660Y-69650531D01*
X124583000Y-69663953D01*
X125076139Y-69693781D01*
X125558376Y-69740778D01*
X125974142Y-69798628D01*
X126234000Y-69851674D01*
X126856359Y-70053510D01*
X127492466Y-70328627D01*
X128090375Y-70650493D01*
X128598140Y-70992578D01*
X128802883Y-71163733D01*
X129054395Y-71388623D01*
X129219399Y-71513101D01*
X129332933Y-71554651D01*
X129430037Y-71530759D01*
X129480216Y-71501737D01*
X130081026Y-71165862D01*
X130807064Y-70830284D01*
X131614995Y-70511435D01*
X132461484Y-70225748D01*
X133303195Y-69989654D01*
X133727000Y-69891430D01*
X134380301Y-69782339D01*
X135139738Y-69704448D01*
X135954724Y-69659134D01*
X136774672Y-69647773D01*
X137548996Y-69671742D01*
G37*
X137548996Y-69671742D02*
X138227108Y-69732416D01*
X138436524Y-69763274D01*
X139364180Y-69963460D01*
X140147210Y-70233775D01*
X140798634Y-70582534D01*
X141331474Y-71018051D01*
X141758750Y-71548643D01*
X142041799Y-72065561D01*
X142222459Y-72627748D01*
X142308133Y-73293214D01*
X142299552Y-74025553D01*
X142197446Y-74788360D01*
X142002547Y-75545228D01*
X141969987Y-75642582D01*
X141894329Y-75901568D01*
X141863068Y-76093551D01*
X141875225Y-76163513D01*
X141983298Y-76217393D01*
X142205470Y-76303279D01*
X142494171Y-76402810D01*
X142501402Y-76405175D01*
X143095031Y-76654464D01*
X143609386Y-76999522D01*
X144082993Y-77469202D01*
X144324732Y-77770636D01*
X144847172Y-78545683D01*
X145216594Y-79285299D01*
X145440099Y-80009154D01*
X145524787Y-80736919D01*
X145519038Y-81079237D01*
X145468490Y-81547531D01*
X145372359Y-81890181D01*
X145304171Y-82027160D01*
X145125778Y-82329513D01*
X145401703Y-82630753D01*
X145573589Y-82854241D01*
X145775986Y-83169946D01*
X145969586Y-83515819D01*
X145999140Y-83573840D01*
X146270142Y-84265644D01*
X146380143Y-84933419D01*
X146327933Y-85568450D01*
X146294660Y-85702533D01*
X146135629Y-86040404D01*
X145852629Y-86414819D01*
X145477188Y-86795286D01*
X145040834Y-87151310D01*
X144575097Y-87452397D01*
X144380145Y-87554249D01*
X144044201Y-87705269D01*
X143712246Y-87826196D01*
X143360336Y-87920173D01*
X142964528Y-87990342D01*
X142500879Y-88039846D01*
X141945446Y-88071827D01*
X141274284Y-88089430D01*
X140463452Y-88095795D01*
X140252688Y-88096000D01*
X138030271Y-88096000D01*
X137148635Y-88700455D01*
X136807361Y-88935627D01*
X136515214Y-89139178D01*
X136301617Y-89290450D01*
X136195993Y-89368787D01*
X136192911Y-89371444D01*
X136228773Y-89420088D01*
X136395031Y-89482053D01*
X136637411Y-89540005D01*
X136906692Y-89599485D01*
X137094179Y-89653324D01*
X137156000Y-89686460D01*
X137104375Y-89764729D01*
X136964119Y-89943927D01*
X136757160Y-90196724D01*
X136526312Y-90471257D01*
X135896625Y-91211624D01*
X136907312Y-91317353D01*
X137297699Y-91363005D01*
X137618005Y-91409626D01*
X137835627Y-91451816D01*
X137917957Y-91484174D01*
X137918000Y-91484752D01*
X137853321Y-91548884D01*
X137673390Y-91697373D01*
X137399366Y-91914245D01*
X137052407Y-92183528D01*
X136653671Y-92489249D01*
X136224318Y-92815434D01*
X135785506Y-93146111D01*
X135358393Y-93465308D01*
X134964138Y-93757051D01*
X134623900Y-94005367D01*
X134358837Y-94194284D01*
X134190107Y-94307829D01*
X134145725Y-94332484D01*
X134017174Y-94308226D01*
X133974530Y-94248003D01*
X133995319Y-94120496D01*
X134096355Y-93877777D01*
X134265390Y-93546477D01*
X134436160Y-93244386D01*
X134948020Y-92371667D01*
X134274409Y-92347082D01*
X133600799Y-92322498D01*
X134193066Y-91439738D01*
X134417727Y-91101771D01*
X134603255Y-90816744D01*
X134731631Y-90612769D01*
X134784840Y-90517963D01*
X134785334Y-90515531D01*
X134707800Y-90491961D01*
X134503619Y-90468684D01*
X134215415Y-90450426D01*
X134187247Y-90449209D01*
X133589161Y-90424333D01*
X134446283Y-89281333D01*
X135303404Y-88138333D01*
X131328962Y-88116344D01*
X127354519Y-88094354D01*
X126701115Y-88539677D01*
X126047710Y-88985000D01*
X126564188Y-89105555D01*
X126832085Y-89175210D01*
X127018771Y-89237360D01*
X127080658Y-89274889D01*
X127029023Y-89355254D01*
X126889139Y-89535417D01*
X126683530Y-89787100D01*
X126480325Y-90028611D01*
X126240909Y-90314676D01*
X126052310Y-90549497D01*
X125935680Y-90706097D01*
X125908833Y-90757484D01*
X125999184Y-90775968D01*
X126224158Y-90808739D01*
X126550101Y-90851207D01*
X126943358Y-90898783D01*
X126953667Y-90899987D01*
X127969667Y-91018560D01*
X126082585Y-92439850D01*
X125586061Y-92812238D01*
X125129622Y-93151558D01*
X124731856Y-93444230D01*
X124411355Y-93676673D01*
X124186708Y-93835307D01*
X124076504Y-93906549D01*
X124072466Y-93908355D01*
X123944108Y-93914734D01*
X123919461Y-93794590D01*
X123998978Y-93546286D01*
X124183112Y-93168189D01*
X124369945Y-92833282D01*
X124881537Y-91948333D01*
X124245435Y-91923605D01*
X123941621Y-91906710D01*
X123716762Y-91884518D01*
X123612193Y-91861339D01*
X123609334Y-91857283D01*
X123653845Y-91775161D01*
X123775366Y-91581007D01*
X123955877Y-91302943D01*
X124177361Y-90969092D01*
X124201510Y-90933063D01*
X124793687Y-90050438D01*
X123505685Y-90001000D01*
X124960573Y-88111022D01*
X122443453Y-88074906D01*
X121643550Y-88061862D01*
X120988817Y-88045503D01*
X120455091Y-88022088D01*
X120018208Y-87987877D01*
X119654005Y-87939129D01*
X119338319Y-87872102D01*
X119046987Y-87783057D01*
X118755846Y-87668252D01*
X118440733Y-87523946D01*
X118233000Y-87423067D01*
X117507491Y-86978512D01*
X116882730Y-86415168D01*
X116376414Y-85754294D01*
X116006242Y-85017144D01*
X115864974Y-84578815D01*
X115779462Y-84090158D01*
X115742067Y-83512852D01*
X115746491Y-83270000D01*
X117220964Y-83270000D01*
X117236276Y-83662205D01*
X117273159Y-84043190D01*
X117324202Y-84340405D01*
X117334216Y-84379032D01*
X117560375Y-84895308D01*
X117928339Y-85385363D01*
X118410580Y-85822372D01*
X118979572Y-86179510D01*
X119350699Y-86344122D01*
X119841667Y-86529667D01*
X130848334Y-86572000D01*
X132483213Y-86578257D01*
X133957558Y-86583767D01*
X135280163Y-86588464D01*
X136459827Y-86592278D01*
X137505345Y-86595144D01*
X138425515Y-86596993D01*
X139229132Y-86597757D01*
X139924993Y-86597370D01*
X140521896Y-86595765D01*
X141028636Y-86592872D01*
X141454011Y-86588626D01*
X141806817Y-86582958D01*
X142095850Y-86575802D01*
X142329907Y-86567089D01*
X142517785Y-86556752D01*
X142668281Y-86544724D01*
X142790191Y-86530937D01*
X142892311Y-86515323D01*
X142983439Y-86497816D01*
X143072371Y-86478348D01*
X143072879Y-86478233D01*
X143668557Y-86272824D01*
X144225443Y-85926877D01*
X144534026Y-85663558D01*
X144786412Y-85402537D01*
X144913452Y-85180886D01*
X144929880Y-84942836D01*
X144850431Y-84632617D01*
X144825502Y-84560318D01*
X144642017Y-84135817D01*
X144427227Y-83791881D01*
X144203390Y-83558883D01*
X144027695Y-83471705D01*
X143899470Y-83426354D01*
X143796513Y-83326535D01*
X143694546Y-83137231D01*
X143569289Y-82823425D01*
X143558893Y-82795544D01*
X143324906Y-82166345D01*
X143667419Y-81777230D01*
X143935701Y-81407864D01*
X144062957Y-81043443D01*
X144063417Y-80628635D01*
X144022803Y-80395497D01*
X143895141Y-79980876D01*
X143691566Y-79524771D01*
X143435883Y-79064971D01*
X143151896Y-78639269D01*
X142863412Y-78285457D01*
X142594235Y-78041324D01*
X142505727Y-77987092D01*
X142161667Y-77842689D01*
X141702856Y-77695873D01*
X141182994Y-77561482D01*
X140655783Y-77454349D01*
X140469545Y-77424580D01*
X140153118Y-77370730D01*
X139913316Y-77315482D01*
X139789421Y-77268425D01*
X139780667Y-77256429D01*
X139812027Y-77152820D01*
X139895766Y-76933920D01*
X140016368Y-76639565D01*
X140071986Y-76508381D01*
X140451019Y-75539901D01*
X140707678Y-74684439D01*
X140840022Y-73935978D01*
X140846108Y-73288499D01*
X140723995Y-72735984D01*
X140471740Y-72272413D01*
X140087402Y-71891768D01*
X139569040Y-71588031D01*
X138914710Y-71355183D01*
X138368950Y-71230050D01*
X137863164Y-71163810D01*
X137237940Y-71127025D01*
X136540427Y-71118767D01*
X135817771Y-71138107D01*
X135117122Y-71184118D01*
X134485626Y-71255873D01*
X134148333Y-71313115D01*
X132787958Y-71653186D01*
X131549796Y-72107566D01*
X130429349Y-72678235D01*
X129422115Y-73367174D01*
X129348714Y-73425512D01*
X128562334Y-74057177D01*
X128489592Y-73774088D01*
X128364366Y-73297165D01*
X128264282Y-72952751D01*
X128175707Y-72708522D01*
X128085008Y-72532154D01*
X127978551Y-72391322D01*
X127852099Y-72262618D01*
X127317748Y-71859768D01*
X126665692Y-71537774D01*
X125929382Y-71301170D01*
X125142269Y-71154487D01*
X124337803Y-71102255D01*
X123549436Y-71149006D01*
X122810618Y-71299271D01*
X122260451Y-71505161D01*
X121756548Y-71771390D01*
X121370736Y-72048431D01*
X121054191Y-72375609D01*
X120866573Y-72627769D01*
X120600601Y-73058527D01*
X120411463Y-73480771D01*
X120287821Y-73937409D01*
X120218340Y-74471348D01*
X120191681Y-75125496D01*
X120191058Y-75184333D01*
X120202272Y-75845619D01*
X120254291Y-76372216D01*
X120355125Y-76795561D01*
X120512783Y-77147091D01*
X120735273Y-77458245D01*
X120784670Y-77514434D01*
X121071408Y-77831820D01*
X120987381Y-78413076D01*
X120944882Y-78718631D01*
X120914103Y-78961867D01*
X120901682Y-79090321D01*
X120901677Y-79090553D01*
X120824999Y-79158134D01*
X120631925Y-79221652D01*
X120501160Y-79246583D01*
X119857590Y-79398579D01*
X119322365Y-79654002D01*
X118857160Y-80031651D01*
X118817070Y-80072637D01*
X118388784Y-80541689D01*
X118056269Y-80968470D01*
X117778660Y-81410733D01*
X117534732Y-81884892D01*
X117376337Y-82231618D01*
X117281845Y-82499045D01*
X117235382Y-82757241D01*
X117221077Y-83076271D01*
X117220964Y-83270000D01*
X115746491Y-83270000D01*
X115752898Y-82918309D01*
X115812065Y-82377938D01*
X115861245Y-82144836D01*
X116070588Y-81539412D01*
X116381263Y-80902848D01*
X116770157Y-80265834D01*
X117214156Y-79659060D01*
X117690146Y-79113214D01*
X118175015Y-78658987D01*
X118645649Y-78327069D01*
X118795396Y-78248900D01*
X119273125Y-78024320D01*
X119076267Y-77535660D01*
X118876832Y-76923272D01*
X118755812Y-76254576D01*
X118708310Y-75492976D01*
X118717375Y-74853953D01*
X118744538Y-74350454D01*
X118786814Y-73956779D01*
X118854106Y-73613498D01*
X118956313Y-73261179D01*
X119008550Y-73106260D01*
X119389501Y-72242293D01*
X119891971Y-71495870D01*
X120513606Y-70869082D01*
X121252053Y-70364018D01*
X122104958Y-69982770D01*
X122730982Y-69799617D01*
X123091645Y-69721053D01*
X123414832Y-69672664D01*
X123754764Y-69650481D01*
X124165660Y-69650531D01*
X124583000Y-69663953D01*
X125076139Y-69693781D01*
X125558376Y-69740778D01*
X125974142Y-69798628D01*
X126234000Y-69851674D01*
X126856359Y-70053510D01*
X127492466Y-70328627D01*
X128090375Y-70650493D01*
X128598140Y-70992578D01*
X128802883Y-71163733D01*
X129054395Y-71388623D01*
X129219399Y-71513101D01*
X129332933Y-71554651D01*
X129430037Y-71530759D01*
X129480216Y-71501737D01*
X130081026Y-71165862D01*
X130807064Y-70830284D01*
X131614995Y-70511435D01*
X132461484Y-70225748D01*
X133303195Y-69989654D01*
X133727000Y-69891430D01*
X134380301Y-69782339D01*
X135139738Y-69704448D01*
X135954724Y-69659134D01*
X136774672Y-69647773D01*
X137548996Y-69671742D01*
G36*
X131064839Y-82249825D02*
G01*
X131267612Y-82500158D01*
X131386579Y-82859140D01*
X131382204Y-83196777D01*
X131269644Y-83481366D01*
X131064054Y-83681203D01*
X130780593Y-83764584D01*
X130665143Y-83760313D01*
X130364649Y-83725232D01*
X130407935Y-84047949D01*
X130424173Y-84259697D01*
X130384938Y-84352061D01*
X130289944Y-84370667D01*
X130156528Y-84359940D01*
X130128667Y-84346282D01*
X130118811Y-84257847D01*
X130091959Y-84034834D01*
X130052183Y-83710686D01*
X130003556Y-83318842D01*
X130002343Y-83309115D01*
X129958377Y-82955086D01*
X130301877Y-82955086D01*
X130339930Y-83211621D01*
X130431048Y-83390952D01*
X130643981Y-83510832D01*
X130863606Y-83488881D01*
X130958400Y-83422400D01*
X131034072Y-83252697D01*
X131056778Y-82997667D01*
X131025250Y-82733232D01*
X130972355Y-82587100D01*
X130819654Y-82456965D01*
X130605953Y-82429795D01*
X130410885Y-82514234D01*
X130399600Y-82524933D01*
X130320825Y-82700254D01*
X130301877Y-82955086D01*
X129958377Y-82955086D01*
X129953491Y-82915748D01*
X129913310Y-82588963D01*
X129885898Y-82362324D01*
X129875355Y-82269396D01*
X129875343Y-82269107D01*
X129946281Y-82254969D01*
X130065167Y-82260751D01*
X130286634Y-82242567D01*
X130488500Y-82184239D01*
X130794447Y-82138149D01*
X131064839Y-82249825D01*
G37*
X131064839Y-82249825D02*
X131267612Y-82500158D01*
X131386579Y-82859140D01*
X131382204Y-83196777D01*
X131269644Y-83481366D01*
X131064054Y-83681203D01*
X130780593Y-83764584D01*
X130665143Y-83760313D01*
X130364649Y-83725232D01*
X130407935Y-84047949D01*
X130424173Y-84259697D01*
X130384938Y-84352061D01*
X130289944Y-84370667D01*
X130156528Y-84359940D01*
X130128667Y-84346282D01*
X130118811Y-84257847D01*
X130091959Y-84034834D01*
X130052183Y-83710686D01*
X130003556Y-83318842D01*
X130002343Y-83309115D01*
X129958377Y-82955086D01*
X130301877Y-82955086D01*
X130339930Y-83211621D01*
X130431048Y-83390952D01*
X130643981Y-83510832D01*
X130863606Y-83488881D01*
X130958400Y-83422400D01*
X131034072Y-83252697D01*
X131056778Y-82997667D01*
X131025250Y-82733232D01*
X130972355Y-82587100D01*
X130819654Y-82456965D01*
X130605953Y-82429795D01*
X130410885Y-82514234D01*
X130399600Y-82524933D01*
X130320825Y-82700254D01*
X130301877Y-82955086D01*
X129958377Y-82955086D01*
X129953491Y-82915748D01*
X129913310Y-82588963D01*
X129885898Y-82362324D01*
X129875355Y-82269396D01*
X129875343Y-82269107D01*
X129946281Y-82254969D01*
X130065167Y-82260751D01*
X130286634Y-82242567D01*
X130488500Y-82184239D01*
X130794447Y-82138149D01*
X131064839Y-82249825D01*
G36*
X129128901Y-82046745D02*
G01*
X129321630Y-82228412D01*
X129461937Y-82551757D01*
X129541612Y-83008327D01*
X129548577Y-83099220D01*
X129556715Y-83376153D01*
X129529968Y-83525141D01*
X129459673Y-83585532D01*
X129440451Y-83590281D01*
X129356537Y-83571519D01*
X129299165Y-83454497D01*
X129254966Y-83207473D01*
X129244921Y-83126061D01*
X129206534Y-82832994D01*
X129168294Y-82594719D01*
X129146747Y-82494655D01*
X129027084Y-82333838D01*
X128826485Y-82296607D01*
X128671555Y-82348181D01*
X128582643Y-82410762D01*
X128535853Y-82505823D01*
X128524185Y-82674655D01*
X128540640Y-82958551D01*
X128549609Y-83067544D01*
X128573052Y-83388554D01*
X128572013Y-83576330D01*
X128540705Y-83665938D01*
X128473340Y-83692443D01*
X128446315Y-83693333D01*
X128353234Y-83663441D01*
X128293424Y-83549526D01*
X128251586Y-83315235D01*
X128238507Y-83199499D01*
X128191244Y-82827886D01*
X128134433Y-82595301D01*
X128054063Y-82471499D01*
X127936121Y-82426233D01*
X127878921Y-82423333D01*
X127692920Y-82477186D01*
X127577490Y-82649154D01*
X127526158Y-82954848D01*
X127525613Y-83275777D01*
X127519390Y-83567630D01*
X127482283Y-83769966D01*
X127425555Y-83862082D01*
X127360469Y-83823278D01*
X127307939Y-83675854D01*
X127276504Y-83495706D01*
X127238821Y-83208320D01*
X127202935Y-82875190D01*
X127202232Y-82867877D01*
X127174223Y-82552369D01*
X127171205Y-82370027D01*
X127201555Y-82285497D01*
X127273647Y-82263429D01*
X127344898Y-82265721D01*
X127580656Y-82242041D01*
X127766349Y-82187980D01*
X128015159Y-82144763D01*
X128189682Y-82202449D01*
X128358278Y-82259199D01*
X128513065Y-82212836D01*
X128619024Y-82142259D01*
X128891962Y-82015210D01*
X129128901Y-82046745D01*
G37*
X129128901Y-82046745D02*
X129321630Y-82228412D01*
X129461937Y-82551757D01*
X129541612Y-83008327D01*
X129548577Y-83099220D01*
X129556715Y-83376153D01*
X129529968Y-83525141D01*
X129459673Y-83585532D01*
X129440451Y-83590281D01*
X129356537Y-83571519D01*
X129299165Y-83454497D01*
X129254966Y-83207473D01*
X129244921Y-83126061D01*
X129206534Y-82832994D01*
X129168294Y-82594719D01*
X129146747Y-82494655D01*
X129027084Y-82333838D01*
X128826485Y-82296607D01*
X128671555Y-82348181D01*
X128582643Y-82410762D01*
X128535853Y-82505823D01*
X128524185Y-82674655D01*
X128540640Y-82958551D01*
X128549609Y-83067544D01*
X128573052Y-83388554D01*
X128572013Y-83576330D01*
X128540705Y-83665938D01*
X128473340Y-83692443D01*
X128446315Y-83693333D01*
X128353234Y-83663441D01*
X128293424Y-83549526D01*
X128251586Y-83315235D01*
X128238507Y-83199499D01*
X128191244Y-82827886D01*
X128134433Y-82595301D01*
X128054063Y-82471499D01*
X127936121Y-82426233D01*
X127878921Y-82423333D01*
X127692920Y-82477186D01*
X127577490Y-82649154D01*
X127526158Y-82954848D01*
X127525613Y-83275777D01*
X127519390Y-83567630D01*
X127482283Y-83769966D01*
X127425555Y-83862082D01*
X127360469Y-83823278D01*
X127307939Y-83675854D01*
X127276504Y-83495706D01*
X127238821Y-83208320D01*
X127202935Y-82875190D01*
X127202232Y-82867877D01*
X127174223Y-82552369D01*
X127171205Y-82370027D01*
X127201555Y-82285497D01*
X127273647Y-82263429D01*
X127344898Y-82265721D01*
X127580656Y-82242041D01*
X127766349Y-82187980D01*
X128015159Y-82144763D01*
X128189682Y-82202449D01*
X128358278Y-82259199D01*
X128513065Y-82212836D01*
X128619024Y-82142259D01*
X128891962Y-82015210D01*
X129128901Y-82046745D01*
G36*
X137239944Y-82187800D02*
G01*
X137240667Y-82254000D01*
X137179937Y-82396605D01*
X137081700Y-82423333D01*
X136895335Y-82472574D01*
X136784274Y-82632420D01*
X136740940Y-82921054D01*
X136747793Y-83224686D01*
X136755315Y-83558701D01*
X136718542Y-83756315D01*
X136627177Y-83847009D01*
X136524983Y-83862667D01*
X136501907Y-83786692D01*
X136468808Y-83591444D01*
X136445377Y-83418167D01*
X136401334Y-83072352D01*
X136355110Y-82723306D01*
X136339069Y-82606367D01*
X136314120Y-82379434D01*
X136336206Y-82276436D01*
X136423914Y-82254381D01*
X136489101Y-82259344D01*
X136718157Y-82241943D01*
X136928679Y-82182143D01*
X137128610Y-82105506D01*
X137217280Y-82103917D01*
X137239944Y-82187800D01*
G37*
X137239944Y-82187800D02*
X137240667Y-82254000D01*
X137179937Y-82396605D01*
X137081700Y-82423333D01*
X136895335Y-82472574D01*
X136784274Y-82632420D01*
X136740940Y-82921054D01*
X136747793Y-83224686D01*
X136755315Y-83558701D01*
X136718542Y-83756315D01*
X136627177Y-83847009D01*
X136524983Y-83862667D01*
X136501907Y-83786692D01*
X136468808Y-83591444D01*
X136445377Y-83418167D01*
X136401334Y-83072352D01*
X136355110Y-82723306D01*
X136339069Y-82606367D01*
X136314120Y-82379434D01*
X136336206Y-82276436D01*
X136423914Y-82254381D01*
X136489101Y-82259344D01*
X136718157Y-82241943D01*
X136928679Y-82182143D01*
X137128610Y-82105506D01*
X137217280Y-82103917D01*
X137239944Y-82187800D01*
G36*
X124861973Y-82150321D02*
G01*
X125012047Y-82216810D01*
X125048667Y-82306203D01*
X124975271Y-82391963D01*
X124749571Y-82423108D01*
X124720367Y-82423333D01*
X124413560Y-82474081D01*
X124235252Y-82629991D01*
X124181995Y-82896565D01*
X124230139Y-83205210D01*
X124358347Y-83409706D01*
X124582837Y-83506893D01*
X124856838Y-83480070D01*
X124924887Y-83453271D01*
X125109109Y-83414154D01*
X125199548Y-83472651D01*
X125166389Y-83590215D01*
X125087753Y-83663844D01*
X124890550Y-83738376D01*
X124612757Y-83769993D01*
X124338961Y-83753084D01*
X124221385Y-83721333D01*
X124052674Y-83571598D01*
X123935684Y-83313382D01*
X123880306Y-83002287D01*
X123896429Y-82693916D01*
X123993944Y-82443872D01*
X123994127Y-82443610D01*
X124158275Y-82298511D01*
X124388614Y-82197227D01*
X124638671Y-82145811D01*
X124861973Y-82150321D01*
G37*
X124861973Y-82150321D02*
X125012047Y-82216810D01*
X125048667Y-82306203D01*
X124975271Y-82391963D01*
X124749571Y-82423108D01*
X124720367Y-82423333D01*
X124413560Y-82474081D01*
X124235252Y-82629991D01*
X124181995Y-82896565D01*
X124230139Y-83205210D01*
X124358347Y-83409706D01*
X124582837Y-83506893D01*
X124856838Y-83480070D01*
X124924887Y-83453271D01*
X125109109Y-83414154D01*
X125199548Y-83472651D01*
X125166389Y-83590215D01*
X125087753Y-83663844D01*
X124890550Y-83738376D01*
X124612757Y-83769993D01*
X124338961Y-83753084D01*
X124221385Y-83721333D01*
X124052674Y-83571598D01*
X123935684Y-83313382D01*
X123880306Y-83002287D01*
X123896429Y-82693916D01*
X123993944Y-82443872D01*
X123994127Y-82443610D01*
X124158275Y-82298511D01*
X124388614Y-82197227D01*
X124638671Y-82145811D01*
X124861973Y-82150321D01*
G36*
X126467446Y-82236420D02*
G01*
X126691214Y-82435851D01*
X126808407Y-82764885D01*
X126826667Y-83012659D01*
X126801315Y-83307687D01*
X126709921Y-83507187D01*
X126630710Y-83593908D01*
X126384710Y-83727524D01*
X126067915Y-83776085D01*
X125762193Y-83727809D01*
X125745385Y-83721333D01*
X125602613Y-83588918D01*
X125479302Y-83347671D01*
X125401436Y-83057971D01*
X125389934Y-82920433D01*
X125726000Y-82920433D01*
X125777592Y-83212068D01*
X125910129Y-83414562D01*
X126090251Y-83509384D01*
X126284601Y-83478002D01*
X126447578Y-83321298D01*
X126536037Y-83070949D01*
X126516296Y-82807670D01*
X126407085Y-82581814D01*
X126227134Y-82443735D01*
X126113567Y-82423333D01*
X125882426Y-82486208D01*
X125755455Y-82678464D01*
X125726000Y-82920433D01*
X125389934Y-82920433D01*
X125387334Y-82889356D01*
X125460671Y-82554428D01*
X125664643Y-82311409D01*
X125975189Y-82183335D01*
X126139340Y-82169333D01*
X126467446Y-82236420D01*
G37*
X126467446Y-82236420D02*
X126691214Y-82435851D01*
X126808407Y-82764885D01*
X126826667Y-83012659D01*
X126801315Y-83307687D01*
X126709921Y-83507187D01*
X126630710Y-83593908D01*
X126384710Y-83727524D01*
X126067915Y-83776085D01*
X125762193Y-83727809D01*
X125745385Y-83721333D01*
X125602613Y-83588918D01*
X125479302Y-83347671D01*
X125401436Y-83057971D01*
X125389934Y-82920433D01*
X125726000Y-82920433D01*
X125777592Y-83212068D01*
X125910129Y-83414562D01*
X126090251Y-83509384D01*
X126284601Y-83478002D01*
X126447578Y-83321298D01*
X126536037Y-83070949D01*
X126516296Y-82807670D01*
X126407085Y-82581814D01*
X126227134Y-82443735D01*
X126113567Y-82423333D01*
X125882426Y-82486208D01*
X125755455Y-82678464D01*
X125726000Y-82920433D01*
X125389934Y-82920433D01*
X125387334Y-82889356D01*
X125460671Y-82554428D01*
X125664643Y-82311409D01*
X125975189Y-82183335D01*
X126139340Y-82169333D01*
X126467446Y-82236420D01*
G36*
X132937628Y-82128085D02*
G01*
X132996715Y-82265452D01*
X133040092Y-82525161D01*
X133084402Y-82872836D01*
X133131022Y-83224640D01*
X133147619Y-83345553D01*
X133174266Y-83573992D01*
X133154760Y-83675393D01*
X133067787Y-83690223D01*
X132974400Y-83674408D01*
X132793355Y-83666635D01*
X132703983Y-83704688D01*
X132597946Y-83751213D01*
X132389984Y-83776483D01*
X132320683Y-83778000D01*
X132092659Y-83761441D01*
X131965598Y-83684318D01*
X131872242Y-83505459D01*
X131871176Y-83502833D01*
X131798058Y-83259334D01*
X131732865Y-82937073D01*
X131705423Y-82740833D01*
X131680393Y-82466074D01*
X131689211Y-82319558D01*
X131740116Y-82262142D01*
X131807912Y-82254000D01*
X131897535Y-82282687D01*
X131960580Y-82391542D01*
X132011227Y-82614760D01*
X132041485Y-82817244D01*
X132123983Y-83216462D01*
X132241779Y-83452838D01*
X132397513Y-83529685D01*
X132562834Y-83471324D01*
X132643292Y-83385121D01*
X132690105Y-83228021D01*
X132711396Y-82961698D01*
X132715186Y-82752444D01*
X132724783Y-82416961D01*
X132752575Y-82217929D01*
X132805396Y-82122848D01*
X132851914Y-82102181D01*
X132937628Y-82128085D01*
G37*
X132937628Y-82128085D02*
X132996715Y-82265452D01*
X133040092Y-82525161D01*
X133084402Y-82872836D01*
X133131022Y-83224640D01*
X133147619Y-83345553D01*
X133174266Y-83573992D01*
X133154760Y-83675393D01*
X133067787Y-83690223D01*
X132974400Y-83674408D01*
X132793355Y-83666635D01*
X132703983Y-83704688D01*
X132597946Y-83751213D01*
X132389984Y-83776483D01*
X132320683Y-83778000D01*
X132092659Y-83761441D01*
X131965598Y-83684318D01*
X131872242Y-83505459D01*
X131871176Y-83502833D01*
X131798058Y-83259334D01*
X131732865Y-82937073D01*
X131705423Y-82740833D01*
X131680393Y-82466074D01*
X131689211Y-82319558D01*
X131740116Y-82262142D01*
X131807912Y-82254000D01*
X131897535Y-82282687D01*
X131960580Y-82391542D01*
X132011227Y-82614760D01*
X132041485Y-82817244D01*
X132123983Y-83216462D01*
X132241779Y-83452838D01*
X132397513Y-83529685D01*
X132562834Y-83471324D01*
X132643292Y-83385121D01*
X132690105Y-83228021D01*
X132711396Y-82961698D01*
X132715186Y-82752444D01*
X132724783Y-82416961D01*
X132752575Y-82217929D01*
X132805396Y-82122848D01*
X132851914Y-82102181D01*
X132937628Y-82128085D01*
G36*
X133741504Y-81890535D02*
G01*
X133769334Y-82000000D01*
X133809249Y-82123947D01*
X133957766Y-82167586D01*
X134023334Y-82169333D01*
X134224986Y-82207197D01*
X134277334Y-82296333D01*
X134203733Y-82398476D01*
X134065667Y-82423333D01*
X133932360Y-82440268D01*
X133871305Y-82522060D01*
X133855311Y-82715186D01*
X133855156Y-82783167D01*
X133871318Y-83149324D01*
X133925728Y-83376114D01*
X134031562Y-83491640D01*
X134201997Y-83524000D01*
X134202542Y-83524000D01*
X134396908Y-83563144D01*
X134446667Y-83651000D01*
X134376208Y-83742455D01*
X134205060Y-83783245D01*
X133993568Y-83775073D01*
X133802075Y-83719640D01*
X133696212Y-83629833D01*
X133642314Y-83466213D01*
X133587386Y-83202045D01*
X133556477Y-82994833D01*
X133498160Y-82678465D01*
X133421495Y-82525218D01*
X133378578Y-82508000D01*
X133274849Y-82440016D01*
X133261334Y-82381000D01*
X133307051Y-82268328D01*
X133346000Y-82254000D01*
X133409646Y-82181544D01*
X133430667Y-82042333D01*
X133470354Y-81876352D01*
X133600000Y-81830667D01*
X133741504Y-81890535D01*
G37*
X133741504Y-81890535D02*
X133769334Y-82000000D01*
X133809249Y-82123947D01*
X133957766Y-82167586D01*
X134023334Y-82169333D01*
X134224986Y-82207197D01*
X134277334Y-82296333D01*
X134203733Y-82398476D01*
X134065667Y-82423333D01*
X133932360Y-82440268D01*
X133871305Y-82522060D01*
X133855311Y-82715186D01*
X133855156Y-82783167D01*
X133871318Y-83149324D01*
X133925728Y-83376114D01*
X134031562Y-83491640D01*
X134201997Y-83524000D01*
X134202542Y-83524000D01*
X134396908Y-83563144D01*
X134446667Y-83651000D01*
X134376208Y-83742455D01*
X134205060Y-83783245D01*
X133993568Y-83775073D01*
X133802075Y-83719640D01*
X133696212Y-83629833D01*
X133642314Y-83466213D01*
X133587386Y-83202045D01*
X133556477Y-82994833D01*
X133498160Y-82678465D01*
X133421495Y-82525218D01*
X133378578Y-82508000D01*
X133274849Y-82440016D01*
X133261334Y-82381000D01*
X133307051Y-82268328D01*
X133346000Y-82254000D01*
X133409646Y-82181544D01*
X133430667Y-82042333D01*
X133470354Y-81876352D01*
X133600000Y-81830667D01*
X133741504Y-81890535D01*
G36*
X135610231Y-82214777D02*
G01*
X135833632Y-82364171D01*
X135960747Y-82600605D01*
X136017762Y-82835834D01*
X135964769Y-82964425D01*
X135778513Y-83018027D01*
X135648170Y-83026017D01*
X135363846Y-83048176D01*
X135107779Y-83087909D01*
X135100590Y-83089517D01*
X134940461Y-83137113D01*
X134922207Y-83210515D01*
X135006283Y-83343102D01*
X135136706Y-83477730D01*
X135307103Y-83513520D01*
X135453027Y-83499611D01*
X135701614Y-83453765D01*
X135895595Y-83400739D01*
X135907167Y-83396284D01*
X136028735Y-83388288D01*
X136055334Y-83474704D01*
X135980288Y-83613594D01*
X135787566Y-83713181D01*
X135525786Y-83766085D01*
X135243568Y-83764930D01*
X134989530Y-83702336D01*
X134895318Y-83650737D01*
X134720340Y-83446639D01*
X134598672Y-83157381D01*
X134558539Y-82863597D01*
X134577271Y-82742162D01*
X134577490Y-82741751D01*
X134885219Y-82741751D01*
X134893337Y-82823627D01*
X135007086Y-82844488D01*
X135251551Y-82816091D01*
X135396453Y-82792764D01*
X135596647Y-82748191D01*
X135661275Y-82686418D01*
X135626307Y-82582029D01*
X135475452Y-82455010D01*
X135260058Y-82423041D01*
X135055339Y-82485553D01*
X134957646Y-82587100D01*
X134885219Y-82741751D01*
X134577490Y-82741751D01*
X134743117Y-82431592D01*
X135000127Y-82230698D01*
X135271325Y-82169333D01*
X135610231Y-82214777D01*
G37*
X135610231Y-82214777D02*
X135833632Y-82364171D01*
X135960747Y-82600605D01*
X136017762Y-82835834D01*
X135964769Y-82964425D01*
X135778513Y-83018027D01*
X135648170Y-83026017D01*
X135363846Y-83048176D01*
X135107779Y-83087909D01*
X135100590Y-83089517D01*
X134940461Y-83137113D01*
X134922207Y-83210515D01*
X135006283Y-83343102D01*
X135136706Y-83477730D01*
X135307103Y-83513520D01*
X135453027Y-83499611D01*
X135701614Y-83453765D01*
X135895595Y-83400739D01*
X135907167Y-83396284D01*
X136028735Y-83388288D01*
X136055334Y-83474704D01*
X135980288Y-83613594D01*
X135787566Y-83713181D01*
X135525786Y-83766085D01*
X135243568Y-83764930D01*
X134989530Y-83702336D01*
X134895318Y-83650737D01*
X134720340Y-83446639D01*
X134598672Y-83157381D01*
X134558539Y-82863597D01*
X134577271Y-82742162D01*
X134577490Y-82741751D01*
X134885219Y-82741751D01*
X134893337Y-82823627D01*
X135007086Y-82844488D01*
X135251551Y-82816091D01*
X135396453Y-82792764D01*
X135596647Y-82748191D01*
X135661275Y-82686418D01*
X135626307Y-82582029D01*
X135475452Y-82455010D01*
X135260058Y-82423041D01*
X135055339Y-82485553D01*
X134957646Y-82587100D01*
X134885219Y-82741751D01*
X134577490Y-82741751D01*
X134743117Y-82431592D01*
X135000127Y-82230698D01*
X135271325Y-82169333D01*
X135610231Y-82214777D01*
G36*
X127972557Y-78929916D02*
G01*
X128201575Y-79121272D01*
X128333702Y-79400067D01*
X128350667Y-79557981D01*
X128350667Y-79815852D01*
X127758000Y-79756333D01*
X127441360Y-79730379D01*
X127259205Y-79734140D01*
X127178732Y-79771101D01*
X127165334Y-79819285D01*
X127241385Y-80015822D01*
X127441871Y-80154649D01*
X127725292Y-80211807D01*
X127838439Y-80207892D01*
X128061096Y-80199225D01*
X128160944Y-80239961D01*
X128181334Y-80325596D01*
X128152449Y-80416372D01*
X128039668Y-80461865D01*
X127803800Y-80475786D01*
X127751487Y-80476000D01*
X127465057Y-80458968D01*
X127267426Y-80388166D01*
X127079797Y-80234033D01*
X127063554Y-80217913D01*
X126898681Y-80027926D01*
X126838211Y-79854762D01*
X126852077Y-79612328D01*
X126920632Y-79394463D01*
X127214034Y-79394463D01*
X127275763Y-79450232D01*
X127471662Y-79481823D01*
X127482597Y-79482975D01*
X127719627Y-79508560D01*
X127889965Y-79528333D01*
X127906167Y-79530434D01*
X128002752Y-79478226D01*
X128012000Y-79434600D01*
X127941540Y-79260745D01*
X127769423Y-79152271D01*
X127554546Y-79120741D01*
X127355806Y-79177717D01*
X127252743Y-79285542D01*
X127214034Y-79394463D01*
X126920632Y-79394463D01*
X126961242Y-79265407D01*
X127114282Y-79049233D01*
X127387897Y-78877020D01*
X127687660Y-78842873D01*
X127972557Y-78929916D01*
G37*
X127972557Y-78929916D02*
X128201575Y-79121272D01*
X128333702Y-79400067D01*
X128350667Y-79557981D01*
X128350667Y-79815852D01*
X127758000Y-79756333D01*
X127441360Y-79730379D01*
X127259205Y-79734140D01*
X127178732Y-79771101D01*
X127165334Y-79819285D01*
X127241385Y-80015822D01*
X127441871Y-80154649D01*
X127725292Y-80211807D01*
X127838439Y-80207892D01*
X128061096Y-80199225D01*
X128160944Y-80239961D01*
X128181334Y-80325596D01*
X128152449Y-80416372D01*
X128039668Y-80461865D01*
X127803800Y-80475786D01*
X127751487Y-80476000D01*
X127465057Y-80458968D01*
X127267426Y-80388166D01*
X127079797Y-80234033D01*
X127063554Y-80217913D01*
X126898681Y-80027926D01*
X126838211Y-79854762D01*
X126852077Y-79612328D01*
X126920632Y-79394463D01*
X127214034Y-79394463D01*
X127275763Y-79450232D01*
X127471662Y-79481823D01*
X127482597Y-79482975D01*
X127719627Y-79508560D01*
X127889965Y-79528333D01*
X127906167Y-79530434D01*
X128002752Y-79478226D01*
X128012000Y-79434600D01*
X127941540Y-79260745D01*
X127769423Y-79152271D01*
X127554546Y-79120741D01*
X127355806Y-79177717D01*
X127252743Y-79285542D01*
X127214034Y-79394463D01*
X126920632Y-79394463D01*
X126961242Y-79265407D01*
X127114282Y-79049233D01*
X127387897Y-78877020D01*
X127687660Y-78842873D01*
X127972557Y-78929916D01*
G36*
X130326087Y-78865357D02*
G01*
X130497755Y-78960489D01*
X130552000Y-79076904D01*
X130542130Y-79175208D01*
X130481587Y-79196439D01*
X130323975Y-79147090D01*
X130249996Y-79119177D01*
X130009505Y-79071177D01*
X129812072Y-79105231D01*
X129709887Y-79209401D01*
X129705334Y-79243767D01*
X129776495Y-79346232D01*
X129950783Y-79451266D01*
X129980500Y-79463672D01*
X130329237Y-79645513D01*
X130515283Y-79848247D01*
X130536501Y-80067396D01*
X130390755Y-80298481D01*
X130382667Y-80306667D01*
X130128841Y-80444512D01*
X129787929Y-80450550D01*
X129514834Y-80377593D01*
X129347467Y-80276883D01*
X129282000Y-80163432D01*
X129319397Y-80078977D01*
X129458065Y-80084561D01*
X129514834Y-80099193D01*
X129866397Y-80167394D01*
X130097330Y-80145430D01*
X130194859Y-80037681D01*
X130151559Y-79914821D01*
X129962124Y-79784315D01*
X129837351Y-79724942D01*
X129563620Y-79560218D01*
X129445449Y-79361417D01*
X129469129Y-79099061D01*
X129501842Y-79003561D01*
X129623062Y-78883834D01*
X129836001Y-78823347D01*
X130087922Y-78818416D01*
X130326087Y-78865357D01*
G37*
X130326087Y-78865357D02*
X130497755Y-78960489D01*
X130552000Y-79076904D01*
X130542130Y-79175208D01*
X130481587Y-79196439D01*
X130323975Y-79147090D01*
X130249996Y-79119177D01*
X130009505Y-79071177D01*
X129812072Y-79105231D01*
X129709887Y-79209401D01*
X129705334Y-79243767D01*
X129776495Y-79346232D01*
X129950783Y-79451266D01*
X129980500Y-79463672D01*
X130329237Y-79645513D01*
X130515283Y-79848247D01*
X130536501Y-80067396D01*
X130390755Y-80298481D01*
X130382667Y-80306667D01*
X130128841Y-80444512D01*
X129787929Y-80450550D01*
X129514834Y-80377593D01*
X129347467Y-80276883D01*
X129282000Y-80163432D01*
X129319397Y-80078977D01*
X129458065Y-80084561D01*
X129514834Y-80099193D01*
X129866397Y-80167394D01*
X130097330Y-80145430D01*
X130194859Y-80037681D01*
X130151559Y-79914821D01*
X129962124Y-79784315D01*
X129837351Y-79724942D01*
X129563620Y-79560218D01*
X129445449Y-79361417D01*
X129469129Y-79099061D01*
X129501842Y-79003561D01*
X129623062Y-78883834D01*
X129836001Y-78823347D01*
X130087922Y-78818416D01*
X130326087Y-78865357D01*
G36*
X131948329Y-78918566D02*
G01*
X132177622Y-79106541D01*
X132311285Y-79386932D01*
X132330000Y-79557981D01*
X132330000Y-79815852D01*
X131737334Y-79756333D01*
X131420693Y-79730379D01*
X131238538Y-79734140D01*
X131158065Y-79771101D01*
X131144667Y-79819285D01*
X131220718Y-80015822D01*
X131421204Y-80154649D01*
X131704625Y-80211807D01*
X131817772Y-80207892D01*
X132040429Y-80199225D01*
X132140278Y-80239961D01*
X132160667Y-80325596D01*
X132089194Y-80434453D01*
X131906195Y-80486498D01*
X131658802Y-80484097D01*
X131394144Y-80429614D01*
X131159354Y-80325414D01*
X131085888Y-80271664D01*
X130929276Y-80102128D01*
X130860741Y-79904832D01*
X130848334Y-79680921D01*
X130874692Y-79391298D01*
X130880880Y-79378331D01*
X131241628Y-79378331D01*
X131282559Y-79426925D01*
X131402162Y-79463320D01*
X131633245Y-79498965D01*
X131891389Y-79531117D01*
X131972518Y-79474802D01*
X131976055Y-79354167D01*
X131931539Y-79229160D01*
X131812516Y-79174463D01*
X131611493Y-79163667D01*
X131371899Y-79186033D01*
X131261537Y-79262309D01*
X131246558Y-79306088D01*
X131241628Y-79378331D01*
X130880880Y-79378331D01*
X130974626Y-79181904D01*
X131078858Y-79063991D01*
X131359727Y-78881806D01*
X131662624Y-78838493D01*
X131948329Y-78918566D01*
G37*
X131948329Y-78918566D02*
X132177622Y-79106541D01*
X132311285Y-79386932D01*
X132330000Y-79557981D01*
X132330000Y-79815852D01*
X131737334Y-79756333D01*
X131420693Y-79730379D01*
X131238538Y-79734140D01*
X131158065Y-79771101D01*
X131144667Y-79819285D01*
X131220718Y-80015822D01*
X131421204Y-80154649D01*
X131704625Y-80211807D01*
X131817772Y-80207892D01*
X132040429Y-80199225D01*
X132140278Y-80239961D01*
X132160667Y-80325596D01*
X132089194Y-80434453D01*
X131906195Y-80486498D01*
X131658802Y-80484097D01*
X131394144Y-80429614D01*
X131159354Y-80325414D01*
X131085888Y-80271664D01*
X130929276Y-80102128D01*
X130860741Y-79904832D01*
X130848334Y-79680921D01*
X130874692Y-79391298D01*
X130880880Y-79378331D01*
X131241628Y-79378331D01*
X131282559Y-79426925D01*
X131402162Y-79463320D01*
X131633245Y-79498965D01*
X131891389Y-79531117D01*
X131972518Y-79474802D01*
X131976055Y-79354167D01*
X131931539Y-79229160D01*
X131812516Y-79174463D01*
X131611493Y-79163667D01*
X131371899Y-79186033D01*
X131261537Y-79262309D01*
X131246558Y-79306088D01*
X131241628Y-79378331D01*
X130880880Y-79378331D01*
X130974626Y-79181904D01*
X131078858Y-79063991D01*
X131359727Y-78881806D01*
X131662624Y-78838493D01*
X131948329Y-78918566D01*
G36*
X134154410Y-78820178D02*
G01*
X134367196Y-78889941D01*
X134496071Y-78987342D01*
X134503910Y-79002656D01*
X134522789Y-79142330D01*
X134423112Y-79175071D01*
X134235560Y-79121546D01*
X133991981Y-79071841D01*
X133792971Y-79104393D01*
X133689588Y-79207875D01*
X133684667Y-79243767D01*
X133755828Y-79346232D01*
X133930117Y-79451266D01*
X133959834Y-79463672D01*
X134306560Y-79644048D01*
X134492594Y-79850130D01*
X134531334Y-80018655D01*
X134458393Y-80243029D01*
X134262252Y-80392740D01*
X133976935Y-80456014D01*
X133636462Y-80421077D01*
X133494167Y-80377593D01*
X133326800Y-80276883D01*
X133261334Y-80163432D01*
X133298730Y-80078977D01*
X133437398Y-80084561D01*
X133494167Y-80099193D01*
X133845730Y-80167394D01*
X134076664Y-80145430D01*
X134174193Y-80037681D01*
X134130892Y-79914821D01*
X133941458Y-79784315D01*
X133816685Y-79724942D01*
X133581612Y-79607047D01*
X133466868Y-79496513D01*
X133431768Y-79348276D01*
X133430667Y-79297379D01*
X133502483Y-79035363D01*
X133698225Y-78864364D01*
X133988334Y-78803871D01*
X134154410Y-78820178D01*
G37*
X134154410Y-78820178D02*
X134367196Y-78889941D01*
X134496071Y-78987342D01*
X134503910Y-79002656D01*
X134522789Y-79142330D01*
X134423112Y-79175071D01*
X134235560Y-79121546D01*
X133991981Y-79071841D01*
X133792971Y-79104393D01*
X133689588Y-79207875D01*
X133684667Y-79243767D01*
X133755828Y-79346232D01*
X133930117Y-79451266D01*
X133959834Y-79463672D01*
X134306560Y-79644048D01*
X134492594Y-79850130D01*
X134531334Y-80018655D01*
X134458393Y-80243029D01*
X134262252Y-80392740D01*
X133976935Y-80456014D01*
X133636462Y-80421077D01*
X133494167Y-80377593D01*
X133326800Y-80276883D01*
X133261334Y-80163432D01*
X133298730Y-80078977D01*
X133437398Y-80084561D01*
X133494167Y-80099193D01*
X133845730Y-80167394D01*
X134076664Y-80145430D01*
X134174193Y-80037681D01*
X134130892Y-79914821D01*
X133941458Y-79784315D01*
X133816685Y-79724942D01*
X133581612Y-79607047D01*
X133466868Y-79496513D01*
X133431768Y-79348276D01*
X133430667Y-79297379D01*
X133502483Y-79035363D01*
X133698225Y-78864364D01*
X133988334Y-78803871D01*
X134154410Y-78820178D01*
G36*
X129076811Y-78225672D02*
G01*
X129112789Y-78380500D01*
X129103946Y-78541441D01*
X129079963Y-78826158D01*
X129044817Y-79190177D01*
X129014319Y-79481167D01*
X128966977Y-79887120D01*
X128924871Y-80152673D01*
X128880066Y-80306248D01*
X128824626Y-80376266D01*
X128760197Y-80391333D01*
X128630284Y-80362572D01*
X128604905Y-80327833D01*
X128614786Y-80202945D01*
X128640546Y-79955301D01*
X128676913Y-79630152D01*
X128718611Y-79272748D01*
X128760365Y-78928340D01*
X128796902Y-78642179D01*
X128822026Y-78465167D01*
X128889907Y-78274838D01*
X128988691Y-78190971D01*
X129076811Y-78225672D01*
G37*
X129076811Y-78225672D02*
X129112789Y-78380500D01*
X129103946Y-78541441D01*
X129079963Y-78826158D01*
X129044817Y-79190177D01*
X129014319Y-79481167D01*
X128966977Y-79887120D01*
X128924871Y-80152673D01*
X128880066Y-80306248D01*
X128824626Y-80376266D01*
X128760197Y-80391333D01*
X128630284Y-80362572D01*
X128604905Y-80327833D01*
X128614786Y-80202945D01*
X128640546Y-79955301D01*
X128676913Y-79630152D01*
X128718611Y-79272748D01*
X128760365Y-78928340D01*
X128796902Y-78642179D01*
X128822026Y-78465167D01*
X128889907Y-78274838D01*
X128988691Y-78190971D01*
X129076811Y-78225672D01*
G36*
X133050146Y-78348192D02*
G01*
X133090065Y-78529290D01*
X133089938Y-78758745D01*
X133044363Y-78977340D01*
X133040608Y-78987408D01*
X132939748Y-79104368D01*
X132821006Y-79102004D01*
X132754490Y-78986373D01*
X132753334Y-78962583D01*
X132778060Y-78676201D01*
X132841733Y-78437294D01*
X132928591Y-78294647D01*
X132975584Y-78274667D01*
X133050146Y-78348192D01*
G37*
X133050146Y-78348192D02*
X133090065Y-78529290D01*
X133089938Y-78758745D01*
X133044363Y-78977340D01*
X133040608Y-78987408D01*
X132939748Y-79104368D01*
X132821006Y-79102004D01*
X132754490Y-78986373D01*
X132753334Y-78962583D01*
X132778060Y-78676201D01*
X132841733Y-78437294D01*
X132928591Y-78294647D01*
X132975584Y-78274667D01*
X133050146Y-78348192D01*
G36*
X126974655Y-75457542D02*
G01*
X127199974Y-75644830D01*
X127321277Y-75961855D01*
X127341346Y-76412000D01*
X127250614Y-76707376D01*
X127042478Y-76917226D01*
X126756455Y-77019662D01*
X126432060Y-76992794D01*
X126347582Y-76962464D01*
X126096882Y-76771538D01*
X125948088Y-76475313D01*
X125924423Y-76173335D01*
X126233178Y-76173335D01*
X126267868Y-76458833D01*
X126321646Y-76586899D01*
X126475259Y-76725516D01*
X126681379Y-76739089D01*
X126883110Y-76631827D01*
X126961048Y-76539617D01*
X127047849Y-76294584D01*
X127031568Y-76033933D01*
X126929936Y-75808870D01*
X126760683Y-75670602D01*
X126653014Y-75650000D01*
X126441871Y-75723341D01*
X126296552Y-75912978D01*
X126233178Y-76173335D01*
X125924423Y-76173335D01*
X125919928Y-76115987D01*
X125932702Y-76027688D01*
X126060904Y-75681624D01*
X126290388Y-75471220D01*
X126621460Y-75396203D01*
X126642575Y-75396000D01*
X126974655Y-75457542D01*
G37*
X126974655Y-75457542D02*
X127199974Y-75644830D01*
X127321277Y-75961855D01*
X127341346Y-76412000D01*
X127250614Y-76707376D01*
X127042478Y-76917226D01*
X126756455Y-77019662D01*
X126432060Y-76992794D01*
X126347582Y-76962464D01*
X126096882Y-76771538D01*
X125948088Y-76475313D01*
X125924423Y-76173335D01*
X126233178Y-76173335D01*
X126267868Y-76458833D01*
X126321646Y-76586899D01*
X126475259Y-76725516D01*
X126681379Y-76739089D01*
X126883110Y-76631827D01*
X126961048Y-76539617D01*
X127047849Y-76294584D01*
X127031568Y-76033933D01*
X126929936Y-75808870D01*
X126760683Y-75670602D01*
X126653014Y-75650000D01*
X126441871Y-75723341D01*
X126296552Y-75912978D01*
X126233178Y-76173335D01*
X125924423Y-76173335D01*
X125919928Y-76115987D01*
X125932702Y-76027688D01*
X126060904Y-75681624D01*
X126290388Y-75471220D01*
X126621460Y-75396203D01*
X126642575Y-75396000D01*
X126974655Y-75457542D01*
G36*
X129775330Y-75448455D02*
G01*
X129927666Y-75616015D01*
X130014657Y-75913975D01*
X130043914Y-76357627D01*
X130044000Y-76388505D01*
X130039609Y-76707688D01*
X130020076Y-76893078D01*
X129975866Y-76980121D01*
X129897442Y-77004265D01*
X129878228Y-77004667D01*
X129793661Y-76987569D01*
X129741074Y-76913450D01*
X129710528Y-76748072D01*
X129692082Y-76457196D01*
X129687728Y-76348500D01*
X129670972Y-76015842D01*
X129644488Y-75816445D01*
X129597447Y-75714237D01*
X129519022Y-75673149D01*
X129483053Y-75666661D01*
X129263764Y-75694213D01*
X129118651Y-75856329D01*
X129042701Y-76161755D01*
X129028000Y-76460381D01*
X129019358Y-76767137D01*
X128988508Y-76936853D01*
X128928067Y-77001175D01*
X128901000Y-77004667D01*
X128821463Y-76958708D01*
X128779129Y-76800530D01*
X128765561Y-76560167D01*
X128739748Y-76137082D01*
X128676766Y-75860153D01*
X128569646Y-75708913D01*
X128461204Y-75666349D01*
X128258784Y-75712046D01*
X128111963Y-75905447D01*
X128028542Y-76231808D01*
X128012000Y-76515505D01*
X128001568Y-76804237D01*
X127964741Y-76956551D01*
X127893226Y-77004393D01*
X127885000Y-77004667D01*
X127824460Y-76975880D01*
X127786148Y-76870596D01*
X127765582Y-76660428D01*
X127758279Y-76316989D01*
X127758000Y-76200333D01*
X127762545Y-75816915D01*
X127779169Y-75574273D01*
X127812354Y-75444019D01*
X127866581Y-75397769D01*
X127885000Y-75396000D01*
X127997647Y-75443294D01*
X128012000Y-75483645D01*
X128063828Y-75528045D01*
X128175767Y-75483645D01*
X128437206Y-75404268D01*
X128691077Y-75422149D01*
X128857376Y-75521444D01*
X128953656Y-75601913D01*
X129066861Y-75570143D01*
X129140581Y-75521444D01*
X129366359Y-75423742D01*
X129550038Y-75396000D01*
X129775330Y-75448455D01*
G37*
X129775330Y-75448455D02*
X129927666Y-75616015D01*
X130014657Y-75913975D01*
X130043914Y-76357627D01*
X130044000Y-76388505D01*
X130039609Y-76707688D01*
X130020076Y-76893078D01*
X129975866Y-76980121D01*
X129897442Y-77004265D01*
X129878228Y-77004667D01*
X129793661Y-76987569D01*
X129741074Y-76913450D01*
X129710528Y-76748072D01*
X129692082Y-76457196D01*
X129687728Y-76348500D01*
X129670972Y-76015842D01*
X129644488Y-75816445D01*
X129597447Y-75714237D01*
X129519022Y-75673149D01*
X129483053Y-75666661D01*
X129263764Y-75694213D01*
X129118651Y-75856329D01*
X129042701Y-76161755D01*
X129028000Y-76460381D01*
X129019358Y-76767137D01*
X128988508Y-76936853D01*
X128928067Y-77001175D01*
X128901000Y-77004667D01*
X128821463Y-76958708D01*
X128779129Y-76800530D01*
X128765561Y-76560167D01*
X128739748Y-76137082D01*
X128676766Y-75860153D01*
X128569646Y-75708913D01*
X128461204Y-75666349D01*
X128258784Y-75712046D01*
X128111963Y-75905447D01*
X128028542Y-76231808D01*
X128012000Y-76515505D01*
X128001568Y-76804237D01*
X127964741Y-76956551D01*
X127893226Y-77004393D01*
X127885000Y-77004667D01*
X127824460Y-76975880D01*
X127786148Y-76870596D01*
X127765582Y-76660428D01*
X127758279Y-76316989D01*
X127758000Y-76200333D01*
X127762545Y-75816915D01*
X127779169Y-75574273D01*
X127812354Y-75444019D01*
X127866581Y-75397769D01*
X127885000Y-75396000D01*
X127997647Y-75443294D01*
X128012000Y-75483645D01*
X128063828Y-75528045D01*
X128175767Y-75483645D01*
X128437206Y-75404268D01*
X128691077Y-75422149D01*
X128857376Y-75521444D01*
X128953656Y-75601913D01*
X129066861Y-75570143D01*
X129140581Y-75521444D01*
X129366359Y-75423742D01*
X129550038Y-75396000D01*
X129775330Y-75448455D01*
G36*
X133220438Y-75444560D02*
G01*
X133438202Y-75653640D01*
X133563732Y-75955401D01*
X133573336Y-76324737D01*
X133556847Y-76415733D01*
X133417980Y-76723561D01*
X133185294Y-76924831D01*
X132899601Y-77006454D01*
X132601711Y-76955343D01*
X132368485Y-76796848D01*
X132229897Y-76612885D01*
X132170826Y-76384944D01*
X132163360Y-76183015D01*
X132163439Y-76182303D01*
X132441497Y-76182303D01*
X132483941Y-76435941D01*
X132604036Y-76629691D01*
X132776563Y-76734572D01*
X132976306Y-76721603D01*
X133128286Y-76617619D01*
X133232254Y-76412406D01*
X133256258Y-76133877D01*
X133195877Y-75860265D01*
X133173688Y-75813767D01*
X133011259Y-75678311D01*
X132845293Y-75650000D01*
X132647748Y-75692487D01*
X132522946Y-75850182D01*
X132501919Y-75897758D01*
X132441497Y-76182303D01*
X132163439Y-76182303D01*
X132204048Y-75818369D01*
X132332965Y-75574681D01*
X132569070Y-75418396D01*
X132602980Y-75404879D01*
X132934133Y-75353270D01*
X133220438Y-75444560D01*
G37*
X133220438Y-75444560D02*
X133438202Y-75653640D01*
X133563732Y-75955401D01*
X133573336Y-76324737D01*
X133556847Y-76415733D01*
X133417980Y-76723561D01*
X133185294Y-76924831D01*
X132899601Y-77006454D01*
X132601711Y-76955343D01*
X132368485Y-76796848D01*
X132229897Y-76612885D01*
X132170826Y-76384944D01*
X132163360Y-76183015D01*
X132163439Y-76182303D01*
X132441497Y-76182303D01*
X132483941Y-76435941D01*
X132604036Y-76629691D01*
X132776563Y-76734572D01*
X132976306Y-76721603D01*
X133128286Y-76617619D01*
X133232254Y-76412406D01*
X133256258Y-76133877D01*
X133195877Y-75860265D01*
X133173688Y-75813767D01*
X133011259Y-75678311D01*
X132845293Y-75650000D01*
X132647748Y-75692487D01*
X132522946Y-75850182D01*
X132501919Y-75897758D01*
X132441497Y-76182303D01*
X132163439Y-76182303D01*
X132204048Y-75818369D01*
X132332965Y-75574681D01*
X132569070Y-75418396D01*
X132602980Y-75404879D01*
X132934133Y-75353270D01*
X133220438Y-75444560D01*
G36*
X134998044Y-75437064D02*
G01*
X135077406Y-75511042D01*
X135189259Y-75640530D01*
X135254273Y-75783059D01*
X135284805Y-75987907D01*
X135293215Y-76304350D01*
X135293334Y-76372026D01*
X135289039Y-76699789D01*
X135270969Y-76890720D01*
X135231342Y-76977214D01*
X135162377Y-76991664D01*
X135145167Y-76988910D01*
X135064961Y-76943338D01*
X135011733Y-76820935D01*
X134975755Y-76587874D01*
X134954667Y-76326535D01*
X134929637Y-76002999D01*
X134898416Y-75811516D01*
X134846326Y-75715022D01*
X134758686Y-75676448D01*
X134693420Y-75666886D01*
X134501581Y-75679797D01*
X134374932Y-75787599D01*
X134299730Y-76014033D01*
X134262231Y-76382840D01*
X134260672Y-76414396D01*
X134237365Y-76722502D01*
X134196478Y-76897644D01*
X134127043Y-76976065D01*
X134086834Y-76988858D01*
X134018044Y-76985812D01*
X133974425Y-76925274D01*
X133950392Y-76777711D01*
X133940362Y-76513591D01*
X133938667Y-76205196D01*
X133938667Y-75393310D01*
X134171500Y-75406447D01*
X134441566Y-75392978D01*
X134632906Y-75357349D01*
X134825532Y-75341961D01*
X134998044Y-75437064D01*
G37*
X134998044Y-75437064D02*
X135077406Y-75511042D01*
X135189259Y-75640530D01*
X135254273Y-75783059D01*
X135284805Y-75987907D01*
X135293215Y-76304350D01*
X135293334Y-76372026D01*
X135289039Y-76699789D01*
X135270969Y-76890720D01*
X135231342Y-76977214D01*
X135162377Y-76991664D01*
X135145167Y-76988910D01*
X135064961Y-76943338D01*
X135011733Y-76820935D01*
X134975755Y-76587874D01*
X134954667Y-76326535D01*
X134929637Y-76002999D01*
X134898416Y-75811516D01*
X134846326Y-75715022D01*
X134758686Y-75676448D01*
X134693420Y-75666886D01*
X134501581Y-75679797D01*
X134374932Y-75787599D01*
X134299730Y-76014033D01*
X134262231Y-76382840D01*
X134260672Y-76414396D01*
X134237365Y-76722502D01*
X134196478Y-76897644D01*
X134127043Y-76976065D01*
X134086834Y-76988858D01*
X134018044Y-76985812D01*
X133974425Y-76925274D01*
X133950392Y-76777711D01*
X133940362Y-76513591D01*
X133938667Y-76205196D01*
X133938667Y-75393310D01*
X134171500Y-75406447D01*
X134441566Y-75392978D01*
X134632906Y-75357349D01*
X134825532Y-75341961D01*
X134998044Y-75437064D01*
G36*
X136792137Y-75445025D02*
G01*
X136992986Y-75694591D01*
X137103568Y-76009833D01*
X137159226Y-76242667D01*
X136564947Y-76242667D01*
X136209402Y-76258088D01*
X136012501Y-76309229D01*
X135965955Y-76403408D01*
X136061471Y-76547942D01*
X136136674Y-76620656D01*
X136287484Y-76714195D01*
X136488453Y-76734991D01*
X136687007Y-76713258D01*
X136929454Y-76687983D01*
X137045085Y-76711744D01*
X137071334Y-76777937D01*
X136991745Y-76897492D01*
X136765664Y-76974836D01*
X136412121Y-77003494D01*
X136408654Y-77003510D01*
X136125981Y-76942077D01*
X135879487Y-76757179D01*
X135690586Y-76465925D01*
X135636452Y-76140167D01*
X135695882Y-75876381D01*
X135981537Y-75876381D01*
X136024534Y-75950689D01*
X136214338Y-75984163D01*
X136394000Y-75988667D01*
X136635524Y-75976479D01*
X136788798Y-75945318D01*
X136817334Y-75920933D01*
X136744770Y-75776858D01*
X136567597Y-75682945D01*
X136346591Y-75653005D01*
X136142530Y-75700853D01*
X136072267Y-75751600D01*
X135981537Y-75876381D01*
X135695882Y-75876381D01*
X135707747Y-75823722D01*
X135895131Y-75560403D01*
X136168665Y-75400511D01*
X136518043Y-75347441D01*
X136792137Y-75445025D01*
G37*
X136792137Y-75445025D02*
X136992986Y-75694591D01*
X137103568Y-76009833D01*
X137159226Y-76242667D01*
X136564947Y-76242667D01*
X136209402Y-76258088D01*
X136012501Y-76309229D01*
X135965955Y-76403408D01*
X136061471Y-76547942D01*
X136136674Y-76620656D01*
X136287484Y-76714195D01*
X136488453Y-76734991D01*
X136687007Y-76713258D01*
X136929454Y-76687983D01*
X137045085Y-76711744D01*
X137071334Y-76777937D01*
X136991745Y-76897492D01*
X136765664Y-76974836D01*
X136412121Y-77003494D01*
X136408654Y-77003510D01*
X136125981Y-76942077D01*
X135879487Y-76757179D01*
X135690586Y-76465925D01*
X135636452Y-76140167D01*
X135695882Y-75876381D01*
X135981537Y-75876381D01*
X136024534Y-75950689D01*
X136214338Y-75984163D01*
X136394000Y-75988667D01*
X136635524Y-75976479D01*
X136788798Y-75945318D01*
X136817334Y-75920933D01*
X136744770Y-75776858D01*
X136567597Y-75682945D01*
X136346591Y-75653005D01*
X136142530Y-75700853D01*
X136072267Y-75751600D01*
X135981537Y-75876381D01*
X135695882Y-75876381D01*
X135707747Y-75823722D01*
X135895131Y-75560403D01*
X136168665Y-75400511D01*
X136518043Y-75347441D01*
X136792137Y-75445025D01*
G36*
X125197048Y-74705361D02*
G01*
X125418591Y-74781302D01*
X125535524Y-74890862D01*
X125540185Y-74907276D01*
X125533030Y-74985777D01*
X125447167Y-75018054D01*
X125246226Y-75011988D01*
X125114736Y-74999487D01*
X124815253Y-74983902D01*
X124636611Y-75018437D01*
X124557810Y-75079010D01*
X124491941Y-75260651D01*
X124571899Y-75425076D01*
X124776177Y-75529126D01*
X124782839Y-75530613D01*
X125192025Y-75650864D01*
X125464900Y-75800954D01*
X125559903Y-75910046D01*
X125645013Y-76210784D01*
X125580126Y-76475812D01*
X125384103Y-76682094D01*
X125075803Y-76806595D01*
X124804415Y-76832759D01*
X124533961Y-76812997D01*
X124317422Y-76766384D01*
X124265500Y-76743885D01*
X124142276Y-76613252D01*
X124117334Y-76525734D01*
X124163298Y-76435803D01*
X124265500Y-76454628D01*
X124556019Y-76536966D01*
X124851329Y-76563226D01*
X125092789Y-76532614D01*
X125207155Y-76467401D01*
X125298949Y-76281951D01*
X125238954Y-76118793D01*
X125020748Y-75969302D01*
X124757625Y-75863765D01*
X124461280Y-75748470D01*
X124287867Y-75636796D01*
X124194464Y-75498214D01*
X124176900Y-75450726D01*
X124168844Y-75181972D01*
X124299269Y-74934244D01*
X124538968Y-74752120D01*
X124664859Y-74706004D01*
X124927076Y-74675955D01*
X125197048Y-74705361D01*
G37*
X125197048Y-74705361D02*
X125418591Y-74781302D01*
X125535524Y-74890862D01*
X125540185Y-74907276D01*
X125533030Y-74985777D01*
X125447167Y-75018054D01*
X125246226Y-75011988D01*
X125114736Y-74999487D01*
X124815253Y-74983902D01*
X124636611Y-75018437D01*
X124557810Y-75079010D01*
X124491941Y-75260651D01*
X124571899Y-75425076D01*
X124776177Y-75529126D01*
X124782839Y-75530613D01*
X125192025Y-75650864D01*
X125464900Y-75800954D01*
X125559903Y-75910046D01*
X125645013Y-76210784D01*
X125580126Y-76475812D01*
X125384103Y-76682094D01*
X125075803Y-76806595D01*
X124804415Y-76832759D01*
X124533961Y-76812997D01*
X124317422Y-76766384D01*
X124265500Y-76743885D01*
X124142276Y-76613252D01*
X124117334Y-76525734D01*
X124163298Y-76435803D01*
X124265500Y-76454628D01*
X124556019Y-76536966D01*
X124851329Y-76563226D01*
X125092789Y-76532614D01*
X125207155Y-76467401D01*
X125298949Y-76281951D01*
X125238954Y-76118793D01*
X125020748Y-75969302D01*
X124757625Y-75863765D01*
X124461280Y-75748470D01*
X124287867Y-75636796D01*
X124194464Y-75498214D01*
X124176900Y-75450726D01*
X124168844Y-75181972D01*
X124299269Y-74934244D01*
X124538968Y-74752120D01*
X124664859Y-74706004D01*
X124927076Y-74675955D01*
X125197048Y-74705361D01*
G36*
X131457210Y-75281901D02*
G01*
X131679984Y-75421567D01*
X131808775Y-75606610D01*
X131822000Y-75685408D01*
X131851700Y-75871593D01*
X131873392Y-75939408D01*
X131877610Y-76009657D01*
X131802591Y-76050396D01*
X131617556Y-76069117D01*
X131323059Y-76073333D01*
X130964633Y-76088945D01*
X130763724Y-76141028D01*
X130710946Y-76237456D01*
X130796915Y-76386101D01*
X130864285Y-76458190D01*
X131004133Y-76546732D01*
X131211906Y-76569402D01*
X131414619Y-76552893D01*
X131672051Y-76534640D01*
X131796693Y-76562461D01*
X131822000Y-76618597D01*
X131752935Y-76744312D01*
X131539461Y-76815355D01*
X131215896Y-76835333D01*
X130929775Y-76795934D01*
X130697157Y-76651280D01*
X130630154Y-76587846D01*
X130427690Y-76281421D01*
X130388638Y-75935193D01*
X130462645Y-75706823D01*
X130732285Y-75706823D01*
X130774962Y-75781084D01*
X130964159Y-75814682D01*
X131147646Y-75819333D01*
X131395840Y-75814209D01*
X131508063Y-75787640D01*
X131517610Y-75722828D01*
X131483334Y-75650000D01*
X131331398Y-75522280D01*
X131107844Y-75480146D01*
X130891616Y-75531695D01*
X130822934Y-75582267D01*
X130732285Y-75706823D01*
X130462645Y-75706823D01*
X130506535Y-75571389D01*
X130650800Y-75366136D01*
X130846124Y-75260209D01*
X131145517Y-75227024D01*
X131193925Y-75226667D01*
X131457210Y-75281901D01*
G37*
X131457210Y-75281901D02*
X131679984Y-75421567D01*
X131808775Y-75606610D01*
X131822000Y-75685408D01*
X131851700Y-75871593D01*
X131873392Y-75939408D01*
X131877610Y-76009657D01*
X131802591Y-76050396D01*
X131617556Y-76069117D01*
X131323059Y-76073333D01*
X130964633Y-76088945D01*
X130763724Y-76141028D01*
X130710946Y-76237456D01*
X130796915Y-76386101D01*
X130864285Y-76458190D01*
X131004133Y-76546732D01*
X131211906Y-76569402D01*
X131414619Y-76552893D01*
X131672051Y-76534640D01*
X131796693Y-76562461D01*
X131822000Y-76618597D01*
X131752935Y-76744312D01*
X131539461Y-76815355D01*
X131215896Y-76835333D01*
X130929775Y-76795934D01*
X130697157Y-76651280D01*
X130630154Y-76587846D01*
X130427690Y-76281421D01*
X130388638Y-75935193D01*
X130462645Y-75706823D01*
X130732285Y-75706823D01*
X130774962Y-75781084D01*
X130964159Y-75814682D01*
X131147646Y-75819333D01*
X131395840Y-75814209D01*
X131508063Y-75787640D01*
X131517610Y-75722828D01*
X131483334Y-75650000D01*
X131331398Y-75522280D01*
X131107844Y-75480146D01*
X130891616Y-75531695D01*
X130822934Y-75582267D01*
X130732285Y-75706823D01*
X130462645Y-75706823D01*
X130506535Y-75571389D01*
X130650800Y-75366136D01*
X130846124Y-75260209D01*
X131145517Y-75227024D01*
X131193925Y-75226667D01*
X131457210Y-75281901D01*
D12*
X131970000Y-92210000D03*
X129430000Y-92210000D03*
X131970000Y-94750000D03*
D13*
X129430000Y-94750000D03*
M02*
