%FSLAX45Y45*%
G04 Gerber Fmt 4.5, Leading zero omitted, Abs format (unit mm)*
G04 Created by KiCad (PCBNEW 5.1.6-c6e7f7d~87~ubuntu18.04.1) date 2020-07-20 19:22:29*
%MOMM*%
%LPD*%
G01*
G04 APERTURE LIST*
%TA.AperFunction,Profile*%
%ADD10C,0.200000*%
%TD*%
%ADD11C,0.200000*%
%ADD12C,0.300000*%
G04 APERTURE END LIST*
D10*
X11939743Y-7008065D02*
X11971901Y-6988818D01*
X11971901Y-6988818D02*
X12005154Y-6970167D01*
X12005154Y-6970167D02*
X12039595Y-6952342D01*
X12039595Y-6952342D02*
X12075320Y-6935576D01*
X12075320Y-6935576D02*
X12093693Y-6927661D01*
X12093693Y-6927661D02*
X12112421Y-6920098D01*
X12112421Y-6920098D02*
X12131517Y-6912916D01*
X12131517Y-6912916D02*
X12150993Y-6906142D01*
X12150993Y-6906142D02*
X12170859Y-6899807D01*
X12170859Y-6899807D02*
X12191128Y-6893939D01*
X12191128Y-6893939D02*
X12211812Y-6888566D01*
X12211812Y-6888566D02*
X12232922Y-6883719D01*
X12232922Y-6883719D02*
X12254470Y-6879425D01*
X12254470Y-6879425D02*
X12276467Y-6875715D01*
X12276467Y-6875715D02*
X12298926Y-6872616D01*
X12298926Y-6872616D02*
X12321858Y-6870157D01*
X12321858Y-6870157D02*
X12345274Y-6868368D01*
X12345274Y-6868368D02*
X12369188Y-6867278D01*
X12369188Y-6867278D02*
X12393609Y-6866915D01*
X12393609Y-6866915D02*
X12418550Y-6867308D01*
X12418550Y-6867308D02*
X12444024Y-6868487D01*
X12444024Y-6868487D02*
X12470040Y-6870480D01*
X12470040Y-6870480D02*
X12496612Y-6873316D01*
X12496612Y-6873316D02*
X12523750Y-6877024D01*
X12523750Y-6877024D02*
X12551467Y-6881633D01*
X12551467Y-6881633D02*
X12579775Y-6887173D01*
X12579775Y-6887173D02*
X12608684Y-6893671D01*
X12608684Y-6893671D02*
X12638208Y-6901157D01*
X13978119Y-9648687D02*
X12157122Y-9648687D01*
X12021706Y-8946660D02*
X11967567Y-8934441D01*
X11967567Y-8934441D02*
X11917536Y-8922463D01*
X11917536Y-8922463D02*
X11871436Y-8910701D01*
X11871436Y-8910701D02*
X11829093Y-8899130D01*
X11829093Y-8899130D02*
X11790330Y-8887724D01*
X11790330Y-8887724D02*
X11754972Y-8876459D01*
X11754972Y-8876459D02*
X11722843Y-8865309D01*
X11722843Y-8865309D02*
X11693767Y-8854251D01*
X11693767Y-8854251D02*
X11667569Y-8843258D01*
X11667569Y-8843258D02*
X11644073Y-8832306D01*
X11644073Y-8832306D02*
X11623103Y-8821369D01*
X11623103Y-8821369D02*
X11604483Y-8810424D01*
X11604483Y-8810424D02*
X11573592Y-8788405D01*
X11573592Y-8788405D02*
X11549995Y-8766050D01*
X11549995Y-8766050D02*
X11532286Y-8743158D01*
X11532286Y-8743158D02*
X11519058Y-8719529D01*
X11519058Y-8719529D02*
X11508907Y-8694964D01*
X11508907Y-8694964D02*
X11500426Y-8669263D01*
X11500426Y-8669263D02*
X11492210Y-8642226D01*
X11492210Y-8642226D02*
X11482853Y-8613654D01*
X11482853Y-8613654D02*
X11470950Y-8583345D01*
X11470950Y-8583345D02*
X11455095Y-8551100D01*
X14484149Y-8896770D02*
X14459763Y-8897786D01*
X14459763Y-8897786D02*
X14434877Y-8898711D01*
X14434877Y-8898711D02*
X14409671Y-8899628D01*
X14409671Y-8899628D02*
X14384326Y-8900626D01*
X14384326Y-8900626D02*
X14359022Y-8901789D01*
X14359022Y-8901789D02*
X14333939Y-8903205D01*
X14333939Y-8903205D02*
X14309258Y-8904960D01*
X14309258Y-8904960D02*
X14285158Y-8907139D01*
X14285158Y-8907139D02*
X14261819Y-8909830D01*
X14261819Y-8909830D02*
X14239423Y-8913118D01*
X14239423Y-8913118D02*
X14218149Y-8917090D01*
X14218149Y-8917090D02*
X14198177Y-8921831D01*
X14198177Y-8921831D02*
X14171055Y-8930576D01*
X14171055Y-8930576D02*
X14147877Y-8941539D01*
X14147877Y-8941539D02*
X14134917Y-8950223D01*
X13340235Y-6904720D02*
X13369609Y-6897238D01*
X13369609Y-6897238D02*
X13402428Y-6890415D01*
X13402428Y-6890415D02*
X13438356Y-6884347D01*
X13438356Y-6884347D02*
X13477056Y-6879134D01*
X13477056Y-6879134D02*
X13497341Y-6876878D01*
X13497341Y-6876878D02*
X13518192Y-6874873D01*
X13518192Y-6874873D02*
X13539568Y-6873131D01*
X13539568Y-6873131D02*
X13561426Y-6871663D01*
X13561426Y-6871663D02*
X13583725Y-6870483D01*
X13583725Y-6870483D02*
X13606423Y-6869603D01*
X13606423Y-6869603D02*
X13629477Y-6869034D01*
X13629477Y-6869034D02*
X13652845Y-6868789D01*
X13652845Y-6868789D02*
X13676486Y-6868881D01*
X13676486Y-6868881D02*
X13700356Y-6869321D01*
X13700356Y-6869321D02*
X13724415Y-6870123D01*
X13724415Y-6870123D02*
X13748619Y-6871297D01*
X13748619Y-6871297D02*
X13772927Y-6872857D01*
X13772927Y-6872857D02*
X13797298Y-6874815D01*
X13797298Y-6874815D02*
X13821687Y-6877183D01*
X13821687Y-6877183D02*
X13846055Y-6879974D01*
X13846055Y-6879974D02*
X13870357Y-6883199D01*
X13870357Y-6883199D02*
X13894554Y-6886871D01*
X13894554Y-6886871D02*
X13918601Y-6891002D01*
X13918601Y-6891002D02*
X13942458Y-6895604D01*
X13942458Y-6895604D02*
X13966082Y-6900690D01*
X13966082Y-6900690D02*
X13989431Y-6906273D01*
X13989431Y-6906273D02*
X14012463Y-6912363D01*
X14012463Y-6912363D02*
X14035136Y-6918975D01*
X12638208Y-6901157D02*
X12666772Y-6909550D01*
X12666772Y-6909550D02*
X12685868Y-6917005D01*
X12685868Y-6917005D02*
X12704936Y-6925706D01*
X12704936Y-6925706D02*
X12723915Y-6935443D01*
X12723915Y-6935443D02*
X12742745Y-6946007D01*
X12742745Y-6946007D02*
X12761365Y-6957190D01*
X12761365Y-6957190D02*
X12779714Y-6968783D01*
X12779714Y-6968783D02*
X12797731Y-6980578D01*
X12797731Y-6980578D02*
X12815356Y-6992365D01*
X12815356Y-6992365D02*
X12832529Y-7003937D01*
X12832529Y-7003937D02*
X12849187Y-7015083D01*
X12849187Y-7015083D02*
X12873079Y-7030550D01*
X12873079Y-7030550D02*
X12895475Y-7043888D01*
X12895475Y-7043888D02*
X12916168Y-7054391D01*
X14345169Y-7243262D02*
X14349623Y-7273731D01*
X14349623Y-7273731D02*
X14351723Y-7302533D01*
X14351723Y-7302533D02*
X14351782Y-7329745D01*
X14351782Y-7329745D02*
X14350114Y-7355445D01*
X14350114Y-7355445D02*
X14347033Y-7379714D01*
X14347033Y-7379714D02*
X14342852Y-7402629D01*
X14342852Y-7402629D02*
X14337885Y-7424270D01*
X14337885Y-7424270D02*
X14332445Y-7444715D01*
X14332445Y-7444715D02*
X14326846Y-7464042D01*
X14326846Y-7464042D02*
X14318834Y-7491112D01*
X14318834Y-7491112D02*
X14312228Y-7516111D01*
X14312228Y-7516111D02*
X14308087Y-7539306D01*
X14308087Y-7539306D02*
X14307467Y-7560962D01*
X14307467Y-7560962D02*
X14309533Y-7574676D01*
X12157122Y-9648687D02*
X12153837Y-9626799D01*
X12153837Y-9626799D02*
X12151314Y-9604950D01*
X12151314Y-9604950D02*
X12149468Y-9583138D01*
X12149468Y-9583138D02*
X12148220Y-9561356D01*
X12148220Y-9561356D02*
X12147486Y-9539602D01*
X12147486Y-9539602D02*
X12147184Y-9517871D01*
X12147184Y-9517871D02*
X12147232Y-9496157D01*
X12147232Y-9496157D02*
X12147547Y-9474458D01*
X12147547Y-9474458D02*
X12148049Y-9452769D01*
X12148049Y-9452769D02*
X12148653Y-9431085D01*
X12148653Y-9431085D02*
X12149279Y-9409403D01*
X12149279Y-9409403D02*
X12149844Y-9387717D01*
X12149844Y-9387717D02*
X12150265Y-9366023D01*
X12150265Y-9366023D02*
X12150461Y-9344318D01*
X12150461Y-9344318D02*
X12150349Y-9322596D01*
X12150349Y-9322596D02*
X12149847Y-9300854D01*
X12149847Y-9300854D02*
X12148873Y-9279087D01*
X12148873Y-9279087D02*
X12147345Y-9257291D01*
X12147345Y-9257291D02*
X12145180Y-9235462D01*
X12145180Y-9235462D02*
X12142296Y-9213594D01*
X12142296Y-9213594D02*
X12138612Y-9191685D01*
X12138612Y-9191685D02*
X12134044Y-9169729D01*
X12134044Y-9169729D02*
X12128511Y-9147722D01*
X12128511Y-9147722D02*
X12121930Y-9125660D01*
X12121930Y-9125660D02*
X12114220Y-9103538D01*
X12114220Y-9103538D02*
X12105297Y-9081353D01*
X12105297Y-9081353D02*
X12095080Y-9059100D01*
X12095080Y-9059100D02*
X12083487Y-9036774D01*
X12083487Y-9036774D02*
X12070435Y-9014371D01*
X12070435Y-9014371D02*
X12055843Y-8991888D01*
X12055843Y-8991888D02*
X12039627Y-8969319D01*
X12039627Y-8969319D02*
X12021706Y-8946660D01*
X14035136Y-6918975D02*
X14063213Y-6929955D01*
X14063213Y-6929955D02*
X14089320Y-6940607D01*
X14089320Y-6940607D02*
X14113534Y-6950956D01*
X14113534Y-6950956D02*
X14135934Y-6961030D01*
X14135934Y-6961030D02*
X14156599Y-6970856D01*
X14156599Y-6970856D02*
X14175607Y-6980464D01*
X14175607Y-6980464D02*
X14208966Y-6999129D01*
X14208966Y-6999129D02*
X14236637Y-7017245D01*
X14236637Y-7017245D02*
X14259250Y-7035033D01*
X14259250Y-7035033D02*
X14277431Y-7052712D01*
X14277431Y-7052712D02*
X14291808Y-7070503D01*
X14291808Y-7070503D02*
X14303007Y-7088625D01*
X14303007Y-7088625D02*
X14311658Y-7107299D01*
X14311658Y-7107299D02*
X14318387Y-7126746D01*
X14318387Y-7126746D02*
X14323822Y-7147184D01*
X14323822Y-7147184D02*
X14328590Y-7168835D01*
X14328590Y-7168835D02*
X14333319Y-7191918D01*
X14333319Y-7191918D02*
X14338636Y-7216653D01*
X14338636Y-7216653D02*
X14345169Y-7243262D01*
X12916168Y-7054391D02*
X12938693Y-7052456D01*
X12938693Y-7052456D02*
X12963238Y-7048645D01*
X12963238Y-7048645D02*
X12985084Y-7041280D01*
X12985084Y-7041280D02*
X13003389Y-7030482D01*
X13003389Y-7030482D02*
X13020635Y-7019591D01*
X13020635Y-7019591D02*
X13045443Y-7005884D01*
X13045443Y-7005884D02*
X13068206Y-6994995D01*
X13068206Y-6994995D02*
X13097364Y-6982575D01*
X13097364Y-6982575D02*
X13134129Y-6968511D01*
X13134129Y-6968511D02*
X13155744Y-6960827D01*
X13155744Y-6960827D02*
X13179716Y-6952690D01*
X13179716Y-6952690D02*
X13206196Y-6944087D01*
X13206196Y-6944087D02*
X13235336Y-6935002D01*
X13235336Y-6935002D02*
X13267288Y-6925422D01*
X13267288Y-6925422D02*
X13302204Y-6915332D01*
X13302204Y-6915332D02*
X13340235Y-6904720D01*
X14676583Y-8251758D02*
X14689685Y-8271980D01*
X14689685Y-8271980D02*
X14702000Y-8292399D01*
X14702000Y-8292399D02*
X14713514Y-8313018D01*
X14713514Y-8313018D02*
X14724210Y-8333841D01*
X14724210Y-8333841D02*
X14734075Y-8354873D01*
X14734075Y-8354873D02*
X14743094Y-8376115D01*
X14743094Y-8376115D02*
X14751252Y-8397573D01*
X14751252Y-8397573D02*
X14758534Y-8419250D01*
X14758534Y-8419250D02*
X14764926Y-8441150D01*
X14764926Y-8441150D02*
X14770412Y-8463276D01*
X14770412Y-8463276D02*
X14774978Y-8485632D01*
X14774978Y-8485632D02*
X14778610Y-8508221D01*
X14778610Y-8508221D02*
X14781291Y-8531048D01*
X14781291Y-8531048D02*
X14783009Y-8554116D01*
X14783009Y-8554116D02*
X14783747Y-8577429D01*
X14783747Y-8577429D02*
X14783491Y-8600990D01*
X13978119Y-9648687D02*
X13978119Y-9648687D01*
X14601747Y-7824127D02*
X14616289Y-7848258D01*
X14616289Y-7848258D02*
X14629312Y-7871049D01*
X14629312Y-7871049D02*
X14640891Y-7892566D01*
X14640891Y-7892566D02*
X14651097Y-7912871D01*
X14651097Y-7912871D02*
X14660005Y-7932031D01*
X14660005Y-7932031D02*
X14674216Y-7967170D01*
X14674216Y-7967170D02*
X14684108Y-7998498D01*
X14684108Y-7998498D02*
X14690267Y-8026533D01*
X14690267Y-8026533D02*
X14693276Y-8051788D01*
X14693276Y-8051788D02*
X14693721Y-8074781D01*
X14693721Y-8074781D02*
X14692187Y-8096026D01*
X14692187Y-8096026D02*
X14689257Y-8116041D01*
X14689257Y-8116041D02*
X14683525Y-8144883D01*
X14683525Y-8144883D02*
X14677942Y-8173858D01*
X14677942Y-8173858D02*
X14675278Y-8194107D01*
X14675278Y-8194107D02*
X14674143Y-8215705D01*
X14674143Y-8215705D02*
X14675119Y-8239167D01*
X14675119Y-8239167D02*
X14676583Y-8251758D01*
X14134917Y-8950223D02*
X14119124Y-8976135D01*
X14119124Y-8976135D02*
X14104714Y-9001529D01*
X14104714Y-9001529D02*
X14091618Y-9026429D01*
X14091618Y-9026429D02*
X14079770Y-9050862D01*
X14079770Y-9050862D02*
X14069100Y-9074852D01*
X14069100Y-9074852D02*
X14059541Y-9098426D01*
X14059541Y-9098426D02*
X14051026Y-9121609D01*
X14051026Y-9121609D02*
X14043485Y-9144427D01*
X14043485Y-9144427D02*
X14036850Y-9166904D01*
X14036850Y-9166904D02*
X14031055Y-9189067D01*
X14031055Y-9189067D02*
X14026030Y-9210941D01*
X14026030Y-9210941D02*
X14021708Y-9232551D01*
X14021708Y-9232551D02*
X14018021Y-9253923D01*
X14018021Y-9253923D02*
X14014901Y-9275083D01*
X14014901Y-9275083D02*
X14012279Y-9296055D01*
X14012279Y-9296055D02*
X14010089Y-9316866D01*
X14010089Y-9316866D02*
X14008261Y-9337541D01*
X14008261Y-9337541D02*
X14006727Y-9358106D01*
X14006727Y-9358106D02*
X14005421Y-9378585D01*
X14005421Y-9378585D02*
X14004273Y-9399005D01*
X14004273Y-9399005D02*
X14003215Y-9419391D01*
X14003215Y-9419391D02*
X14002181Y-9439769D01*
X14002181Y-9439769D02*
X14001101Y-9460163D01*
X14001101Y-9460163D02*
X13999907Y-9480600D01*
X13999907Y-9480600D02*
X13998533Y-9501106D01*
X13998533Y-9501106D02*
X13996909Y-9521704D01*
X13996909Y-9521704D02*
X13994967Y-9542422D01*
X13994967Y-9542422D02*
X13992640Y-9563284D01*
X13992640Y-9563284D02*
X13989860Y-9584316D01*
X13989860Y-9584316D02*
X13986558Y-9605543D01*
X13986558Y-9605543D02*
X13982667Y-9626992D01*
X13982667Y-9626992D02*
X13978119Y-9648687D01*
X11455095Y-8551100D02*
X11446638Y-8524642D01*
X11446638Y-8524642D02*
X11439848Y-8497755D01*
X11439848Y-8497755D02*
X11434672Y-8470505D01*
X11434672Y-8470505D02*
X11431060Y-8442957D01*
X11431060Y-8442957D02*
X11428961Y-8415176D01*
X11428961Y-8415176D02*
X11428323Y-8387229D01*
X11428323Y-8387229D02*
X11429097Y-8359180D01*
X11429097Y-8359180D02*
X11431230Y-8331096D01*
X11431230Y-8331096D02*
X11434673Y-8303042D01*
X11434673Y-8303042D02*
X11439374Y-8275084D01*
X11439374Y-8275084D02*
X11445282Y-8247287D01*
X11445282Y-8247287D02*
X11452346Y-8219718D01*
X11452346Y-8219718D02*
X11460515Y-8192440D01*
X11460515Y-8192440D02*
X11469739Y-8165521D01*
X11469739Y-8165521D02*
X11479967Y-8139025D01*
X11479967Y-8139025D02*
X11491146Y-8113019D01*
X11491146Y-8113019D02*
X11503228Y-8087568D01*
X11503228Y-8087568D02*
X11516160Y-8062737D01*
X11516160Y-8062737D02*
X11529892Y-8038593D01*
X11529892Y-8038593D02*
X11544372Y-8015200D01*
X11544372Y-8015200D02*
X11559550Y-7992624D01*
X11559550Y-7992624D02*
X11575376Y-7970932D01*
X11575376Y-7970932D02*
X11591797Y-7950187D01*
X11591797Y-7950187D02*
X11608763Y-7930458D01*
X11608763Y-7930458D02*
X11626223Y-7911807D01*
X11626223Y-7911807D02*
X11644126Y-7894303D01*
X11644126Y-7894303D02*
X11662422Y-7878009D01*
X11662422Y-7878009D02*
X11681059Y-7862991D01*
X11681059Y-7862991D02*
X11699986Y-7849316D01*
X11699986Y-7849316D02*
X11719152Y-7837049D01*
X11719152Y-7837049D02*
X11738507Y-7826255D01*
X11738507Y-7826255D02*
X11758000Y-7817000D01*
X14309533Y-7574676D02*
X14340508Y-7588854D01*
X14340508Y-7588854D02*
X14368233Y-7603394D01*
X14368233Y-7603394D02*
X14393040Y-7618257D01*
X14393040Y-7618257D02*
X14415263Y-7633408D01*
X14415263Y-7633408D02*
X14435236Y-7648809D01*
X14435236Y-7648809D02*
X14453291Y-7664423D01*
X14453291Y-7664423D02*
X14469762Y-7680212D01*
X14469762Y-7680212D02*
X14484984Y-7696141D01*
X14484984Y-7696141D02*
X14499288Y-7712172D01*
X14499288Y-7712172D02*
X14513008Y-7728267D01*
X14513008Y-7728267D02*
X14526479Y-7744390D01*
X14526479Y-7744390D02*
X14540032Y-7760504D01*
X14540032Y-7760504D02*
X14554003Y-7776572D01*
X14554003Y-7776572D02*
X14568723Y-7792557D01*
X14568723Y-7792557D02*
X14584527Y-7808421D01*
X14584527Y-7808421D02*
X14601747Y-7824127D01*
X14783491Y-8600990D02*
X14775820Y-8620010D01*
X14775820Y-8620010D02*
X14760356Y-8655579D01*
X14760356Y-8655579D02*
X14744683Y-8687989D01*
X14744683Y-8687989D02*
X14728746Y-8717398D01*
X14728746Y-8717398D02*
X14712487Y-8743966D01*
X14712487Y-8743966D02*
X14695851Y-8767852D01*
X14695851Y-8767852D02*
X14678780Y-8789215D01*
X14678780Y-8789215D02*
X14661218Y-8808215D01*
X14661218Y-8808215D02*
X14643109Y-8825009D01*
X14643109Y-8825009D02*
X14624397Y-8839759D01*
X14624397Y-8839759D02*
X14605024Y-8852622D01*
X14605024Y-8852622D02*
X14584934Y-8863759D01*
X14584934Y-8863759D02*
X14564072Y-8873327D01*
X14564072Y-8873327D02*
X14542379Y-8881487D01*
X14542379Y-8881487D02*
X14519801Y-8888398D01*
X14519801Y-8888398D02*
X14496280Y-8894218D01*
X14496280Y-8894218D02*
X14484149Y-8896770D01*
X11758000Y-7817000D02*
X11770040Y-7786271D01*
X11770040Y-7786271D02*
X11773905Y-7751716D01*
X11773905Y-7751716D02*
X11771329Y-7713589D01*
X11771329Y-7713589D02*
X11768166Y-7693264D01*
X11768166Y-7693264D02*
X11764042Y-7672142D01*
X11764042Y-7672142D02*
X11759174Y-7650253D01*
X11759174Y-7650253D02*
X11753778Y-7627629D01*
X11753778Y-7627629D02*
X11748071Y-7604302D01*
X11748071Y-7604302D02*
X11742269Y-7580303D01*
X11742269Y-7580303D02*
X11736588Y-7555665D01*
X11736588Y-7555665D02*
X11731246Y-7530418D01*
X11731246Y-7530418D02*
X11726458Y-7504595D01*
X11726458Y-7504595D02*
X11722441Y-7478226D01*
X11722441Y-7478226D02*
X11719413Y-7451345D01*
X11719413Y-7451345D02*
X11717588Y-7423982D01*
X11717588Y-7423982D02*
X11717184Y-7396169D01*
X11717184Y-7396169D02*
X11718418Y-7367938D01*
X11718418Y-7367938D02*
X11721505Y-7339320D01*
X11721505Y-7339320D02*
X11726663Y-7310347D01*
X11726663Y-7310347D02*
X11734108Y-7281051D01*
X11734108Y-7281051D02*
X11744055Y-7251464D01*
X11744055Y-7251464D02*
X11756723Y-7221616D01*
X11756723Y-7221616D02*
X11772328Y-7191540D01*
X11772328Y-7191540D02*
X11791085Y-7161268D01*
X11791085Y-7161268D02*
X11813211Y-7130831D01*
X11813211Y-7130831D02*
X11838924Y-7100260D01*
X11838924Y-7100260D02*
X11868439Y-7069587D01*
X11868439Y-7069587D02*
X11901973Y-7038845D01*
X11901973Y-7038845D02*
X11939743Y-7008065D01*
D11*
X12225000Y-8911000D02*
X12265000Y-8951000D01*
X12265000Y-8911000D02*
X12225000Y-8951000D01*
X12268000Y-9333000D02*
X12308000Y-9373000D01*
X12308000Y-9333000D02*
X12268000Y-9373000D01*
X12293000Y-9114000D02*
X12333000Y-9154000D01*
X12333000Y-9114000D02*
X12293000Y-9154000D01*
X12321000Y-9515000D02*
X12361000Y-9555000D01*
X12361000Y-9515000D02*
X12321000Y-9555000D01*
X12525000Y-9426000D02*
X12565000Y-9466000D01*
X12565000Y-9426000D02*
X12525000Y-9466000D01*
X12700000Y-9465000D02*
X12740000Y-9505000D01*
X12740000Y-9465000D02*
X12700000Y-9505000D01*
X12747000Y-8911000D02*
X12787000Y-8951000D01*
X12787000Y-8911000D02*
X12747000Y-8951000D01*
X12833000Y-9029000D02*
X12873000Y-9069000D01*
X12873000Y-9029000D02*
X12833000Y-9069000D01*
X13047000Y-8886000D02*
X13087000Y-8926000D01*
X13087000Y-8886000D02*
X13047000Y-8926000D01*
X13069000Y-9082000D02*
X13109000Y-9122000D01*
X13109000Y-9082000D02*
X13069000Y-9122000D01*
X13233000Y-8950000D02*
X13273000Y-8990000D01*
X13273000Y-8950000D02*
X13233000Y-8990000D01*
X13462000Y-9504000D02*
X13502000Y-9544000D01*
X13502000Y-9504000D02*
X13462000Y-9544000D01*
X13670000Y-9372000D02*
X13710000Y-9412000D01*
X13710000Y-9372000D02*
X13670000Y-9412000D01*
X13763000Y-9029000D02*
X13803000Y-9069000D01*
X13803000Y-9029000D02*
X13763000Y-9069000D01*
X13859000Y-9526000D02*
X13899000Y-9566000D01*
X13899000Y-9526000D02*
X13859000Y-9566000D01*
X13891000Y-9232000D02*
X13931000Y-9272000D01*
X13931000Y-9232000D02*
X13891000Y-9272000D01*
X13974000Y-8896000D02*
X14014000Y-8936000D01*
X14014000Y-8896000D02*
X13974000Y-8936000D01*
X12993000Y-9221000D02*
G75*
G03*
X12993000Y-9221000I-50000J0D01*
G01*
X12993000Y-9475000D02*
G75*
G03*
X12993000Y-9475000I-50000J0D01*
G01*
X13247000Y-9221000D02*
G75*
G03*
X13247000Y-9221000I-50000J0D01*
G01*
X13247000Y-9475000D02*
G75*
G03*
X13247000Y-9475000I-50000J0D01*
G01*
D12*
X11632260Y-10124402D02*
X11632260Y-9824402D01*
X11703689Y-9824402D01*
X11746546Y-9838688D01*
X11775117Y-9867259D01*
X11789403Y-9895830D01*
X11803689Y-9952973D01*
X11803689Y-9995830D01*
X11789403Y-10052973D01*
X11775117Y-10081545D01*
X11746546Y-10110116D01*
X11703689Y-10124402D01*
X11632260Y-10124402D01*
X11932260Y-10124402D02*
X11932260Y-9924402D01*
X11932260Y-9981545D02*
X11946546Y-9952973D01*
X11960831Y-9938688D01*
X11989403Y-9924402D01*
X12017974Y-9924402D01*
X12117974Y-10124402D02*
X12117974Y-9924402D01*
X12117974Y-9824402D02*
X12103689Y-9838688D01*
X12117974Y-9852973D01*
X12132260Y-9838688D01*
X12117974Y-9824402D01*
X12117974Y-9852973D01*
X12303689Y-10124402D02*
X12275117Y-10110116D01*
X12260831Y-10081545D01*
X12260831Y-9824402D01*
X12460831Y-10124402D02*
X12432260Y-10110116D01*
X12417974Y-10081545D01*
X12417974Y-9824402D01*
X12803689Y-10124402D02*
X12803689Y-9824402D01*
X12903689Y-10038688D01*
X13003689Y-9824402D01*
X13003689Y-10124402D01*
X13275117Y-10124402D02*
X13275117Y-9967259D01*
X13260831Y-9938688D01*
X13232260Y-9924402D01*
X13175117Y-9924402D01*
X13146546Y-9938688D01*
X13275117Y-10110116D02*
X13246546Y-10124402D01*
X13175117Y-10124402D01*
X13146546Y-10110116D01*
X13132260Y-10081545D01*
X13132260Y-10052973D01*
X13146546Y-10024402D01*
X13175117Y-10010116D01*
X13246546Y-10010116D01*
X13275117Y-9995830D01*
X13417974Y-9924402D02*
X13417974Y-10224402D01*
X13417974Y-9938688D02*
X13446546Y-9924402D01*
X13503689Y-9924402D01*
X13532260Y-9938688D01*
X13546546Y-9952973D01*
X13560831Y-9981545D01*
X13560831Y-10067259D01*
X13546546Y-10095830D01*
X13532260Y-10110116D01*
X13503689Y-10124402D01*
X13446546Y-10124402D01*
X13417974Y-10110116D01*
X13689403Y-10095830D02*
X13703689Y-10110116D01*
X13689403Y-10124402D01*
X13675117Y-10110116D01*
X13689403Y-10095830D01*
X13689403Y-10124402D01*
X13689403Y-9938688D02*
X13703689Y-9952973D01*
X13689403Y-9967259D01*
X13675117Y-9952973D01*
X13689403Y-9938688D01*
X13689403Y-9967259D01*
X11305831Y-10598688D02*
X11345831Y-10638688D01*
X11345831Y-10598688D02*
X11305831Y-10638688D01*
X11689403Y-10454402D02*
X11717974Y-10454402D01*
X11746546Y-10468688D01*
X11760831Y-10482973D01*
X11775117Y-10511545D01*
X11789403Y-10568688D01*
X11789403Y-10640116D01*
X11775117Y-10697259D01*
X11760831Y-10725830D01*
X11746546Y-10740116D01*
X11717974Y-10754402D01*
X11689403Y-10754402D01*
X11660831Y-10740116D01*
X11646546Y-10725830D01*
X11632260Y-10697259D01*
X11617974Y-10640116D01*
X11617974Y-10568688D01*
X11632260Y-10511545D01*
X11646546Y-10482973D01*
X11660831Y-10468688D01*
X11689403Y-10454402D01*
X11917974Y-10725830D02*
X11932260Y-10740116D01*
X11917974Y-10754402D01*
X11903689Y-10740116D01*
X11917974Y-10725830D01*
X11917974Y-10754402D01*
X12189403Y-10554402D02*
X12189403Y-10754402D01*
X12117974Y-10440116D02*
X12046546Y-10654402D01*
X12232260Y-10654402D01*
X12403689Y-10454402D02*
X12432260Y-10454402D01*
X12460831Y-10468688D01*
X12475117Y-10482973D01*
X12489403Y-10511545D01*
X12503689Y-10568688D01*
X12503689Y-10640116D01*
X12489403Y-10697259D01*
X12475117Y-10725830D01*
X12460831Y-10740116D01*
X12432260Y-10754402D01*
X12403689Y-10754402D01*
X12375117Y-10740116D01*
X12360831Y-10725830D01*
X12346546Y-10697259D01*
X12332260Y-10640116D01*
X12332260Y-10568688D01*
X12346546Y-10511545D01*
X12360831Y-10482973D01*
X12375117Y-10468688D01*
X12403689Y-10454402D01*
X12632260Y-10754402D02*
X12632260Y-10554402D01*
X12632260Y-10582973D02*
X12646546Y-10568688D01*
X12675117Y-10554402D01*
X12717974Y-10554402D01*
X12746546Y-10568688D01*
X12760831Y-10597259D01*
X12760831Y-10754402D01*
X12760831Y-10597259D02*
X12775117Y-10568688D01*
X12803689Y-10554402D01*
X12846546Y-10554402D01*
X12875117Y-10568688D01*
X12889403Y-10597259D01*
X12889403Y-10754402D01*
X13032260Y-10754402D02*
X13032260Y-10554402D01*
X13032260Y-10582973D02*
X13046546Y-10568688D01*
X13075117Y-10554402D01*
X13117974Y-10554402D01*
X13146546Y-10568688D01*
X13160831Y-10597259D01*
X13160831Y-10754402D01*
X13160831Y-10597259D02*
X13175117Y-10568688D01*
X13203689Y-10554402D01*
X13246546Y-10554402D01*
X13275117Y-10568688D01*
X13289403Y-10597259D01*
X13289403Y-10754402D01*
X13875117Y-10440116D02*
X13617974Y-10825830D01*
X14260831Y-10454402D02*
X14289403Y-10454402D01*
X14317974Y-10468688D01*
X14332260Y-10482973D01*
X14346546Y-10511545D01*
X14360831Y-10568688D01*
X14360831Y-10640116D01*
X14346546Y-10697259D01*
X14332260Y-10725830D01*
X14317974Y-10740116D01*
X14289403Y-10754402D01*
X14260831Y-10754402D01*
X14232260Y-10740116D01*
X14217974Y-10725830D01*
X14203689Y-10697259D01*
X14189403Y-10640116D01*
X14189403Y-10568688D01*
X14203689Y-10511545D01*
X14217974Y-10482973D01*
X14232260Y-10468688D01*
X14260831Y-10454402D01*
X14489403Y-10725830D02*
X14503689Y-10740116D01*
X14489403Y-10754402D01*
X14475117Y-10740116D01*
X14489403Y-10725830D01*
X14489403Y-10754402D01*
X14689403Y-10454402D02*
X14717974Y-10454402D01*
X14746546Y-10468688D01*
X14760831Y-10482973D01*
X14775117Y-10511545D01*
X14789403Y-10568688D01*
X14789403Y-10640116D01*
X14775117Y-10697259D01*
X14760831Y-10725830D01*
X14746546Y-10740116D01*
X14717974Y-10754402D01*
X14689403Y-10754402D01*
X14660831Y-10740116D01*
X14646546Y-10725830D01*
X14632260Y-10697259D01*
X14617974Y-10640116D01*
X14617974Y-10568688D01*
X14632260Y-10511545D01*
X14646546Y-10482973D01*
X14660831Y-10468688D01*
X14689403Y-10454402D01*
X15075117Y-10754402D02*
X14903689Y-10754402D01*
X14989403Y-10754402D02*
X14989403Y-10454402D01*
X14960831Y-10497259D01*
X14932260Y-10525830D01*
X14903689Y-10540116D01*
X15332260Y-10454402D02*
X15275117Y-10454402D01*
X15246546Y-10468688D01*
X15232260Y-10482973D01*
X15203689Y-10525830D01*
X15189403Y-10582973D01*
X15189403Y-10697259D01*
X15203689Y-10725830D01*
X15217974Y-10740116D01*
X15246546Y-10754402D01*
X15303689Y-10754402D01*
X15332260Y-10740116D01*
X15346546Y-10725830D01*
X15360831Y-10697259D01*
X15360831Y-10625830D01*
X15346546Y-10597259D01*
X15332260Y-10582973D01*
X15303689Y-10568688D01*
X15246546Y-10568688D01*
X15217974Y-10582973D01*
X15203689Y-10597259D01*
X15189403Y-10625830D01*
X15475117Y-10454402D02*
X15475117Y-10511545D01*
X15589403Y-10454402D02*
X15589403Y-10511545D01*
X16032260Y-10868688D02*
X16017974Y-10854402D01*
X15989403Y-10811545D01*
X15975117Y-10782973D01*
X15960831Y-10740116D01*
X15946546Y-10668688D01*
X15946546Y-10611545D01*
X15960831Y-10540116D01*
X15975117Y-10497259D01*
X15989403Y-10468688D01*
X16017974Y-10425830D01*
X16032260Y-10411545D01*
X16303689Y-10754402D02*
X16132260Y-10754402D01*
X16217974Y-10754402D02*
X16217974Y-10454402D01*
X16189403Y-10497259D01*
X16160831Y-10525830D01*
X16132260Y-10540116D01*
X16403689Y-10454402D02*
X16603689Y-10454402D01*
X16475117Y-10754402D01*
X16946546Y-10754402D02*
X16946546Y-10454402D01*
X17075117Y-10754402D02*
X17075117Y-10597259D01*
X17060832Y-10568688D01*
X17032260Y-10554402D01*
X16989403Y-10554402D01*
X16960832Y-10568688D01*
X16946546Y-10582973D01*
X17260832Y-10754402D02*
X17232260Y-10740116D01*
X17217974Y-10725830D01*
X17203689Y-10697259D01*
X17203689Y-10611545D01*
X17217974Y-10582973D01*
X17232260Y-10568688D01*
X17260832Y-10554402D01*
X17303689Y-10554402D01*
X17332260Y-10568688D01*
X17346546Y-10582973D01*
X17360832Y-10611545D01*
X17360832Y-10697259D01*
X17346546Y-10725830D01*
X17332260Y-10740116D01*
X17303689Y-10754402D01*
X17260832Y-10754402D01*
X17532260Y-10754402D02*
X17503689Y-10740116D01*
X17489403Y-10711545D01*
X17489403Y-10454402D01*
X17760832Y-10740116D02*
X17732260Y-10754402D01*
X17675117Y-10754402D01*
X17646546Y-10740116D01*
X17632260Y-10711545D01*
X17632260Y-10597259D01*
X17646546Y-10568688D01*
X17675117Y-10554402D01*
X17732260Y-10554402D01*
X17760832Y-10568688D01*
X17775117Y-10597259D01*
X17775117Y-10625830D01*
X17632260Y-10654402D01*
X17889403Y-10740116D02*
X17917974Y-10754402D01*
X17975117Y-10754402D01*
X18003689Y-10740116D01*
X18017974Y-10711545D01*
X18017974Y-10697259D01*
X18003689Y-10668688D01*
X17975117Y-10654402D01*
X17932260Y-10654402D01*
X17903689Y-10640116D01*
X17889403Y-10611545D01*
X17889403Y-10597259D01*
X17903689Y-10568688D01*
X17932260Y-10554402D01*
X17975117Y-10554402D01*
X18003689Y-10568688D01*
X18117974Y-10868688D02*
X18132260Y-10854402D01*
X18160832Y-10811545D01*
X18175117Y-10782973D01*
X18189403Y-10740116D01*
X18203689Y-10668688D01*
X18203689Y-10611545D01*
X18189403Y-10540116D01*
X18175117Y-10497259D01*
X18160832Y-10468688D01*
X18132260Y-10425830D01*
X18117974Y-10411545D01*
X11345831Y-11014688D02*
G75*
G03*
X11345831Y-11014688I-50000J0D01*
G01*
X11789403Y-11150402D02*
X11617974Y-11150402D01*
X11703689Y-11150402D02*
X11703689Y-10850402D01*
X11675117Y-10893259D01*
X11646546Y-10921830D01*
X11617974Y-10936116D01*
X11917974Y-11121830D02*
X11932260Y-11136116D01*
X11917974Y-11150402D01*
X11903689Y-11136116D01*
X11917974Y-11121830D01*
X11917974Y-11150402D01*
X12117974Y-10850402D02*
X12146546Y-10850402D01*
X12175117Y-10864688D01*
X12189403Y-10878973D01*
X12203689Y-10907545D01*
X12217974Y-10964688D01*
X12217974Y-11036116D01*
X12203689Y-11093259D01*
X12189403Y-11121830D01*
X12175117Y-11136116D01*
X12146546Y-11150402D01*
X12117974Y-11150402D01*
X12089403Y-11136116D01*
X12075117Y-11121830D01*
X12060831Y-11093259D01*
X12046546Y-11036116D01*
X12046546Y-10964688D01*
X12060831Y-10907545D01*
X12075117Y-10878973D01*
X12089403Y-10864688D01*
X12117974Y-10850402D01*
X12403689Y-10850402D02*
X12432260Y-10850402D01*
X12460831Y-10864688D01*
X12475117Y-10878973D01*
X12489403Y-10907545D01*
X12503689Y-10964688D01*
X12503689Y-11036116D01*
X12489403Y-11093259D01*
X12475117Y-11121830D01*
X12460831Y-11136116D01*
X12432260Y-11150402D01*
X12403689Y-11150402D01*
X12375117Y-11136116D01*
X12360831Y-11121830D01*
X12346546Y-11093259D01*
X12332260Y-11036116D01*
X12332260Y-10964688D01*
X12346546Y-10907545D01*
X12360831Y-10878973D01*
X12375117Y-10864688D01*
X12403689Y-10850402D01*
X12632260Y-11150402D02*
X12632260Y-10950402D01*
X12632260Y-10978973D02*
X12646546Y-10964688D01*
X12675117Y-10950402D01*
X12717974Y-10950402D01*
X12746546Y-10964688D01*
X12760831Y-10993259D01*
X12760831Y-11150402D01*
X12760831Y-10993259D02*
X12775117Y-10964688D01*
X12803689Y-10950402D01*
X12846546Y-10950402D01*
X12875117Y-10964688D01*
X12889403Y-10993259D01*
X12889403Y-11150402D01*
X13032260Y-11150402D02*
X13032260Y-10950402D01*
X13032260Y-10978973D02*
X13046546Y-10964688D01*
X13075117Y-10950402D01*
X13117974Y-10950402D01*
X13146546Y-10964688D01*
X13160831Y-10993259D01*
X13160831Y-11150402D01*
X13160831Y-10993259D02*
X13175117Y-10964688D01*
X13203689Y-10950402D01*
X13246546Y-10950402D01*
X13275117Y-10964688D01*
X13289403Y-10993259D01*
X13289403Y-11150402D01*
X13875117Y-10836116D02*
X13617974Y-11221830D01*
X14260831Y-10850402D02*
X14289403Y-10850402D01*
X14317974Y-10864688D01*
X14332260Y-10878973D01*
X14346546Y-10907545D01*
X14360831Y-10964688D01*
X14360831Y-11036116D01*
X14346546Y-11093259D01*
X14332260Y-11121830D01*
X14317974Y-11136116D01*
X14289403Y-11150402D01*
X14260831Y-11150402D01*
X14232260Y-11136116D01*
X14217974Y-11121830D01*
X14203689Y-11093259D01*
X14189403Y-11036116D01*
X14189403Y-10964688D01*
X14203689Y-10907545D01*
X14217974Y-10878973D01*
X14232260Y-10864688D01*
X14260831Y-10850402D01*
X14489403Y-11121830D02*
X14503689Y-11136116D01*
X14489403Y-11150402D01*
X14475117Y-11136116D01*
X14489403Y-11121830D01*
X14489403Y-11150402D01*
X14689403Y-10850402D02*
X14717974Y-10850402D01*
X14746546Y-10864688D01*
X14760831Y-10878973D01*
X14775117Y-10907545D01*
X14789403Y-10964688D01*
X14789403Y-11036116D01*
X14775117Y-11093259D01*
X14760831Y-11121830D01*
X14746546Y-11136116D01*
X14717974Y-11150402D01*
X14689403Y-11150402D01*
X14660831Y-11136116D01*
X14646546Y-11121830D01*
X14632260Y-11093259D01*
X14617974Y-11036116D01*
X14617974Y-10964688D01*
X14632260Y-10907545D01*
X14646546Y-10878973D01*
X14660831Y-10864688D01*
X14689403Y-10850402D01*
X14889403Y-10850402D02*
X15075117Y-10850402D01*
X14975117Y-10964688D01*
X15017974Y-10964688D01*
X15046546Y-10978973D01*
X15060831Y-10993259D01*
X15075117Y-11021830D01*
X15075117Y-11093259D01*
X15060831Y-11121830D01*
X15046546Y-11136116D01*
X15017974Y-11150402D01*
X14932260Y-11150402D01*
X14903689Y-11136116D01*
X14889403Y-11121830D01*
X15217974Y-11150402D02*
X15275117Y-11150402D01*
X15303689Y-11136116D01*
X15317974Y-11121830D01*
X15346546Y-11078973D01*
X15360831Y-11021830D01*
X15360831Y-10907545D01*
X15346546Y-10878973D01*
X15332260Y-10864688D01*
X15303689Y-10850402D01*
X15246546Y-10850402D01*
X15217974Y-10864688D01*
X15203689Y-10878973D01*
X15189403Y-10907545D01*
X15189403Y-10978973D01*
X15203689Y-11007545D01*
X15217974Y-11021830D01*
X15246546Y-11036116D01*
X15303689Y-11036116D01*
X15332260Y-11021830D01*
X15346546Y-11007545D01*
X15360831Y-10978973D01*
X15475117Y-10850402D02*
X15475117Y-10907545D01*
X15589403Y-10850402D02*
X15589403Y-10907545D01*
X16032260Y-11264687D02*
X16017974Y-11250402D01*
X15989403Y-11207545D01*
X15975117Y-11178973D01*
X15960831Y-11136116D01*
X15946546Y-11064688D01*
X15946546Y-11007545D01*
X15960831Y-10936116D01*
X15975117Y-10893259D01*
X15989403Y-10864688D01*
X16017974Y-10821830D01*
X16032260Y-10807545D01*
X16275117Y-10950402D02*
X16275117Y-11150402D01*
X16203689Y-10836116D02*
X16132260Y-11050402D01*
X16317974Y-11050402D01*
X16660831Y-11150402D02*
X16660831Y-10850402D01*
X16789403Y-11150402D02*
X16789403Y-10993259D01*
X16775117Y-10964688D01*
X16746546Y-10950402D01*
X16703689Y-10950402D01*
X16675117Y-10964688D01*
X16660831Y-10978973D01*
X16975117Y-11150402D02*
X16946546Y-11136116D01*
X16932260Y-11121830D01*
X16917974Y-11093259D01*
X16917974Y-11007545D01*
X16932260Y-10978973D01*
X16946546Y-10964688D01*
X16975117Y-10950402D01*
X17017974Y-10950402D01*
X17046546Y-10964688D01*
X17060832Y-10978973D01*
X17075117Y-11007545D01*
X17075117Y-11093259D01*
X17060832Y-11121830D01*
X17046546Y-11136116D01*
X17017974Y-11150402D01*
X16975117Y-11150402D01*
X17246546Y-11150402D02*
X17217974Y-11136116D01*
X17203689Y-11107545D01*
X17203689Y-10850402D01*
X17475117Y-11136116D02*
X17446546Y-11150402D01*
X17389403Y-11150402D01*
X17360832Y-11136116D01*
X17346546Y-11107545D01*
X17346546Y-10993259D01*
X17360832Y-10964688D01*
X17389403Y-10950402D01*
X17446546Y-10950402D01*
X17475117Y-10964688D01*
X17489403Y-10993259D01*
X17489403Y-11021830D01*
X17346546Y-11050402D01*
X17603689Y-11136116D02*
X17632260Y-11150402D01*
X17689403Y-11150402D01*
X17717974Y-11136116D01*
X17732260Y-11107545D01*
X17732260Y-11093259D01*
X17717974Y-11064688D01*
X17689403Y-11050402D01*
X17646546Y-11050402D01*
X17617974Y-11036116D01*
X17603689Y-11007545D01*
X17603689Y-10993259D01*
X17617974Y-10964688D01*
X17646546Y-10950402D01*
X17689403Y-10950402D01*
X17717974Y-10964688D01*
X17832260Y-11264687D02*
X17846546Y-11250402D01*
X17875117Y-11207545D01*
X17889403Y-11178973D01*
X17903689Y-11136116D01*
X17917974Y-11064688D01*
X17917974Y-11007545D01*
X17903689Y-10936116D01*
X17889403Y-10893259D01*
X17875117Y-10864688D01*
X17846546Y-10821830D01*
X17832260Y-10807545D01*
M02*
