G04 #@! TF.GenerationSoftware,KiCad,Pcbnew,5.1.6-c6e7f7d~87~ubuntu18.04.1*
G04 #@! TF.CreationDate,2020-07-20T19:22:24+02:00*
G04 #@! TF.ProjectId,cloud-demo,636c6f75-642d-4646-956d-6f2e6b696361,rev?*
G04 #@! TF.SameCoordinates,Original*
G04 #@! TF.FileFunction,Soldermask,Bot*
G04 #@! TF.FilePolarity,Negative*
%FSLAX46Y46*%
G04 Gerber Fmt 4.6, Leading zero omitted, Abs format (unit mm)*
G04 Created by KiCad (PCBNEW 5.1.6-c6e7f7d~87~ubuntu18.04.1) date 2020-07-20 19:22:24*
%MOMM*%
%LPD*%
G01*
G04 APERTURE LIST*
%ADD10O,1.800000X1.800000*%
%ADD11R,1.800000X1.800000*%
G04 APERTURE END LIST*
G36*
G01*
X128385000Y-87238262D02*
X128385000Y-86281738D01*
G75*
G02*
X128656738Y-86010000I271738J0D01*
G01*
X129363262Y-86010000D01*
G75*
G02*
X129635000Y-86281738I0J-271738D01*
G01*
X129635000Y-87238262D01*
G75*
G02*
X129363262Y-87510000I-271738J0D01*
G01*
X128656738Y-87510000D01*
G75*
G02*
X128385000Y-87238262I0J271738D01*
G01*
G37*
G36*
G01*
X126335000Y-87238262D02*
X126335000Y-86281738D01*
G75*
G02*
X126606738Y-86010000I271738J0D01*
G01*
X127313262Y-86010000D01*
G75*
G02*
X127585000Y-86281738I0J-271738D01*
G01*
X127585000Y-87238262D01*
G75*
G02*
X127313262Y-87510000I-271738J0D01*
G01*
X126606738Y-87510000D01*
G75*
G02*
X126335000Y-87238262I0J271738D01*
G01*
G37*
G36*
G01*
X132755000Y-86781738D02*
X132755000Y-87738262D01*
G75*
G02*
X132483262Y-88010000I-271738J0D01*
G01*
X131776738Y-88010000D01*
G75*
G02*
X131505000Y-87738262I0J271738D01*
G01*
X131505000Y-86781738D01*
G75*
G02*
X131776738Y-86510000I271738J0D01*
G01*
X132483262Y-86510000D01*
G75*
G02*
X132755000Y-86781738I0J-271738D01*
G01*
G37*
G36*
G01*
X134805000Y-86781738D02*
X134805000Y-87738262D01*
G75*
G02*
X134533262Y-88010000I-271738J0D01*
G01*
X133826738Y-88010000D01*
G75*
G02*
X133555000Y-87738262I0J271738D01*
G01*
X133555000Y-86781738D01*
G75*
G02*
X133826738Y-86510000I271738J0D01*
G01*
X134533262Y-86510000D01*
G75*
G02*
X134805000Y-86781738I0J-271738D01*
G01*
G37*
G36*
G01*
X125668262Y-89855000D02*
X124711738Y-89855000D01*
G75*
G02*
X124440000Y-89583262I0J271738D01*
G01*
X124440000Y-88876738D01*
G75*
G02*
X124711738Y-88605000I271738J0D01*
G01*
X125668262Y-88605000D01*
G75*
G02*
X125940000Y-88876738I0J-271738D01*
G01*
X125940000Y-89583262D01*
G75*
G02*
X125668262Y-89855000I-271738J0D01*
G01*
G37*
G36*
G01*
X125668262Y-91905000D02*
X124711738Y-91905000D01*
G75*
G02*
X124440000Y-91633262I0J271738D01*
G01*
X124440000Y-90926738D01*
G75*
G02*
X124711738Y-90655000I271738J0D01*
G01*
X125668262Y-90655000D01*
G75*
G02*
X125940000Y-90926738I0J-271738D01*
G01*
X125940000Y-91633262D01*
G75*
G02*
X125668262Y-91905000I-271738J0D01*
G01*
G37*
G36*
G01*
X135788262Y-90315000D02*
X134831738Y-90315000D01*
G75*
G02*
X134560000Y-90043262I0J271738D01*
G01*
X134560000Y-89336738D01*
G75*
G02*
X134831738Y-89065000I271738J0D01*
G01*
X135788262Y-89065000D01*
G75*
G02*
X136060000Y-89336738I0J-271738D01*
G01*
X136060000Y-90043262D01*
G75*
G02*
X135788262Y-90315000I-271738J0D01*
G01*
G37*
G36*
G01*
X135788262Y-92365000D02*
X134831738Y-92365000D01*
G75*
G02*
X134560000Y-92093262I0J271738D01*
G01*
X134560000Y-91386738D01*
G75*
G02*
X134831738Y-91115000I271738J0D01*
G01*
X135788262Y-91115000D01*
G75*
G02*
X136060000Y-91386738I0J-271738D01*
G01*
X136060000Y-92093262D01*
G75*
G02*
X135788262Y-92365000I-271738J0D01*
G01*
G37*
D10*
X131970000Y-92210000D03*
X129430000Y-92210000D03*
X131970000Y-94750000D03*
D11*
X129430000Y-94750000D03*
M02*
