G04 #@! TF.GenerationSoftware,KiCad,Pcbnew,5.1.6-c6e7f7d~87~ubuntu18.04.1*
G04 #@! TF.CreationDate,2020-07-20T19:22:24+02:00*
G04 #@! TF.ProjectId,cloud-demo,636c6f75-642d-4646-956d-6f2e6b696361,rev?*
G04 #@! TF.SameCoordinates,Original*
G04 #@! TF.FileFunction,Profile,NP*
%FSLAX46Y46*%
G04 Gerber Fmt 4.6, Leading zero omitted, Abs format (unit mm)*
G04 Created by KiCad (PCBNEW 5.1.6-c6e7f7d~87~ubuntu18.04.1) date 2020-07-20 19:22:24*
%MOMM*%
%LPD*%
G01*
G04 APERTURE LIST*
G04 #@! TA.AperFunction,Profile*
%ADD10C,0.200000*%
G04 #@! TD*
G04 APERTURE END LIST*
D10*
X119397432Y-70080646D02*
X119719008Y-69888181D01*
X119719008Y-69888181D02*
X120051536Y-69701669D01*
X120051536Y-69701669D02*
X120395955Y-69523422D01*
X120395955Y-69523422D02*
X120753201Y-69355756D01*
X120753201Y-69355756D02*
X120936928Y-69276614D01*
X120936928Y-69276614D02*
X121124213Y-69200985D01*
X121124213Y-69200985D02*
X121315174Y-69129159D01*
X121315174Y-69129159D02*
X121509928Y-69061424D01*
X121509928Y-69061424D02*
X121708593Y-68998071D01*
X121708593Y-68998071D02*
X121911285Y-68939388D01*
X121911285Y-68939388D02*
X122118121Y-68885665D01*
X122118121Y-68885665D02*
X122329220Y-68837190D01*
X122329220Y-68837190D02*
X122544698Y-68794255D01*
X122544698Y-68794255D02*
X122764672Y-68757147D01*
X122764672Y-68757147D02*
X122989259Y-68726156D01*
X122989259Y-68726156D02*
X123218578Y-68701571D01*
X123218578Y-68701571D02*
X123452745Y-68683682D01*
X123452745Y-68683682D02*
X123691877Y-68672778D01*
X123691877Y-68672778D02*
X123936091Y-68669149D01*
X123936091Y-68669149D02*
X124185505Y-68673083D01*
X124185505Y-68673083D02*
X124440237Y-68684870D01*
X124440237Y-68684870D02*
X124700402Y-68704799D01*
X124700402Y-68704799D02*
X124966119Y-68733161D01*
X124966119Y-68733161D02*
X125237504Y-68770243D01*
X125237504Y-68770243D02*
X125514675Y-68816335D01*
X125514675Y-68816335D02*
X125797750Y-68871727D01*
X125797750Y-68871727D02*
X126086844Y-68936708D01*
X126086844Y-68936708D02*
X126382077Y-69011568D01*
X139781188Y-96486874D02*
X121571224Y-96486874D01*
X120217059Y-89466597D02*
X119675669Y-89344412D01*
X119675669Y-89344412D02*
X119175356Y-89224634D01*
X119175356Y-89224634D02*
X118714361Y-89107012D01*
X118714361Y-89107012D02*
X118290928Y-88991297D01*
X118290928Y-88991297D02*
X117903300Y-88877239D01*
X117903300Y-88877239D02*
X117549719Y-88764588D01*
X117549719Y-88764588D02*
X117228428Y-88653094D01*
X117228428Y-88653094D02*
X116937671Y-88542508D01*
X116937671Y-88542508D02*
X116675689Y-88432579D01*
X116675689Y-88432579D02*
X116440727Y-88323057D01*
X116440727Y-88323057D02*
X116231026Y-88213693D01*
X116231026Y-88213693D02*
X116044830Y-88104237D01*
X116044830Y-88104237D02*
X115735925Y-87884049D01*
X115735925Y-87884049D02*
X115499952Y-87660495D01*
X115499952Y-87660495D02*
X115322856Y-87431575D01*
X115322856Y-87431575D02*
X115190580Y-87195291D01*
X115190580Y-87195291D02*
X115089066Y-86949644D01*
X115089066Y-86949644D02*
X115004259Y-86692634D01*
X115004259Y-86692634D02*
X114922100Y-86422264D01*
X114922100Y-86422264D02*
X114828532Y-86136535D01*
X114828532Y-86136535D02*
X114709500Y-85833447D01*
X114709500Y-85833447D02*
X114550946Y-85511002D01*
X144841489Y-88967696D02*
X144597627Y-88977864D01*
X144597627Y-88977864D02*
X144348768Y-88987106D01*
X144348768Y-88987106D02*
X144096713Y-88996283D01*
X144096713Y-88996283D02*
X143843264Y-89006258D01*
X143843264Y-89006258D02*
X143590224Y-89017893D01*
X143590224Y-89017893D02*
X143339395Y-89032053D01*
X143339395Y-89032053D02*
X143092579Y-89049598D01*
X143092579Y-89049598D02*
X142851578Y-89071393D01*
X142851578Y-89071393D02*
X142618194Y-89098299D01*
X142618194Y-89098299D02*
X142394230Y-89131179D01*
X142394230Y-89131179D02*
X142181487Y-89170896D01*
X142181487Y-89170896D02*
X141981768Y-89218313D01*
X141981768Y-89218313D02*
X141710550Y-89305763D01*
X141710550Y-89305763D02*
X141478773Y-89415390D01*
X141478773Y-89415390D02*
X141349170Y-89502234D01*
X133402353Y-69047202D02*
X133696088Y-68972384D01*
X133696088Y-68972384D02*
X134024279Y-68904146D01*
X134024279Y-68904146D02*
X134383559Y-68843470D01*
X134383559Y-68843470D02*
X134770561Y-68791337D01*
X134770561Y-68791337D02*
X134973406Y-68768782D01*
X134973406Y-68768782D02*
X135181918Y-68748731D01*
X135181918Y-68748731D02*
X135395678Y-68731307D01*
X135395678Y-68731307D02*
X135614264Y-68716633D01*
X135614264Y-68716633D02*
X135837255Y-68704832D01*
X135837255Y-68704832D02*
X136064231Y-68696026D01*
X136064231Y-68696026D02*
X136294771Y-68690338D01*
X136294771Y-68690338D02*
X136528453Y-68687892D01*
X136528453Y-68687892D02*
X136764857Y-68688810D01*
X136764857Y-68688810D02*
X137003562Y-68693214D01*
X137003562Y-68693214D02*
X137244147Y-68701228D01*
X137244147Y-68701228D02*
X137486192Y-68712974D01*
X137486192Y-68712974D02*
X137729275Y-68728575D01*
X137729275Y-68728575D02*
X137972976Y-68748154D01*
X137972976Y-68748154D02*
X138216873Y-68771834D01*
X138216873Y-68771834D02*
X138460547Y-68799738D01*
X138460547Y-68799738D02*
X138703575Y-68831987D01*
X138703575Y-68831987D02*
X138945537Y-68868706D01*
X138945537Y-68868706D02*
X139186013Y-68910017D01*
X139186013Y-68910017D02*
X139424581Y-68956042D01*
X139424581Y-68956042D02*
X139660821Y-69006905D01*
X139660821Y-69006905D02*
X139894312Y-69062728D01*
X139894312Y-69062728D02*
X140124632Y-69123634D01*
X140124632Y-69123634D02*
X140351362Y-69189746D01*
X126382077Y-69011568D02*
X126667717Y-69095496D01*
X126667717Y-69095496D02*
X126858678Y-69170053D01*
X126858678Y-69170053D02*
X127049359Y-69257059D01*
X127049359Y-69257059D02*
X127239152Y-69354427D01*
X127239152Y-69354427D02*
X127427451Y-69460071D01*
X127427451Y-69460071D02*
X127613649Y-69571902D01*
X127613649Y-69571902D02*
X127797138Y-69687835D01*
X127797138Y-69687835D02*
X127977312Y-69805781D01*
X127977312Y-69805781D02*
X128153564Y-69923654D01*
X128153564Y-69923654D02*
X128325287Y-70039367D01*
X128325287Y-70039367D02*
X128491873Y-70150833D01*
X128491873Y-70150833D02*
X128730795Y-70305503D01*
X128730795Y-70305503D02*
X128954746Y-70438877D01*
X128954746Y-70438877D02*
X129161678Y-70543912D01*
X143451689Y-72432617D02*
X143496228Y-72737315D01*
X143496228Y-72737315D02*
X143517226Y-73025329D01*
X143517226Y-73025329D02*
X143517819Y-73297447D01*
X143517819Y-73297447D02*
X143501142Y-73554454D01*
X143501142Y-73554454D02*
X143470330Y-73797141D01*
X143470330Y-73797141D02*
X143428521Y-74026293D01*
X143428521Y-74026293D02*
X143378848Y-74242700D01*
X143378848Y-74242700D02*
X143324448Y-74447148D01*
X143324448Y-74447148D02*
X143268456Y-74640425D01*
X143268456Y-74640425D02*
X143188342Y-74911120D01*
X143188342Y-74911120D02*
X143122285Y-75161111D01*
X143122285Y-75161111D02*
X143080866Y-75393058D01*
X143080866Y-75393058D02*
X143074668Y-75609619D01*
X143074668Y-75609619D02*
X143095330Y-75746758D01*
X121571224Y-96486874D02*
X121538375Y-96267988D01*
X121538375Y-96267988D02*
X121513136Y-96049504D01*
X121513136Y-96049504D02*
X121494685Y-95831376D01*
X121494685Y-95831376D02*
X121482200Y-95613563D01*
X121482200Y-95613563D02*
X121474858Y-95396020D01*
X121474858Y-95396020D02*
X121471839Y-95178705D01*
X121471839Y-95178705D02*
X121472318Y-94961574D01*
X121472318Y-94961574D02*
X121475475Y-94744584D01*
X121475475Y-94744584D02*
X121480488Y-94527691D01*
X121480488Y-94527691D02*
X121486534Y-94310853D01*
X121486534Y-94310853D02*
X121492791Y-94094026D01*
X121492791Y-94094026D02*
X121498437Y-93877167D01*
X121498437Y-93877167D02*
X121502650Y-93660232D01*
X121502650Y-93660232D02*
X121504608Y-93443179D01*
X121504608Y-93443179D02*
X121503489Y-93225964D01*
X121503489Y-93225964D02*
X121498471Y-93008543D01*
X121498471Y-93008543D02*
X121488732Y-92790874D01*
X121488732Y-92790874D02*
X121473448Y-92572914D01*
X121473448Y-92572914D02*
X121451800Y-92354618D01*
X121451800Y-92354618D02*
X121422964Y-92135944D01*
X121422964Y-92135944D02*
X121386118Y-91916848D01*
X121386118Y-91916848D02*
X121340440Y-91697288D01*
X121340440Y-91697288D02*
X121285109Y-91477219D01*
X121285109Y-91477219D02*
X121219302Y-91256599D01*
X121219302Y-91256599D02*
X121142196Y-91035384D01*
X121142196Y-91035384D02*
X121052971Y-90813532D01*
X121052971Y-90813532D02*
X120950803Y-90590998D01*
X120950803Y-90590998D02*
X120834871Y-90367740D01*
X120834871Y-90367740D02*
X120704353Y-90143714D01*
X120704353Y-90143714D02*
X120558426Y-89918877D01*
X120558426Y-89918877D02*
X120396269Y-89693185D01*
X120396269Y-89693185D02*
X120217059Y-89466597D01*
X140351362Y-69189746D02*
X140632134Y-69299555D01*
X140632134Y-69299555D02*
X140893198Y-69406067D01*
X140893198Y-69406067D02*
X141135340Y-69509556D01*
X141135340Y-69509556D02*
X141359343Y-69610297D01*
X141359343Y-69610297D02*
X141565992Y-69708565D01*
X141565992Y-69708565D02*
X141756071Y-69804636D01*
X141756071Y-69804636D02*
X142089656Y-69991287D01*
X142089656Y-69991287D02*
X142366374Y-70172450D01*
X142366374Y-70172450D02*
X142592500Y-70350327D01*
X142592500Y-70350327D02*
X142774309Y-70527118D01*
X142774309Y-70527118D02*
X142918076Y-70705026D01*
X142918076Y-70705026D02*
X143030075Y-70886251D01*
X143030075Y-70886251D02*
X143116582Y-71072994D01*
X143116582Y-71072994D02*
X143183872Y-71267457D01*
X143183872Y-71267457D02*
X143238220Y-71471842D01*
X143238220Y-71471842D02*
X143285901Y-71688349D01*
X143285901Y-71688349D02*
X143333189Y-71919179D01*
X143333189Y-71919179D02*
X143386360Y-72166535D01*
X143386360Y-72166535D02*
X143451689Y-72432617D01*
X129161678Y-70543912D02*
X129386927Y-70524560D01*
X129386927Y-70524560D02*
X129632382Y-70486453D01*
X129632382Y-70486453D02*
X129850836Y-70412805D01*
X129850836Y-70412805D02*
X130033895Y-70304824D01*
X130033895Y-70304824D02*
X130206349Y-70195907D01*
X130206349Y-70195907D02*
X130454435Y-70058840D01*
X130454435Y-70058840D02*
X130682065Y-69949953D01*
X130682065Y-69949953D02*
X130973640Y-69825750D01*
X130973640Y-69825750D02*
X131341293Y-69685107D01*
X131341293Y-69685107D02*
X131557440Y-69608271D01*
X131557440Y-69608271D02*
X131797156Y-69526904D01*
X131797156Y-69526904D02*
X132061958Y-69440866D01*
X132061958Y-69440866D02*
X132353362Y-69350017D01*
X132353362Y-69350017D02*
X132672885Y-69254217D01*
X132672885Y-69254217D02*
X133022043Y-69153325D01*
X133022043Y-69153325D02*
X133402353Y-69047202D01*
X146765831Y-82517584D02*
X146896853Y-82719803D01*
X146896853Y-82719803D02*
X147020004Y-82923990D01*
X147020004Y-82923990D02*
X147135136Y-83130182D01*
X147135136Y-83130182D02*
X147242102Y-83338415D01*
X147242102Y-83338415D02*
X147340753Y-83548727D01*
X147340753Y-83548727D02*
X147430942Y-83761154D01*
X147430942Y-83761154D02*
X147512521Y-83975734D01*
X147512521Y-83975734D02*
X147585342Y-84192503D01*
X147585342Y-84192503D02*
X147649258Y-84411499D01*
X147649258Y-84411499D02*
X147704121Y-84632757D01*
X147704121Y-84632757D02*
X147749783Y-84856316D01*
X147749783Y-84856316D02*
X147786097Y-85082211D01*
X147786097Y-85082211D02*
X147812914Y-85310481D01*
X147812914Y-85310481D02*
X147830087Y-85541162D01*
X147830087Y-85541162D02*
X147837469Y-85774290D01*
X147837469Y-85774290D02*
X147834911Y-86009904D01*
X139781188Y-96486874D02*
X139781188Y-96486874D01*
X146017475Y-78241274D02*
X146162890Y-78482581D01*
X146162890Y-78482581D02*
X146293124Y-78710493D01*
X146293124Y-78710493D02*
X146408908Y-78925656D01*
X146408908Y-78925656D02*
X146510973Y-79128712D01*
X146510973Y-79128712D02*
X146600049Y-79320309D01*
X146600049Y-79320309D02*
X146742158Y-79671699D01*
X146742158Y-79671699D02*
X146841082Y-79984985D01*
X146841082Y-79984985D02*
X146902669Y-80265326D01*
X146902669Y-80265326D02*
X146932764Y-80517880D01*
X146932764Y-80517880D02*
X146937214Y-80747806D01*
X146937214Y-80747806D02*
X146921866Y-80960264D01*
X146921866Y-80960264D02*
X146892566Y-81160411D01*
X146892566Y-81160411D02*
X146835247Y-81448835D01*
X146835247Y-81448835D02*
X146779424Y-81738579D01*
X146779424Y-81738579D02*
X146752784Y-81941073D01*
X146752784Y-81941073D02*
X146741426Y-82157051D01*
X146741426Y-82157051D02*
X146751195Y-82391671D01*
X146751195Y-82391671D02*
X146765831Y-82517584D01*
X141349170Y-89502234D02*
X141191238Y-89761353D01*
X141191238Y-89761353D02*
X141047136Y-90015286D01*
X141047136Y-90015286D02*
X140916183Y-90264288D01*
X140916183Y-90264288D02*
X140797698Y-90508615D01*
X140797698Y-90508615D02*
X140691003Y-90748521D01*
X140691003Y-90748521D02*
X140595415Y-90984262D01*
X140595415Y-90984262D02*
X140510256Y-91216091D01*
X140510256Y-91216091D02*
X140434846Y-91444265D01*
X140434846Y-91444265D02*
X140368503Y-91669039D01*
X140368503Y-91669039D02*
X140310549Y-91890667D01*
X140310549Y-91890667D02*
X140260303Y-92109405D01*
X140260303Y-92109405D02*
X140217084Y-92325507D01*
X140217084Y-92325507D02*
X140180214Y-92539228D01*
X140180214Y-92539228D02*
X140149011Y-92750825D01*
X140149011Y-92750825D02*
X140122795Y-92960551D01*
X140122795Y-92960551D02*
X140100887Y-93168662D01*
X140100887Y-93168662D02*
X140082606Y-93375413D01*
X140082606Y-93375413D02*
X140067272Y-93581058D01*
X140067272Y-93581058D02*
X140054206Y-93785853D01*
X140054206Y-93785853D02*
X140042726Y-93990054D01*
X140042726Y-93990054D02*
X140032153Y-94193914D01*
X140032153Y-94193914D02*
X140021807Y-94397689D01*
X140021807Y-94397689D02*
X140011007Y-94601634D01*
X140011007Y-94601634D02*
X139999074Y-94806004D01*
X139999074Y-94806004D02*
X139985327Y-95011055D01*
X139985327Y-95011055D02*
X139969086Y-95217040D01*
X139969086Y-95217040D02*
X139949672Y-95424216D01*
X139949672Y-95424216D02*
X139926403Y-95632837D01*
X139926403Y-95632837D02*
X139898601Y-95843158D01*
X139898601Y-95843158D02*
X139865584Y-96055434D01*
X139865584Y-96055434D02*
X139826673Y-96269921D01*
X139826673Y-96269921D02*
X139781188Y-96486874D01*
X114550946Y-85511002D02*
X114466384Y-85246423D01*
X114466384Y-85246423D02*
X114398479Y-84977554D01*
X114398479Y-84977554D02*
X114346721Y-84705050D01*
X114346721Y-84705050D02*
X114310601Y-84429566D01*
X114310601Y-84429566D02*
X114289608Y-84151760D01*
X114289608Y-84151760D02*
X114283234Y-83872286D01*
X114283234Y-83872286D02*
X114290970Y-83591802D01*
X114290970Y-83591802D02*
X114312305Y-83310962D01*
X114312305Y-83310962D02*
X114346731Y-83030424D01*
X114346731Y-83030424D02*
X114393739Y-82750843D01*
X114393739Y-82750843D02*
X114452818Y-82472875D01*
X114452818Y-82472875D02*
X114523460Y-82197176D01*
X114523460Y-82197176D02*
X114605155Y-81924402D01*
X114605155Y-81924402D02*
X114697394Y-81655210D01*
X114697394Y-81655210D02*
X114799667Y-81390254D01*
X114799667Y-81390254D02*
X114911465Y-81130192D01*
X114911465Y-81130192D02*
X115032279Y-80875680D01*
X115032279Y-80875680D02*
X115161599Y-80627372D01*
X115161599Y-80627372D02*
X115298916Y-80385926D01*
X115298916Y-80385926D02*
X115443721Y-80151997D01*
X115443721Y-80151997D02*
X115595504Y-79926242D01*
X115595504Y-79926242D02*
X115753756Y-79709316D01*
X115753756Y-79709316D02*
X115917967Y-79501875D01*
X115917967Y-79501875D02*
X116087629Y-79304576D01*
X116087629Y-79304576D02*
X116262231Y-79118075D01*
X116262231Y-79118075D02*
X116441264Y-78943027D01*
X116441264Y-78943027D02*
X116624220Y-78780088D01*
X116624220Y-78780088D02*
X116810588Y-78629915D01*
X116810588Y-78629915D02*
X116999859Y-78493164D01*
X116999859Y-78493164D02*
X117191525Y-78370490D01*
X117191525Y-78370490D02*
X117385075Y-78262550D01*
X117385075Y-78262550D02*
X117580000Y-78170000D01*
X143095330Y-75746758D02*
X143405084Y-75888541D01*
X143405084Y-75888541D02*
X143682330Y-76033936D01*
X143682330Y-76033936D02*
X143930401Y-76182572D01*
X143930401Y-76182572D02*
X144152632Y-76334080D01*
X144152632Y-76334080D02*
X144352357Y-76488088D01*
X144352357Y-76488088D02*
X144532910Y-76644226D01*
X144532910Y-76644226D02*
X144697625Y-76802124D01*
X144697625Y-76802124D02*
X144849837Y-76961411D01*
X144849837Y-76961411D02*
X144992878Y-77121717D01*
X144992878Y-77121717D02*
X145130083Y-77282672D01*
X145130083Y-77282672D02*
X145264787Y-77443904D01*
X145264787Y-77443904D02*
X145400323Y-77605045D01*
X145400323Y-77605045D02*
X145540026Y-77765722D01*
X145540026Y-77765722D02*
X145687230Y-77925566D01*
X145687230Y-77925566D02*
X145845268Y-78084207D01*
X145845268Y-78084207D02*
X146017475Y-78241274D01*
X147834911Y-86009904D02*
X147758196Y-86200097D01*
X147758196Y-86200097D02*
X147603556Y-86555791D01*
X147603556Y-86555791D02*
X147446832Y-86879888D01*
X147446832Y-86879888D02*
X147287459Y-87173981D01*
X147287459Y-87173981D02*
X147124872Y-87439661D01*
X147124872Y-87439661D02*
X146958507Y-87678521D01*
X146958507Y-87678521D02*
X146787799Y-87892152D01*
X146787799Y-87892152D02*
X146612182Y-88082145D01*
X146612182Y-88082145D02*
X146431093Y-88250093D01*
X146431093Y-88250093D02*
X146243967Y-88397588D01*
X146243967Y-88397588D02*
X146050239Y-88526222D01*
X146050239Y-88526222D02*
X145849344Y-88637586D01*
X145849344Y-88637586D02*
X145640718Y-88733272D01*
X145640718Y-88733272D02*
X145423795Y-88814873D01*
X145423795Y-88814873D02*
X145198012Y-88883980D01*
X145198012Y-88883980D02*
X144962804Y-88942184D01*
X144962804Y-88942184D02*
X144841489Y-88967696D01*
X117580000Y-78170000D02*
X117700398Y-77862711D01*
X117700398Y-77862711D02*
X117739054Y-77517163D01*
X117739054Y-77517163D02*
X117713289Y-77135888D01*
X117713289Y-77135888D02*
X117681662Y-76932645D01*
X117681662Y-76932645D02*
X117640425Y-76721420D01*
X117640425Y-76721420D02*
X117591744Y-76502529D01*
X117591744Y-76502529D02*
X117537784Y-76276290D01*
X117537784Y-76276290D02*
X117480711Y-76043019D01*
X117480711Y-76043019D02*
X117422688Y-75803032D01*
X117422688Y-75803032D02*
X117365882Y-75556647D01*
X117365882Y-75556647D02*
X117312458Y-75304179D01*
X117312458Y-75304179D02*
X117264580Y-75045946D01*
X117264580Y-75045946D02*
X117224415Y-74782264D01*
X117224415Y-74782264D02*
X117194127Y-74513449D01*
X117194127Y-74513449D02*
X117175882Y-74239819D01*
X117175882Y-74239819D02*
X117171844Y-73961690D01*
X117171844Y-73961690D02*
X117184180Y-73679378D01*
X117184180Y-73679378D02*
X117215053Y-73393200D01*
X117215053Y-73393200D02*
X117266630Y-73103473D01*
X117266630Y-73103473D02*
X117341076Y-72810513D01*
X117341076Y-72810513D02*
X117440555Y-72514637D01*
X117440555Y-72514637D02*
X117567233Y-72216162D01*
X117567233Y-72216162D02*
X117723276Y-71915404D01*
X117723276Y-71915404D02*
X117910848Y-71612680D01*
X117910848Y-71612680D02*
X118132114Y-71308306D01*
X118132114Y-71308306D02*
X118389241Y-71002599D01*
X118389241Y-71002599D02*
X118684392Y-70695875D01*
X118684392Y-70695875D02*
X119019734Y-70388452D01*
X119019734Y-70388452D02*
X119397432Y-70080646D01*
M02*
