G04 #@! TF.GenerationSoftware,KiCad,Pcbnew,5.1.6-c6e7f7d~87~ubuntu18.04.1*
G04 #@! TF.CreationDate,2020-07-20T19:22:24+02:00*
G04 #@! TF.ProjectId,cloud-demo,636c6f75-642d-4646-956d-6f2e6b696361,rev?*
G04 #@! TF.SameCoordinates,Original*
G04 #@! TF.FileFunction,Copper,L1,Top*
G04 #@! TF.FilePolarity,Positive*
%FSLAX46Y46*%
G04 Gerber Fmt 4.6, Leading zero omitted, Abs format (unit mm)*
G04 Created by KiCad (PCBNEW 5.1.6-c6e7f7d~87~ubuntu18.04.1) date 2020-07-20 19:22:24*
%MOMM*%
%LPD*%
G01*
G04 APERTURE LIST*
G04 #@! TA.AperFunction,ComponentPad*
%ADD10O,1.700000X1.700000*%
G04 #@! TD*
G04 #@! TA.AperFunction,ComponentPad*
%ADD11R,1.700000X1.700000*%
G04 #@! TD*
G04 #@! TA.AperFunction,ViaPad*
%ADD12C,0.800000*%
G04 #@! TD*
G04 #@! TA.AperFunction,NonConductor*
%ADD13C,0.254000*%
G04 #@! TD*
G04 APERTURE END LIST*
D10*
X131970000Y-92210000D03*
X129430000Y-92210000D03*
X131970000Y-94750000D03*
D11*
X129430000Y-94750000D03*
D12*
X139940000Y-89160000D03*
X137830000Y-90490000D03*
X139110000Y-92520000D03*
X134820000Y-95240000D03*
X136900000Y-93920000D03*
X138790000Y-95460000D03*
X130670000Y-89060000D03*
X132530000Y-89700000D03*
X127670000Y-89310000D03*
X122450000Y-89310000D03*
X122880000Y-93530000D03*
X123130000Y-91340000D03*
X125450000Y-94460000D03*
X123410000Y-95350000D03*
X130890000Y-91020000D03*
X127200000Y-94850000D03*
X128530000Y-90490000D03*
D13*
G36*
X122389744Y-94447205D02*
G01*
X122578102Y-94525226D01*
X122739049Y-94557240D01*
X122606063Y-94690226D01*
X122492795Y-94859744D01*
X122414774Y-95048102D01*
X122375000Y-95248061D01*
X122375000Y-95451939D01*
X122414774Y-95651898D01*
X122456186Y-95751874D01*
X122226335Y-95751874D01*
X122216490Y-95580122D01*
X122209685Y-95378501D01*
X122206850Y-95174402D01*
X122207306Y-94967730D01*
X122210350Y-94758476D01*
X122215255Y-94546283D01*
X122221158Y-94334560D01*
X122389744Y-94447205D01*
G37*
X122389744Y-94447205D02*
X122578102Y-94525226D01*
X122739049Y-94557240D01*
X122606063Y-94690226D01*
X122492795Y-94859744D01*
X122414774Y-95048102D01*
X122375000Y-95248061D01*
X122375000Y-95451939D01*
X122414774Y-95651898D01*
X122456186Y-95751874D01*
X122226335Y-95751874D01*
X122216490Y-95580122D01*
X122209685Y-95378501D01*
X122206850Y-95174402D01*
X122207306Y-94967730D01*
X122210350Y-94758476D01*
X122215255Y-94546283D01*
X122221158Y-94334560D01*
X122389744Y-94447205D01*
G36*
X124162743Y-69407816D02*
G01*
X124395157Y-69418570D01*
X124633299Y-69436812D01*
X124877364Y-69462863D01*
X125127439Y-69497033D01*
X125383776Y-69539660D01*
X125646543Y-69591078D01*
X125915892Y-69651621D01*
X126188080Y-69720638D01*
X126430021Y-69791726D01*
X126572235Y-69847250D01*
X126728891Y-69918731D01*
X126891466Y-70002136D01*
X127058315Y-70095745D01*
X127228115Y-70197728D01*
X127399529Y-70306032D01*
X127571730Y-70418759D01*
X127743863Y-70533877D01*
X127914563Y-70648900D01*
X127914674Y-70648960D01*
X127916545Y-70650231D01*
X128083131Y-70761697D01*
X128083528Y-70761910D01*
X128083874Y-70762193D01*
X128092450Y-70767831D01*
X128331371Y-70922500D01*
X128339047Y-70926465D01*
X128345929Y-70931684D01*
X128354709Y-70936997D01*
X128578660Y-71070371D01*
X128596495Y-71078754D01*
X128612956Y-71089572D01*
X128622074Y-71094281D01*
X128829007Y-71199316D01*
X128880497Y-71219403D01*
X128931021Y-71241781D01*
X128947194Y-71245423D01*
X128962644Y-71251450D01*
X129017055Y-71261153D01*
X129070964Y-71273292D01*
X129087540Y-71273723D01*
X129103863Y-71276634D01*
X129159121Y-71275584D01*
X129214362Y-71277021D01*
X129224593Y-71276214D01*
X129449842Y-71256862D01*
X129469532Y-71253209D01*
X129489534Y-71252362D01*
X129499685Y-71250859D01*
X129745140Y-71212752D01*
X129801056Y-71198370D01*
X129857442Y-71186147D01*
X129867190Y-71182937D01*
X130085644Y-71109289D01*
X130150505Y-71080098D01*
X130215389Y-71051026D01*
X130216387Y-71050447D01*
X130216453Y-71050417D01*
X130216519Y-71050370D01*
X130224264Y-71045874D01*
X130407324Y-70937893D01*
X130412218Y-70934320D01*
X130417662Y-70931679D01*
X130426376Y-70926260D01*
X130580631Y-70828838D01*
X130791042Y-70712586D01*
X130984820Y-70619893D01*
X131249043Y-70507341D01*
X131595752Y-70374710D01*
X131798639Y-70302588D01*
X132028868Y-70224441D01*
X132284921Y-70141246D01*
X132568282Y-70052904D01*
X132880433Y-69959314D01*
X133222868Y-69860365D01*
X133591858Y-69757401D01*
X133861688Y-69688672D01*
X134160354Y-69626573D01*
X134493856Y-69570250D01*
X134860232Y-69520896D01*
X135049202Y-69499884D01*
X135246980Y-69480865D01*
X135450153Y-69464304D01*
X135658270Y-69450333D01*
X135870966Y-69439077D01*
X136087540Y-69430674D01*
X136307637Y-69425244D01*
X136530923Y-69422907D01*
X136756615Y-69423783D01*
X136984521Y-69427988D01*
X137214132Y-69435636D01*
X137444829Y-69446832D01*
X137676333Y-69461689D01*
X137908013Y-69480303D01*
X138139522Y-69502780D01*
X138370412Y-69529220D01*
X138600087Y-69559697D01*
X138828160Y-69594309D01*
X139054185Y-69633137D01*
X139277569Y-69676233D01*
X139497999Y-69723692D01*
X139714889Y-69775546D01*
X139927761Y-69831838D01*
X140114164Y-69886191D01*
X140359448Y-69982121D01*
X140609944Y-70084321D01*
X140840128Y-70182699D01*
X141050777Y-70277435D01*
X141242327Y-70368523D01*
X141410708Y-70453627D01*
X141708457Y-70620226D01*
X141937050Y-70769883D01*
X142107750Y-70904160D01*
X142230322Y-71023348D01*
X142317237Y-71130903D01*
X142381680Y-71235179D01*
X142434101Y-71348339D01*
X142480475Y-71482358D01*
X142523830Y-71645399D01*
X142566935Y-71841131D01*
X142613143Y-72066688D01*
X142613191Y-72066845D01*
X142614603Y-72073644D01*
X142667774Y-72321000D01*
X142669468Y-72326299D01*
X142670183Y-72331806D01*
X142672560Y-72341789D01*
X142729504Y-72573720D01*
X142765109Y-72817297D01*
X142782285Y-73052884D01*
X142782767Y-73274428D01*
X142769149Y-73484294D01*
X142743692Y-73684807D01*
X142708437Y-73878038D01*
X142665308Y-74065934D01*
X142616227Y-74250392D01*
X142563102Y-74433771D01*
X142483560Y-74702535D01*
X142482482Y-74708138D01*
X142480423Y-74713447D01*
X142477731Y-74723350D01*
X142411674Y-74973341D01*
X142407690Y-74997935D01*
X142400605Y-75021816D01*
X142398731Y-75031905D01*
X142357312Y-75263852D01*
X142353425Y-75312975D01*
X142346532Y-75361775D01*
X142346167Y-75372031D01*
X142339969Y-75588592D01*
X142344133Y-75648738D01*
X142346413Y-75708963D01*
X142347871Y-75719122D01*
X142368533Y-75856261D01*
X142368591Y-75856493D01*
X142368604Y-75856731D01*
X142386101Y-75925853D01*
X142403644Y-75995344D01*
X142403746Y-75995558D01*
X142403805Y-75995793D01*
X142434537Y-76060499D01*
X142465101Y-76124960D01*
X142465245Y-76125154D01*
X142465346Y-76125367D01*
X142507385Y-76181962D01*
X142550563Y-76240169D01*
X142550743Y-76240332D01*
X142550883Y-76240521D01*
X142603490Y-76288213D01*
X142656776Y-76336584D01*
X142656980Y-76336707D01*
X142657158Y-76336868D01*
X142717787Y-76373290D01*
X142779692Y-76410534D01*
X142779922Y-76410617D01*
X142780122Y-76410737D01*
X142789423Y-76415074D01*
X143081223Y-76548639D01*
X143322473Y-76675157D01*
X143534162Y-76801994D01*
X143720842Y-76929264D01*
X143887191Y-77057536D01*
X144037877Y-77187845D01*
X144177365Y-77321561D01*
X144309783Y-77460133D01*
X144438933Y-77604873D01*
X144568400Y-77756750D01*
X144700736Y-77915149D01*
X144700830Y-77915241D01*
X144702299Y-77917013D01*
X144837835Y-78078154D01*
X144838474Y-78078778D01*
X144838981Y-78079513D01*
X144845660Y-78087305D01*
X144985363Y-78247982D01*
X144989285Y-78251690D01*
X144992467Y-78256031D01*
X144999365Y-78263629D01*
X145146570Y-78423473D01*
X145153523Y-78429681D01*
X145159326Y-78436978D01*
X145166518Y-78444299D01*
X145324556Y-78602940D01*
X145334197Y-78610890D01*
X145342431Y-78620285D01*
X145349965Y-78627254D01*
X145443149Y-78712245D01*
X145528969Y-78854659D01*
X145650328Y-79067040D01*
X145756804Y-79264906D01*
X145849213Y-79448751D01*
X145925676Y-79613219D01*
X146049954Y-79920519D01*
X146130272Y-80174880D01*
X146177081Y-80387953D01*
X146198608Y-80568600D01*
X146201701Y-80728389D01*
X146190716Y-80880447D01*
X146168021Y-81035476D01*
X146114345Y-81305569D01*
X146114328Y-81305744D01*
X146113520Y-81309784D01*
X146057697Y-81599529D01*
X146056145Y-81616247D01*
X146052113Y-81632544D01*
X146050703Y-81642709D01*
X146024063Y-81845203D01*
X146023280Y-81868874D01*
X146019409Y-81892230D01*
X146018798Y-81902474D01*
X146007440Y-82118452D01*
X146008774Y-82147935D01*
X146006707Y-82177372D01*
X146007062Y-82187628D01*
X146016831Y-82422248D01*
X146019908Y-82444186D01*
X146019997Y-82466334D01*
X146021111Y-82476535D01*
X146035747Y-82602448D01*
X146039983Y-82621988D01*
X146041426Y-82641930D01*
X146055147Y-82691947D01*
X146066135Y-82742639D01*
X146074086Y-82760987D01*
X146079375Y-82780266D01*
X146102546Y-82826659D01*
X146123174Y-82874259D01*
X146134538Y-82890713D01*
X146143470Y-82908597D01*
X146148990Y-82917249D01*
X146273578Y-83109537D01*
X146384260Y-83293051D01*
X146487186Y-83477383D01*
X146582274Y-83662493D01*
X146669532Y-83848516D01*
X146748904Y-84035464D01*
X146820375Y-84223456D01*
X146883915Y-84412598D01*
X146939480Y-84602983D01*
X146987048Y-84794822D01*
X147026555Y-84988248D01*
X147057937Y-85183459D01*
X147081105Y-85380672D01*
X147095951Y-85580095D01*
X147102342Y-85781932D01*
X147101458Y-85863421D01*
X147080227Y-85916057D01*
X146935417Y-86249139D01*
X146792525Y-86544633D01*
X146650455Y-86806797D01*
X146509303Y-87037451D01*
X146369209Y-87238592D01*
X146230105Y-87412672D01*
X146091642Y-87562469D01*
X145952930Y-87691115D01*
X145812469Y-87801828D01*
X145668165Y-87897645D01*
X145517483Y-87981174D01*
X145357774Y-88054424D01*
X145186612Y-88118811D01*
X145002033Y-88175307D01*
X144798841Y-88225588D01*
X144749921Y-88235875D01*
X144568729Y-88243430D01*
X144321491Y-88252612D01*
X144321487Y-88252613D01*
X144069970Y-88261770D01*
X144069853Y-88261786D01*
X144067808Y-88261852D01*
X143814359Y-88271827D01*
X143814181Y-88271852D01*
X143809503Y-88272034D01*
X143556464Y-88283669D01*
X143556322Y-88283690D01*
X143548797Y-88284061D01*
X143297968Y-88298221D01*
X143297742Y-88298256D01*
X143297520Y-88298247D01*
X143287279Y-88298903D01*
X143040463Y-88316448D01*
X143038545Y-88316775D01*
X143036606Y-88316733D01*
X143026380Y-88317585D01*
X142785378Y-88339380D01*
X142781524Y-88340113D01*
X142777603Y-88340125D01*
X142767400Y-88341229D01*
X142534016Y-88368135D01*
X142527870Y-88369461D01*
X142521597Y-88369675D01*
X142511434Y-88371094D01*
X142287470Y-88403974D01*
X142278577Y-88406183D01*
X142269445Y-88406850D01*
X142259344Y-88408662D01*
X142046600Y-88448379D01*
X142034355Y-88451931D01*
X142021705Y-88453474D01*
X142011704Y-88455774D01*
X141811985Y-88503192D01*
X141789400Y-88510949D01*
X141766003Y-88515697D01*
X141756214Y-88518777D01*
X141484996Y-88606227D01*
X141445905Y-88623201D01*
X141405594Y-88637013D01*
X141396287Y-88641336D01*
X141164509Y-88750963D01*
X141122083Y-88776368D01*
X141078193Y-88799143D01*
X141069628Y-88804796D01*
X140941677Y-88890533D01*
X140935226Y-88858102D01*
X140857205Y-88669744D01*
X140743937Y-88500226D01*
X140599774Y-88356063D01*
X140430256Y-88242795D01*
X140241898Y-88164774D01*
X140041939Y-88125000D01*
X139838061Y-88125000D01*
X139638102Y-88164774D01*
X139449744Y-88242795D01*
X139280226Y-88356063D01*
X139136063Y-88500226D01*
X139022795Y-88669744D01*
X138944774Y-88858102D01*
X138905000Y-89058061D01*
X138905000Y-89261939D01*
X138944774Y-89461898D01*
X139022795Y-89650256D01*
X139136063Y-89819774D01*
X139280226Y-89963937D01*
X139449744Y-90077205D01*
X139638102Y-90155226D01*
X139838061Y-90195000D01*
X140041939Y-90195000D01*
X140142631Y-90174971D01*
X140136360Y-90187903D01*
X140133919Y-90194511D01*
X140130355Y-90200592D01*
X140126119Y-90209939D01*
X140019424Y-90449845D01*
X140017179Y-90456602D01*
X140013790Y-90462852D01*
X140009867Y-90472335D01*
X139914279Y-90708076D01*
X139912267Y-90714880D01*
X139909096Y-90721221D01*
X139905490Y-90730828D01*
X139820331Y-90962657D01*
X139818578Y-90969401D01*
X139815670Y-90975727D01*
X139812381Y-90985448D01*
X139736971Y-91213622D01*
X139735493Y-91220185D01*
X139732884Y-91226379D01*
X139729910Y-91236201D01*
X139663567Y-91460974D01*
X139662367Y-91467237D01*
X139660078Y-91473184D01*
X139657413Y-91483094D01*
X139622266Y-91617502D01*
X139600256Y-91602795D01*
X139411898Y-91524774D01*
X139211939Y-91485000D01*
X139008061Y-91485000D01*
X138808102Y-91524774D01*
X138619744Y-91602795D01*
X138450226Y-91716063D01*
X138306063Y-91860226D01*
X138192795Y-92029744D01*
X138114774Y-92218102D01*
X138075000Y-92418061D01*
X138075000Y-92621939D01*
X138114774Y-92821898D01*
X138192795Y-93010256D01*
X138306063Y-93179774D01*
X138450226Y-93323937D01*
X138619744Y-93437205D01*
X138808102Y-93515226D01*
X139008061Y-93555000D01*
X139211939Y-93555000D01*
X139334014Y-93530718D01*
X139333763Y-93534260D01*
X139320697Y-93739055D01*
X139320704Y-93739247D01*
X139320365Y-93744598D01*
X139308885Y-93948798D01*
X139308891Y-93948953D01*
X139308713Y-93951985D01*
X139298140Y-94155845D01*
X139298142Y-94155886D01*
X139298098Y-94156645D01*
X139287815Y-94359197D01*
X139278139Y-94541918D01*
X139091898Y-94464774D01*
X138891939Y-94425000D01*
X138688061Y-94425000D01*
X138488102Y-94464774D01*
X138299744Y-94542795D01*
X138130226Y-94656063D01*
X137986063Y-94800226D01*
X137872795Y-94969744D01*
X137794774Y-95158102D01*
X137755000Y-95358061D01*
X137755000Y-95561939D01*
X137792780Y-95751874D01*
X135722760Y-95751874D01*
X135737205Y-95730256D01*
X135815226Y-95541898D01*
X135855000Y-95341939D01*
X135855000Y-95138061D01*
X135815226Y-94938102D01*
X135737205Y-94749744D01*
X135623937Y-94580226D01*
X135479774Y-94436063D01*
X135310256Y-94322795D01*
X135121898Y-94244774D01*
X134921939Y-94205000D01*
X134718061Y-94205000D01*
X134518102Y-94244774D01*
X134329744Y-94322795D01*
X134160226Y-94436063D01*
X134016063Y-94580226D01*
X133902795Y-94749744D01*
X133824774Y-94938102D01*
X133785000Y-95138061D01*
X133785000Y-95341939D01*
X133824774Y-95541898D01*
X133902795Y-95730256D01*
X133917240Y-95751874D01*
X133068233Y-95751874D01*
X133123475Y-95696632D01*
X133285990Y-95453411D01*
X133397932Y-95183158D01*
X133455000Y-94896260D01*
X133455000Y-94603740D01*
X133397932Y-94316842D01*
X133285990Y-94046589D01*
X133133293Y-93818061D01*
X135865000Y-93818061D01*
X135865000Y-94021939D01*
X135904774Y-94221898D01*
X135982795Y-94410256D01*
X136096063Y-94579774D01*
X136240226Y-94723937D01*
X136409744Y-94837205D01*
X136598102Y-94915226D01*
X136798061Y-94955000D01*
X137001939Y-94955000D01*
X137201898Y-94915226D01*
X137390256Y-94837205D01*
X137559774Y-94723937D01*
X137703937Y-94579774D01*
X137817205Y-94410256D01*
X137895226Y-94221898D01*
X137935000Y-94021939D01*
X137935000Y-93818061D01*
X137895226Y-93618102D01*
X137817205Y-93429744D01*
X137703937Y-93260226D01*
X137559774Y-93116063D01*
X137390256Y-93002795D01*
X137201898Y-92924774D01*
X137001939Y-92885000D01*
X136798061Y-92885000D01*
X136598102Y-92924774D01*
X136409744Y-93002795D01*
X136240226Y-93116063D01*
X136096063Y-93260226D01*
X135982795Y-93429744D01*
X135904774Y-93618102D01*
X135865000Y-93818061D01*
X133133293Y-93818061D01*
X133123475Y-93803368D01*
X132916632Y-93596525D01*
X132742240Y-93480000D01*
X132916632Y-93363475D01*
X133123475Y-93156632D01*
X133285990Y-92913411D01*
X133397932Y-92643158D01*
X133455000Y-92356260D01*
X133455000Y-92063740D01*
X133397932Y-91776842D01*
X133285990Y-91506589D01*
X133123475Y-91263368D01*
X132916632Y-91056525D01*
X132673411Y-90894010D01*
X132403158Y-90782068D01*
X132116260Y-90725000D01*
X131886598Y-90725000D01*
X131885226Y-90718102D01*
X131807205Y-90529744D01*
X131693937Y-90360226D01*
X131549774Y-90216063D01*
X131380256Y-90102795D01*
X131191898Y-90024774D01*
X131092937Y-90005090D01*
X131160256Y-89977205D01*
X131329774Y-89863937D01*
X131473937Y-89719774D01*
X131495000Y-89688251D01*
X131495000Y-89801939D01*
X131534774Y-90001898D01*
X131612795Y-90190256D01*
X131726063Y-90359774D01*
X131870226Y-90503937D01*
X132039744Y-90617205D01*
X132228102Y-90695226D01*
X132428061Y-90735000D01*
X132631939Y-90735000D01*
X132831898Y-90695226D01*
X133020256Y-90617205D01*
X133189774Y-90503937D01*
X133333937Y-90359774D01*
X133447205Y-90190256D01*
X133513076Y-90031229D01*
X134003303Y-90031229D01*
X134004027Y-90056115D01*
X134009591Y-90080381D01*
X134019782Y-90103096D01*
X134034210Y-90123386D01*
X134052318Y-90140471D01*
X134073412Y-90153696D01*
X134096680Y-90162551D01*
X134121229Y-90166697D01*
X135199762Y-90241365D01*
X134085229Y-91868223D01*
X134078086Y-91879965D01*
X134068524Y-91902952D01*
X134063630Y-91927363D01*
X134063593Y-91952259D01*
X134068414Y-91976685D01*
X134077907Y-91999700D01*
X134091707Y-92020421D01*
X134109285Y-92038052D01*
X134129965Y-92051914D01*
X134152952Y-92061476D01*
X134177363Y-92066370D01*
X135290079Y-92177642D01*
X134637546Y-93420982D01*
X134628602Y-93442695D01*
X134623657Y-93467096D01*
X134623567Y-93491992D01*
X134628336Y-93516427D01*
X134637781Y-93539463D01*
X134651537Y-93560213D01*
X134669078Y-93577881D01*
X134689729Y-93591787D01*
X134712695Y-93601398D01*
X134737096Y-93606343D01*
X134761992Y-93606433D01*
X134786427Y-93601664D01*
X134809463Y-93592219D01*
X134830213Y-93578463D01*
X137150213Y-91688463D01*
X137166629Y-91672412D01*
X137180850Y-91651977D01*
X137190812Y-91629160D01*
X137196130Y-91604839D01*
X137196601Y-91579947D01*
X137192208Y-91555441D01*
X137183117Y-91532264D01*
X137169680Y-91511305D01*
X137152412Y-91493371D01*
X137131977Y-91479150D01*
X137109160Y-91469188D01*
X137084839Y-91463870D01*
X135584437Y-91287352D01*
X136149235Y-90388061D01*
X136795000Y-90388061D01*
X136795000Y-90591939D01*
X136834774Y-90791898D01*
X136912795Y-90980256D01*
X137026063Y-91149774D01*
X137170226Y-91293937D01*
X137339744Y-91407205D01*
X137528102Y-91485226D01*
X137728061Y-91525000D01*
X137931939Y-91525000D01*
X138131898Y-91485226D01*
X138320256Y-91407205D01*
X138489774Y-91293937D01*
X138633937Y-91149774D01*
X138747205Y-90980256D01*
X138825226Y-90791898D01*
X138865000Y-90591939D01*
X138865000Y-90388061D01*
X138825226Y-90188102D01*
X138747205Y-89999744D01*
X138633937Y-89830226D01*
X138489774Y-89686063D01*
X138320256Y-89572795D01*
X138131898Y-89494774D01*
X137931939Y-89455000D01*
X137728061Y-89455000D01*
X137528102Y-89494774D01*
X137339744Y-89572795D01*
X137170226Y-89686063D01*
X137026063Y-89830226D01*
X136912795Y-89999744D01*
X136834774Y-90188102D01*
X136795000Y-90388061D01*
X136149235Y-90388061D01*
X136507548Y-89817545D01*
X136516420Y-89800747D01*
X136524084Y-89777060D01*
X136526979Y-89752332D01*
X136524994Y-89727515D01*
X136518205Y-89703562D01*
X136506875Y-89681394D01*
X136491437Y-89661862D01*
X136472485Y-89645717D01*
X136450747Y-89633580D01*
X135849623Y-89371551D01*
X137175903Y-88153539D01*
X137193916Y-88133010D01*
X137206163Y-88111334D01*
X137213946Y-88087685D01*
X137216965Y-88062972D01*
X137215106Y-88038146D01*
X137208438Y-88014159D01*
X137197219Y-87991933D01*
X137181880Y-87972324D01*
X137163010Y-87956084D01*
X137141334Y-87943837D01*
X137117685Y-87936054D01*
X137092972Y-87933035D01*
X135597972Y-87898035D01*
X135575174Y-87899557D01*
X135551082Y-87905835D01*
X135528678Y-87916693D01*
X135508823Y-87931713D01*
X135492279Y-87950317D01*
X134027279Y-89965317D01*
X134016304Y-89983412D01*
X134007449Y-90006680D01*
X134003303Y-90031229D01*
X133513076Y-90031229D01*
X133525226Y-90001898D01*
X133565000Y-89801939D01*
X133565000Y-89598061D01*
X133525226Y-89398102D01*
X133447205Y-89209744D01*
X133333937Y-89040226D01*
X133189774Y-88896063D01*
X133020256Y-88782795D01*
X132831898Y-88704774D01*
X132631939Y-88665000D01*
X132428061Y-88665000D01*
X132228102Y-88704774D01*
X132039744Y-88782795D01*
X131870226Y-88896063D01*
X131726063Y-89040226D01*
X131705000Y-89071749D01*
X131705000Y-88958061D01*
X131665226Y-88758102D01*
X131587205Y-88569744D01*
X131473937Y-88400226D01*
X131329774Y-88256063D01*
X131160256Y-88142795D01*
X130971898Y-88064774D01*
X130771939Y-88025000D01*
X130568061Y-88025000D01*
X130368102Y-88064774D01*
X130179744Y-88142795D01*
X130010226Y-88256063D01*
X129866063Y-88400226D01*
X129752795Y-88569744D01*
X129674774Y-88758102D01*
X129635000Y-88958061D01*
X129635000Y-89161939D01*
X129674774Y-89361898D01*
X129752795Y-89550256D01*
X129866063Y-89719774D01*
X130010226Y-89863937D01*
X130179744Y-89977205D01*
X130368102Y-90055226D01*
X130467063Y-90074910D01*
X130399744Y-90102795D01*
X130230226Y-90216063D01*
X130086063Y-90360226D01*
X129972795Y-90529744D01*
X129894774Y-90718102D01*
X129880612Y-90789298D01*
X129863158Y-90782068D01*
X129576260Y-90725000D01*
X129538533Y-90725000D01*
X129565000Y-90591939D01*
X129565000Y-90388061D01*
X129525226Y-90188102D01*
X129447205Y-89999744D01*
X129333937Y-89830226D01*
X129189774Y-89686063D01*
X129020256Y-89572795D01*
X128831898Y-89494774D01*
X128693980Y-89467341D01*
X128705000Y-89411939D01*
X128705000Y-89208061D01*
X128665226Y-89008102D01*
X128587205Y-88819744D01*
X128473937Y-88650226D01*
X128329774Y-88506063D01*
X128160256Y-88392795D01*
X127971898Y-88314774D01*
X127771939Y-88275000D01*
X127568061Y-88275000D01*
X127368102Y-88314774D01*
X127179744Y-88392795D01*
X127010226Y-88506063D01*
X126866063Y-88650226D01*
X126752795Y-88819744D01*
X126674774Y-89008102D01*
X126635000Y-89208061D01*
X126635000Y-89411939D01*
X126674774Y-89611898D01*
X126752795Y-89800256D01*
X126866063Y-89969774D01*
X127010226Y-90113937D01*
X127179744Y-90227205D01*
X127368102Y-90305226D01*
X127506020Y-90332659D01*
X127495000Y-90388061D01*
X127495000Y-90591939D01*
X127534774Y-90791898D01*
X127612795Y-90980256D01*
X127726063Y-91149774D01*
X127870226Y-91293937D01*
X128039744Y-91407205D01*
X128149922Y-91452843D01*
X128114010Y-91506589D01*
X128002068Y-91776842D01*
X127945000Y-92063740D01*
X127945000Y-92356260D01*
X128002068Y-92643158D01*
X128114010Y-92913411D01*
X128276525Y-93156632D01*
X128408380Y-93288487D01*
X128335820Y-93310498D01*
X128225506Y-93369463D01*
X128128815Y-93448815D01*
X128049463Y-93545506D01*
X127990498Y-93655820D01*
X127954188Y-93775518D01*
X127941928Y-93900000D01*
X127941928Y-94128217D01*
X127859774Y-94046063D01*
X127690256Y-93932795D01*
X127501898Y-93854774D01*
X127301939Y-93815000D01*
X127098061Y-93815000D01*
X126898102Y-93854774D01*
X126709744Y-93932795D01*
X126540226Y-94046063D01*
X126440235Y-94146054D01*
X126367205Y-93969744D01*
X126253937Y-93800226D01*
X126109774Y-93656063D01*
X125940256Y-93542795D01*
X125751898Y-93464774D01*
X125551939Y-93425000D01*
X125348061Y-93425000D01*
X125148102Y-93464774D01*
X124959744Y-93542795D01*
X124790226Y-93656063D01*
X124646063Y-93800226D01*
X124532795Y-93969744D01*
X124454774Y-94158102D01*
X124415000Y-94358061D01*
X124415000Y-94561939D01*
X124454774Y-94761898D01*
X124532795Y-94950256D01*
X124646063Y-95119774D01*
X124790226Y-95263937D01*
X124959744Y-95377205D01*
X125148102Y-95455226D01*
X125348061Y-95495000D01*
X125551939Y-95495000D01*
X125751898Y-95455226D01*
X125940256Y-95377205D01*
X126109774Y-95263937D01*
X126209765Y-95163946D01*
X126282795Y-95340256D01*
X126396063Y-95509774D01*
X126540226Y-95653937D01*
X126686799Y-95751874D01*
X124363814Y-95751874D01*
X124405226Y-95651898D01*
X124445000Y-95451939D01*
X124445000Y-95248061D01*
X124405226Y-95048102D01*
X124327205Y-94859744D01*
X124213937Y-94690226D01*
X124069774Y-94546063D01*
X123900256Y-94432795D01*
X123711898Y-94354774D01*
X123550951Y-94322760D01*
X123683937Y-94189774D01*
X123797205Y-94020256D01*
X123875226Y-93831898D01*
X123915000Y-93631939D01*
X123915000Y-93428061D01*
X123875226Y-93228102D01*
X123797205Y-93039744D01*
X123683937Y-92870226D01*
X123539774Y-92726063D01*
X123370256Y-92612795D01*
X123181898Y-92534774D01*
X122981939Y-92495000D01*
X122778061Y-92495000D01*
X122578102Y-92534774D01*
X122389744Y-92612795D01*
X122220958Y-92725574D01*
X122206648Y-92521500D01*
X122205731Y-92516082D01*
X122205801Y-92510600D01*
X122204860Y-92500381D01*
X122183212Y-92282085D01*
X122181893Y-92275462D01*
X122181762Y-92268710D01*
X122180492Y-92258527D01*
X122151656Y-92039853D01*
X122149853Y-92032112D01*
X122149417Y-92024181D01*
X122147786Y-92014049D01*
X122110940Y-91794953D01*
X122108574Y-91786213D01*
X122107730Y-91777203D01*
X122105710Y-91767141D01*
X122060032Y-91547582D01*
X122057035Y-91537990D01*
X122055687Y-91528038D01*
X122053255Y-91518068D01*
X121997924Y-91297999D01*
X121994242Y-91287724D01*
X121992308Y-91276983D01*
X121989443Y-91267128D01*
X121980773Y-91238061D01*
X122095000Y-91238061D01*
X122095000Y-91441939D01*
X122134774Y-91641898D01*
X122212795Y-91830256D01*
X122326063Y-91999774D01*
X122470226Y-92143937D01*
X122639744Y-92257205D01*
X122828102Y-92335226D01*
X123028061Y-92375000D01*
X123231939Y-92375000D01*
X123431898Y-92335226D01*
X123620256Y-92257205D01*
X123789774Y-92143937D01*
X123933937Y-91999774D01*
X124047205Y-91830256D01*
X124090553Y-91725605D01*
X124099965Y-91731914D01*
X124122952Y-91741476D01*
X124147363Y-91746370D01*
X125260079Y-91857642D01*
X124607546Y-93100982D01*
X124598602Y-93122695D01*
X124593657Y-93147096D01*
X124593567Y-93171992D01*
X124598336Y-93196427D01*
X124607781Y-93219463D01*
X124621537Y-93240213D01*
X124639078Y-93257881D01*
X124659729Y-93271787D01*
X124682695Y-93281398D01*
X124707096Y-93286343D01*
X124731992Y-93286433D01*
X124756427Y-93281664D01*
X124779463Y-93272219D01*
X124800213Y-93258463D01*
X127120213Y-91368463D01*
X127136629Y-91352412D01*
X127150850Y-91331977D01*
X127160812Y-91309160D01*
X127166130Y-91284839D01*
X127166601Y-91259947D01*
X127162208Y-91235441D01*
X127153117Y-91212264D01*
X127139680Y-91191305D01*
X127122412Y-91173371D01*
X127101977Y-91159150D01*
X127079160Y-91149188D01*
X127054839Y-91143870D01*
X125554437Y-90967352D01*
X126477548Y-89497545D01*
X126486420Y-89480747D01*
X126494084Y-89457060D01*
X126496979Y-89432332D01*
X126494994Y-89407515D01*
X126488205Y-89383562D01*
X126476875Y-89361394D01*
X126461437Y-89341862D01*
X126442485Y-89325717D01*
X126420747Y-89313580D01*
X125810656Y-89047643D01*
X126680248Y-88169355D01*
X126697259Y-88148004D01*
X126708465Y-88125772D01*
X126715118Y-88101781D01*
X126716963Y-88076953D01*
X126713929Y-88052242D01*
X126706133Y-88028598D01*
X126693873Y-88006929D01*
X126677622Y-87988069D01*
X126658004Y-87972741D01*
X126635772Y-87961535D01*
X126611781Y-87954882D01*
X126586953Y-87953037D01*
X125336953Y-87983037D01*
X125323649Y-87984057D01*
X125299393Y-87989667D01*
X125276698Y-87999901D01*
X125256435Y-88014366D01*
X125239383Y-88032506D01*
X123999383Y-89642506D01*
X123986304Y-89663412D01*
X123977449Y-89686680D01*
X123973303Y-89711229D01*
X123974027Y-89736115D01*
X123979591Y-89760381D01*
X123989782Y-89783096D01*
X124004210Y-89803386D01*
X124022318Y-89820471D01*
X124043412Y-89833696D01*
X124066680Y-89842551D01*
X124091229Y-89846697D01*
X125169762Y-89921365D01*
X124165000Y-91387993D01*
X124165000Y-91238061D01*
X124125226Y-91038102D01*
X124047205Y-90849744D01*
X123933937Y-90680226D01*
X123789774Y-90536063D01*
X123620256Y-90422795D01*
X123431898Y-90344774D01*
X123231939Y-90305000D01*
X123028061Y-90305000D01*
X122828102Y-90344774D01*
X122639744Y-90422795D01*
X122470226Y-90536063D01*
X122326063Y-90680226D01*
X122212795Y-90849744D01*
X122134774Y-91038102D01*
X122095000Y-91238061D01*
X121980773Y-91238061D01*
X121923636Y-91046509D01*
X121919239Y-91035740D01*
X121916659Y-91024398D01*
X121913350Y-91014684D01*
X121836244Y-90793469D01*
X121831130Y-90782409D01*
X121827874Y-90770677D01*
X121824112Y-90761129D01*
X121734887Y-90539277D01*
X121729086Y-90528138D01*
X121725153Y-90516218D01*
X121720937Y-90506861D01*
X121618769Y-90284327D01*
X121612344Y-90273314D01*
X121607767Y-90261417D01*
X121603101Y-90252277D01*
X121487169Y-90029019D01*
X121480210Y-90018320D01*
X121475054Y-90006644D01*
X121469950Y-89997741D01*
X121339433Y-89773715D01*
X121332048Y-89763485D01*
X121326407Y-89752213D01*
X121320881Y-89743566D01*
X121174954Y-89518729D01*
X121167279Y-89509110D01*
X121161261Y-89498384D01*
X121155331Y-89490008D01*
X120993174Y-89264316D01*
X120985343Y-89255401D01*
X120979065Y-89245331D01*
X120972756Y-89237238D01*
X120949680Y-89208061D01*
X121415000Y-89208061D01*
X121415000Y-89411939D01*
X121454774Y-89611898D01*
X121532795Y-89800256D01*
X121646063Y-89969774D01*
X121790226Y-90113937D01*
X121959744Y-90227205D01*
X122148102Y-90305226D01*
X122348061Y-90345000D01*
X122551939Y-90345000D01*
X122751898Y-90305226D01*
X122940256Y-90227205D01*
X123109774Y-90113937D01*
X123253937Y-89969774D01*
X123367205Y-89800256D01*
X123445226Y-89611898D01*
X123485000Y-89411939D01*
X123485000Y-89208061D01*
X123445226Y-89008102D01*
X123367205Y-88819744D01*
X123253937Y-88650226D01*
X123109774Y-88506063D01*
X122940256Y-88392795D01*
X122751898Y-88314774D01*
X122551939Y-88275000D01*
X122348061Y-88275000D01*
X122148102Y-88314774D01*
X121959744Y-88392795D01*
X121790226Y-88506063D01*
X121646063Y-88650226D01*
X121532795Y-88819744D01*
X121454774Y-89008102D01*
X121415000Y-89208061D01*
X120949680Y-89208061D01*
X120793546Y-89010650D01*
X120773306Y-88989648D01*
X120755635Y-88966436D01*
X120723647Y-88938118D01*
X120694006Y-88907360D01*
X120670071Y-88890688D01*
X120648228Y-88871351D01*
X120611350Y-88849786D01*
X120576299Y-88825371D01*
X120549582Y-88813666D01*
X120524400Y-88798940D01*
X120484037Y-88784949D01*
X120444909Y-88767806D01*
X120416425Y-88761512D01*
X120388864Y-88751959D01*
X120378870Y-88749630D01*
X119842185Y-88628507D01*
X119351787Y-88511103D01*
X118902090Y-88396363D01*
X118491554Y-88284173D01*
X118118639Y-88174444D01*
X117781784Y-88067121D01*
X117479617Y-87962264D01*
X117210579Y-87859939D01*
X116973256Y-87760357D01*
X116766095Y-87663794D01*
X116587431Y-87570616D01*
X116445158Y-87486980D01*
X116204245Y-87315257D01*
X116046604Y-87165913D01*
X115937563Y-87024963D01*
X115853211Y-86874285D01*
X115778621Y-86693790D01*
X115704970Y-86470586D01*
X115625348Y-86208564D01*
X115624288Y-86206004D01*
X115623726Y-86203300D01*
X115620601Y-86193525D01*
X115527033Y-85907796D01*
X115520536Y-85893017D01*
X115516348Y-85877434D01*
X115512664Y-85867855D01*
X115393632Y-85564767D01*
X115382112Y-85542198D01*
X115373537Y-85518360D01*
X115369073Y-85509119D01*
X115234506Y-85235456D01*
X115173432Y-85044364D01*
X115116476Y-84818850D01*
X115072744Y-84588603D01*
X115041988Y-84354028D01*
X115023976Y-84115672D01*
X115018465Y-83874046D01*
X115025202Y-83629781D01*
X115043904Y-83383612D01*
X115074269Y-83136164D01*
X115115955Y-82888237D01*
X115168594Y-82640569D01*
X115231793Y-82393917D01*
X115305134Y-82149037D01*
X115388154Y-81906751D01*
X115480378Y-81667831D01*
X115581320Y-81433023D01*
X115690448Y-81203130D01*
X115807208Y-80978937D01*
X115931058Y-80761171D01*
X116061384Y-80550630D01*
X116197604Y-80348023D01*
X116339027Y-80154166D01*
X116485000Y-79969766D01*
X116634801Y-79795564D01*
X116787688Y-79632258D01*
X116942867Y-79480533D01*
X117099511Y-79341027D01*
X117256699Y-79214366D01*
X117413531Y-79101053D01*
X117568985Y-79001557D01*
X117722053Y-78916193D01*
X117895248Y-78833961D01*
X117943625Y-78804895D01*
X117993178Y-78777873D01*
X118005008Y-78768015D01*
X118018208Y-78760084D01*
X118060025Y-78722169D01*
X118103378Y-78686042D01*
X118113067Y-78674076D01*
X118124477Y-78663730D01*
X118158136Y-78618411D01*
X118193644Y-78574556D01*
X118200823Y-78560938D01*
X118210007Y-78548572D01*
X118234225Y-78497573D01*
X118260536Y-78447660D01*
X118264347Y-78438132D01*
X118384745Y-78130843D01*
X118390019Y-78112200D01*
X118397890Y-78094507D01*
X118409500Y-78043334D01*
X118423792Y-77992813D01*
X118425344Y-77973500D01*
X118429629Y-77954615D01*
X118430842Y-77944425D01*
X118469498Y-77598877D01*
X118470325Y-77538322D01*
X118473002Y-77477852D01*
X118472382Y-77467608D01*
X118446617Y-77086333D01*
X118442200Y-77059842D01*
X118441055Y-77033024D01*
X118439548Y-77022873D01*
X118407921Y-76819630D01*
X118405670Y-76810892D01*
X118404939Y-76801897D01*
X118403043Y-76791812D01*
X118361806Y-76580586D01*
X118360529Y-76576315D01*
X118360053Y-76571889D01*
X118357896Y-76561856D01*
X118309215Y-76342965D01*
X118309061Y-76342495D01*
X118309001Y-76342007D01*
X118306690Y-76332008D01*
X118252730Y-76105769D01*
X118252672Y-76105599D01*
X118251726Y-76101614D01*
X118194909Y-75869389D01*
X118138026Y-75634116D01*
X118083578Y-75397960D01*
X118033456Y-75161093D01*
X117989420Y-74923582D01*
X117953191Y-74685743D01*
X117926383Y-74447818D01*
X117910527Y-74210015D01*
X117907077Y-73972394D01*
X117917455Y-73734901D01*
X117943104Y-73497144D01*
X117985570Y-73258596D01*
X118046596Y-73018447D01*
X118128206Y-72775717D01*
X118232722Y-72529459D01*
X118362806Y-72278734D01*
X118521326Y-72022898D01*
X118711339Y-71761515D01*
X118935909Y-71494518D01*
X119198045Y-71222103D01*
X119500647Y-70944694D01*
X119820529Y-70684005D01*
X120087606Y-70524158D01*
X120400324Y-70348758D01*
X120721121Y-70182736D01*
X121054795Y-70026133D01*
X121219986Y-69954975D01*
X121391228Y-69885825D01*
X121565309Y-69820348D01*
X121742346Y-69758774D01*
X121922482Y-69701330D01*
X122105902Y-69648227D01*
X122292782Y-69599687D01*
X122483323Y-69555933D01*
X122677675Y-69517207D01*
X122876054Y-69483742D01*
X123078707Y-69455778D01*
X123285742Y-69433582D01*
X123497504Y-69417405D01*
X123714074Y-69407529D01*
X123935746Y-69404235D01*
X124162743Y-69407816D01*
G37*
X124162743Y-69407816D02*
X124395157Y-69418570D01*
X124633299Y-69436812D01*
X124877364Y-69462863D01*
X125127439Y-69497033D01*
X125383776Y-69539660D01*
X125646543Y-69591078D01*
X125915892Y-69651621D01*
X126188080Y-69720638D01*
X126430021Y-69791726D01*
X126572235Y-69847250D01*
X126728891Y-69918731D01*
X126891466Y-70002136D01*
X127058315Y-70095745D01*
X127228115Y-70197728D01*
X127399529Y-70306032D01*
X127571730Y-70418759D01*
X127743863Y-70533877D01*
X127914563Y-70648900D01*
X127914674Y-70648960D01*
X127916545Y-70650231D01*
X128083131Y-70761697D01*
X128083528Y-70761910D01*
X128083874Y-70762193D01*
X128092450Y-70767831D01*
X128331371Y-70922500D01*
X128339047Y-70926465D01*
X128345929Y-70931684D01*
X128354709Y-70936997D01*
X128578660Y-71070371D01*
X128596495Y-71078754D01*
X128612956Y-71089572D01*
X128622074Y-71094281D01*
X128829007Y-71199316D01*
X128880497Y-71219403D01*
X128931021Y-71241781D01*
X128947194Y-71245423D01*
X128962644Y-71251450D01*
X129017055Y-71261153D01*
X129070964Y-71273292D01*
X129087540Y-71273723D01*
X129103863Y-71276634D01*
X129159121Y-71275584D01*
X129214362Y-71277021D01*
X129224593Y-71276214D01*
X129449842Y-71256862D01*
X129469532Y-71253209D01*
X129489534Y-71252362D01*
X129499685Y-71250859D01*
X129745140Y-71212752D01*
X129801056Y-71198370D01*
X129857442Y-71186147D01*
X129867190Y-71182937D01*
X130085644Y-71109289D01*
X130150505Y-71080098D01*
X130215389Y-71051026D01*
X130216387Y-71050447D01*
X130216453Y-71050417D01*
X130216519Y-71050370D01*
X130224264Y-71045874D01*
X130407324Y-70937893D01*
X130412218Y-70934320D01*
X130417662Y-70931679D01*
X130426376Y-70926260D01*
X130580631Y-70828838D01*
X130791042Y-70712586D01*
X130984820Y-70619893D01*
X131249043Y-70507341D01*
X131595752Y-70374710D01*
X131798639Y-70302588D01*
X132028868Y-70224441D01*
X132284921Y-70141246D01*
X132568282Y-70052904D01*
X132880433Y-69959314D01*
X133222868Y-69860365D01*
X133591858Y-69757401D01*
X133861688Y-69688672D01*
X134160354Y-69626573D01*
X134493856Y-69570250D01*
X134860232Y-69520896D01*
X135049202Y-69499884D01*
X135246980Y-69480865D01*
X135450153Y-69464304D01*
X135658270Y-69450333D01*
X135870966Y-69439077D01*
X136087540Y-69430674D01*
X136307637Y-69425244D01*
X136530923Y-69422907D01*
X136756615Y-69423783D01*
X136984521Y-69427988D01*
X137214132Y-69435636D01*
X137444829Y-69446832D01*
X137676333Y-69461689D01*
X137908013Y-69480303D01*
X138139522Y-69502780D01*
X138370412Y-69529220D01*
X138600087Y-69559697D01*
X138828160Y-69594309D01*
X139054185Y-69633137D01*
X139277569Y-69676233D01*
X139497999Y-69723692D01*
X139714889Y-69775546D01*
X139927761Y-69831838D01*
X140114164Y-69886191D01*
X140359448Y-69982121D01*
X140609944Y-70084321D01*
X140840128Y-70182699D01*
X141050777Y-70277435D01*
X141242327Y-70368523D01*
X141410708Y-70453627D01*
X141708457Y-70620226D01*
X141937050Y-70769883D01*
X142107750Y-70904160D01*
X142230322Y-71023348D01*
X142317237Y-71130903D01*
X142381680Y-71235179D01*
X142434101Y-71348339D01*
X142480475Y-71482358D01*
X142523830Y-71645399D01*
X142566935Y-71841131D01*
X142613143Y-72066688D01*
X142613191Y-72066845D01*
X142614603Y-72073644D01*
X142667774Y-72321000D01*
X142669468Y-72326299D01*
X142670183Y-72331806D01*
X142672560Y-72341789D01*
X142729504Y-72573720D01*
X142765109Y-72817297D01*
X142782285Y-73052884D01*
X142782767Y-73274428D01*
X142769149Y-73484294D01*
X142743692Y-73684807D01*
X142708437Y-73878038D01*
X142665308Y-74065934D01*
X142616227Y-74250392D01*
X142563102Y-74433771D01*
X142483560Y-74702535D01*
X142482482Y-74708138D01*
X142480423Y-74713447D01*
X142477731Y-74723350D01*
X142411674Y-74973341D01*
X142407690Y-74997935D01*
X142400605Y-75021816D01*
X142398731Y-75031905D01*
X142357312Y-75263852D01*
X142353425Y-75312975D01*
X142346532Y-75361775D01*
X142346167Y-75372031D01*
X142339969Y-75588592D01*
X142344133Y-75648738D01*
X142346413Y-75708963D01*
X142347871Y-75719122D01*
X142368533Y-75856261D01*
X142368591Y-75856493D01*
X142368604Y-75856731D01*
X142386101Y-75925853D01*
X142403644Y-75995344D01*
X142403746Y-75995558D01*
X142403805Y-75995793D01*
X142434537Y-76060499D01*
X142465101Y-76124960D01*
X142465245Y-76125154D01*
X142465346Y-76125367D01*
X142507385Y-76181962D01*
X142550563Y-76240169D01*
X142550743Y-76240332D01*
X142550883Y-76240521D01*
X142603490Y-76288213D01*
X142656776Y-76336584D01*
X142656980Y-76336707D01*
X142657158Y-76336868D01*
X142717787Y-76373290D01*
X142779692Y-76410534D01*
X142779922Y-76410617D01*
X142780122Y-76410737D01*
X142789423Y-76415074D01*
X143081223Y-76548639D01*
X143322473Y-76675157D01*
X143534162Y-76801994D01*
X143720842Y-76929264D01*
X143887191Y-77057536D01*
X144037877Y-77187845D01*
X144177365Y-77321561D01*
X144309783Y-77460133D01*
X144438933Y-77604873D01*
X144568400Y-77756750D01*
X144700736Y-77915149D01*
X144700830Y-77915241D01*
X144702299Y-77917013D01*
X144837835Y-78078154D01*
X144838474Y-78078778D01*
X144838981Y-78079513D01*
X144845660Y-78087305D01*
X144985363Y-78247982D01*
X144989285Y-78251690D01*
X144992467Y-78256031D01*
X144999365Y-78263629D01*
X145146570Y-78423473D01*
X145153523Y-78429681D01*
X145159326Y-78436978D01*
X145166518Y-78444299D01*
X145324556Y-78602940D01*
X145334197Y-78610890D01*
X145342431Y-78620285D01*
X145349965Y-78627254D01*
X145443149Y-78712245D01*
X145528969Y-78854659D01*
X145650328Y-79067040D01*
X145756804Y-79264906D01*
X145849213Y-79448751D01*
X145925676Y-79613219D01*
X146049954Y-79920519D01*
X146130272Y-80174880D01*
X146177081Y-80387953D01*
X146198608Y-80568600D01*
X146201701Y-80728389D01*
X146190716Y-80880447D01*
X146168021Y-81035476D01*
X146114345Y-81305569D01*
X146114328Y-81305744D01*
X146113520Y-81309784D01*
X146057697Y-81599529D01*
X146056145Y-81616247D01*
X146052113Y-81632544D01*
X146050703Y-81642709D01*
X146024063Y-81845203D01*
X146023280Y-81868874D01*
X146019409Y-81892230D01*
X146018798Y-81902474D01*
X146007440Y-82118452D01*
X146008774Y-82147935D01*
X146006707Y-82177372D01*
X146007062Y-82187628D01*
X146016831Y-82422248D01*
X146019908Y-82444186D01*
X146019997Y-82466334D01*
X146021111Y-82476535D01*
X146035747Y-82602448D01*
X146039983Y-82621988D01*
X146041426Y-82641930D01*
X146055147Y-82691947D01*
X146066135Y-82742639D01*
X146074086Y-82760987D01*
X146079375Y-82780266D01*
X146102546Y-82826659D01*
X146123174Y-82874259D01*
X146134538Y-82890713D01*
X146143470Y-82908597D01*
X146148990Y-82917249D01*
X146273578Y-83109537D01*
X146384260Y-83293051D01*
X146487186Y-83477383D01*
X146582274Y-83662493D01*
X146669532Y-83848516D01*
X146748904Y-84035464D01*
X146820375Y-84223456D01*
X146883915Y-84412598D01*
X146939480Y-84602983D01*
X146987048Y-84794822D01*
X147026555Y-84988248D01*
X147057937Y-85183459D01*
X147081105Y-85380672D01*
X147095951Y-85580095D01*
X147102342Y-85781932D01*
X147101458Y-85863421D01*
X147080227Y-85916057D01*
X146935417Y-86249139D01*
X146792525Y-86544633D01*
X146650455Y-86806797D01*
X146509303Y-87037451D01*
X146369209Y-87238592D01*
X146230105Y-87412672D01*
X146091642Y-87562469D01*
X145952930Y-87691115D01*
X145812469Y-87801828D01*
X145668165Y-87897645D01*
X145517483Y-87981174D01*
X145357774Y-88054424D01*
X145186612Y-88118811D01*
X145002033Y-88175307D01*
X144798841Y-88225588D01*
X144749921Y-88235875D01*
X144568729Y-88243430D01*
X144321491Y-88252612D01*
X144321487Y-88252613D01*
X144069970Y-88261770D01*
X144069853Y-88261786D01*
X144067808Y-88261852D01*
X143814359Y-88271827D01*
X143814181Y-88271852D01*
X143809503Y-88272034D01*
X143556464Y-88283669D01*
X143556322Y-88283690D01*
X143548797Y-88284061D01*
X143297968Y-88298221D01*
X143297742Y-88298256D01*
X143297520Y-88298247D01*
X143287279Y-88298903D01*
X143040463Y-88316448D01*
X143038545Y-88316775D01*
X143036606Y-88316733D01*
X143026380Y-88317585D01*
X142785378Y-88339380D01*
X142781524Y-88340113D01*
X142777603Y-88340125D01*
X142767400Y-88341229D01*
X142534016Y-88368135D01*
X142527870Y-88369461D01*
X142521597Y-88369675D01*
X142511434Y-88371094D01*
X142287470Y-88403974D01*
X142278577Y-88406183D01*
X142269445Y-88406850D01*
X142259344Y-88408662D01*
X142046600Y-88448379D01*
X142034355Y-88451931D01*
X142021705Y-88453474D01*
X142011704Y-88455774D01*
X141811985Y-88503192D01*
X141789400Y-88510949D01*
X141766003Y-88515697D01*
X141756214Y-88518777D01*
X141484996Y-88606227D01*
X141445905Y-88623201D01*
X141405594Y-88637013D01*
X141396287Y-88641336D01*
X141164509Y-88750963D01*
X141122083Y-88776368D01*
X141078193Y-88799143D01*
X141069628Y-88804796D01*
X140941677Y-88890533D01*
X140935226Y-88858102D01*
X140857205Y-88669744D01*
X140743937Y-88500226D01*
X140599774Y-88356063D01*
X140430256Y-88242795D01*
X140241898Y-88164774D01*
X140041939Y-88125000D01*
X139838061Y-88125000D01*
X139638102Y-88164774D01*
X139449744Y-88242795D01*
X139280226Y-88356063D01*
X139136063Y-88500226D01*
X139022795Y-88669744D01*
X138944774Y-88858102D01*
X138905000Y-89058061D01*
X138905000Y-89261939D01*
X138944774Y-89461898D01*
X139022795Y-89650256D01*
X139136063Y-89819774D01*
X139280226Y-89963937D01*
X139449744Y-90077205D01*
X139638102Y-90155226D01*
X139838061Y-90195000D01*
X140041939Y-90195000D01*
X140142631Y-90174971D01*
X140136360Y-90187903D01*
X140133919Y-90194511D01*
X140130355Y-90200592D01*
X140126119Y-90209939D01*
X140019424Y-90449845D01*
X140017179Y-90456602D01*
X140013790Y-90462852D01*
X140009867Y-90472335D01*
X139914279Y-90708076D01*
X139912267Y-90714880D01*
X139909096Y-90721221D01*
X139905490Y-90730828D01*
X139820331Y-90962657D01*
X139818578Y-90969401D01*
X139815670Y-90975727D01*
X139812381Y-90985448D01*
X139736971Y-91213622D01*
X139735493Y-91220185D01*
X139732884Y-91226379D01*
X139729910Y-91236201D01*
X139663567Y-91460974D01*
X139662367Y-91467237D01*
X139660078Y-91473184D01*
X139657413Y-91483094D01*
X139622266Y-91617502D01*
X139600256Y-91602795D01*
X139411898Y-91524774D01*
X139211939Y-91485000D01*
X139008061Y-91485000D01*
X138808102Y-91524774D01*
X138619744Y-91602795D01*
X138450226Y-91716063D01*
X138306063Y-91860226D01*
X138192795Y-92029744D01*
X138114774Y-92218102D01*
X138075000Y-92418061D01*
X138075000Y-92621939D01*
X138114774Y-92821898D01*
X138192795Y-93010256D01*
X138306063Y-93179774D01*
X138450226Y-93323937D01*
X138619744Y-93437205D01*
X138808102Y-93515226D01*
X139008061Y-93555000D01*
X139211939Y-93555000D01*
X139334014Y-93530718D01*
X139333763Y-93534260D01*
X139320697Y-93739055D01*
X139320704Y-93739247D01*
X139320365Y-93744598D01*
X139308885Y-93948798D01*
X139308891Y-93948953D01*
X139308713Y-93951985D01*
X139298140Y-94155845D01*
X139298142Y-94155886D01*
X139298098Y-94156645D01*
X139287815Y-94359197D01*
X139278139Y-94541918D01*
X139091898Y-94464774D01*
X138891939Y-94425000D01*
X138688061Y-94425000D01*
X138488102Y-94464774D01*
X138299744Y-94542795D01*
X138130226Y-94656063D01*
X137986063Y-94800226D01*
X137872795Y-94969744D01*
X137794774Y-95158102D01*
X137755000Y-95358061D01*
X137755000Y-95561939D01*
X137792780Y-95751874D01*
X135722760Y-95751874D01*
X135737205Y-95730256D01*
X135815226Y-95541898D01*
X135855000Y-95341939D01*
X135855000Y-95138061D01*
X135815226Y-94938102D01*
X135737205Y-94749744D01*
X135623937Y-94580226D01*
X135479774Y-94436063D01*
X135310256Y-94322795D01*
X135121898Y-94244774D01*
X134921939Y-94205000D01*
X134718061Y-94205000D01*
X134518102Y-94244774D01*
X134329744Y-94322795D01*
X134160226Y-94436063D01*
X134016063Y-94580226D01*
X133902795Y-94749744D01*
X133824774Y-94938102D01*
X133785000Y-95138061D01*
X133785000Y-95341939D01*
X133824774Y-95541898D01*
X133902795Y-95730256D01*
X133917240Y-95751874D01*
X133068233Y-95751874D01*
X133123475Y-95696632D01*
X133285990Y-95453411D01*
X133397932Y-95183158D01*
X133455000Y-94896260D01*
X133455000Y-94603740D01*
X133397932Y-94316842D01*
X133285990Y-94046589D01*
X133133293Y-93818061D01*
X135865000Y-93818061D01*
X135865000Y-94021939D01*
X135904774Y-94221898D01*
X135982795Y-94410256D01*
X136096063Y-94579774D01*
X136240226Y-94723937D01*
X136409744Y-94837205D01*
X136598102Y-94915226D01*
X136798061Y-94955000D01*
X137001939Y-94955000D01*
X137201898Y-94915226D01*
X137390256Y-94837205D01*
X137559774Y-94723937D01*
X137703937Y-94579774D01*
X137817205Y-94410256D01*
X137895226Y-94221898D01*
X137935000Y-94021939D01*
X137935000Y-93818061D01*
X137895226Y-93618102D01*
X137817205Y-93429744D01*
X137703937Y-93260226D01*
X137559774Y-93116063D01*
X137390256Y-93002795D01*
X137201898Y-92924774D01*
X137001939Y-92885000D01*
X136798061Y-92885000D01*
X136598102Y-92924774D01*
X136409744Y-93002795D01*
X136240226Y-93116063D01*
X136096063Y-93260226D01*
X135982795Y-93429744D01*
X135904774Y-93618102D01*
X135865000Y-93818061D01*
X133133293Y-93818061D01*
X133123475Y-93803368D01*
X132916632Y-93596525D01*
X132742240Y-93480000D01*
X132916632Y-93363475D01*
X133123475Y-93156632D01*
X133285990Y-92913411D01*
X133397932Y-92643158D01*
X133455000Y-92356260D01*
X133455000Y-92063740D01*
X133397932Y-91776842D01*
X133285990Y-91506589D01*
X133123475Y-91263368D01*
X132916632Y-91056525D01*
X132673411Y-90894010D01*
X132403158Y-90782068D01*
X132116260Y-90725000D01*
X131886598Y-90725000D01*
X131885226Y-90718102D01*
X131807205Y-90529744D01*
X131693937Y-90360226D01*
X131549774Y-90216063D01*
X131380256Y-90102795D01*
X131191898Y-90024774D01*
X131092937Y-90005090D01*
X131160256Y-89977205D01*
X131329774Y-89863937D01*
X131473937Y-89719774D01*
X131495000Y-89688251D01*
X131495000Y-89801939D01*
X131534774Y-90001898D01*
X131612795Y-90190256D01*
X131726063Y-90359774D01*
X131870226Y-90503937D01*
X132039744Y-90617205D01*
X132228102Y-90695226D01*
X132428061Y-90735000D01*
X132631939Y-90735000D01*
X132831898Y-90695226D01*
X133020256Y-90617205D01*
X133189774Y-90503937D01*
X133333937Y-90359774D01*
X133447205Y-90190256D01*
X133513076Y-90031229D01*
X134003303Y-90031229D01*
X134004027Y-90056115D01*
X134009591Y-90080381D01*
X134019782Y-90103096D01*
X134034210Y-90123386D01*
X134052318Y-90140471D01*
X134073412Y-90153696D01*
X134096680Y-90162551D01*
X134121229Y-90166697D01*
X135199762Y-90241365D01*
X134085229Y-91868223D01*
X134078086Y-91879965D01*
X134068524Y-91902952D01*
X134063630Y-91927363D01*
X134063593Y-91952259D01*
X134068414Y-91976685D01*
X134077907Y-91999700D01*
X134091707Y-92020421D01*
X134109285Y-92038052D01*
X134129965Y-92051914D01*
X134152952Y-92061476D01*
X134177363Y-92066370D01*
X135290079Y-92177642D01*
X134637546Y-93420982D01*
X134628602Y-93442695D01*
X134623657Y-93467096D01*
X134623567Y-93491992D01*
X134628336Y-93516427D01*
X134637781Y-93539463D01*
X134651537Y-93560213D01*
X134669078Y-93577881D01*
X134689729Y-93591787D01*
X134712695Y-93601398D01*
X134737096Y-93606343D01*
X134761992Y-93606433D01*
X134786427Y-93601664D01*
X134809463Y-93592219D01*
X134830213Y-93578463D01*
X137150213Y-91688463D01*
X137166629Y-91672412D01*
X137180850Y-91651977D01*
X137190812Y-91629160D01*
X137196130Y-91604839D01*
X137196601Y-91579947D01*
X137192208Y-91555441D01*
X137183117Y-91532264D01*
X137169680Y-91511305D01*
X137152412Y-91493371D01*
X137131977Y-91479150D01*
X137109160Y-91469188D01*
X137084839Y-91463870D01*
X135584437Y-91287352D01*
X136149235Y-90388061D01*
X136795000Y-90388061D01*
X136795000Y-90591939D01*
X136834774Y-90791898D01*
X136912795Y-90980256D01*
X137026063Y-91149774D01*
X137170226Y-91293937D01*
X137339744Y-91407205D01*
X137528102Y-91485226D01*
X137728061Y-91525000D01*
X137931939Y-91525000D01*
X138131898Y-91485226D01*
X138320256Y-91407205D01*
X138489774Y-91293937D01*
X138633937Y-91149774D01*
X138747205Y-90980256D01*
X138825226Y-90791898D01*
X138865000Y-90591939D01*
X138865000Y-90388061D01*
X138825226Y-90188102D01*
X138747205Y-89999744D01*
X138633937Y-89830226D01*
X138489774Y-89686063D01*
X138320256Y-89572795D01*
X138131898Y-89494774D01*
X137931939Y-89455000D01*
X137728061Y-89455000D01*
X137528102Y-89494774D01*
X137339744Y-89572795D01*
X137170226Y-89686063D01*
X137026063Y-89830226D01*
X136912795Y-89999744D01*
X136834774Y-90188102D01*
X136795000Y-90388061D01*
X136149235Y-90388061D01*
X136507548Y-89817545D01*
X136516420Y-89800747D01*
X136524084Y-89777060D01*
X136526979Y-89752332D01*
X136524994Y-89727515D01*
X136518205Y-89703562D01*
X136506875Y-89681394D01*
X136491437Y-89661862D01*
X136472485Y-89645717D01*
X136450747Y-89633580D01*
X135849623Y-89371551D01*
X137175903Y-88153539D01*
X137193916Y-88133010D01*
X137206163Y-88111334D01*
X137213946Y-88087685D01*
X137216965Y-88062972D01*
X137215106Y-88038146D01*
X137208438Y-88014159D01*
X137197219Y-87991933D01*
X137181880Y-87972324D01*
X137163010Y-87956084D01*
X137141334Y-87943837D01*
X137117685Y-87936054D01*
X137092972Y-87933035D01*
X135597972Y-87898035D01*
X135575174Y-87899557D01*
X135551082Y-87905835D01*
X135528678Y-87916693D01*
X135508823Y-87931713D01*
X135492279Y-87950317D01*
X134027279Y-89965317D01*
X134016304Y-89983412D01*
X134007449Y-90006680D01*
X134003303Y-90031229D01*
X133513076Y-90031229D01*
X133525226Y-90001898D01*
X133565000Y-89801939D01*
X133565000Y-89598061D01*
X133525226Y-89398102D01*
X133447205Y-89209744D01*
X133333937Y-89040226D01*
X133189774Y-88896063D01*
X133020256Y-88782795D01*
X132831898Y-88704774D01*
X132631939Y-88665000D01*
X132428061Y-88665000D01*
X132228102Y-88704774D01*
X132039744Y-88782795D01*
X131870226Y-88896063D01*
X131726063Y-89040226D01*
X131705000Y-89071749D01*
X131705000Y-88958061D01*
X131665226Y-88758102D01*
X131587205Y-88569744D01*
X131473937Y-88400226D01*
X131329774Y-88256063D01*
X131160256Y-88142795D01*
X130971898Y-88064774D01*
X130771939Y-88025000D01*
X130568061Y-88025000D01*
X130368102Y-88064774D01*
X130179744Y-88142795D01*
X130010226Y-88256063D01*
X129866063Y-88400226D01*
X129752795Y-88569744D01*
X129674774Y-88758102D01*
X129635000Y-88958061D01*
X129635000Y-89161939D01*
X129674774Y-89361898D01*
X129752795Y-89550256D01*
X129866063Y-89719774D01*
X130010226Y-89863937D01*
X130179744Y-89977205D01*
X130368102Y-90055226D01*
X130467063Y-90074910D01*
X130399744Y-90102795D01*
X130230226Y-90216063D01*
X130086063Y-90360226D01*
X129972795Y-90529744D01*
X129894774Y-90718102D01*
X129880612Y-90789298D01*
X129863158Y-90782068D01*
X129576260Y-90725000D01*
X129538533Y-90725000D01*
X129565000Y-90591939D01*
X129565000Y-90388061D01*
X129525226Y-90188102D01*
X129447205Y-89999744D01*
X129333937Y-89830226D01*
X129189774Y-89686063D01*
X129020256Y-89572795D01*
X128831898Y-89494774D01*
X128693980Y-89467341D01*
X128705000Y-89411939D01*
X128705000Y-89208061D01*
X128665226Y-89008102D01*
X128587205Y-88819744D01*
X128473937Y-88650226D01*
X128329774Y-88506063D01*
X128160256Y-88392795D01*
X127971898Y-88314774D01*
X127771939Y-88275000D01*
X127568061Y-88275000D01*
X127368102Y-88314774D01*
X127179744Y-88392795D01*
X127010226Y-88506063D01*
X126866063Y-88650226D01*
X126752795Y-88819744D01*
X126674774Y-89008102D01*
X126635000Y-89208061D01*
X126635000Y-89411939D01*
X126674774Y-89611898D01*
X126752795Y-89800256D01*
X126866063Y-89969774D01*
X127010226Y-90113937D01*
X127179744Y-90227205D01*
X127368102Y-90305226D01*
X127506020Y-90332659D01*
X127495000Y-90388061D01*
X127495000Y-90591939D01*
X127534774Y-90791898D01*
X127612795Y-90980256D01*
X127726063Y-91149774D01*
X127870226Y-91293937D01*
X128039744Y-91407205D01*
X128149922Y-91452843D01*
X128114010Y-91506589D01*
X128002068Y-91776842D01*
X127945000Y-92063740D01*
X127945000Y-92356260D01*
X128002068Y-92643158D01*
X128114010Y-92913411D01*
X128276525Y-93156632D01*
X128408380Y-93288487D01*
X128335820Y-93310498D01*
X128225506Y-93369463D01*
X128128815Y-93448815D01*
X128049463Y-93545506D01*
X127990498Y-93655820D01*
X127954188Y-93775518D01*
X127941928Y-93900000D01*
X127941928Y-94128217D01*
X127859774Y-94046063D01*
X127690256Y-93932795D01*
X127501898Y-93854774D01*
X127301939Y-93815000D01*
X127098061Y-93815000D01*
X126898102Y-93854774D01*
X126709744Y-93932795D01*
X126540226Y-94046063D01*
X126440235Y-94146054D01*
X126367205Y-93969744D01*
X126253937Y-93800226D01*
X126109774Y-93656063D01*
X125940256Y-93542795D01*
X125751898Y-93464774D01*
X125551939Y-93425000D01*
X125348061Y-93425000D01*
X125148102Y-93464774D01*
X124959744Y-93542795D01*
X124790226Y-93656063D01*
X124646063Y-93800226D01*
X124532795Y-93969744D01*
X124454774Y-94158102D01*
X124415000Y-94358061D01*
X124415000Y-94561939D01*
X124454774Y-94761898D01*
X124532795Y-94950256D01*
X124646063Y-95119774D01*
X124790226Y-95263937D01*
X124959744Y-95377205D01*
X125148102Y-95455226D01*
X125348061Y-95495000D01*
X125551939Y-95495000D01*
X125751898Y-95455226D01*
X125940256Y-95377205D01*
X126109774Y-95263937D01*
X126209765Y-95163946D01*
X126282795Y-95340256D01*
X126396063Y-95509774D01*
X126540226Y-95653937D01*
X126686799Y-95751874D01*
X124363814Y-95751874D01*
X124405226Y-95651898D01*
X124445000Y-95451939D01*
X124445000Y-95248061D01*
X124405226Y-95048102D01*
X124327205Y-94859744D01*
X124213937Y-94690226D01*
X124069774Y-94546063D01*
X123900256Y-94432795D01*
X123711898Y-94354774D01*
X123550951Y-94322760D01*
X123683937Y-94189774D01*
X123797205Y-94020256D01*
X123875226Y-93831898D01*
X123915000Y-93631939D01*
X123915000Y-93428061D01*
X123875226Y-93228102D01*
X123797205Y-93039744D01*
X123683937Y-92870226D01*
X123539774Y-92726063D01*
X123370256Y-92612795D01*
X123181898Y-92534774D01*
X122981939Y-92495000D01*
X122778061Y-92495000D01*
X122578102Y-92534774D01*
X122389744Y-92612795D01*
X122220958Y-92725574D01*
X122206648Y-92521500D01*
X122205731Y-92516082D01*
X122205801Y-92510600D01*
X122204860Y-92500381D01*
X122183212Y-92282085D01*
X122181893Y-92275462D01*
X122181762Y-92268710D01*
X122180492Y-92258527D01*
X122151656Y-92039853D01*
X122149853Y-92032112D01*
X122149417Y-92024181D01*
X122147786Y-92014049D01*
X122110940Y-91794953D01*
X122108574Y-91786213D01*
X122107730Y-91777203D01*
X122105710Y-91767141D01*
X122060032Y-91547582D01*
X122057035Y-91537990D01*
X122055687Y-91528038D01*
X122053255Y-91518068D01*
X121997924Y-91297999D01*
X121994242Y-91287724D01*
X121992308Y-91276983D01*
X121989443Y-91267128D01*
X121980773Y-91238061D01*
X122095000Y-91238061D01*
X122095000Y-91441939D01*
X122134774Y-91641898D01*
X122212795Y-91830256D01*
X122326063Y-91999774D01*
X122470226Y-92143937D01*
X122639744Y-92257205D01*
X122828102Y-92335226D01*
X123028061Y-92375000D01*
X123231939Y-92375000D01*
X123431898Y-92335226D01*
X123620256Y-92257205D01*
X123789774Y-92143937D01*
X123933937Y-91999774D01*
X124047205Y-91830256D01*
X124090553Y-91725605D01*
X124099965Y-91731914D01*
X124122952Y-91741476D01*
X124147363Y-91746370D01*
X125260079Y-91857642D01*
X124607546Y-93100982D01*
X124598602Y-93122695D01*
X124593657Y-93147096D01*
X124593567Y-93171992D01*
X124598336Y-93196427D01*
X124607781Y-93219463D01*
X124621537Y-93240213D01*
X124639078Y-93257881D01*
X124659729Y-93271787D01*
X124682695Y-93281398D01*
X124707096Y-93286343D01*
X124731992Y-93286433D01*
X124756427Y-93281664D01*
X124779463Y-93272219D01*
X124800213Y-93258463D01*
X127120213Y-91368463D01*
X127136629Y-91352412D01*
X127150850Y-91331977D01*
X127160812Y-91309160D01*
X127166130Y-91284839D01*
X127166601Y-91259947D01*
X127162208Y-91235441D01*
X127153117Y-91212264D01*
X127139680Y-91191305D01*
X127122412Y-91173371D01*
X127101977Y-91159150D01*
X127079160Y-91149188D01*
X127054839Y-91143870D01*
X125554437Y-90967352D01*
X126477548Y-89497545D01*
X126486420Y-89480747D01*
X126494084Y-89457060D01*
X126496979Y-89432332D01*
X126494994Y-89407515D01*
X126488205Y-89383562D01*
X126476875Y-89361394D01*
X126461437Y-89341862D01*
X126442485Y-89325717D01*
X126420747Y-89313580D01*
X125810656Y-89047643D01*
X126680248Y-88169355D01*
X126697259Y-88148004D01*
X126708465Y-88125772D01*
X126715118Y-88101781D01*
X126716963Y-88076953D01*
X126713929Y-88052242D01*
X126706133Y-88028598D01*
X126693873Y-88006929D01*
X126677622Y-87988069D01*
X126658004Y-87972741D01*
X126635772Y-87961535D01*
X126611781Y-87954882D01*
X126586953Y-87953037D01*
X125336953Y-87983037D01*
X125323649Y-87984057D01*
X125299393Y-87989667D01*
X125276698Y-87999901D01*
X125256435Y-88014366D01*
X125239383Y-88032506D01*
X123999383Y-89642506D01*
X123986304Y-89663412D01*
X123977449Y-89686680D01*
X123973303Y-89711229D01*
X123974027Y-89736115D01*
X123979591Y-89760381D01*
X123989782Y-89783096D01*
X124004210Y-89803386D01*
X124022318Y-89820471D01*
X124043412Y-89833696D01*
X124066680Y-89842551D01*
X124091229Y-89846697D01*
X125169762Y-89921365D01*
X124165000Y-91387993D01*
X124165000Y-91238061D01*
X124125226Y-91038102D01*
X124047205Y-90849744D01*
X123933937Y-90680226D01*
X123789774Y-90536063D01*
X123620256Y-90422795D01*
X123431898Y-90344774D01*
X123231939Y-90305000D01*
X123028061Y-90305000D01*
X122828102Y-90344774D01*
X122639744Y-90422795D01*
X122470226Y-90536063D01*
X122326063Y-90680226D01*
X122212795Y-90849744D01*
X122134774Y-91038102D01*
X122095000Y-91238061D01*
X121980773Y-91238061D01*
X121923636Y-91046509D01*
X121919239Y-91035740D01*
X121916659Y-91024398D01*
X121913350Y-91014684D01*
X121836244Y-90793469D01*
X121831130Y-90782409D01*
X121827874Y-90770677D01*
X121824112Y-90761129D01*
X121734887Y-90539277D01*
X121729086Y-90528138D01*
X121725153Y-90516218D01*
X121720937Y-90506861D01*
X121618769Y-90284327D01*
X121612344Y-90273314D01*
X121607767Y-90261417D01*
X121603101Y-90252277D01*
X121487169Y-90029019D01*
X121480210Y-90018320D01*
X121475054Y-90006644D01*
X121469950Y-89997741D01*
X121339433Y-89773715D01*
X121332048Y-89763485D01*
X121326407Y-89752213D01*
X121320881Y-89743566D01*
X121174954Y-89518729D01*
X121167279Y-89509110D01*
X121161261Y-89498384D01*
X121155331Y-89490008D01*
X120993174Y-89264316D01*
X120985343Y-89255401D01*
X120979065Y-89245331D01*
X120972756Y-89237238D01*
X120949680Y-89208061D01*
X121415000Y-89208061D01*
X121415000Y-89411939D01*
X121454774Y-89611898D01*
X121532795Y-89800256D01*
X121646063Y-89969774D01*
X121790226Y-90113937D01*
X121959744Y-90227205D01*
X122148102Y-90305226D01*
X122348061Y-90345000D01*
X122551939Y-90345000D01*
X122751898Y-90305226D01*
X122940256Y-90227205D01*
X123109774Y-90113937D01*
X123253937Y-89969774D01*
X123367205Y-89800256D01*
X123445226Y-89611898D01*
X123485000Y-89411939D01*
X123485000Y-89208061D01*
X123445226Y-89008102D01*
X123367205Y-88819744D01*
X123253937Y-88650226D01*
X123109774Y-88506063D01*
X122940256Y-88392795D01*
X122751898Y-88314774D01*
X122551939Y-88275000D01*
X122348061Y-88275000D01*
X122148102Y-88314774D01*
X121959744Y-88392795D01*
X121790226Y-88506063D01*
X121646063Y-88650226D01*
X121532795Y-88819744D01*
X121454774Y-89008102D01*
X121415000Y-89208061D01*
X120949680Y-89208061D01*
X120793546Y-89010650D01*
X120773306Y-88989648D01*
X120755635Y-88966436D01*
X120723647Y-88938118D01*
X120694006Y-88907360D01*
X120670071Y-88890688D01*
X120648228Y-88871351D01*
X120611350Y-88849786D01*
X120576299Y-88825371D01*
X120549582Y-88813666D01*
X120524400Y-88798940D01*
X120484037Y-88784949D01*
X120444909Y-88767806D01*
X120416425Y-88761512D01*
X120388864Y-88751959D01*
X120378870Y-88749630D01*
X119842185Y-88628507D01*
X119351787Y-88511103D01*
X118902090Y-88396363D01*
X118491554Y-88284173D01*
X118118639Y-88174444D01*
X117781784Y-88067121D01*
X117479617Y-87962264D01*
X117210579Y-87859939D01*
X116973256Y-87760357D01*
X116766095Y-87663794D01*
X116587431Y-87570616D01*
X116445158Y-87486980D01*
X116204245Y-87315257D01*
X116046604Y-87165913D01*
X115937563Y-87024963D01*
X115853211Y-86874285D01*
X115778621Y-86693790D01*
X115704970Y-86470586D01*
X115625348Y-86208564D01*
X115624288Y-86206004D01*
X115623726Y-86203300D01*
X115620601Y-86193525D01*
X115527033Y-85907796D01*
X115520536Y-85893017D01*
X115516348Y-85877434D01*
X115512664Y-85867855D01*
X115393632Y-85564767D01*
X115382112Y-85542198D01*
X115373537Y-85518360D01*
X115369073Y-85509119D01*
X115234506Y-85235456D01*
X115173432Y-85044364D01*
X115116476Y-84818850D01*
X115072744Y-84588603D01*
X115041988Y-84354028D01*
X115023976Y-84115672D01*
X115018465Y-83874046D01*
X115025202Y-83629781D01*
X115043904Y-83383612D01*
X115074269Y-83136164D01*
X115115955Y-82888237D01*
X115168594Y-82640569D01*
X115231793Y-82393917D01*
X115305134Y-82149037D01*
X115388154Y-81906751D01*
X115480378Y-81667831D01*
X115581320Y-81433023D01*
X115690448Y-81203130D01*
X115807208Y-80978937D01*
X115931058Y-80761171D01*
X116061384Y-80550630D01*
X116197604Y-80348023D01*
X116339027Y-80154166D01*
X116485000Y-79969766D01*
X116634801Y-79795564D01*
X116787688Y-79632258D01*
X116942867Y-79480533D01*
X117099511Y-79341027D01*
X117256699Y-79214366D01*
X117413531Y-79101053D01*
X117568985Y-79001557D01*
X117722053Y-78916193D01*
X117895248Y-78833961D01*
X117943625Y-78804895D01*
X117993178Y-78777873D01*
X118005008Y-78768015D01*
X118018208Y-78760084D01*
X118060025Y-78722169D01*
X118103378Y-78686042D01*
X118113067Y-78674076D01*
X118124477Y-78663730D01*
X118158136Y-78618411D01*
X118193644Y-78574556D01*
X118200823Y-78560938D01*
X118210007Y-78548572D01*
X118234225Y-78497573D01*
X118260536Y-78447660D01*
X118264347Y-78438132D01*
X118384745Y-78130843D01*
X118390019Y-78112200D01*
X118397890Y-78094507D01*
X118409500Y-78043334D01*
X118423792Y-77992813D01*
X118425344Y-77973500D01*
X118429629Y-77954615D01*
X118430842Y-77944425D01*
X118469498Y-77598877D01*
X118470325Y-77538322D01*
X118473002Y-77477852D01*
X118472382Y-77467608D01*
X118446617Y-77086333D01*
X118442200Y-77059842D01*
X118441055Y-77033024D01*
X118439548Y-77022873D01*
X118407921Y-76819630D01*
X118405670Y-76810892D01*
X118404939Y-76801897D01*
X118403043Y-76791812D01*
X118361806Y-76580586D01*
X118360529Y-76576315D01*
X118360053Y-76571889D01*
X118357896Y-76561856D01*
X118309215Y-76342965D01*
X118309061Y-76342495D01*
X118309001Y-76342007D01*
X118306690Y-76332008D01*
X118252730Y-76105769D01*
X118252672Y-76105599D01*
X118251726Y-76101614D01*
X118194909Y-75869389D01*
X118138026Y-75634116D01*
X118083578Y-75397960D01*
X118033456Y-75161093D01*
X117989420Y-74923582D01*
X117953191Y-74685743D01*
X117926383Y-74447818D01*
X117910527Y-74210015D01*
X117907077Y-73972394D01*
X117917455Y-73734901D01*
X117943104Y-73497144D01*
X117985570Y-73258596D01*
X118046596Y-73018447D01*
X118128206Y-72775717D01*
X118232722Y-72529459D01*
X118362806Y-72278734D01*
X118521326Y-72022898D01*
X118711339Y-71761515D01*
X118935909Y-71494518D01*
X119198045Y-71222103D01*
X119500647Y-70944694D01*
X119820529Y-70684005D01*
X120087606Y-70524158D01*
X120400324Y-70348758D01*
X120721121Y-70182736D01*
X121054795Y-70026133D01*
X121219986Y-69954975D01*
X121391228Y-69885825D01*
X121565309Y-69820348D01*
X121742346Y-69758774D01*
X121922482Y-69701330D01*
X122105902Y-69648227D01*
X122292782Y-69599687D01*
X122483323Y-69555933D01*
X122677675Y-69517207D01*
X122876054Y-69483742D01*
X123078707Y-69455778D01*
X123285742Y-69433582D01*
X123497504Y-69417405D01*
X123714074Y-69407529D01*
X123935746Y-69404235D01*
X124162743Y-69407816D01*
G36*
X127941928Y-95600000D02*
G01*
X127954188Y-95724482D01*
X127962497Y-95751874D01*
X127713201Y-95751874D01*
X127859774Y-95653937D01*
X127941928Y-95571783D01*
X127941928Y-95600000D01*
G37*
X127941928Y-95600000D02*
X127954188Y-95724482D01*
X127962497Y-95751874D01*
X127713201Y-95751874D01*
X127859774Y-95653937D01*
X127941928Y-95571783D01*
X127941928Y-95600000D01*
G36*
X130816525Y-93156632D02*
G01*
X131023368Y-93363475D01*
X131197760Y-93480000D01*
X131023368Y-93596525D01*
X130891513Y-93728380D01*
X130869502Y-93655820D01*
X130810537Y-93545506D01*
X130731185Y-93448815D01*
X130634494Y-93369463D01*
X130524180Y-93310498D01*
X130451620Y-93288487D01*
X130583475Y-93156632D01*
X130700000Y-92982240D01*
X130816525Y-93156632D01*
G37*
X130816525Y-93156632D02*
X131023368Y-93363475D01*
X131197760Y-93480000D01*
X131023368Y-93596525D01*
X130891513Y-93728380D01*
X130869502Y-93655820D01*
X130810537Y-93545506D01*
X130731185Y-93448815D01*
X130634494Y-93369463D01*
X130524180Y-93310498D01*
X130451620Y-93288487D01*
X130583475Y-93156632D01*
X130700000Y-92982240D01*
X130816525Y-93156632D01*
M02*
