M48
; DRILL file {KiCad 5.1.6-c6e7f7d~87~ubuntu18.04.1} date Mon Jul 20 19:22:28 2020
; FORMAT={-:-/ absolute / inch / decimal}
; #@! TF.CreationDate,2020-07-20T19:22:28+02:00
; #@! TF.GenerationSoftware,Kicad,Pcbnew,5.1.6-c6e7f7d~87~ubuntu18.04.1
; #@! TF.FileFunction,Plated,1,2,PTH
FMAT,2
INCH
T1C0.0157
T2C0.0394
%
G90
G05
T1
X4.8209Y-3.5161
X4.8378Y-3.6823
X4.8476Y-3.5961
X4.8587Y-3.7539
X4.939Y-3.7189
X5.0079Y-3.7343
X5.0264Y-3.5161
X5.0602Y-3.5626
X5.1445Y-3.5063
X5.1531Y-3.5835
X5.2177Y-3.5315
X5.3079Y-3.7496
X5.3898Y-3.6976
X5.4264Y-3.5626
X5.4642Y-3.7583
X5.4768Y-3.6425
X5.5094Y-3.5102
T2
X5.0957Y-3.6303
X5.0957Y-3.7303
X5.1957Y-3.6303
X5.1957Y-3.7303
T0
M30
