G04 #@! TF.GenerationSoftware,KiCad,Pcbnew,5.1.6-c6e7f7d~87~ubuntu18.04.1*
G04 #@! TF.CreationDate,2020-07-20T19:22:24+02:00*
G04 #@! TF.ProjectId,cloud-demo,636c6f75-642d-4646-956d-6f2e6b696361,rev?*
G04 #@! TF.SameCoordinates,Original*
G04 #@! TF.FileFunction,Copper,L2,Bot*
G04 #@! TF.FilePolarity,Positive*
%FSLAX46Y46*%
G04 Gerber Fmt 4.6, Leading zero omitted, Abs format (unit mm)*
G04 Created by KiCad (PCBNEW 5.1.6-c6e7f7d~87~ubuntu18.04.1) date 2020-07-20 19:22:24*
%MOMM*%
%LPD*%
G01*
G04 APERTURE LIST*
G04 #@! TA.AperFunction,ComponentPad*
%ADD10O,1.700000X1.700000*%
G04 #@! TD*
G04 #@! TA.AperFunction,ComponentPad*
%ADD11R,1.700000X1.700000*%
G04 #@! TD*
G04 #@! TA.AperFunction,ViaPad*
%ADD12C,0.800000*%
G04 #@! TD*
G04 #@! TA.AperFunction,Conductor*
%ADD13C,0.250000*%
G04 #@! TD*
G04 APERTURE END LIST*
G04 #@! TA.AperFunction,SMDPad,CuDef*
G36*
G01*
X128435000Y-87210001D02*
X128435000Y-86309999D01*
G75*
G02*
X128684999Y-86060000I249999J0D01*
G01*
X129335001Y-86060000D01*
G75*
G02*
X129585000Y-86309999I0J-249999D01*
G01*
X129585000Y-87210001D01*
G75*
G02*
X129335001Y-87460000I-249999J0D01*
G01*
X128684999Y-87460000D01*
G75*
G02*
X128435000Y-87210001I0J249999D01*
G01*
G37*
G04 #@! TD.AperFunction*
G04 #@! TA.AperFunction,SMDPad,CuDef*
G36*
G01*
X126385000Y-87210001D02*
X126385000Y-86309999D01*
G75*
G02*
X126634999Y-86060000I249999J0D01*
G01*
X127285001Y-86060000D01*
G75*
G02*
X127535000Y-86309999I0J-249999D01*
G01*
X127535000Y-87210001D01*
G75*
G02*
X127285001Y-87460000I-249999J0D01*
G01*
X126634999Y-87460000D01*
G75*
G02*
X126385000Y-87210001I0J249999D01*
G01*
G37*
G04 #@! TD.AperFunction*
G04 #@! TA.AperFunction,SMDPad,CuDef*
G36*
G01*
X132705000Y-86809999D02*
X132705000Y-87710001D01*
G75*
G02*
X132455001Y-87960000I-249999J0D01*
G01*
X131804999Y-87960000D01*
G75*
G02*
X131555000Y-87710001I0J249999D01*
G01*
X131555000Y-86809999D01*
G75*
G02*
X131804999Y-86560000I249999J0D01*
G01*
X132455001Y-86560000D01*
G75*
G02*
X132705000Y-86809999I0J-249999D01*
G01*
G37*
G04 #@! TD.AperFunction*
G04 #@! TA.AperFunction,SMDPad,CuDef*
G36*
G01*
X134755000Y-86809999D02*
X134755000Y-87710001D01*
G75*
G02*
X134505001Y-87960000I-249999J0D01*
G01*
X133854999Y-87960000D01*
G75*
G02*
X133605000Y-87710001I0J249999D01*
G01*
X133605000Y-86809999D01*
G75*
G02*
X133854999Y-86560000I249999J0D01*
G01*
X134505001Y-86560000D01*
G75*
G02*
X134755000Y-86809999I0J-249999D01*
G01*
G37*
G04 #@! TD.AperFunction*
G04 #@! TA.AperFunction,SMDPad,CuDef*
G36*
G01*
X125640001Y-89805000D02*
X124739999Y-89805000D01*
G75*
G02*
X124490000Y-89555001I0J249999D01*
G01*
X124490000Y-88904999D01*
G75*
G02*
X124739999Y-88655000I249999J0D01*
G01*
X125640001Y-88655000D01*
G75*
G02*
X125890000Y-88904999I0J-249999D01*
G01*
X125890000Y-89555001D01*
G75*
G02*
X125640001Y-89805000I-249999J0D01*
G01*
G37*
G04 #@! TD.AperFunction*
G04 #@! TA.AperFunction,SMDPad,CuDef*
G36*
G01*
X125640001Y-91855000D02*
X124739999Y-91855000D01*
G75*
G02*
X124490000Y-91605001I0J249999D01*
G01*
X124490000Y-90954999D01*
G75*
G02*
X124739999Y-90705000I249999J0D01*
G01*
X125640001Y-90705000D01*
G75*
G02*
X125890000Y-90954999I0J-249999D01*
G01*
X125890000Y-91605001D01*
G75*
G02*
X125640001Y-91855000I-249999J0D01*
G01*
G37*
G04 #@! TD.AperFunction*
G04 #@! TA.AperFunction,SMDPad,CuDef*
G36*
G01*
X135760001Y-90265000D02*
X134859999Y-90265000D01*
G75*
G02*
X134610000Y-90015001I0J249999D01*
G01*
X134610000Y-89364999D01*
G75*
G02*
X134859999Y-89115000I249999J0D01*
G01*
X135760001Y-89115000D01*
G75*
G02*
X136010000Y-89364999I0J-249999D01*
G01*
X136010000Y-90015001D01*
G75*
G02*
X135760001Y-90265000I-249999J0D01*
G01*
G37*
G04 #@! TD.AperFunction*
G04 #@! TA.AperFunction,SMDPad,CuDef*
G36*
G01*
X135760001Y-92315000D02*
X134859999Y-92315000D01*
G75*
G02*
X134610000Y-92065001I0J249999D01*
G01*
X134610000Y-91414999D01*
G75*
G02*
X134859999Y-91165000I249999J0D01*
G01*
X135760001Y-91165000D01*
G75*
G02*
X136010000Y-91414999I0J-249999D01*
G01*
X136010000Y-92065001D01*
G75*
G02*
X135760001Y-92315000I-249999J0D01*
G01*
G37*
G04 #@! TD.AperFunction*
D10*
X131970000Y-92210000D03*
X129430000Y-92210000D03*
X131970000Y-94750000D03*
D11*
X129430000Y-94750000D03*
D12*
X139940000Y-89160000D03*
X137830000Y-90490000D03*
X139110000Y-92520000D03*
X134820000Y-95240000D03*
X136900000Y-93920000D03*
X138790000Y-95460000D03*
X130670000Y-89060000D03*
X132530000Y-89700000D03*
X127670000Y-89310000D03*
X122450000Y-89310000D03*
X122880000Y-93530000D03*
X123130000Y-91340000D03*
X125450000Y-94460000D03*
X123410000Y-95350000D03*
X130890000Y-91020000D03*
X127200000Y-94850000D03*
X128530000Y-90490000D03*
D13*
X134180000Y-88560000D02*
X135310000Y-89690000D01*
X134180000Y-87260000D02*
X134180000Y-88560000D01*
X130794999Y-93385001D02*
X129430000Y-94750000D01*
X133664999Y-93385001D02*
X130794999Y-93385001D01*
X135310000Y-91740000D02*
X133664999Y-93385001D01*
X128660000Y-94750000D02*
X125190000Y-91280000D01*
X129430000Y-94750000D02*
X128660000Y-94750000D01*
X125190000Y-88530000D02*
X126960000Y-86760000D01*
X125190000Y-89230000D02*
X125190000Y-88530000D01*
X129430000Y-87180000D02*
X129010000Y-86760000D01*
X129430000Y-92210000D02*
X129430000Y-87180000D01*
X131630000Y-86760000D02*
X132130000Y-87260000D01*
X129010000Y-86760000D02*
X131630000Y-86760000D01*
M02*
