G04 #@! TF.GenerationSoftware,KiCad,Pcbnew,5.1.6-c6e7f7d~87~ubuntu18.04.1*
G04 #@! TF.CreationDate,2020-07-20T19:22:24+02:00*
G04 #@! TF.ProjectId,cloud-demo,636c6f75-642d-4646-956d-6f2e6b696361,rev?*
G04 #@! TF.SameCoordinates,Original*
G04 #@! TF.FileFunction,Legend,Bot*
G04 #@! TF.FilePolarity,Positive*
%FSLAX46Y46*%
G04 Gerber Fmt 4.6, Leading zero omitted, Abs format (unit mm)*
G04 Created by KiCad (PCBNEW 5.1.6-c6e7f7d~87~ubuntu18.04.1) date 2020-07-20 19:22:24*
%MOMM*%
%LPD*%
G01*
G04 APERTURE LIST*
%ADD10C,0.010000*%
%ADD11C,0.120000*%
%ADD12C,0.150000*%
%ADD13O,1.800000X1.800000*%
%ADD14R,1.800000X1.800000*%
G04 APERTURE END LIST*
D10*
G36*
X126906878Y-78464856D02*
G01*
X126903127Y-78520529D01*
X126934734Y-78620799D01*
X126961441Y-78678585D01*
X127009373Y-78782033D01*
X127079227Y-78945049D01*
X127162852Y-79148054D01*
X127252095Y-79371470D01*
X127284561Y-79454500D01*
X127414055Y-79779732D01*
X127523403Y-80034367D01*
X127618133Y-80228490D01*
X127703775Y-80372183D01*
X127785856Y-80475532D01*
X127869907Y-80548618D01*
X127892893Y-80563989D01*
X128025611Y-80677823D01*
X128167353Y-80847882D01*
X128301111Y-81049825D01*
X128409872Y-81259313D01*
X128450428Y-81361772D01*
X128514795Y-81626658D01*
X128516107Y-81886427D01*
X128454334Y-82171110D01*
X128449627Y-82186412D01*
X128407550Y-82330935D01*
X128392221Y-82430576D01*
X128403124Y-82520609D01*
X128439741Y-82636309D01*
X128442897Y-82645267D01*
X128557018Y-82921046D01*
X128692084Y-83144418D01*
X128860622Y-83326052D01*
X129075162Y-83476617D01*
X129348231Y-83606785D01*
X129692357Y-83727223D01*
X129725168Y-83737318D01*
X129907473Y-83796094D01*
X130026662Y-83845193D01*
X130101803Y-83895287D01*
X130151963Y-83957048D01*
X130168137Y-83985231D01*
X130218082Y-84142518D01*
X130236919Y-84354748D01*
X130224858Y-84598201D01*
X130182105Y-84849156D01*
X130159827Y-84934728D01*
X130118637Y-85106228D01*
X130120248Y-85222425D01*
X130174564Y-85306028D01*
X130291487Y-85379746D01*
X130370167Y-85417113D01*
X130574118Y-85477431D01*
X130792927Y-85489949D01*
X130990907Y-85453969D01*
X131047500Y-85430381D01*
X131169455Y-85361095D01*
X131268511Y-85293761D01*
X131362522Y-85220834D01*
X131276057Y-84793630D01*
X131236972Y-84589896D01*
X131216416Y-84443740D01*
X131213234Y-84330391D01*
X131226273Y-84225081D01*
X131245546Y-84138338D01*
X131301500Y-83910250D01*
X131640538Y-83824132D01*
X132020316Y-83692281D01*
X132346559Y-83506223D01*
X132613642Y-83271838D01*
X132815942Y-82995005D01*
X132947837Y-82681602D01*
X132999320Y-82403609D01*
X133004879Y-82326081D01*
X132871929Y-82326081D01*
X132831987Y-82627440D01*
X132714721Y-82907715D01*
X132519020Y-83173596D01*
X132457581Y-83238732D01*
X132175563Y-83465575D01*
X131839879Y-83630871D01*
X131488576Y-83725242D01*
X131343240Y-83754560D01*
X131256799Y-83788203D01*
X131204200Y-83841480D01*
X131162690Y-83924377D01*
X131106708Y-84139928D01*
X131096445Y-84413699D01*
X131131290Y-84733043D01*
X131210630Y-85085314D01*
X131220605Y-85120540D01*
X131198717Y-85182369D01*
X131115307Y-85248860D01*
X130992107Y-85309277D01*
X130850851Y-85352884D01*
X130717730Y-85368967D01*
X130575553Y-85348688D01*
X130421644Y-85298257D01*
X130385489Y-85281352D01*
X130279113Y-85219044D01*
X130236355Y-85165255D01*
X130240687Y-85101435D01*
X130324629Y-84774587D01*
X130365995Y-84502716D01*
X130365403Y-84267980D01*
X130323470Y-84052539D01*
X130281210Y-83931289D01*
X130251685Y-83863235D01*
X130216793Y-83811638D01*
X130162206Y-83768295D01*
X130073596Y-83724999D01*
X129936635Y-83673547D01*
X129736996Y-83605733D01*
X129678811Y-83586327D01*
X129456817Y-83510855D01*
X129296526Y-83450334D01*
X129178831Y-83394451D01*
X129084625Y-83332896D01*
X128994798Y-83255359D01*
X128909703Y-83171299D01*
X128725066Y-82953999D01*
X128609654Y-82742854D01*
X128597038Y-82709102D01*
X128557729Y-82589766D01*
X128540031Y-82497038D01*
X128543675Y-82400542D01*
X128568391Y-82269907D01*
X128592242Y-82166669D01*
X128637391Y-81911411D01*
X128646581Y-81693426D01*
X128642593Y-81645368D01*
X128618361Y-81440770D01*
X128795764Y-81538848D01*
X129154396Y-81689665D01*
X129534528Y-81759643D01*
X129786424Y-81760853D01*
X129959468Y-81743743D01*
X130105351Y-81711087D01*
X130256969Y-81652846D01*
X130445951Y-81559648D01*
X130746724Y-81402803D01*
X130982999Y-81280403D01*
X131165581Y-81188184D01*
X131305275Y-81121885D01*
X131412883Y-81077243D01*
X131499212Y-81049997D01*
X131575064Y-81035883D01*
X131651243Y-81030640D01*
X131738555Y-81030007D01*
X131788333Y-81030087D01*
X131982664Y-81036657D01*
X132132305Y-81062227D01*
X132276545Y-81115041D01*
X132343292Y-81146506D01*
X132455257Y-81203900D01*
X132532088Y-81256891D01*
X132589228Y-81325211D01*
X132642118Y-81428588D01*
X132706198Y-81586753D01*
X132724292Y-81633339D01*
X132835660Y-81996945D01*
X132871929Y-82326081D01*
X133004879Y-82326081D01*
X133006840Y-82298736D01*
X133006908Y-82204800D01*
X132996177Y-82107889D01*
X132971297Y-81994088D01*
X132928919Y-81849484D01*
X132865695Y-81660163D01*
X132778276Y-81412211D01*
X132724722Y-81262667D01*
X132660033Y-81052403D01*
X132460914Y-81052403D01*
X132410584Y-81037098D01*
X132339912Y-81004941D01*
X132065713Y-80911006D01*
X131773443Y-80889661D01*
X131458220Y-80941716D01*
X131115159Y-81067981D01*
X130739377Y-81269268D01*
X130736303Y-81271137D01*
X130449812Y-81433172D01*
X130202394Y-81542767D01*
X129972518Y-81606609D01*
X129738652Y-81631381D01*
X129580501Y-81629976D01*
X129405261Y-81616939D01*
X129258750Y-81589401D01*
X129108412Y-81538429D01*
X128921691Y-81455088D01*
X128892584Y-81441188D01*
X128713040Y-81352347D01*
X128594364Y-81288430D01*
X128539214Y-81252359D01*
X128550249Y-81247055D01*
X128630125Y-81275439D01*
X128781502Y-81340432D01*
X128814417Y-81355277D01*
X129031747Y-81439535D01*
X129246152Y-81486878D01*
X129438833Y-81505483D01*
X129722375Y-81502277D01*
X129990193Y-81452205D01*
X130262840Y-81348936D01*
X130560862Y-81186140D01*
X130643176Y-81134477D01*
X130874394Y-80991273D01*
X131058749Y-80892072D01*
X131216583Y-80829383D01*
X131368242Y-80795718D01*
X131534070Y-80783588D01*
X131597833Y-80783040D01*
X131847197Y-80805002D01*
X132096651Y-80863719D01*
X132316035Y-80950359D01*
X132447032Y-81031761D01*
X132460914Y-81052403D01*
X132660033Y-81052403D01*
X132637281Y-80978454D01*
X132600483Y-80744194D01*
X132613506Y-80542608D01*
X132674822Y-80358538D01*
X132510658Y-80358538D01*
X132503881Y-80397051D01*
X132483608Y-80488850D01*
X132470617Y-80622692D01*
X132468642Y-80679079D01*
X132465667Y-80878658D01*
X132281939Y-80799903D01*
X131920627Y-80684989D01*
X131565398Y-80649929D01*
X131224014Y-80694030D01*
X130904240Y-80816601D01*
X130708880Y-80940086D01*
X130342704Y-81173056D01*
X129981915Y-81321694D01*
X129625943Y-81386127D01*
X129274221Y-81366481D01*
X129044004Y-81307472D01*
X128769512Y-81199508D01*
X128558201Y-81076854D01*
X128388588Y-80924798D01*
X128274151Y-80780235D01*
X128103888Y-80537177D01*
X128360804Y-80269626D01*
X128543123Y-80099386D01*
X128582447Y-80067638D01*
X128356693Y-80067638D01*
X128343477Y-80101758D01*
X128283880Y-80172090D01*
X128196616Y-80260707D01*
X128100398Y-80349679D01*
X128013940Y-80421080D01*
X127955954Y-80456980D01*
X127948884Y-80458334D01*
X127896104Y-80425237D01*
X127823617Y-80341238D01*
X127786485Y-80286864D01*
X127736229Y-80192303D01*
X127663053Y-80034872D01*
X127574079Y-79830858D01*
X127476427Y-79596550D01*
X127386644Y-79372312D01*
X127095048Y-78629229D01*
X127226909Y-78648582D01*
X127368343Y-78652863D01*
X127494601Y-78637301D01*
X127630432Y-78606666D01*
X127682223Y-78865750D01*
X127750127Y-79187128D01*
X127812775Y-79436051D01*
X127875340Y-79624085D01*
X127942998Y-79762796D01*
X128020923Y-79863752D01*
X128114289Y-79938518D01*
X128178417Y-79974879D01*
X128281305Y-80027674D01*
X128347414Y-80062420D01*
X128356693Y-80067638D01*
X128582447Y-80067638D01*
X128772986Y-79913811D01*
X129028362Y-79728231D01*
X129287219Y-79557977D01*
X129527526Y-79418379D01*
X129707551Y-79332502D01*
X129947308Y-79256316D01*
X130216964Y-79212690D01*
X130532065Y-79200327D01*
X130908160Y-79217933D01*
X130995104Y-79225206D01*
X131293638Y-79259410D01*
X131531470Y-79307558D01*
X131732367Y-79377835D01*
X131920099Y-79478423D01*
X132105104Y-79607401D01*
X132240533Y-79722958D01*
X132334659Y-79844356D01*
X132413904Y-80007164D01*
X132428022Y-80042088D01*
X132491356Y-80229408D01*
X132510658Y-80358538D01*
X132674822Y-80358538D01*
X132675528Y-80356421D01*
X132681030Y-80344864D01*
X132739497Y-80237535D01*
X132807773Y-80150103D01*
X132902520Y-80068041D01*
X133040404Y-79976821D01*
X133229277Y-79866892D01*
X133405072Y-79750650D01*
X133616641Y-79584282D01*
X133846460Y-79383445D01*
X134077006Y-79163799D01*
X134290753Y-78941001D01*
X134385449Y-78833785D01*
X134423123Y-78789686D01*
X134264833Y-78789686D01*
X133859879Y-79190093D01*
X133645441Y-79391024D01*
X133437818Y-79565233D01*
X133256234Y-79697036D01*
X133187536Y-79738667D01*
X133025695Y-79835825D01*
X132870178Y-79941484D01*
X132766990Y-80022451D01*
X132613833Y-80158068D01*
X132562826Y-80043618D01*
X132524797Y-79938718D01*
X132510350Y-79865667D01*
X132546533Y-79814257D01*
X132646140Y-79745235D01*
X132772787Y-79679324D01*
X132976257Y-79562096D01*
X133178910Y-79406422D01*
X133362700Y-79230012D01*
X133509582Y-79050577D01*
X133601509Y-78885827D01*
X133611796Y-78855915D01*
X133649123Y-78745887D01*
X133687734Y-78699245D01*
X133750496Y-78697504D01*
X133795816Y-78707167D01*
X133928016Y-78734465D01*
X134078567Y-78760963D01*
X134095500Y-78763618D01*
X134264833Y-78789686D01*
X134423123Y-78789686D01*
X134588303Y-78596341D01*
X134341902Y-78620951D01*
X134160251Y-78626165D01*
X133979482Y-78611092D01*
X133905000Y-78596528D01*
X133726174Y-78550521D01*
X133614144Y-78525130D01*
X133553329Y-78521413D01*
X133528147Y-78540428D01*
X133523017Y-78583236D01*
X133523070Y-78622482D01*
X133481616Y-78827597D01*
X133366688Y-79037982D01*
X133187872Y-79242486D01*
X132954753Y-79429955D01*
X132703040Y-79576576D01*
X132430190Y-79711124D01*
X132280277Y-79579499D01*
X132065626Y-79412144D01*
X131841965Y-79285209D01*
X131592452Y-79193069D01*
X131300246Y-79130101D01*
X130948506Y-79090679D01*
X130784974Y-79080113D01*
X130464271Y-79070857D01*
X130188783Y-79084755D01*
X129939918Y-79127530D01*
X129699087Y-79204903D01*
X129447697Y-79322596D01*
X129167158Y-79486332D01*
X128900707Y-79660052D01*
X128688884Y-79794005D01*
X128525316Y-79874232D01*
X128395558Y-79903903D01*
X128285165Y-79886189D01*
X128179690Y-79824259D01*
X128173697Y-79819596D01*
X128081080Y-79731402D01*
X128009690Y-79621362D01*
X127951455Y-79471337D01*
X127898302Y-79263188D01*
X127873945Y-79146000D01*
X127816726Y-78872291D01*
X127768426Y-78675205D01*
X127726787Y-78547442D01*
X127689550Y-78481699D01*
X127664437Y-78468667D01*
X127594266Y-78479628D01*
X127487006Y-78506240D01*
X127479055Y-78508499D01*
X127327212Y-78525147D01*
X127144097Y-78489320D01*
X127141558Y-78488558D01*
X127019025Y-78460508D01*
X126930202Y-78456263D01*
X126906878Y-78464856D01*
G37*
X126906878Y-78464856D02*
X126903127Y-78520529D01*
X126934734Y-78620799D01*
X126961441Y-78678585D01*
X127009373Y-78782033D01*
X127079227Y-78945049D01*
X127162852Y-79148054D01*
X127252095Y-79371470D01*
X127284561Y-79454500D01*
X127414055Y-79779732D01*
X127523403Y-80034367D01*
X127618133Y-80228490D01*
X127703775Y-80372183D01*
X127785856Y-80475532D01*
X127869907Y-80548618D01*
X127892893Y-80563989D01*
X128025611Y-80677823D01*
X128167353Y-80847882D01*
X128301111Y-81049825D01*
X128409872Y-81259313D01*
X128450428Y-81361772D01*
X128514795Y-81626658D01*
X128516107Y-81886427D01*
X128454334Y-82171110D01*
X128449627Y-82186412D01*
X128407550Y-82330935D01*
X128392221Y-82430576D01*
X128403124Y-82520609D01*
X128439741Y-82636309D01*
X128442897Y-82645267D01*
X128557018Y-82921046D01*
X128692084Y-83144418D01*
X128860622Y-83326052D01*
X129075162Y-83476617D01*
X129348231Y-83606785D01*
X129692357Y-83727223D01*
X129725168Y-83737318D01*
X129907473Y-83796094D01*
X130026662Y-83845193D01*
X130101803Y-83895287D01*
X130151963Y-83957048D01*
X130168137Y-83985231D01*
X130218082Y-84142518D01*
X130236919Y-84354748D01*
X130224858Y-84598201D01*
X130182105Y-84849156D01*
X130159827Y-84934728D01*
X130118637Y-85106228D01*
X130120248Y-85222425D01*
X130174564Y-85306028D01*
X130291487Y-85379746D01*
X130370167Y-85417113D01*
X130574118Y-85477431D01*
X130792927Y-85489949D01*
X130990907Y-85453969D01*
X131047500Y-85430381D01*
X131169455Y-85361095D01*
X131268511Y-85293761D01*
X131362522Y-85220834D01*
X131276057Y-84793630D01*
X131236972Y-84589896D01*
X131216416Y-84443740D01*
X131213234Y-84330391D01*
X131226273Y-84225081D01*
X131245546Y-84138338D01*
X131301500Y-83910250D01*
X131640538Y-83824132D01*
X132020316Y-83692281D01*
X132346559Y-83506223D01*
X132613642Y-83271838D01*
X132815942Y-82995005D01*
X132947837Y-82681602D01*
X132999320Y-82403609D01*
X133004879Y-82326081D01*
X132871929Y-82326081D01*
X132831987Y-82627440D01*
X132714721Y-82907715D01*
X132519020Y-83173596D01*
X132457581Y-83238732D01*
X132175563Y-83465575D01*
X131839879Y-83630871D01*
X131488576Y-83725242D01*
X131343240Y-83754560D01*
X131256799Y-83788203D01*
X131204200Y-83841480D01*
X131162690Y-83924377D01*
X131106708Y-84139928D01*
X131096445Y-84413699D01*
X131131290Y-84733043D01*
X131210630Y-85085314D01*
X131220605Y-85120540D01*
X131198717Y-85182369D01*
X131115307Y-85248860D01*
X130992107Y-85309277D01*
X130850851Y-85352884D01*
X130717730Y-85368967D01*
X130575553Y-85348688D01*
X130421644Y-85298257D01*
X130385489Y-85281352D01*
X130279113Y-85219044D01*
X130236355Y-85165255D01*
X130240687Y-85101435D01*
X130324629Y-84774587D01*
X130365995Y-84502716D01*
X130365403Y-84267980D01*
X130323470Y-84052539D01*
X130281210Y-83931289D01*
X130251685Y-83863235D01*
X130216793Y-83811638D01*
X130162206Y-83768295D01*
X130073596Y-83724999D01*
X129936635Y-83673547D01*
X129736996Y-83605733D01*
X129678811Y-83586327D01*
X129456817Y-83510855D01*
X129296526Y-83450334D01*
X129178831Y-83394451D01*
X129084625Y-83332896D01*
X128994798Y-83255359D01*
X128909703Y-83171299D01*
X128725066Y-82953999D01*
X128609654Y-82742854D01*
X128597038Y-82709102D01*
X128557729Y-82589766D01*
X128540031Y-82497038D01*
X128543675Y-82400542D01*
X128568391Y-82269907D01*
X128592242Y-82166669D01*
X128637391Y-81911411D01*
X128646581Y-81693426D01*
X128642593Y-81645368D01*
X128618361Y-81440770D01*
X128795764Y-81538848D01*
X129154396Y-81689665D01*
X129534528Y-81759643D01*
X129786424Y-81760853D01*
X129959468Y-81743743D01*
X130105351Y-81711087D01*
X130256969Y-81652846D01*
X130445951Y-81559648D01*
X130746724Y-81402803D01*
X130982999Y-81280403D01*
X131165581Y-81188184D01*
X131305275Y-81121885D01*
X131412883Y-81077243D01*
X131499212Y-81049997D01*
X131575064Y-81035883D01*
X131651243Y-81030640D01*
X131738555Y-81030007D01*
X131788333Y-81030087D01*
X131982664Y-81036657D01*
X132132305Y-81062227D01*
X132276545Y-81115041D01*
X132343292Y-81146506D01*
X132455257Y-81203900D01*
X132532088Y-81256891D01*
X132589228Y-81325211D01*
X132642118Y-81428588D01*
X132706198Y-81586753D01*
X132724292Y-81633339D01*
X132835660Y-81996945D01*
X132871929Y-82326081D01*
X133004879Y-82326081D01*
X133006840Y-82298736D01*
X133006908Y-82204800D01*
X132996177Y-82107889D01*
X132971297Y-81994088D01*
X132928919Y-81849484D01*
X132865695Y-81660163D01*
X132778276Y-81412211D01*
X132724722Y-81262667D01*
X132660033Y-81052403D01*
X132460914Y-81052403D01*
X132410584Y-81037098D01*
X132339912Y-81004941D01*
X132065713Y-80911006D01*
X131773443Y-80889661D01*
X131458220Y-80941716D01*
X131115159Y-81067981D01*
X130739377Y-81269268D01*
X130736303Y-81271137D01*
X130449812Y-81433172D01*
X130202394Y-81542767D01*
X129972518Y-81606609D01*
X129738652Y-81631381D01*
X129580501Y-81629976D01*
X129405261Y-81616939D01*
X129258750Y-81589401D01*
X129108412Y-81538429D01*
X128921691Y-81455088D01*
X128892584Y-81441188D01*
X128713040Y-81352347D01*
X128594364Y-81288430D01*
X128539214Y-81252359D01*
X128550249Y-81247055D01*
X128630125Y-81275439D01*
X128781502Y-81340432D01*
X128814417Y-81355277D01*
X129031747Y-81439535D01*
X129246152Y-81486878D01*
X129438833Y-81505483D01*
X129722375Y-81502277D01*
X129990193Y-81452205D01*
X130262840Y-81348936D01*
X130560862Y-81186140D01*
X130643176Y-81134477D01*
X130874394Y-80991273D01*
X131058749Y-80892072D01*
X131216583Y-80829383D01*
X131368242Y-80795718D01*
X131534070Y-80783588D01*
X131597833Y-80783040D01*
X131847197Y-80805002D01*
X132096651Y-80863719D01*
X132316035Y-80950359D01*
X132447032Y-81031761D01*
X132460914Y-81052403D01*
X132660033Y-81052403D01*
X132637281Y-80978454D01*
X132600483Y-80744194D01*
X132613506Y-80542608D01*
X132674822Y-80358538D01*
X132510658Y-80358538D01*
X132503881Y-80397051D01*
X132483608Y-80488850D01*
X132470617Y-80622692D01*
X132468642Y-80679079D01*
X132465667Y-80878658D01*
X132281939Y-80799903D01*
X131920627Y-80684989D01*
X131565398Y-80649929D01*
X131224014Y-80694030D01*
X130904240Y-80816601D01*
X130708880Y-80940086D01*
X130342704Y-81173056D01*
X129981915Y-81321694D01*
X129625943Y-81386127D01*
X129274221Y-81366481D01*
X129044004Y-81307472D01*
X128769512Y-81199508D01*
X128558201Y-81076854D01*
X128388588Y-80924798D01*
X128274151Y-80780235D01*
X128103888Y-80537177D01*
X128360804Y-80269626D01*
X128543123Y-80099386D01*
X128582447Y-80067638D01*
X128356693Y-80067638D01*
X128343477Y-80101758D01*
X128283880Y-80172090D01*
X128196616Y-80260707D01*
X128100398Y-80349679D01*
X128013940Y-80421080D01*
X127955954Y-80456980D01*
X127948884Y-80458334D01*
X127896104Y-80425237D01*
X127823617Y-80341238D01*
X127786485Y-80286864D01*
X127736229Y-80192303D01*
X127663053Y-80034872D01*
X127574079Y-79830858D01*
X127476427Y-79596550D01*
X127386644Y-79372312D01*
X127095048Y-78629229D01*
X127226909Y-78648582D01*
X127368343Y-78652863D01*
X127494601Y-78637301D01*
X127630432Y-78606666D01*
X127682223Y-78865750D01*
X127750127Y-79187128D01*
X127812775Y-79436051D01*
X127875340Y-79624085D01*
X127942998Y-79762796D01*
X128020923Y-79863752D01*
X128114289Y-79938518D01*
X128178417Y-79974879D01*
X128281305Y-80027674D01*
X128347414Y-80062420D01*
X128356693Y-80067638D01*
X128582447Y-80067638D01*
X128772986Y-79913811D01*
X129028362Y-79728231D01*
X129287219Y-79557977D01*
X129527526Y-79418379D01*
X129707551Y-79332502D01*
X129947308Y-79256316D01*
X130216964Y-79212690D01*
X130532065Y-79200327D01*
X130908160Y-79217933D01*
X130995104Y-79225206D01*
X131293638Y-79259410D01*
X131531470Y-79307558D01*
X131732367Y-79377835D01*
X131920099Y-79478423D01*
X132105104Y-79607401D01*
X132240533Y-79722958D01*
X132334659Y-79844356D01*
X132413904Y-80007164D01*
X132428022Y-80042088D01*
X132491356Y-80229408D01*
X132510658Y-80358538D01*
X132674822Y-80358538D01*
X132675528Y-80356421D01*
X132681030Y-80344864D01*
X132739497Y-80237535D01*
X132807773Y-80150103D01*
X132902520Y-80068041D01*
X133040404Y-79976821D01*
X133229277Y-79866892D01*
X133405072Y-79750650D01*
X133616641Y-79584282D01*
X133846460Y-79383445D01*
X134077006Y-79163799D01*
X134290753Y-78941001D01*
X134385449Y-78833785D01*
X134423123Y-78789686D01*
X134264833Y-78789686D01*
X133859879Y-79190093D01*
X133645441Y-79391024D01*
X133437818Y-79565233D01*
X133256234Y-79697036D01*
X133187536Y-79738667D01*
X133025695Y-79835825D01*
X132870178Y-79941484D01*
X132766990Y-80022451D01*
X132613833Y-80158068D01*
X132562826Y-80043618D01*
X132524797Y-79938718D01*
X132510350Y-79865667D01*
X132546533Y-79814257D01*
X132646140Y-79745235D01*
X132772787Y-79679324D01*
X132976257Y-79562096D01*
X133178910Y-79406422D01*
X133362700Y-79230012D01*
X133509582Y-79050577D01*
X133601509Y-78885827D01*
X133611796Y-78855915D01*
X133649123Y-78745887D01*
X133687734Y-78699245D01*
X133750496Y-78697504D01*
X133795816Y-78707167D01*
X133928016Y-78734465D01*
X134078567Y-78760963D01*
X134095500Y-78763618D01*
X134264833Y-78789686D01*
X134423123Y-78789686D01*
X134588303Y-78596341D01*
X134341902Y-78620951D01*
X134160251Y-78626165D01*
X133979482Y-78611092D01*
X133905000Y-78596528D01*
X133726174Y-78550521D01*
X133614144Y-78525130D01*
X133553329Y-78521413D01*
X133528147Y-78540428D01*
X133523017Y-78583236D01*
X133523070Y-78622482D01*
X133481616Y-78827597D01*
X133366688Y-79037982D01*
X133187872Y-79242486D01*
X132954753Y-79429955D01*
X132703040Y-79576576D01*
X132430190Y-79711124D01*
X132280277Y-79579499D01*
X132065626Y-79412144D01*
X131841965Y-79285209D01*
X131592452Y-79193069D01*
X131300246Y-79130101D01*
X130948506Y-79090679D01*
X130784974Y-79080113D01*
X130464271Y-79070857D01*
X130188783Y-79084755D01*
X129939918Y-79127530D01*
X129699087Y-79204903D01*
X129447697Y-79322596D01*
X129167158Y-79486332D01*
X128900707Y-79660052D01*
X128688884Y-79794005D01*
X128525316Y-79874232D01*
X128395558Y-79903903D01*
X128285165Y-79886189D01*
X128179690Y-79824259D01*
X128173697Y-79819596D01*
X128081080Y-79731402D01*
X128009690Y-79621362D01*
X127951455Y-79471337D01*
X127898302Y-79263188D01*
X127873945Y-79146000D01*
X127816726Y-78872291D01*
X127768426Y-78675205D01*
X127726787Y-78547442D01*
X127689550Y-78481699D01*
X127664437Y-78468667D01*
X127594266Y-78479628D01*
X127487006Y-78506240D01*
X127479055Y-78508499D01*
X127327212Y-78525147D01*
X127144097Y-78489320D01*
X127141558Y-78488558D01*
X127019025Y-78460508D01*
X126930202Y-78456263D01*
X126906878Y-78464856D01*
G36*
X119416878Y-78234856D02*
G01*
X119413127Y-78290529D01*
X119444734Y-78390799D01*
X119471441Y-78448585D01*
X119519373Y-78552033D01*
X119589227Y-78715049D01*
X119672852Y-78918054D01*
X119762095Y-79141470D01*
X119794561Y-79224500D01*
X119924055Y-79549732D01*
X120033403Y-79804367D01*
X120128133Y-79998490D01*
X120213775Y-80142183D01*
X120295856Y-80245532D01*
X120379907Y-80318618D01*
X120402893Y-80333989D01*
X120535611Y-80447823D01*
X120677353Y-80617882D01*
X120811111Y-80819825D01*
X120919872Y-81029313D01*
X120960428Y-81131772D01*
X121024795Y-81396658D01*
X121026107Y-81656427D01*
X120964334Y-81941110D01*
X120959627Y-81956412D01*
X120917550Y-82100935D01*
X120902221Y-82200576D01*
X120913124Y-82290609D01*
X120949741Y-82406309D01*
X120952897Y-82415267D01*
X121067018Y-82691046D01*
X121202084Y-82914418D01*
X121370622Y-83096052D01*
X121585162Y-83246617D01*
X121858231Y-83376785D01*
X122202357Y-83497223D01*
X122235168Y-83507318D01*
X122417473Y-83566094D01*
X122536662Y-83615193D01*
X122611803Y-83665287D01*
X122661963Y-83727048D01*
X122678137Y-83755231D01*
X122728082Y-83912518D01*
X122746919Y-84124748D01*
X122734858Y-84368201D01*
X122692105Y-84619156D01*
X122669827Y-84704728D01*
X122628637Y-84876228D01*
X122630248Y-84992425D01*
X122684564Y-85076028D01*
X122801487Y-85149746D01*
X122880167Y-85187113D01*
X123084118Y-85247431D01*
X123302927Y-85259949D01*
X123500907Y-85223969D01*
X123557500Y-85200381D01*
X123679455Y-85131095D01*
X123778511Y-85063761D01*
X123872522Y-84990834D01*
X123786057Y-84563630D01*
X123746972Y-84359896D01*
X123726416Y-84213740D01*
X123723234Y-84100391D01*
X123736273Y-83995081D01*
X123755546Y-83908338D01*
X123811500Y-83680250D01*
X124150538Y-83594132D01*
X124530316Y-83462281D01*
X124856559Y-83276223D01*
X125123642Y-83041838D01*
X125325942Y-82765005D01*
X125457837Y-82451602D01*
X125509320Y-82173609D01*
X125514879Y-82096081D01*
X125381929Y-82096081D01*
X125341987Y-82397440D01*
X125224721Y-82677715D01*
X125029020Y-82943596D01*
X124967581Y-83008732D01*
X124685563Y-83235575D01*
X124349879Y-83400871D01*
X123998576Y-83495242D01*
X123853240Y-83524560D01*
X123766799Y-83558203D01*
X123714200Y-83611480D01*
X123672690Y-83694377D01*
X123616708Y-83909928D01*
X123606445Y-84183699D01*
X123641290Y-84503043D01*
X123720630Y-84855314D01*
X123730605Y-84890540D01*
X123708717Y-84952369D01*
X123625307Y-85018860D01*
X123502107Y-85079277D01*
X123360851Y-85122884D01*
X123227730Y-85138967D01*
X123085553Y-85118688D01*
X122931644Y-85068257D01*
X122895489Y-85051352D01*
X122789113Y-84989044D01*
X122746355Y-84935255D01*
X122750687Y-84871435D01*
X122834629Y-84544587D01*
X122875995Y-84272716D01*
X122875403Y-84037980D01*
X122833470Y-83822539D01*
X122791210Y-83701289D01*
X122761685Y-83633235D01*
X122726793Y-83581638D01*
X122672206Y-83538295D01*
X122583596Y-83494999D01*
X122446635Y-83443547D01*
X122246996Y-83375733D01*
X122188811Y-83356327D01*
X121966817Y-83280855D01*
X121806526Y-83220334D01*
X121688831Y-83164451D01*
X121594625Y-83102896D01*
X121504798Y-83025359D01*
X121419703Y-82941299D01*
X121235066Y-82723999D01*
X121119654Y-82512854D01*
X121107038Y-82479102D01*
X121067729Y-82359766D01*
X121050031Y-82267038D01*
X121053675Y-82170542D01*
X121078391Y-82039907D01*
X121102242Y-81936669D01*
X121147391Y-81681411D01*
X121156581Y-81463426D01*
X121152593Y-81415368D01*
X121128361Y-81210770D01*
X121305764Y-81308848D01*
X121664396Y-81459665D01*
X122044528Y-81529643D01*
X122296424Y-81530853D01*
X122469468Y-81513743D01*
X122615351Y-81481087D01*
X122766969Y-81422846D01*
X122955951Y-81329648D01*
X123256724Y-81172803D01*
X123492999Y-81050403D01*
X123675581Y-80958184D01*
X123815275Y-80891885D01*
X123922883Y-80847243D01*
X124009212Y-80819997D01*
X124085064Y-80805883D01*
X124161243Y-80800640D01*
X124248555Y-80800007D01*
X124298333Y-80800087D01*
X124492664Y-80806657D01*
X124642305Y-80832227D01*
X124786545Y-80885041D01*
X124853292Y-80916506D01*
X124965257Y-80973900D01*
X125042088Y-81026891D01*
X125099228Y-81095211D01*
X125152118Y-81198588D01*
X125216198Y-81356753D01*
X125234292Y-81403339D01*
X125345660Y-81766945D01*
X125381929Y-82096081D01*
X125514879Y-82096081D01*
X125516840Y-82068736D01*
X125516908Y-81974800D01*
X125506177Y-81877889D01*
X125481297Y-81764088D01*
X125438919Y-81619484D01*
X125375695Y-81430163D01*
X125288276Y-81182211D01*
X125234722Y-81032667D01*
X125170033Y-80822403D01*
X124970914Y-80822403D01*
X124920584Y-80807098D01*
X124849912Y-80774941D01*
X124575713Y-80681006D01*
X124283443Y-80659661D01*
X123968220Y-80711716D01*
X123625159Y-80837981D01*
X123249377Y-81039268D01*
X123246303Y-81041137D01*
X122959812Y-81203172D01*
X122712394Y-81312767D01*
X122482518Y-81376609D01*
X122248652Y-81401381D01*
X122090501Y-81399976D01*
X121915261Y-81386939D01*
X121768750Y-81359401D01*
X121618412Y-81308429D01*
X121431691Y-81225088D01*
X121402584Y-81211188D01*
X121223040Y-81122347D01*
X121104364Y-81058430D01*
X121049214Y-81022359D01*
X121060249Y-81017055D01*
X121140125Y-81045439D01*
X121291502Y-81110432D01*
X121324417Y-81125277D01*
X121541747Y-81209535D01*
X121756152Y-81256878D01*
X121948833Y-81275483D01*
X122232375Y-81272277D01*
X122500193Y-81222205D01*
X122772840Y-81118936D01*
X123070862Y-80956140D01*
X123153176Y-80904477D01*
X123384394Y-80761273D01*
X123568749Y-80662072D01*
X123726583Y-80599383D01*
X123878242Y-80565718D01*
X124044070Y-80553588D01*
X124107833Y-80553040D01*
X124357197Y-80575002D01*
X124606651Y-80633719D01*
X124826035Y-80720359D01*
X124957032Y-80801761D01*
X124970914Y-80822403D01*
X125170033Y-80822403D01*
X125147281Y-80748454D01*
X125110483Y-80514194D01*
X125123506Y-80312608D01*
X125184822Y-80128538D01*
X125020658Y-80128538D01*
X125013881Y-80167051D01*
X124993608Y-80258850D01*
X124980617Y-80392692D01*
X124978642Y-80449079D01*
X124975667Y-80648658D01*
X124791939Y-80569903D01*
X124430627Y-80454989D01*
X124075398Y-80419929D01*
X123734014Y-80464030D01*
X123414240Y-80586601D01*
X123218880Y-80710086D01*
X122852704Y-80943056D01*
X122491915Y-81091694D01*
X122135943Y-81156127D01*
X121784221Y-81136481D01*
X121554004Y-81077472D01*
X121279512Y-80969508D01*
X121068201Y-80846854D01*
X120898588Y-80694798D01*
X120784151Y-80550235D01*
X120613888Y-80307177D01*
X120870804Y-80039626D01*
X121053123Y-79869386D01*
X121092447Y-79837638D01*
X120866693Y-79837638D01*
X120853477Y-79871758D01*
X120793880Y-79942090D01*
X120706616Y-80030707D01*
X120610398Y-80119679D01*
X120523940Y-80191080D01*
X120465954Y-80226980D01*
X120458884Y-80228334D01*
X120406104Y-80195237D01*
X120333617Y-80111238D01*
X120296485Y-80056864D01*
X120246229Y-79962303D01*
X120173053Y-79804872D01*
X120084079Y-79600858D01*
X119986427Y-79366550D01*
X119896644Y-79142312D01*
X119605048Y-78399229D01*
X119736909Y-78418582D01*
X119878343Y-78422863D01*
X120004601Y-78407301D01*
X120140432Y-78376666D01*
X120192223Y-78635750D01*
X120260127Y-78957128D01*
X120322775Y-79206051D01*
X120385340Y-79394085D01*
X120452998Y-79532796D01*
X120530923Y-79633752D01*
X120624289Y-79708518D01*
X120688417Y-79744879D01*
X120791305Y-79797674D01*
X120857414Y-79832420D01*
X120866693Y-79837638D01*
X121092447Y-79837638D01*
X121282986Y-79683811D01*
X121538362Y-79498231D01*
X121797219Y-79327977D01*
X122037526Y-79188379D01*
X122217551Y-79102502D01*
X122457308Y-79026316D01*
X122726964Y-78982690D01*
X123042065Y-78970327D01*
X123418160Y-78987933D01*
X123505104Y-78995206D01*
X123803638Y-79029410D01*
X124041470Y-79077558D01*
X124242367Y-79147835D01*
X124430099Y-79248423D01*
X124615104Y-79377401D01*
X124750533Y-79492958D01*
X124844659Y-79614356D01*
X124923904Y-79777164D01*
X124938022Y-79812088D01*
X125001356Y-79999408D01*
X125020658Y-80128538D01*
X125184822Y-80128538D01*
X125185528Y-80126421D01*
X125191030Y-80114864D01*
X125249497Y-80007535D01*
X125317773Y-79920103D01*
X125412520Y-79838041D01*
X125550404Y-79746821D01*
X125739277Y-79636892D01*
X125915072Y-79520650D01*
X126126641Y-79354282D01*
X126356460Y-79153445D01*
X126587006Y-78933799D01*
X126800753Y-78711001D01*
X126895449Y-78603785D01*
X126933123Y-78559686D01*
X126774833Y-78559686D01*
X126369879Y-78960093D01*
X126155441Y-79161024D01*
X125947818Y-79335233D01*
X125766234Y-79467036D01*
X125697536Y-79508667D01*
X125535695Y-79605825D01*
X125380178Y-79711484D01*
X125276990Y-79792451D01*
X125123833Y-79928068D01*
X125072826Y-79813618D01*
X125034797Y-79708718D01*
X125020350Y-79635667D01*
X125056533Y-79584257D01*
X125156140Y-79515235D01*
X125282787Y-79449324D01*
X125486257Y-79332096D01*
X125688910Y-79176422D01*
X125872700Y-79000012D01*
X126019582Y-78820577D01*
X126111509Y-78655827D01*
X126121796Y-78625915D01*
X126159123Y-78515887D01*
X126197734Y-78469245D01*
X126260496Y-78467504D01*
X126305816Y-78477167D01*
X126438016Y-78504465D01*
X126588567Y-78530963D01*
X126605500Y-78533618D01*
X126774833Y-78559686D01*
X126933123Y-78559686D01*
X127098303Y-78366341D01*
X126851902Y-78390951D01*
X126670251Y-78396165D01*
X126489482Y-78381092D01*
X126415000Y-78366528D01*
X126236174Y-78320521D01*
X126124144Y-78295130D01*
X126063329Y-78291413D01*
X126038147Y-78310428D01*
X126033017Y-78353236D01*
X126033070Y-78392482D01*
X125991616Y-78597597D01*
X125876688Y-78807982D01*
X125697872Y-79012486D01*
X125464753Y-79199955D01*
X125213040Y-79346576D01*
X124940190Y-79481124D01*
X124790277Y-79349499D01*
X124575626Y-79182144D01*
X124351965Y-79055209D01*
X124102452Y-78963069D01*
X123810246Y-78900101D01*
X123458506Y-78860679D01*
X123294974Y-78850113D01*
X122974271Y-78840857D01*
X122698783Y-78854755D01*
X122449918Y-78897530D01*
X122209087Y-78974903D01*
X121957697Y-79092596D01*
X121677158Y-79256332D01*
X121410707Y-79430052D01*
X121198884Y-79564005D01*
X121035316Y-79644232D01*
X120905558Y-79673903D01*
X120795165Y-79656189D01*
X120689690Y-79594259D01*
X120683697Y-79589596D01*
X120591080Y-79501402D01*
X120519690Y-79391362D01*
X120461455Y-79241337D01*
X120408302Y-79033188D01*
X120383945Y-78916000D01*
X120326726Y-78642291D01*
X120278426Y-78445205D01*
X120236787Y-78317442D01*
X120199550Y-78251699D01*
X120174437Y-78238667D01*
X120104266Y-78249628D01*
X119997006Y-78276240D01*
X119989055Y-78278499D01*
X119837212Y-78295147D01*
X119654097Y-78259320D01*
X119651558Y-78258558D01*
X119529025Y-78230508D01*
X119440202Y-78226263D01*
X119416878Y-78234856D01*
G37*
X119416878Y-78234856D02*
X119413127Y-78290529D01*
X119444734Y-78390799D01*
X119471441Y-78448585D01*
X119519373Y-78552033D01*
X119589227Y-78715049D01*
X119672852Y-78918054D01*
X119762095Y-79141470D01*
X119794561Y-79224500D01*
X119924055Y-79549732D01*
X120033403Y-79804367D01*
X120128133Y-79998490D01*
X120213775Y-80142183D01*
X120295856Y-80245532D01*
X120379907Y-80318618D01*
X120402893Y-80333989D01*
X120535611Y-80447823D01*
X120677353Y-80617882D01*
X120811111Y-80819825D01*
X120919872Y-81029313D01*
X120960428Y-81131772D01*
X121024795Y-81396658D01*
X121026107Y-81656427D01*
X120964334Y-81941110D01*
X120959627Y-81956412D01*
X120917550Y-82100935D01*
X120902221Y-82200576D01*
X120913124Y-82290609D01*
X120949741Y-82406309D01*
X120952897Y-82415267D01*
X121067018Y-82691046D01*
X121202084Y-82914418D01*
X121370622Y-83096052D01*
X121585162Y-83246617D01*
X121858231Y-83376785D01*
X122202357Y-83497223D01*
X122235168Y-83507318D01*
X122417473Y-83566094D01*
X122536662Y-83615193D01*
X122611803Y-83665287D01*
X122661963Y-83727048D01*
X122678137Y-83755231D01*
X122728082Y-83912518D01*
X122746919Y-84124748D01*
X122734858Y-84368201D01*
X122692105Y-84619156D01*
X122669827Y-84704728D01*
X122628637Y-84876228D01*
X122630248Y-84992425D01*
X122684564Y-85076028D01*
X122801487Y-85149746D01*
X122880167Y-85187113D01*
X123084118Y-85247431D01*
X123302927Y-85259949D01*
X123500907Y-85223969D01*
X123557500Y-85200381D01*
X123679455Y-85131095D01*
X123778511Y-85063761D01*
X123872522Y-84990834D01*
X123786057Y-84563630D01*
X123746972Y-84359896D01*
X123726416Y-84213740D01*
X123723234Y-84100391D01*
X123736273Y-83995081D01*
X123755546Y-83908338D01*
X123811500Y-83680250D01*
X124150538Y-83594132D01*
X124530316Y-83462281D01*
X124856559Y-83276223D01*
X125123642Y-83041838D01*
X125325942Y-82765005D01*
X125457837Y-82451602D01*
X125509320Y-82173609D01*
X125514879Y-82096081D01*
X125381929Y-82096081D01*
X125341987Y-82397440D01*
X125224721Y-82677715D01*
X125029020Y-82943596D01*
X124967581Y-83008732D01*
X124685563Y-83235575D01*
X124349879Y-83400871D01*
X123998576Y-83495242D01*
X123853240Y-83524560D01*
X123766799Y-83558203D01*
X123714200Y-83611480D01*
X123672690Y-83694377D01*
X123616708Y-83909928D01*
X123606445Y-84183699D01*
X123641290Y-84503043D01*
X123720630Y-84855314D01*
X123730605Y-84890540D01*
X123708717Y-84952369D01*
X123625307Y-85018860D01*
X123502107Y-85079277D01*
X123360851Y-85122884D01*
X123227730Y-85138967D01*
X123085553Y-85118688D01*
X122931644Y-85068257D01*
X122895489Y-85051352D01*
X122789113Y-84989044D01*
X122746355Y-84935255D01*
X122750687Y-84871435D01*
X122834629Y-84544587D01*
X122875995Y-84272716D01*
X122875403Y-84037980D01*
X122833470Y-83822539D01*
X122791210Y-83701289D01*
X122761685Y-83633235D01*
X122726793Y-83581638D01*
X122672206Y-83538295D01*
X122583596Y-83494999D01*
X122446635Y-83443547D01*
X122246996Y-83375733D01*
X122188811Y-83356327D01*
X121966817Y-83280855D01*
X121806526Y-83220334D01*
X121688831Y-83164451D01*
X121594625Y-83102896D01*
X121504798Y-83025359D01*
X121419703Y-82941299D01*
X121235066Y-82723999D01*
X121119654Y-82512854D01*
X121107038Y-82479102D01*
X121067729Y-82359766D01*
X121050031Y-82267038D01*
X121053675Y-82170542D01*
X121078391Y-82039907D01*
X121102242Y-81936669D01*
X121147391Y-81681411D01*
X121156581Y-81463426D01*
X121152593Y-81415368D01*
X121128361Y-81210770D01*
X121305764Y-81308848D01*
X121664396Y-81459665D01*
X122044528Y-81529643D01*
X122296424Y-81530853D01*
X122469468Y-81513743D01*
X122615351Y-81481087D01*
X122766969Y-81422846D01*
X122955951Y-81329648D01*
X123256724Y-81172803D01*
X123492999Y-81050403D01*
X123675581Y-80958184D01*
X123815275Y-80891885D01*
X123922883Y-80847243D01*
X124009212Y-80819997D01*
X124085064Y-80805883D01*
X124161243Y-80800640D01*
X124248555Y-80800007D01*
X124298333Y-80800087D01*
X124492664Y-80806657D01*
X124642305Y-80832227D01*
X124786545Y-80885041D01*
X124853292Y-80916506D01*
X124965257Y-80973900D01*
X125042088Y-81026891D01*
X125099228Y-81095211D01*
X125152118Y-81198588D01*
X125216198Y-81356753D01*
X125234292Y-81403339D01*
X125345660Y-81766945D01*
X125381929Y-82096081D01*
X125514879Y-82096081D01*
X125516840Y-82068736D01*
X125516908Y-81974800D01*
X125506177Y-81877889D01*
X125481297Y-81764088D01*
X125438919Y-81619484D01*
X125375695Y-81430163D01*
X125288276Y-81182211D01*
X125234722Y-81032667D01*
X125170033Y-80822403D01*
X124970914Y-80822403D01*
X124920584Y-80807098D01*
X124849912Y-80774941D01*
X124575713Y-80681006D01*
X124283443Y-80659661D01*
X123968220Y-80711716D01*
X123625159Y-80837981D01*
X123249377Y-81039268D01*
X123246303Y-81041137D01*
X122959812Y-81203172D01*
X122712394Y-81312767D01*
X122482518Y-81376609D01*
X122248652Y-81401381D01*
X122090501Y-81399976D01*
X121915261Y-81386939D01*
X121768750Y-81359401D01*
X121618412Y-81308429D01*
X121431691Y-81225088D01*
X121402584Y-81211188D01*
X121223040Y-81122347D01*
X121104364Y-81058430D01*
X121049214Y-81022359D01*
X121060249Y-81017055D01*
X121140125Y-81045439D01*
X121291502Y-81110432D01*
X121324417Y-81125277D01*
X121541747Y-81209535D01*
X121756152Y-81256878D01*
X121948833Y-81275483D01*
X122232375Y-81272277D01*
X122500193Y-81222205D01*
X122772840Y-81118936D01*
X123070862Y-80956140D01*
X123153176Y-80904477D01*
X123384394Y-80761273D01*
X123568749Y-80662072D01*
X123726583Y-80599383D01*
X123878242Y-80565718D01*
X124044070Y-80553588D01*
X124107833Y-80553040D01*
X124357197Y-80575002D01*
X124606651Y-80633719D01*
X124826035Y-80720359D01*
X124957032Y-80801761D01*
X124970914Y-80822403D01*
X125170033Y-80822403D01*
X125147281Y-80748454D01*
X125110483Y-80514194D01*
X125123506Y-80312608D01*
X125184822Y-80128538D01*
X125020658Y-80128538D01*
X125013881Y-80167051D01*
X124993608Y-80258850D01*
X124980617Y-80392692D01*
X124978642Y-80449079D01*
X124975667Y-80648658D01*
X124791939Y-80569903D01*
X124430627Y-80454989D01*
X124075398Y-80419929D01*
X123734014Y-80464030D01*
X123414240Y-80586601D01*
X123218880Y-80710086D01*
X122852704Y-80943056D01*
X122491915Y-81091694D01*
X122135943Y-81156127D01*
X121784221Y-81136481D01*
X121554004Y-81077472D01*
X121279512Y-80969508D01*
X121068201Y-80846854D01*
X120898588Y-80694798D01*
X120784151Y-80550235D01*
X120613888Y-80307177D01*
X120870804Y-80039626D01*
X121053123Y-79869386D01*
X121092447Y-79837638D01*
X120866693Y-79837638D01*
X120853477Y-79871758D01*
X120793880Y-79942090D01*
X120706616Y-80030707D01*
X120610398Y-80119679D01*
X120523940Y-80191080D01*
X120465954Y-80226980D01*
X120458884Y-80228334D01*
X120406104Y-80195237D01*
X120333617Y-80111238D01*
X120296485Y-80056864D01*
X120246229Y-79962303D01*
X120173053Y-79804872D01*
X120084079Y-79600858D01*
X119986427Y-79366550D01*
X119896644Y-79142312D01*
X119605048Y-78399229D01*
X119736909Y-78418582D01*
X119878343Y-78422863D01*
X120004601Y-78407301D01*
X120140432Y-78376666D01*
X120192223Y-78635750D01*
X120260127Y-78957128D01*
X120322775Y-79206051D01*
X120385340Y-79394085D01*
X120452998Y-79532796D01*
X120530923Y-79633752D01*
X120624289Y-79708518D01*
X120688417Y-79744879D01*
X120791305Y-79797674D01*
X120857414Y-79832420D01*
X120866693Y-79837638D01*
X121092447Y-79837638D01*
X121282986Y-79683811D01*
X121538362Y-79498231D01*
X121797219Y-79327977D01*
X122037526Y-79188379D01*
X122217551Y-79102502D01*
X122457308Y-79026316D01*
X122726964Y-78982690D01*
X123042065Y-78970327D01*
X123418160Y-78987933D01*
X123505104Y-78995206D01*
X123803638Y-79029410D01*
X124041470Y-79077558D01*
X124242367Y-79147835D01*
X124430099Y-79248423D01*
X124615104Y-79377401D01*
X124750533Y-79492958D01*
X124844659Y-79614356D01*
X124923904Y-79777164D01*
X124938022Y-79812088D01*
X125001356Y-79999408D01*
X125020658Y-80128538D01*
X125184822Y-80128538D01*
X125185528Y-80126421D01*
X125191030Y-80114864D01*
X125249497Y-80007535D01*
X125317773Y-79920103D01*
X125412520Y-79838041D01*
X125550404Y-79746821D01*
X125739277Y-79636892D01*
X125915072Y-79520650D01*
X126126641Y-79354282D01*
X126356460Y-79153445D01*
X126587006Y-78933799D01*
X126800753Y-78711001D01*
X126895449Y-78603785D01*
X126933123Y-78559686D01*
X126774833Y-78559686D01*
X126369879Y-78960093D01*
X126155441Y-79161024D01*
X125947818Y-79335233D01*
X125766234Y-79467036D01*
X125697536Y-79508667D01*
X125535695Y-79605825D01*
X125380178Y-79711484D01*
X125276990Y-79792451D01*
X125123833Y-79928068D01*
X125072826Y-79813618D01*
X125034797Y-79708718D01*
X125020350Y-79635667D01*
X125056533Y-79584257D01*
X125156140Y-79515235D01*
X125282787Y-79449324D01*
X125486257Y-79332096D01*
X125688910Y-79176422D01*
X125872700Y-79000012D01*
X126019582Y-78820577D01*
X126111509Y-78655827D01*
X126121796Y-78625915D01*
X126159123Y-78515887D01*
X126197734Y-78469245D01*
X126260496Y-78467504D01*
X126305816Y-78477167D01*
X126438016Y-78504465D01*
X126588567Y-78530963D01*
X126605500Y-78533618D01*
X126774833Y-78559686D01*
X126933123Y-78559686D01*
X127098303Y-78366341D01*
X126851902Y-78390951D01*
X126670251Y-78396165D01*
X126489482Y-78381092D01*
X126415000Y-78366528D01*
X126236174Y-78320521D01*
X126124144Y-78295130D01*
X126063329Y-78291413D01*
X126038147Y-78310428D01*
X126033017Y-78353236D01*
X126033070Y-78392482D01*
X125991616Y-78597597D01*
X125876688Y-78807982D01*
X125697872Y-79012486D01*
X125464753Y-79199955D01*
X125213040Y-79346576D01*
X124940190Y-79481124D01*
X124790277Y-79349499D01*
X124575626Y-79182144D01*
X124351965Y-79055209D01*
X124102452Y-78963069D01*
X123810246Y-78900101D01*
X123458506Y-78860679D01*
X123294974Y-78850113D01*
X122974271Y-78840857D01*
X122698783Y-78854755D01*
X122449918Y-78897530D01*
X122209087Y-78974903D01*
X121957697Y-79092596D01*
X121677158Y-79256332D01*
X121410707Y-79430052D01*
X121198884Y-79564005D01*
X121035316Y-79644232D01*
X120905558Y-79673903D01*
X120795165Y-79656189D01*
X120689690Y-79594259D01*
X120683697Y-79589596D01*
X120591080Y-79501402D01*
X120519690Y-79391362D01*
X120461455Y-79241337D01*
X120408302Y-79033188D01*
X120383945Y-78916000D01*
X120326726Y-78642291D01*
X120278426Y-78445205D01*
X120236787Y-78317442D01*
X120199550Y-78251699D01*
X120174437Y-78238667D01*
X120104266Y-78249628D01*
X119997006Y-78276240D01*
X119989055Y-78278499D01*
X119837212Y-78295147D01*
X119654097Y-78259320D01*
X119651558Y-78258558D01*
X119529025Y-78230508D01*
X119440202Y-78226263D01*
X119416878Y-78234856D01*
G36*
X124657984Y-74940920D02*
G01*
X124616985Y-74976843D01*
X124626752Y-75050578D01*
X124636399Y-75077490D01*
X124711531Y-75204028D01*
X124808018Y-75251416D01*
X124921072Y-75217310D01*
X124921455Y-75217069D01*
X124954394Y-75158622D01*
X124937327Y-75106500D01*
X124800667Y-75106500D01*
X124779500Y-75127667D01*
X124758334Y-75106500D01*
X124779500Y-75085333D01*
X124800667Y-75106500D01*
X124937327Y-75106500D01*
X124929335Y-75082097D01*
X124864400Y-75006487D01*
X124777710Y-74950786D01*
X124687387Y-74933986D01*
X124657984Y-74940920D01*
G37*
X124657984Y-74940920D02*
X124616985Y-74976843D01*
X124626752Y-75050578D01*
X124636399Y-75077490D01*
X124711531Y-75204028D01*
X124808018Y-75251416D01*
X124921072Y-75217310D01*
X124921455Y-75217069D01*
X124954394Y-75158622D01*
X124937327Y-75106500D01*
X124800667Y-75106500D01*
X124779500Y-75127667D01*
X124758334Y-75106500D01*
X124779500Y-75085333D01*
X124800667Y-75106500D01*
X124937327Y-75106500D01*
X124929335Y-75082097D01*
X124864400Y-75006487D01*
X124777710Y-74950786D01*
X124687387Y-74933986D01*
X124657984Y-74940920D01*
G36*
X131425834Y-76772070D02*
G01*
X131347534Y-76779156D01*
X131208488Y-76785966D01*
X131032612Y-76791455D01*
X130939000Y-76793365D01*
X130709920Y-76805142D01*
X130508820Y-76830395D01*
X130350375Y-76865954D01*
X130249257Y-76908651D01*
X130219334Y-76948784D01*
X130248883Y-76999554D01*
X130338200Y-76991806D01*
X130409834Y-76964127D01*
X130548554Y-76929920D01*
X130753585Y-76924096D01*
X130854334Y-76929397D01*
X131103951Y-76933063D01*
X131304102Y-76908195D01*
X131346509Y-76896796D01*
X131450598Y-76852969D01*
X131508063Y-76808222D01*
X131510515Y-76775743D01*
X131449567Y-76768721D01*
X131425834Y-76772070D01*
G37*
X131425834Y-76772070D02*
X131347534Y-76779156D01*
X131208488Y-76785966D01*
X131032612Y-76791455D01*
X130939000Y-76793365D01*
X130709920Y-76805142D01*
X130508820Y-76830395D01*
X130350375Y-76865954D01*
X130249257Y-76908651D01*
X130219334Y-76948784D01*
X130248883Y-76999554D01*
X130338200Y-76991806D01*
X130409834Y-76964127D01*
X130548554Y-76929920D01*
X130753585Y-76924096D01*
X130854334Y-76929397D01*
X131103951Y-76933063D01*
X131304102Y-76908195D01*
X131346509Y-76896796D01*
X131450598Y-76852969D01*
X131508063Y-76808222D01*
X131510515Y-76775743D01*
X131449567Y-76768721D01*
X131425834Y-76772070D01*
G36*
X132426618Y-76774572D02*
G01*
X132428976Y-76782426D01*
X132490561Y-76842342D01*
X132623997Y-76891028D01*
X132816885Y-76925616D01*
X133056822Y-76943239D01*
X133131110Y-76944746D01*
X133345195Y-76955525D01*
X133527019Y-76981253D01*
X133633697Y-77011500D01*
X133741173Y-77055590D01*
X133795126Y-77070885D01*
X133820425Y-77060580D01*
X133835869Y-77037463D01*
X133826353Y-76981783D01*
X133743669Y-76919178D01*
X133669500Y-76884658D01*
X133594553Y-76868245D01*
X133455827Y-76849773D01*
X133274095Y-76831658D01*
X133098000Y-76818126D01*
X132893688Y-76802464D01*
X132712306Y-76784781D01*
X132575462Y-76767411D01*
X132510250Y-76754620D01*
X132437897Y-76742273D01*
X132426618Y-76774572D01*
G37*
X132426618Y-76774572D02*
X132428976Y-76782426D01*
X132490561Y-76842342D01*
X132623997Y-76891028D01*
X132816885Y-76925616D01*
X133056822Y-76943239D01*
X133131110Y-76944746D01*
X133345195Y-76955525D01*
X133527019Y-76981253D01*
X133633697Y-77011500D01*
X133741173Y-77055590D01*
X133795126Y-77070885D01*
X133820425Y-77060580D01*
X133835869Y-77037463D01*
X133826353Y-76981783D01*
X133743669Y-76919178D01*
X133669500Y-76884658D01*
X133594553Y-76868245D01*
X133455827Y-76849773D01*
X133274095Y-76831658D01*
X133098000Y-76818126D01*
X132893688Y-76802464D01*
X132712306Y-76784781D01*
X132575462Y-76767411D01*
X132510250Y-76754620D01*
X132437897Y-76742273D01*
X132426618Y-76774572D01*
G36*
X126355133Y-76895449D02*
G01*
X126374280Y-76954629D01*
X126457634Y-77059097D01*
X126475003Y-77077221D01*
X126590526Y-77184486D01*
X126705018Y-77258993D01*
X126844744Y-77313211D01*
X127035972Y-77359610D01*
X127094678Y-77371405D01*
X127248173Y-77412220D01*
X127382179Y-77466022D01*
X127440022Y-77500800D01*
X127529310Y-77565118D01*
X127578986Y-77578452D01*
X127612001Y-77546866D01*
X127612337Y-77546324D01*
X127606143Y-77486334D01*
X127532513Y-77417526D01*
X127406992Y-77347886D01*
X127245127Y-77285397D01*
X127062464Y-77238044D01*
X126986927Y-77225111D01*
X126830312Y-77185935D01*
X126693211Y-77106927D01*
X126597222Y-77025740D01*
X126475174Y-76927394D01*
X126391621Y-76885167D01*
X126355133Y-76895449D01*
G37*
X126355133Y-76895449D02*
X126374280Y-76954629D01*
X126457634Y-77059097D01*
X126475003Y-77077221D01*
X126590526Y-77184486D01*
X126705018Y-77258993D01*
X126844744Y-77313211D01*
X127035972Y-77359610D01*
X127094678Y-77371405D01*
X127248173Y-77412220D01*
X127382179Y-77466022D01*
X127440022Y-77500800D01*
X127529310Y-77565118D01*
X127578986Y-77578452D01*
X127612001Y-77546866D01*
X127612337Y-77546324D01*
X127606143Y-77486334D01*
X127532513Y-77417526D01*
X127406992Y-77347886D01*
X127245127Y-77285397D01*
X127062464Y-77238044D01*
X126986927Y-77225111D01*
X126830312Y-77185935D01*
X126693211Y-77106927D01*
X126597222Y-77025740D01*
X126475174Y-76927394D01*
X126391621Y-76885167D01*
X126355133Y-76895449D01*
G36*
X129167315Y-77286482D02*
G01*
X129015956Y-77356581D01*
X128886214Y-77436452D01*
X128749009Y-77523826D01*
X128642080Y-77567903D01*
X128531057Y-77580060D01*
X128460029Y-77577528D01*
X128333249Y-77580686D01*
X128255040Y-77602838D01*
X128236051Y-77635786D01*
X128286931Y-77671334D01*
X128323186Y-77682865D01*
X128460414Y-77703016D01*
X128611645Y-77702326D01*
X128730031Y-77681186D01*
X128734638Y-77679445D01*
X128800828Y-77641423D01*
X128905586Y-77569547D01*
X128981297Y-77513454D01*
X129131355Y-77419128D01*
X129262968Y-77373589D01*
X129291243Y-77371333D01*
X129387371Y-77353734D01*
X129415000Y-77302294D01*
X129382319Y-77255411D01*
X129294597Y-77251449D01*
X129167315Y-77286482D01*
G37*
X129167315Y-77286482D02*
X129015956Y-77356581D01*
X128886214Y-77436452D01*
X128749009Y-77523826D01*
X128642080Y-77567903D01*
X128531057Y-77580060D01*
X128460029Y-77577528D01*
X128333249Y-77580686D01*
X128255040Y-77602838D01*
X128236051Y-77635786D01*
X128286931Y-77671334D01*
X128323186Y-77682865D01*
X128460414Y-77703016D01*
X128611645Y-77702326D01*
X128730031Y-77681186D01*
X128734638Y-77679445D01*
X128800828Y-77641423D01*
X128905586Y-77569547D01*
X128981297Y-77513454D01*
X129131355Y-77419128D01*
X129262968Y-77373589D01*
X129291243Y-77371333D01*
X129387371Y-77353734D01*
X129415000Y-77302294D01*
X129382319Y-77255411D01*
X129294597Y-77251449D01*
X129167315Y-77286482D01*
G36*
X134593325Y-77395081D02*
G01*
X134621380Y-77431167D01*
X134709885Y-77477312D01*
X134801057Y-77510732D01*
X134971838Y-77585953D01*
X135162632Y-77703153D01*
X135280038Y-77791636D01*
X135458448Y-77928727D01*
X135603133Y-78020934D01*
X135706103Y-78064277D01*
X135759368Y-78054776D01*
X135765000Y-78033247D01*
X135730536Y-77975285D01*
X135666818Y-77932855D01*
X135582973Y-77881647D01*
X135464993Y-77794128D01*
X135361940Y-77709226D01*
X135206609Y-77590688D01*
X135040943Y-77490173D01*
X134880816Y-77414167D01*
X134742101Y-77369159D01*
X134640673Y-77361637D01*
X134593325Y-77395081D01*
G37*
X134593325Y-77395081D02*
X134621380Y-77431167D01*
X134709885Y-77477312D01*
X134801057Y-77510732D01*
X134971838Y-77585953D01*
X135162632Y-77703153D01*
X135280038Y-77791636D01*
X135458448Y-77928727D01*
X135603133Y-78020934D01*
X135706103Y-78064277D01*
X135759368Y-78054776D01*
X135765000Y-78033247D01*
X135730536Y-77975285D01*
X135666818Y-77932855D01*
X135582973Y-77881647D01*
X135464993Y-77794128D01*
X135361940Y-77709226D01*
X135206609Y-77590688D01*
X135040943Y-77490173D01*
X134880816Y-77414167D01*
X134742101Y-77369159D01*
X134640673Y-77361637D01*
X134593325Y-77395081D01*
G36*
X136334477Y-78475274D02*
G01*
X136340571Y-78533020D01*
X136383474Y-78568829D01*
X136456320Y-78622944D01*
X136558801Y-78716173D01*
X136632834Y-78790893D01*
X136800439Y-78946680D01*
X136946383Y-79040234D01*
X137063084Y-79067812D01*
X137132627Y-79037595D01*
X137144029Y-78986900D01*
X137091436Y-78947866D01*
X137025770Y-78937667D01*
X136947504Y-78907306D01*
X136841075Y-78827664D01*
X136763685Y-78752688D01*
X136602573Y-78593946D01*
X136472655Y-78493514D01*
X136379949Y-78455281D01*
X136334477Y-78475274D01*
G37*
X136334477Y-78475274D02*
X136340571Y-78533020D01*
X136383474Y-78568829D01*
X136456320Y-78622944D01*
X136558801Y-78716173D01*
X136632834Y-78790893D01*
X136800439Y-78946680D01*
X136946383Y-79040234D01*
X137063084Y-79067812D01*
X137132627Y-79037595D01*
X137144029Y-78986900D01*
X137091436Y-78947866D01*
X137025770Y-78937667D01*
X136947504Y-78907306D01*
X136841075Y-78827664D01*
X136763685Y-78752688D01*
X136602573Y-78593946D01*
X136472655Y-78493514D01*
X136379949Y-78455281D01*
X136334477Y-78475274D01*
G36*
X123918460Y-74507924D02*
G01*
X123892190Y-74511367D01*
X123768579Y-74547736D01*
X123634555Y-74613558D01*
X123513594Y-74693651D01*
X123429171Y-74772833D01*
X123403667Y-74827283D01*
X123438415Y-74860914D01*
X123527361Y-74914821D01*
X123599046Y-74951718D01*
X123751791Y-75031359D01*
X123906989Y-75121225D01*
X124048495Y-75210729D01*
X124160163Y-75289280D01*
X124225847Y-75346292D01*
X124234992Y-75368786D01*
X124188836Y-75362209D01*
X124084728Y-75324498D01*
X123940381Y-75262511D01*
X123842203Y-75216700D01*
X123650510Y-75129798D01*
X123521977Y-75085421D01*
X123456137Y-75086429D01*
X123452520Y-75135684D01*
X123510655Y-75236046D01*
X123630074Y-75390378D01*
X123784007Y-75571408D01*
X123985349Y-75798457D01*
X124150857Y-75971262D01*
X124297172Y-76102017D01*
X124440939Y-76202919D01*
X124598800Y-76286165D01*
X124787399Y-76363951D01*
X124942186Y-76420121D01*
X125144938Y-76512412D01*
X125390487Y-76658581D01*
X125665167Y-76849416D01*
X125955313Y-77075702D01*
X126116773Y-77212138D01*
X126394260Y-77437884D01*
X126678660Y-77641486D01*
X126952048Y-77811404D01*
X127196504Y-77936099D01*
X127310397Y-77980644D01*
X127476421Y-78017073D01*
X127701075Y-78039830D01*
X127959358Y-78048453D01*
X128226271Y-78042478D01*
X128476813Y-78021441D01*
X128592309Y-78004400D01*
X128718024Y-77972764D01*
X128901591Y-77914239D01*
X129123226Y-77835713D01*
X129363145Y-77744072D01*
X129506524Y-77686121D01*
X129858534Y-77544086D01*
X130153651Y-77434657D01*
X130411034Y-77353229D01*
X130649842Y-77295198D01*
X130889232Y-77255958D01*
X131148365Y-77230904D01*
X131446397Y-77215432D01*
X131468167Y-77214626D01*
X132068689Y-77209668D01*
X132611500Y-77239889D01*
X133090097Y-77304658D01*
X133497977Y-77403346D01*
X133534875Y-77415138D01*
X133866543Y-77538669D01*
X134239224Y-77702508D01*
X134632367Y-77895635D01*
X135025421Y-78107030D01*
X135397833Y-78325671D01*
X135729052Y-78540540D01*
X135982311Y-78727490D01*
X136095960Y-78812203D01*
X136267738Y-78931694D01*
X136483546Y-79076570D01*
X136729282Y-79237438D01*
X136990845Y-79404904D01*
X137140834Y-79499226D01*
X137584823Y-79777816D01*
X137960826Y-80016789D01*
X138273805Y-80219500D01*
X138528722Y-80389306D01*
X138730541Y-80529564D01*
X138884224Y-80643629D01*
X138994734Y-80734859D01*
X139056417Y-80794764D01*
X139194000Y-80943878D01*
X139194000Y-80816423D01*
X139162681Y-80706302D01*
X139074211Y-80551197D01*
X138936823Y-80359914D01*
X138821255Y-80218007D01*
X138588536Y-80218007D01*
X138559000Y-80203797D01*
X138496494Y-80164446D01*
X138372359Y-80086663D01*
X138196804Y-79976830D01*
X137980034Y-79841330D01*
X137732258Y-79686544D01*
X137463680Y-79518856D01*
X137416000Y-79489096D01*
X137138797Y-79314731D01*
X136875690Y-79146701D01*
X136638050Y-78992462D01*
X136437248Y-78859472D01*
X136284654Y-78755186D01*
X136191637Y-78687060D01*
X136185956Y-78682446D01*
X135944508Y-78500140D01*
X135642367Y-78298598D01*
X135298166Y-78088176D01*
X134930539Y-77879231D01*
X134558121Y-77682119D01*
X134199543Y-77507195D01*
X133873442Y-77364816D01*
X133690667Y-77295653D01*
X133461685Y-77221737D01*
X133240220Y-77164637D01*
X133010178Y-77122347D01*
X132755467Y-77092864D01*
X132459993Y-77074182D01*
X132107662Y-77064297D01*
X131810839Y-77061507D01*
X131486033Y-77061643D01*
X131211475Y-77067090D01*
X130972486Y-77081079D01*
X130754390Y-77106846D01*
X130542507Y-77147623D01*
X130322162Y-77206644D01*
X130078675Y-77287144D01*
X129797370Y-77392354D01*
X129463568Y-77525510D01*
X129182167Y-77640632D01*
X128928912Y-77738820D01*
X128715824Y-77805387D01*
X128508864Y-77849480D01*
X128301442Y-77877322D01*
X127946723Y-77897824D01*
X127625755Y-77880596D01*
X127354693Y-77827259D01*
X127197769Y-77766533D01*
X126853134Y-77571926D01*
X126534568Y-77354652D01*
X126315621Y-77175058D01*
X126104035Y-76991830D01*
X125877040Y-76810676D01*
X125647096Y-76640046D01*
X125426663Y-76488387D01*
X125228201Y-76364148D01*
X125064170Y-76275776D01*
X124947030Y-76231720D01*
X124919295Y-76228333D01*
X124774568Y-76195718D01*
X124595578Y-76104418D01*
X124397818Y-75964253D01*
X124196780Y-75785043D01*
X124157863Y-75745711D01*
X124037377Y-75618703D01*
X123944831Y-75516069D01*
X123892272Y-75451468D01*
X123885068Y-75436488D01*
X123928662Y-75442478D01*
X124020418Y-75474165D01*
X124051974Y-75486944D01*
X124183661Y-75523181D01*
X124351983Y-75545489D01*
X124450057Y-75549091D01*
X124694834Y-75547183D01*
X124455986Y-75326841D01*
X124289007Y-75189176D01*
X124093871Y-75051772D01*
X123937760Y-74958333D01*
X123803389Y-74883794D01*
X123704281Y-74822575D01*
X123659026Y-74786290D01*
X123658024Y-74783552D01*
X123692568Y-74751007D01*
X123777152Y-74707518D01*
X123786609Y-74703529D01*
X123943492Y-74670986D01*
X124151875Y-74672474D01*
X124387789Y-74703641D01*
X124627267Y-74760135D01*
X124846340Y-74837605D01*
X125013029Y-74926191D01*
X125075554Y-74974552D01*
X125124732Y-75033517D01*
X125168373Y-75119628D01*
X125214287Y-75249428D01*
X125270282Y-75439460D01*
X125292007Y-75517139D01*
X125356362Y-75739202D01*
X125410005Y-75896412D01*
X125460832Y-76006512D01*
X125516736Y-76087246D01*
X125570220Y-76142425D01*
X125776926Y-76310638D01*
X126043796Y-76493694D01*
X126351698Y-76681340D01*
X126681499Y-76863323D01*
X127014068Y-77029390D01*
X127330272Y-77169288D01*
X127610979Y-77272763D01*
X127754853Y-77313205D01*
X128041544Y-77353742D01*
X128367219Y-77355949D01*
X128696051Y-77321140D01*
X128928167Y-77270136D01*
X129046671Y-77230919D01*
X129220872Y-77165999D01*
X129428982Y-77083804D01*
X129649216Y-76992762D01*
X129690187Y-76975350D01*
X130075445Y-76817345D01*
X130405544Y-76698062D01*
X130698235Y-76613178D01*
X130971268Y-76558372D01*
X131242395Y-76529324D01*
X131529365Y-76521711D01*
X131552834Y-76521892D01*
X132224588Y-76546326D01*
X132833821Y-76607491D01*
X133395518Y-76708048D01*
X133924667Y-76850655D01*
X134417714Y-77030317D01*
X135103069Y-77351713D01*
X135733331Y-77731516D01*
X136321531Y-78177863D01*
X136488769Y-78323300D01*
X136622797Y-78436909D01*
X136800669Y-78578827D01*
X136996765Y-78728954D01*
X137144935Y-78838130D01*
X137354717Y-78996323D01*
X137581664Y-79178349D01*
X137792669Y-79357198D01*
X137903680Y-79457168D01*
X138058357Y-79605520D01*
X138207739Y-79756206D01*
X138343635Y-79899893D01*
X138457854Y-80027249D01*
X138542205Y-80128942D01*
X138588496Y-80195639D01*
X138588536Y-80218007D01*
X138821255Y-80218007D01*
X138758751Y-80141259D01*
X138548228Y-79904040D01*
X138313487Y-79657063D01*
X138062762Y-79409133D01*
X137804284Y-79169058D01*
X137546288Y-78945644D01*
X137297006Y-78747697D01*
X137180296Y-78662500D01*
X136978267Y-78514339D01*
X136767023Y-78350263D01*
X136576127Y-78193652D01*
X136471376Y-78101844D01*
X136056790Y-77763550D01*
X135578472Y-77442789D01*
X135057060Y-77150009D01*
X134513193Y-76895658D01*
X133967508Y-76690184D01*
X133440643Y-76544036D01*
X133360988Y-76527162D01*
X132992131Y-76464872D01*
X132569721Y-76414062D01*
X132124428Y-76377553D01*
X131686919Y-76358164D01*
X131496387Y-76355770D01*
X131199863Y-76367850D01*
X130901224Y-76407116D01*
X130587102Y-76477207D01*
X130244131Y-76581764D01*
X129858943Y-76724427D01*
X129418171Y-76908834D01*
X129341236Y-76942616D01*
X128910224Y-77098495D01*
X128486317Y-77184787D01*
X128081391Y-77199883D01*
X127764000Y-77156227D01*
X127570354Y-77096382D01*
X127325091Y-76997300D01*
X127046005Y-76868229D01*
X126750888Y-76718416D01*
X126457535Y-76557108D01*
X126183738Y-76393552D01*
X125947291Y-76236997D01*
X125835340Y-76153881D01*
X125729356Y-76068722D01*
X125652080Y-75995484D01*
X125594011Y-75916725D01*
X125545649Y-75814999D01*
X125497491Y-75672861D01*
X125440038Y-75472869D01*
X125414814Y-75381773D01*
X125357775Y-75197689D01*
X125296590Y-75036284D01*
X125240691Y-74921072D01*
X125216166Y-74886493D01*
X125075944Y-74780215D01*
X124874315Y-74682432D01*
X124634514Y-74599727D01*
X124379780Y-74538685D01*
X124133350Y-74505889D01*
X123918460Y-74507924D01*
G37*
X123918460Y-74507924D02*
X123892190Y-74511367D01*
X123768579Y-74547736D01*
X123634555Y-74613558D01*
X123513594Y-74693651D01*
X123429171Y-74772833D01*
X123403667Y-74827283D01*
X123438415Y-74860914D01*
X123527361Y-74914821D01*
X123599046Y-74951718D01*
X123751791Y-75031359D01*
X123906989Y-75121225D01*
X124048495Y-75210729D01*
X124160163Y-75289280D01*
X124225847Y-75346292D01*
X124234992Y-75368786D01*
X124188836Y-75362209D01*
X124084728Y-75324498D01*
X123940381Y-75262511D01*
X123842203Y-75216700D01*
X123650510Y-75129798D01*
X123521977Y-75085421D01*
X123456137Y-75086429D01*
X123452520Y-75135684D01*
X123510655Y-75236046D01*
X123630074Y-75390378D01*
X123784007Y-75571408D01*
X123985349Y-75798457D01*
X124150857Y-75971262D01*
X124297172Y-76102017D01*
X124440939Y-76202919D01*
X124598800Y-76286165D01*
X124787399Y-76363951D01*
X124942186Y-76420121D01*
X125144938Y-76512412D01*
X125390487Y-76658581D01*
X125665167Y-76849416D01*
X125955313Y-77075702D01*
X126116773Y-77212138D01*
X126394260Y-77437884D01*
X126678660Y-77641486D01*
X126952048Y-77811404D01*
X127196504Y-77936099D01*
X127310397Y-77980644D01*
X127476421Y-78017073D01*
X127701075Y-78039830D01*
X127959358Y-78048453D01*
X128226271Y-78042478D01*
X128476813Y-78021441D01*
X128592309Y-78004400D01*
X128718024Y-77972764D01*
X128901591Y-77914239D01*
X129123226Y-77835713D01*
X129363145Y-77744072D01*
X129506524Y-77686121D01*
X129858534Y-77544086D01*
X130153651Y-77434657D01*
X130411034Y-77353229D01*
X130649842Y-77295198D01*
X130889232Y-77255958D01*
X131148365Y-77230904D01*
X131446397Y-77215432D01*
X131468167Y-77214626D01*
X132068689Y-77209668D01*
X132611500Y-77239889D01*
X133090097Y-77304658D01*
X133497977Y-77403346D01*
X133534875Y-77415138D01*
X133866543Y-77538669D01*
X134239224Y-77702508D01*
X134632367Y-77895635D01*
X135025421Y-78107030D01*
X135397833Y-78325671D01*
X135729052Y-78540540D01*
X135982311Y-78727490D01*
X136095960Y-78812203D01*
X136267738Y-78931694D01*
X136483546Y-79076570D01*
X136729282Y-79237438D01*
X136990845Y-79404904D01*
X137140834Y-79499226D01*
X137584823Y-79777816D01*
X137960826Y-80016789D01*
X138273805Y-80219500D01*
X138528722Y-80389306D01*
X138730541Y-80529564D01*
X138884224Y-80643629D01*
X138994734Y-80734859D01*
X139056417Y-80794764D01*
X139194000Y-80943878D01*
X139194000Y-80816423D01*
X139162681Y-80706302D01*
X139074211Y-80551197D01*
X138936823Y-80359914D01*
X138821255Y-80218007D01*
X138588536Y-80218007D01*
X138559000Y-80203797D01*
X138496494Y-80164446D01*
X138372359Y-80086663D01*
X138196804Y-79976830D01*
X137980034Y-79841330D01*
X137732258Y-79686544D01*
X137463680Y-79518856D01*
X137416000Y-79489096D01*
X137138797Y-79314731D01*
X136875690Y-79146701D01*
X136638050Y-78992462D01*
X136437248Y-78859472D01*
X136284654Y-78755186D01*
X136191637Y-78687060D01*
X136185956Y-78682446D01*
X135944508Y-78500140D01*
X135642367Y-78298598D01*
X135298166Y-78088176D01*
X134930539Y-77879231D01*
X134558121Y-77682119D01*
X134199543Y-77507195D01*
X133873442Y-77364816D01*
X133690667Y-77295653D01*
X133461685Y-77221737D01*
X133240220Y-77164637D01*
X133010178Y-77122347D01*
X132755467Y-77092864D01*
X132459993Y-77074182D01*
X132107662Y-77064297D01*
X131810839Y-77061507D01*
X131486033Y-77061643D01*
X131211475Y-77067090D01*
X130972486Y-77081079D01*
X130754390Y-77106846D01*
X130542507Y-77147623D01*
X130322162Y-77206644D01*
X130078675Y-77287144D01*
X129797370Y-77392354D01*
X129463568Y-77525510D01*
X129182167Y-77640632D01*
X128928912Y-77738820D01*
X128715824Y-77805387D01*
X128508864Y-77849480D01*
X128301442Y-77877322D01*
X127946723Y-77897824D01*
X127625755Y-77880596D01*
X127354693Y-77827259D01*
X127197769Y-77766533D01*
X126853134Y-77571926D01*
X126534568Y-77354652D01*
X126315621Y-77175058D01*
X126104035Y-76991830D01*
X125877040Y-76810676D01*
X125647096Y-76640046D01*
X125426663Y-76488387D01*
X125228201Y-76364148D01*
X125064170Y-76275776D01*
X124947030Y-76231720D01*
X124919295Y-76228333D01*
X124774568Y-76195718D01*
X124595578Y-76104418D01*
X124397818Y-75964253D01*
X124196780Y-75785043D01*
X124157863Y-75745711D01*
X124037377Y-75618703D01*
X123944831Y-75516069D01*
X123892272Y-75451468D01*
X123885068Y-75436488D01*
X123928662Y-75442478D01*
X124020418Y-75474165D01*
X124051974Y-75486944D01*
X124183661Y-75523181D01*
X124351983Y-75545489D01*
X124450057Y-75549091D01*
X124694834Y-75547183D01*
X124455986Y-75326841D01*
X124289007Y-75189176D01*
X124093871Y-75051772D01*
X123937760Y-74958333D01*
X123803389Y-74883794D01*
X123704281Y-74822575D01*
X123659026Y-74786290D01*
X123658024Y-74783552D01*
X123692568Y-74751007D01*
X123777152Y-74707518D01*
X123786609Y-74703529D01*
X123943492Y-74670986D01*
X124151875Y-74672474D01*
X124387789Y-74703641D01*
X124627267Y-74760135D01*
X124846340Y-74837605D01*
X125013029Y-74926191D01*
X125075554Y-74974552D01*
X125124732Y-75033517D01*
X125168373Y-75119628D01*
X125214287Y-75249428D01*
X125270282Y-75439460D01*
X125292007Y-75517139D01*
X125356362Y-75739202D01*
X125410005Y-75896412D01*
X125460832Y-76006512D01*
X125516736Y-76087246D01*
X125570220Y-76142425D01*
X125776926Y-76310638D01*
X126043796Y-76493694D01*
X126351698Y-76681340D01*
X126681499Y-76863323D01*
X127014068Y-77029390D01*
X127330272Y-77169288D01*
X127610979Y-77272763D01*
X127754853Y-77313205D01*
X128041544Y-77353742D01*
X128367219Y-77355949D01*
X128696051Y-77321140D01*
X128928167Y-77270136D01*
X129046671Y-77230919D01*
X129220872Y-77165999D01*
X129428982Y-77083804D01*
X129649216Y-76992762D01*
X129690187Y-76975350D01*
X130075445Y-76817345D01*
X130405544Y-76698062D01*
X130698235Y-76613178D01*
X130971268Y-76558372D01*
X131242395Y-76529324D01*
X131529365Y-76521711D01*
X131552834Y-76521892D01*
X132224588Y-76546326D01*
X132833821Y-76607491D01*
X133395518Y-76708048D01*
X133924667Y-76850655D01*
X134417714Y-77030317D01*
X135103069Y-77351713D01*
X135733331Y-77731516D01*
X136321531Y-78177863D01*
X136488769Y-78323300D01*
X136622797Y-78436909D01*
X136800669Y-78578827D01*
X136996765Y-78728954D01*
X137144935Y-78838130D01*
X137354717Y-78996323D01*
X137581664Y-79178349D01*
X137792669Y-79357198D01*
X137903680Y-79457168D01*
X138058357Y-79605520D01*
X138207739Y-79756206D01*
X138343635Y-79899893D01*
X138457854Y-80027249D01*
X138542205Y-80128942D01*
X138588496Y-80195639D01*
X138588536Y-80218007D01*
X138821255Y-80218007D01*
X138758751Y-80141259D01*
X138548228Y-79904040D01*
X138313487Y-79657063D01*
X138062762Y-79409133D01*
X137804284Y-79169058D01*
X137546288Y-78945644D01*
X137297006Y-78747697D01*
X137180296Y-78662500D01*
X136978267Y-78514339D01*
X136767023Y-78350263D01*
X136576127Y-78193652D01*
X136471376Y-78101844D01*
X136056790Y-77763550D01*
X135578472Y-77442789D01*
X135057060Y-77150009D01*
X134513193Y-76895658D01*
X133967508Y-76690184D01*
X133440643Y-76544036D01*
X133360988Y-76527162D01*
X132992131Y-76464872D01*
X132569721Y-76414062D01*
X132124428Y-76377553D01*
X131686919Y-76358164D01*
X131496387Y-76355770D01*
X131199863Y-76367850D01*
X130901224Y-76407116D01*
X130587102Y-76477207D01*
X130244131Y-76581764D01*
X129858943Y-76724427D01*
X129418171Y-76908834D01*
X129341236Y-76942616D01*
X128910224Y-77098495D01*
X128486317Y-77184787D01*
X128081391Y-77199883D01*
X127764000Y-77156227D01*
X127570354Y-77096382D01*
X127325091Y-76997300D01*
X127046005Y-76868229D01*
X126750888Y-76718416D01*
X126457535Y-76557108D01*
X126183738Y-76393552D01*
X125947291Y-76236997D01*
X125835340Y-76153881D01*
X125729356Y-76068722D01*
X125652080Y-75995484D01*
X125594011Y-75916725D01*
X125545649Y-75814999D01*
X125497491Y-75672861D01*
X125440038Y-75472869D01*
X125414814Y-75381773D01*
X125357775Y-75197689D01*
X125296590Y-75036284D01*
X125240691Y-74921072D01*
X125216166Y-74886493D01*
X125075944Y-74780215D01*
X124874315Y-74682432D01*
X124634514Y-74599727D01*
X124379780Y-74538685D01*
X124133350Y-74505889D01*
X123918460Y-74507924D01*
G36*
X124668460Y-71987924D02*
G01*
X124642190Y-71991367D01*
X124518579Y-72027736D01*
X124384555Y-72093558D01*
X124263594Y-72173651D01*
X124179171Y-72252833D01*
X124153667Y-72307283D01*
X124188415Y-72340914D01*
X124277361Y-72394821D01*
X124349046Y-72431718D01*
X124501791Y-72511359D01*
X124656989Y-72601225D01*
X124798495Y-72690729D01*
X124910163Y-72769280D01*
X124975847Y-72826292D01*
X124984992Y-72848786D01*
X124938836Y-72842209D01*
X124834728Y-72804498D01*
X124690381Y-72742511D01*
X124592203Y-72696700D01*
X124400510Y-72609798D01*
X124271977Y-72565421D01*
X124206137Y-72566429D01*
X124202520Y-72615684D01*
X124260655Y-72716046D01*
X124380074Y-72870378D01*
X124534007Y-73051408D01*
X124735349Y-73278457D01*
X124900857Y-73451262D01*
X125047172Y-73582017D01*
X125190939Y-73682919D01*
X125348800Y-73766165D01*
X125537399Y-73843951D01*
X125692186Y-73900121D01*
X125894938Y-73992412D01*
X126140487Y-74138581D01*
X126415167Y-74329416D01*
X126705313Y-74555702D01*
X126866773Y-74692138D01*
X127144260Y-74917884D01*
X127428660Y-75121486D01*
X127702048Y-75291404D01*
X127946504Y-75416099D01*
X128060397Y-75460644D01*
X128226421Y-75497073D01*
X128451075Y-75519830D01*
X128709358Y-75528453D01*
X128976271Y-75522478D01*
X129226813Y-75501441D01*
X129342309Y-75484400D01*
X129468024Y-75452764D01*
X129651591Y-75394239D01*
X129873226Y-75315713D01*
X130113145Y-75224072D01*
X130256524Y-75166121D01*
X130608534Y-75024086D01*
X130903651Y-74914657D01*
X131161034Y-74833229D01*
X131399842Y-74775198D01*
X131639232Y-74735958D01*
X131898365Y-74710904D01*
X132196397Y-74695432D01*
X132218167Y-74694626D01*
X132818689Y-74689668D01*
X133361500Y-74719889D01*
X133840097Y-74784658D01*
X134247977Y-74883346D01*
X134284875Y-74895138D01*
X134616543Y-75018669D01*
X134989224Y-75182508D01*
X135382367Y-75375635D01*
X135775421Y-75587030D01*
X136147833Y-75805671D01*
X136479052Y-76020540D01*
X136732311Y-76207490D01*
X136845960Y-76292203D01*
X137017738Y-76411694D01*
X137233546Y-76556570D01*
X137479282Y-76717438D01*
X137740845Y-76884904D01*
X137890834Y-76979226D01*
X138334823Y-77257816D01*
X138710826Y-77496789D01*
X139023805Y-77699500D01*
X139278722Y-77869306D01*
X139480541Y-78009564D01*
X139634224Y-78123629D01*
X139744734Y-78214859D01*
X139806417Y-78274764D01*
X139944000Y-78423878D01*
X139944000Y-78296423D01*
X139912681Y-78186302D01*
X139824211Y-78031197D01*
X139686823Y-77839914D01*
X139571255Y-77698007D01*
X139338536Y-77698007D01*
X139309000Y-77683797D01*
X139246494Y-77644446D01*
X139122359Y-77566663D01*
X138946804Y-77456830D01*
X138730034Y-77321330D01*
X138482258Y-77166544D01*
X138213680Y-76998856D01*
X138166000Y-76969096D01*
X137888797Y-76794731D01*
X137625690Y-76626701D01*
X137388050Y-76472462D01*
X137187248Y-76339472D01*
X137034654Y-76235186D01*
X136941637Y-76167060D01*
X136935956Y-76162446D01*
X136694508Y-75980140D01*
X136392367Y-75778598D01*
X136048166Y-75568176D01*
X135680539Y-75359231D01*
X135308121Y-75162119D01*
X134949543Y-74987195D01*
X134623442Y-74844816D01*
X134440667Y-74775653D01*
X134211685Y-74701737D01*
X133990220Y-74644637D01*
X133760178Y-74602347D01*
X133505467Y-74572864D01*
X133209993Y-74554182D01*
X132857662Y-74544297D01*
X132560839Y-74541507D01*
X132236033Y-74541643D01*
X131961475Y-74547090D01*
X131722486Y-74561079D01*
X131504390Y-74586846D01*
X131292507Y-74627623D01*
X131072162Y-74686644D01*
X130828675Y-74767144D01*
X130547370Y-74872354D01*
X130213568Y-75005510D01*
X129932167Y-75120632D01*
X129678912Y-75218820D01*
X129465824Y-75285387D01*
X129258864Y-75329480D01*
X129051442Y-75357322D01*
X128696723Y-75377824D01*
X128375755Y-75360596D01*
X128104693Y-75307259D01*
X127947769Y-75246533D01*
X127603134Y-75051926D01*
X127284568Y-74834652D01*
X127065621Y-74655058D01*
X126854035Y-74471830D01*
X126627040Y-74290676D01*
X126397096Y-74120046D01*
X126176663Y-73968387D01*
X125978201Y-73844148D01*
X125814170Y-73755776D01*
X125697030Y-73711720D01*
X125669295Y-73708333D01*
X125524568Y-73675718D01*
X125345578Y-73584418D01*
X125147818Y-73444253D01*
X124946780Y-73265043D01*
X124907863Y-73225711D01*
X124787377Y-73098703D01*
X124694831Y-72996069D01*
X124642272Y-72931468D01*
X124635068Y-72916488D01*
X124678662Y-72922478D01*
X124770418Y-72954165D01*
X124801974Y-72966944D01*
X124933661Y-73003181D01*
X125101983Y-73025489D01*
X125200057Y-73029091D01*
X125444834Y-73027183D01*
X125205986Y-72806841D01*
X125039007Y-72669176D01*
X124843871Y-72531772D01*
X124687760Y-72438333D01*
X124553389Y-72363794D01*
X124454281Y-72302575D01*
X124409026Y-72266290D01*
X124408024Y-72263552D01*
X124442568Y-72231007D01*
X124527152Y-72187518D01*
X124536609Y-72183529D01*
X124693492Y-72150986D01*
X124901875Y-72152474D01*
X125137789Y-72183641D01*
X125377267Y-72240135D01*
X125596340Y-72317605D01*
X125763029Y-72406191D01*
X125825554Y-72454552D01*
X125874732Y-72513517D01*
X125918373Y-72599628D01*
X125964287Y-72729428D01*
X126020282Y-72919460D01*
X126042007Y-72997139D01*
X126106362Y-73219202D01*
X126160005Y-73376412D01*
X126210832Y-73486512D01*
X126266736Y-73567246D01*
X126320220Y-73622425D01*
X126526926Y-73790638D01*
X126793796Y-73973694D01*
X127101698Y-74161340D01*
X127431499Y-74343323D01*
X127764068Y-74509390D01*
X128080272Y-74649288D01*
X128360979Y-74752763D01*
X128504853Y-74793205D01*
X128791544Y-74833742D01*
X129117219Y-74835949D01*
X129446051Y-74801140D01*
X129678167Y-74750136D01*
X129796671Y-74710919D01*
X129970872Y-74645999D01*
X130178982Y-74563804D01*
X130399216Y-74472762D01*
X130440187Y-74455350D01*
X130825445Y-74297345D01*
X131155544Y-74178062D01*
X131448235Y-74093178D01*
X131721268Y-74038372D01*
X131992395Y-74009324D01*
X132279365Y-74001711D01*
X132302834Y-74001892D01*
X132974588Y-74026326D01*
X133583821Y-74087491D01*
X134145518Y-74188048D01*
X134674667Y-74330655D01*
X135167714Y-74510317D01*
X135853069Y-74831713D01*
X136483331Y-75211516D01*
X137071531Y-75657863D01*
X137238769Y-75803300D01*
X137372797Y-75916909D01*
X137550669Y-76058827D01*
X137746765Y-76208954D01*
X137894935Y-76318130D01*
X138104717Y-76476323D01*
X138331664Y-76658349D01*
X138542669Y-76837198D01*
X138653680Y-76937168D01*
X138808357Y-77085520D01*
X138957739Y-77236206D01*
X139093635Y-77379893D01*
X139207854Y-77507249D01*
X139292205Y-77608942D01*
X139338496Y-77675639D01*
X139338536Y-77698007D01*
X139571255Y-77698007D01*
X139508751Y-77621259D01*
X139298228Y-77384040D01*
X139063487Y-77137063D01*
X138812762Y-76889133D01*
X138554284Y-76649058D01*
X138296288Y-76425644D01*
X138047006Y-76227697D01*
X137930296Y-76142500D01*
X137728267Y-75994339D01*
X137517023Y-75830263D01*
X137326127Y-75673652D01*
X137221376Y-75581844D01*
X136806790Y-75243550D01*
X136328472Y-74922789D01*
X135807060Y-74630009D01*
X135263193Y-74375658D01*
X134717508Y-74170184D01*
X134190643Y-74024036D01*
X134110988Y-74007162D01*
X133742131Y-73944872D01*
X133319721Y-73894062D01*
X132874428Y-73857553D01*
X132436919Y-73838164D01*
X132246387Y-73835770D01*
X131949863Y-73847850D01*
X131651224Y-73887116D01*
X131337102Y-73957207D01*
X130994131Y-74061764D01*
X130608943Y-74204427D01*
X130168171Y-74388834D01*
X130091236Y-74422616D01*
X129660224Y-74578495D01*
X129236317Y-74664787D01*
X128831391Y-74679883D01*
X128514000Y-74636227D01*
X128320354Y-74576382D01*
X128075091Y-74477300D01*
X127796005Y-74348229D01*
X127500888Y-74198416D01*
X127207535Y-74037108D01*
X126933738Y-73873552D01*
X126697291Y-73716997D01*
X126585340Y-73633881D01*
X126479356Y-73548722D01*
X126402080Y-73475484D01*
X126344011Y-73396725D01*
X126295649Y-73294999D01*
X126247491Y-73152861D01*
X126190038Y-72952869D01*
X126164814Y-72861773D01*
X126107775Y-72677689D01*
X126046590Y-72516284D01*
X125990691Y-72401072D01*
X125966166Y-72366493D01*
X125825944Y-72260215D01*
X125624315Y-72162432D01*
X125384514Y-72079727D01*
X125129780Y-72018685D01*
X124883350Y-71985889D01*
X124668460Y-71987924D01*
G37*
X124668460Y-71987924D02*
X124642190Y-71991367D01*
X124518579Y-72027736D01*
X124384555Y-72093558D01*
X124263594Y-72173651D01*
X124179171Y-72252833D01*
X124153667Y-72307283D01*
X124188415Y-72340914D01*
X124277361Y-72394821D01*
X124349046Y-72431718D01*
X124501791Y-72511359D01*
X124656989Y-72601225D01*
X124798495Y-72690729D01*
X124910163Y-72769280D01*
X124975847Y-72826292D01*
X124984992Y-72848786D01*
X124938836Y-72842209D01*
X124834728Y-72804498D01*
X124690381Y-72742511D01*
X124592203Y-72696700D01*
X124400510Y-72609798D01*
X124271977Y-72565421D01*
X124206137Y-72566429D01*
X124202520Y-72615684D01*
X124260655Y-72716046D01*
X124380074Y-72870378D01*
X124534007Y-73051408D01*
X124735349Y-73278457D01*
X124900857Y-73451262D01*
X125047172Y-73582017D01*
X125190939Y-73682919D01*
X125348800Y-73766165D01*
X125537399Y-73843951D01*
X125692186Y-73900121D01*
X125894938Y-73992412D01*
X126140487Y-74138581D01*
X126415167Y-74329416D01*
X126705313Y-74555702D01*
X126866773Y-74692138D01*
X127144260Y-74917884D01*
X127428660Y-75121486D01*
X127702048Y-75291404D01*
X127946504Y-75416099D01*
X128060397Y-75460644D01*
X128226421Y-75497073D01*
X128451075Y-75519830D01*
X128709358Y-75528453D01*
X128976271Y-75522478D01*
X129226813Y-75501441D01*
X129342309Y-75484400D01*
X129468024Y-75452764D01*
X129651591Y-75394239D01*
X129873226Y-75315713D01*
X130113145Y-75224072D01*
X130256524Y-75166121D01*
X130608534Y-75024086D01*
X130903651Y-74914657D01*
X131161034Y-74833229D01*
X131399842Y-74775198D01*
X131639232Y-74735958D01*
X131898365Y-74710904D01*
X132196397Y-74695432D01*
X132218167Y-74694626D01*
X132818689Y-74689668D01*
X133361500Y-74719889D01*
X133840097Y-74784658D01*
X134247977Y-74883346D01*
X134284875Y-74895138D01*
X134616543Y-75018669D01*
X134989224Y-75182508D01*
X135382367Y-75375635D01*
X135775421Y-75587030D01*
X136147833Y-75805671D01*
X136479052Y-76020540D01*
X136732311Y-76207490D01*
X136845960Y-76292203D01*
X137017738Y-76411694D01*
X137233546Y-76556570D01*
X137479282Y-76717438D01*
X137740845Y-76884904D01*
X137890834Y-76979226D01*
X138334823Y-77257816D01*
X138710826Y-77496789D01*
X139023805Y-77699500D01*
X139278722Y-77869306D01*
X139480541Y-78009564D01*
X139634224Y-78123629D01*
X139744734Y-78214859D01*
X139806417Y-78274764D01*
X139944000Y-78423878D01*
X139944000Y-78296423D01*
X139912681Y-78186302D01*
X139824211Y-78031197D01*
X139686823Y-77839914D01*
X139571255Y-77698007D01*
X139338536Y-77698007D01*
X139309000Y-77683797D01*
X139246494Y-77644446D01*
X139122359Y-77566663D01*
X138946804Y-77456830D01*
X138730034Y-77321330D01*
X138482258Y-77166544D01*
X138213680Y-76998856D01*
X138166000Y-76969096D01*
X137888797Y-76794731D01*
X137625690Y-76626701D01*
X137388050Y-76472462D01*
X137187248Y-76339472D01*
X137034654Y-76235186D01*
X136941637Y-76167060D01*
X136935956Y-76162446D01*
X136694508Y-75980140D01*
X136392367Y-75778598D01*
X136048166Y-75568176D01*
X135680539Y-75359231D01*
X135308121Y-75162119D01*
X134949543Y-74987195D01*
X134623442Y-74844816D01*
X134440667Y-74775653D01*
X134211685Y-74701737D01*
X133990220Y-74644637D01*
X133760178Y-74602347D01*
X133505467Y-74572864D01*
X133209993Y-74554182D01*
X132857662Y-74544297D01*
X132560839Y-74541507D01*
X132236033Y-74541643D01*
X131961475Y-74547090D01*
X131722486Y-74561079D01*
X131504390Y-74586846D01*
X131292507Y-74627623D01*
X131072162Y-74686644D01*
X130828675Y-74767144D01*
X130547370Y-74872354D01*
X130213568Y-75005510D01*
X129932167Y-75120632D01*
X129678912Y-75218820D01*
X129465824Y-75285387D01*
X129258864Y-75329480D01*
X129051442Y-75357322D01*
X128696723Y-75377824D01*
X128375755Y-75360596D01*
X128104693Y-75307259D01*
X127947769Y-75246533D01*
X127603134Y-75051926D01*
X127284568Y-74834652D01*
X127065621Y-74655058D01*
X126854035Y-74471830D01*
X126627040Y-74290676D01*
X126397096Y-74120046D01*
X126176663Y-73968387D01*
X125978201Y-73844148D01*
X125814170Y-73755776D01*
X125697030Y-73711720D01*
X125669295Y-73708333D01*
X125524568Y-73675718D01*
X125345578Y-73584418D01*
X125147818Y-73444253D01*
X124946780Y-73265043D01*
X124907863Y-73225711D01*
X124787377Y-73098703D01*
X124694831Y-72996069D01*
X124642272Y-72931468D01*
X124635068Y-72916488D01*
X124678662Y-72922478D01*
X124770418Y-72954165D01*
X124801974Y-72966944D01*
X124933661Y-73003181D01*
X125101983Y-73025489D01*
X125200057Y-73029091D01*
X125444834Y-73027183D01*
X125205986Y-72806841D01*
X125039007Y-72669176D01*
X124843871Y-72531772D01*
X124687760Y-72438333D01*
X124553389Y-72363794D01*
X124454281Y-72302575D01*
X124409026Y-72266290D01*
X124408024Y-72263552D01*
X124442568Y-72231007D01*
X124527152Y-72187518D01*
X124536609Y-72183529D01*
X124693492Y-72150986D01*
X124901875Y-72152474D01*
X125137789Y-72183641D01*
X125377267Y-72240135D01*
X125596340Y-72317605D01*
X125763029Y-72406191D01*
X125825554Y-72454552D01*
X125874732Y-72513517D01*
X125918373Y-72599628D01*
X125964287Y-72729428D01*
X126020282Y-72919460D01*
X126042007Y-72997139D01*
X126106362Y-73219202D01*
X126160005Y-73376412D01*
X126210832Y-73486512D01*
X126266736Y-73567246D01*
X126320220Y-73622425D01*
X126526926Y-73790638D01*
X126793796Y-73973694D01*
X127101698Y-74161340D01*
X127431499Y-74343323D01*
X127764068Y-74509390D01*
X128080272Y-74649288D01*
X128360979Y-74752763D01*
X128504853Y-74793205D01*
X128791544Y-74833742D01*
X129117219Y-74835949D01*
X129446051Y-74801140D01*
X129678167Y-74750136D01*
X129796671Y-74710919D01*
X129970872Y-74645999D01*
X130178982Y-74563804D01*
X130399216Y-74472762D01*
X130440187Y-74455350D01*
X130825445Y-74297345D01*
X131155544Y-74178062D01*
X131448235Y-74093178D01*
X131721268Y-74038372D01*
X131992395Y-74009324D01*
X132279365Y-74001711D01*
X132302834Y-74001892D01*
X132974588Y-74026326D01*
X133583821Y-74087491D01*
X134145518Y-74188048D01*
X134674667Y-74330655D01*
X135167714Y-74510317D01*
X135853069Y-74831713D01*
X136483331Y-75211516D01*
X137071531Y-75657863D01*
X137238769Y-75803300D01*
X137372797Y-75916909D01*
X137550669Y-76058827D01*
X137746765Y-76208954D01*
X137894935Y-76318130D01*
X138104717Y-76476323D01*
X138331664Y-76658349D01*
X138542669Y-76837198D01*
X138653680Y-76937168D01*
X138808357Y-77085520D01*
X138957739Y-77236206D01*
X139093635Y-77379893D01*
X139207854Y-77507249D01*
X139292205Y-77608942D01*
X139338496Y-77675639D01*
X139338536Y-77698007D01*
X139571255Y-77698007D01*
X139508751Y-77621259D01*
X139298228Y-77384040D01*
X139063487Y-77137063D01*
X138812762Y-76889133D01*
X138554284Y-76649058D01*
X138296288Y-76425644D01*
X138047006Y-76227697D01*
X137930296Y-76142500D01*
X137728267Y-75994339D01*
X137517023Y-75830263D01*
X137326127Y-75673652D01*
X137221376Y-75581844D01*
X136806790Y-75243550D01*
X136328472Y-74922789D01*
X135807060Y-74630009D01*
X135263193Y-74375658D01*
X134717508Y-74170184D01*
X134190643Y-74024036D01*
X134110988Y-74007162D01*
X133742131Y-73944872D01*
X133319721Y-73894062D01*
X132874428Y-73857553D01*
X132436919Y-73838164D01*
X132246387Y-73835770D01*
X131949863Y-73847850D01*
X131651224Y-73887116D01*
X131337102Y-73957207D01*
X130994131Y-74061764D01*
X130608943Y-74204427D01*
X130168171Y-74388834D01*
X130091236Y-74422616D01*
X129660224Y-74578495D01*
X129236317Y-74664787D01*
X128831391Y-74679883D01*
X128514000Y-74636227D01*
X128320354Y-74576382D01*
X128075091Y-74477300D01*
X127796005Y-74348229D01*
X127500888Y-74198416D01*
X127207535Y-74037108D01*
X126933738Y-73873552D01*
X126697291Y-73716997D01*
X126585340Y-73633881D01*
X126479356Y-73548722D01*
X126402080Y-73475484D01*
X126344011Y-73396725D01*
X126295649Y-73294999D01*
X126247491Y-73152861D01*
X126190038Y-72952869D01*
X126164814Y-72861773D01*
X126107775Y-72677689D01*
X126046590Y-72516284D01*
X125990691Y-72401072D01*
X125966166Y-72366493D01*
X125825944Y-72260215D01*
X125624315Y-72162432D01*
X125384514Y-72079727D01*
X125129780Y-72018685D01*
X124883350Y-71985889D01*
X124668460Y-71987924D01*
G36*
X137084477Y-75955274D02*
G01*
X137090571Y-76013020D01*
X137133474Y-76048829D01*
X137206320Y-76102944D01*
X137308801Y-76196173D01*
X137382834Y-76270893D01*
X137550439Y-76426680D01*
X137696383Y-76520234D01*
X137813084Y-76547812D01*
X137882627Y-76517595D01*
X137894029Y-76466900D01*
X137841436Y-76427866D01*
X137775770Y-76417667D01*
X137697504Y-76387306D01*
X137591075Y-76307664D01*
X137513685Y-76232688D01*
X137352573Y-76073946D01*
X137222655Y-75973514D01*
X137129949Y-75935281D01*
X137084477Y-75955274D01*
G37*
X137084477Y-75955274D02*
X137090571Y-76013020D01*
X137133474Y-76048829D01*
X137206320Y-76102944D01*
X137308801Y-76196173D01*
X137382834Y-76270893D01*
X137550439Y-76426680D01*
X137696383Y-76520234D01*
X137813084Y-76547812D01*
X137882627Y-76517595D01*
X137894029Y-76466900D01*
X137841436Y-76427866D01*
X137775770Y-76417667D01*
X137697504Y-76387306D01*
X137591075Y-76307664D01*
X137513685Y-76232688D01*
X137352573Y-76073946D01*
X137222655Y-75973514D01*
X137129949Y-75935281D01*
X137084477Y-75955274D01*
G36*
X135343325Y-74875081D02*
G01*
X135371380Y-74911167D01*
X135459885Y-74957312D01*
X135551057Y-74990732D01*
X135721838Y-75065953D01*
X135912632Y-75183153D01*
X136030038Y-75271636D01*
X136208448Y-75408727D01*
X136353133Y-75500934D01*
X136456103Y-75544277D01*
X136509368Y-75534776D01*
X136515000Y-75513247D01*
X136480536Y-75455285D01*
X136416818Y-75412855D01*
X136332973Y-75361647D01*
X136214993Y-75274128D01*
X136111940Y-75189226D01*
X135956609Y-75070688D01*
X135790943Y-74970173D01*
X135630816Y-74894167D01*
X135492101Y-74849159D01*
X135390673Y-74841637D01*
X135343325Y-74875081D01*
G37*
X135343325Y-74875081D02*
X135371380Y-74911167D01*
X135459885Y-74957312D01*
X135551057Y-74990732D01*
X135721838Y-75065953D01*
X135912632Y-75183153D01*
X136030038Y-75271636D01*
X136208448Y-75408727D01*
X136353133Y-75500934D01*
X136456103Y-75544277D01*
X136509368Y-75534776D01*
X136515000Y-75513247D01*
X136480536Y-75455285D01*
X136416818Y-75412855D01*
X136332973Y-75361647D01*
X136214993Y-75274128D01*
X136111940Y-75189226D01*
X135956609Y-75070688D01*
X135790943Y-74970173D01*
X135630816Y-74894167D01*
X135492101Y-74849159D01*
X135390673Y-74841637D01*
X135343325Y-74875081D01*
G36*
X129917315Y-74766482D02*
G01*
X129765956Y-74836581D01*
X129636214Y-74916452D01*
X129499009Y-75003826D01*
X129392080Y-75047903D01*
X129281057Y-75060060D01*
X129210029Y-75057528D01*
X129083249Y-75060686D01*
X129005040Y-75082838D01*
X128986051Y-75115786D01*
X129036931Y-75151334D01*
X129073186Y-75162865D01*
X129210414Y-75183016D01*
X129361645Y-75182326D01*
X129480031Y-75161186D01*
X129484638Y-75159445D01*
X129550828Y-75121423D01*
X129655586Y-75049547D01*
X129731297Y-74993454D01*
X129881355Y-74899128D01*
X130012968Y-74853589D01*
X130041243Y-74851333D01*
X130137371Y-74833734D01*
X130165000Y-74782294D01*
X130132319Y-74735411D01*
X130044597Y-74731449D01*
X129917315Y-74766482D01*
G37*
X129917315Y-74766482D02*
X129765956Y-74836581D01*
X129636214Y-74916452D01*
X129499009Y-75003826D01*
X129392080Y-75047903D01*
X129281057Y-75060060D01*
X129210029Y-75057528D01*
X129083249Y-75060686D01*
X129005040Y-75082838D01*
X128986051Y-75115786D01*
X129036931Y-75151334D01*
X129073186Y-75162865D01*
X129210414Y-75183016D01*
X129361645Y-75182326D01*
X129480031Y-75161186D01*
X129484638Y-75159445D01*
X129550828Y-75121423D01*
X129655586Y-75049547D01*
X129731297Y-74993454D01*
X129881355Y-74899128D01*
X130012968Y-74853589D01*
X130041243Y-74851333D01*
X130137371Y-74833734D01*
X130165000Y-74782294D01*
X130132319Y-74735411D01*
X130044597Y-74731449D01*
X129917315Y-74766482D01*
G36*
X127105133Y-74375449D02*
G01*
X127124280Y-74434629D01*
X127207634Y-74539097D01*
X127225003Y-74557221D01*
X127340526Y-74664486D01*
X127455018Y-74738993D01*
X127594744Y-74793211D01*
X127785972Y-74839610D01*
X127844678Y-74851405D01*
X127998173Y-74892220D01*
X128132179Y-74946022D01*
X128190022Y-74980800D01*
X128279310Y-75045118D01*
X128328986Y-75058452D01*
X128362001Y-75026866D01*
X128362337Y-75026324D01*
X128356143Y-74966334D01*
X128282513Y-74897526D01*
X128156992Y-74827886D01*
X127995127Y-74765397D01*
X127812464Y-74718044D01*
X127736927Y-74705111D01*
X127580312Y-74665935D01*
X127443211Y-74586927D01*
X127347222Y-74505740D01*
X127225174Y-74407394D01*
X127141621Y-74365167D01*
X127105133Y-74375449D01*
G37*
X127105133Y-74375449D02*
X127124280Y-74434629D01*
X127207634Y-74539097D01*
X127225003Y-74557221D01*
X127340526Y-74664486D01*
X127455018Y-74738993D01*
X127594744Y-74793211D01*
X127785972Y-74839610D01*
X127844678Y-74851405D01*
X127998173Y-74892220D01*
X128132179Y-74946022D01*
X128190022Y-74980800D01*
X128279310Y-75045118D01*
X128328986Y-75058452D01*
X128362001Y-75026866D01*
X128362337Y-75026324D01*
X128356143Y-74966334D01*
X128282513Y-74897526D01*
X128156992Y-74827886D01*
X127995127Y-74765397D01*
X127812464Y-74718044D01*
X127736927Y-74705111D01*
X127580312Y-74665935D01*
X127443211Y-74586927D01*
X127347222Y-74505740D01*
X127225174Y-74407394D01*
X127141621Y-74365167D01*
X127105133Y-74375449D01*
G36*
X133176618Y-74254572D02*
G01*
X133178976Y-74262426D01*
X133240561Y-74322342D01*
X133373997Y-74371028D01*
X133566885Y-74405616D01*
X133806822Y-74423239D01*
X133881110Y-74424746D01*
X134095195Y-74435525D01*
X134277019Y-74461253D01*
X134383697Y-74491500D01*
X134491173Y-74535590D01*
X134545126Y-74550885D01*
X134570425Y-74540580D01*
X134585869Y-74517463D01*
X134576353Y-74461783D01*
X134493669Y-74399178D01*
X134419500Y-74364658D01*
X134344553Y-74348245D01*
X134205827Y-74329773D01*
X134024095Y-74311658D01*
X133848000Y-74298126D01*
X133643688Y-74282464D01*
X133462306Y-74264781D01*
X133325462Y-74247411D01*
X133260250Y-74234620D01*
X133187897Y-74222273D01*
X133176618Y-74254572D01*
G37*
X133176618Y-74254572D02*
X133178976Y-74262426D01*
X133240561Y-74322342D01*
X133373997Y-74371028D01*
X133566885Y-74405616D01*
X133806822Y-74423239D01*
X133881110Y-74424746D01*
X134095195Y-74435525D01*
X134277019Y-74461253D01*
X134383697Y-74491500D01*
X134491173Y-74535590D01*
X134545126Y-74550885D01*
X134570425Y-74540580D01*
X134585869Y-74517463D01*
X134576353Y-74461783D01*
X134493669Y-74399178D01*
X134419500Y-74364658D01*
X134344553Y-74348245D01*
X134205827Y-74329773D01*
X134024095Y-74311658D01*
X133848000Y-74298126D01*
X133643688Y-74282464D01*
X133462306Y-74264781D01*
X133325462Y-74247411D01*
X133260250Y-74234620D01*
X133187897Y-74222273D01*
X133176618Y-74254572D01*
G36*
X132175834Y-74252070D02*
G01*
X132097534Y-74259156D01*
X131958488Y-74265966D01*
X131782612Y-74271455D01*
X131689000Y-74273365D01*
X131459920Y-74285142D01*
X131258820Y-74310395D01*
X131100375Y-74345954D01*
X130999257Y-74388651D01*
X130969334Y-74428784D01*
X130998883Y-74479554D01*
X131088200Y-74471806D01*
X131159834Y-74444127D01*
X131298554Y-74409920D01*
X131503585Y-74404096D01*
X131604334Y-74409397D01*
X131853951Y-74413063D01*
X132054102Y-74388195D01*
X132096509Y-74376796D01*
X132200598Y-74332969D01*
X132258063Y-74288222D01*
X132260515Y-74255743D01*
X132199567Y-74248721D01*
X132175834Y-74252070D01*
G37*
X132175834Y-74252070D02*
X132097534Y-74259156D01*
X131958488Y-74265966D01*
X131782612Y-74271455D01*
X131689000Y-74273365D01*
X131459920Y-74285142D01*
X131258820Y-74310395D01*
X131100375Y-74345954D01*
X130999257Y-74388651D01*
X130969334Y-74428784D01*
X130998883Y-74479554D01*
X131088200Y-74471806D01*
X131159834Y-74444127D01*
X131298554Y-74409920D01*
X131503585Y-74404096D01*
X131604334Y-74409397D01*
X131853951Y-74413063D01*
X132054102Y-74388195D01*
X132096509Y-74376796D01*
X132200598Y-74332969D01*
X132258063Y-74288222D01*
X132260515Y-74255743D01*
X132199567Y-74248721D01*
X132175834Y-74252070D01*
G36*
X125407984Y-72420920D02*
G01*
X125366985Y-72456843D01*
X125376752Y-72530578D01*
X125386399Y-72557490D01*
X125461531Y-72684028D01*
X125558018Y-72731416D01*
X125671072Y-72697310D01*
X125671455Y-72697069D01*
X125704394Y-72638622D01*
X125687327Y-72586500D01*
X125550667Y-72586500D01*
X125529500Y-72607667D01*
X125508334Y-72586500D01*
X125529500Y-72565333D01*
X125550667Y-72586500D01*
X125687327Y-72586500D01*
X125679335Y-72562097D01*
X125614400Y-72486487D01*
X125527710Y-72430786D01*
X125437387Y-72413986D01*
X125407984Y-72420920D01*
G37*
X125407984Y-72420920D02*
X125366985Y-72456843D01*
X125376752Y-72530578D01*
X125386399Y-72557490D01*
X125461531Y-72684028D01*
X125558018Y-72731416D01*
X125671072Y-72697310D01*
X125671455Y-72697069D01*
X125704394Y-72638622D01*
X125687327Y-72586500D01*
X125550667Y-72586500D01*
X125529500Y-72607667D01*
X125508334Y-72586500D01*
X125529500Y-72565333D01*
X125550667Y-72586500D01*
X125687327Y-72586500D01*
X125679335Y-72562097D01*
X125614400Y-72486487D01*
X125527710Y-72430786D01*
X125437387Y-72413986D01*
X125407984Y-72420920D01*
D11*
X127723748Y-86050000D02*
X128246252Y-86050000D01*
X127723748Y-87470000D02*
X128246252Y-87470000D01*
X133416252Y-87970000D02*
X132893748Y-87970000D01*
X133416252Y-86550000D02*
X132893748Y-86550000D01*
X124230000Y-92115000D02*
X124230000Y-89255000D01*
X126150000Y-92115000D02*
X124230000Y-92115000D01*
X126150000Y-89255000D02*
X126150000Y-92115000D01*
X134350000Y-92575000D02*
X134350000Y-89715000D01*
X136270000Y-92575000D02*
X134350000Y-92575000D01*
X136270000Y-89715000D02*
X136270000Y-92575000D01*
X128100000Y-96080000D02*
X129430000Y-96080000D01*
X128100000Y-94750000D02*
X128100000Y-96080000D01*
X130700000Y-96080000D02*
X133300000Y-96080000D01*
X130700000Y-93480000D02*
X130700000Y-96080000D01*
X128100000Y-93480000D02*
X130700000Y-93480000D01*
X133300000Y-96080000D02*
X133300000Y-90880000D01*
X128100000Y-93480000D02*
X128100000Y-90880000D01*
X128100000Y-90880000D02*
X133300000Y-90880000D01*
D12*
X128151666Y-88862380D02*
X128485000Y-88386190D01*
X128723095Y-88862380D02*
X128723095Y-87862380D01*
X128342142Y-87862380D01*
X128246904Y-87910000D01*
X128199285Y-87957619D01*
X128151666Y-88052857D01*
X128151666Y-88195714D01*
X128199285Y-88290952D01*
X128246904Y-88338571D01*
X128342142Y-88386190D01*
X128723095Y-88386190D01*
X127770714Y-87957619D02*
X127723095Y-87910000D01*
X127627857Y-87862380D01*
X127389761Y-87862380D01*
X127294523Y-87910000D01*
X127246904Y-87957619D01*
X127199285Y-88052857D01*
X127199285Y-88148095D01*
X127246904Y-88290952D01*
X127818333Y-88862380D01*
X127199285Y-88862380D01*
X133321666Y-86062380D02*
X133655000Y-85586190D01*
X133893095Y-86062380D02*
X133893095Y-85062380D01*
X133512142Y-85062380D01*
X133416904Y-85110000D01*
X133369285Y-85157619D01*
X133321666Y-85252857D01*
X133321666Y-85395714D01*
X133369285Y-85490952D01*
X133416904Y-85538571D01*
X133512142Y-85586190D01*
X133893095Y-85586190D01*
X132369285Y-86062380D02*
X132940714Y-86062380D01*
X132655000Y-86062380D02*
X132655000Y-85062380D01*
X132750238Y-85205238D01*
X132845476Y-85300476D01*
X132940714Y-85348095D01*
X127292380Y-89516904D02*
X126292380Y-89516904D01*
X126292380Y-89755000D01*
X126340000Y-89897857D01*
X126435238Y-89993095D01*
X126530476Y-90040714D01*
X126720952Y-90088333D01*
X126863809Y-90088333D01*
X127054285Y-90040714D01*
X127149523Y-89993095D01*
X127244761Y-89897857D01*
X127292380Y-89755000D01*
X127292380Y-89516904D01*
X126387619Y-90469285D02*
X126340000Y-90516904D01*
X126292380Y-90612142D01*
X126292380Y-90850238D01*
X126340000Y-90945476D01*
X126387619Y-90993095D01*
X126482857Y-91040714D01*
X126578095Y-91040714D01*
X126720952Y-90993095D01*
X127292380Y-90421666D01*
X127292380Y-91040714D01*
X137412380Y-89976904D02*
X136412380Y-89976904D01*
X136412380Y-90215000D01*
X136460000Y-90357857D01*
X136555238Y-90453095D01*
X136650476Y-90500714D01*
X136840952Y-90548333D01*
X136983809Y-90548333D01*
X137174285Y-90500714D01*
X137269523Y-90453095D01*
X137364761Y-90357857D01*
X137412380Y-90215000D01*
X137412380Y-89976904D01*
X137412380Y-91500714D02*
X137412380Y-90929285D01*
X137412380Y-91215000D02*
X136412380Y-91215000D01*
X136555238Y-91119761D01*
X136650476Y-91024523D01*
X136698095Y-90929285D01*
X127063333Y-94722380D02*
X127063333Y-95436666D01*
X127110952Y-95579523D01*
X127206190Y-95674761D01*
X127349047Y-95722380D01*
X127444285Y-95722380D01*
X126063333Y-95722380D02*
X126634761Y-95722380D01*
X126349047Y-95722380D02*
X126349047Y-94722380D01*
X126444285Y-94865238D01*
X126539523Y-94960476D01*
X126634761Y-95008095D01*
%LPC*%
G36*
G01*
X128385000Y-87238262D02*
X128385000Y-86281738D01*
G75*
G02*
X128656738Y-86010000I271738J0D01*
G01*
X129363262Y-86010000D01*
G75*
G02*
X129635000Y-86281738I0J-271738D01*
G01*
X129635000Y-87238262D01*
G75*
G02*
X129363262Y-87510000I-271738J0D01*
G01*
X128656738Y-87510000D01*
G75*
G02*
X128385000Y-87238262I0J271738D01*
G01*
G37*
G36*
G01*
X126335000Y-87238262D02*
X126335000Y-86281738D01*
G75*
G02*
X126606738Y-86010000I271738J0D01*
G01*
X127313262Y-86010000D01*
G75*
G02*
X127585000Y-86281738I0J-271738D01*
G01*
X127585000Y-87238262D01*
G75*
G02*
X127313262Y-87510000I-271738J0D01*
G01*
X126606738Y-87510000D01*
G75*
G02*
X126335000Y-87238262I0J271738D01*
G01*
G37*
G36*
G01*
X132755000Y-86781738D02*
X132755000Y-87738262D01*
G75*
G02*
X132483262Y-88010000I-271738J0D01*
G01*
X131776738Y-88010000D01*
G75*
G02*
X131505000Y-87738262I0J271738D01*
G01*
X131505000Y-86781738D01*
G75*
G02*
X131776738Y-86510000I271738J0D01*
G01*
X132483262Y-86510000D01*
G75*
G02*
X132755000Y-86781738I0J-271738D01*
G01*
G37*
G36*
G01*
X134805000Y-86781738D02*
X134805000Y-87738262D01*
G75*
G02*
X134533262Y-88010000I-271738J0D01*
G01*
X133826738Y-88010000D01*
G75*
G02*
X133555000Y-87738262I0J271738D01*
G01*
X133555000Y-86781738D01*
G75*
G02*
X133826738Y-86510000I271738J0D01*
G01*
X134533262Y-86510000D01*
G75*
G02*
X134805000Y-86781738I0J-271738D01*
G01*
G37*
G36*
G01*
X125668262Y-89855000D02*
X124711738Y-89855000D01*
G75*
G02*
X124440000Y-89583262I0J271738D01*
G01*
X124440000Y-88876738D01*
G75*
G02*
X124711738Y-88605000I271738J0D01*
G01*
X125668262Y-88605000D01*
G75*
G02*
X125940000Y-88876738I0J-271738D01*
G01*
X125940000Y-89583262D01*
G75*
G02*
X125668262Y-89855000I-271738J0D01*
G01*
G37*
G36*
G01*
X125668262Y-91905000D02*
X124711738Y-91905000D01*
G75*
G02*
X124440000Y-91633262I0J271738D01*
G01*
X124440000Y-90926738D01*
G75*
G02*
X124711738Y-90655000I271738J0D01*
G01*
X125668262Y-90655000D01*
G75*
G02*
X125940000Y-90926738I0J-271738D01*
G01*
X125940000Y-91633262D01*
G75*
G02*
X125668262Y-91905000I-271738J0D01*
G01*
G37*
G36*
G01*
X135788262Y-90315000D02*
X134831738Y-90315000D01*
G75*
G02*
X134560000Y-90043262I0J271738D01*
G01*
X134560000Y-89336738D01*
G75*
G02*
X134831738Y-89065000I271738J0D01*
G01*
X135788262Y-89065000D01*
G75*
G02*
X136060000Y-89336738I0J-271738D01*
G01*
X136060000Y-90043262D01*
G75*
G02*
X135788262Y-90315000I-271738J0D01*
G01*
G37*
G36*
G01*
X135788262Y-92365000D02*
X134831738Y-92365000D01*
G75*
G02*
X134560000Y-92093262I0J271738D01*
G01*
X134560000Y-91386738D01*
G75*
G02*
X134831738Y-91115000I271738J0D01*
G01*
X135788262Y-91115000D01*
G75*
G02*
X136060000Y-91386738I0J-271738D01*
G01*
X136060000Y-92093262D01*
G75*
G02*
X135788262Y-92365000I-271738J0D01*
G01*
G37*
D13*
X131970000Y-92210000D03*
X129430000Y-92210000D03*
X131970000Y-94750000D03*
D14*
X129430000Y-94750000D03*
M02*
