G04 #@! TF.GenerationSoftware,KiCad,Pcbnew,5.1.6-c6e7f7d~87~ubuntu18.04.1*
G04 #@! TF.CreationDate,2020-07-20T20:37:32+02:00*
G04 #@! TF.ProjectId,cat-demo,6361742d-6465-46d6-9f2e-6b696361645f,rev?*
G04 #@! TF.SameCoordinates,Original*
G04 #@! TF.FileFunction,Soldermask,Bot*
G04 #@! TF.FilePolarity,Negative*
%FSLAX46Y46*%
G04 Gerber Fmt 4.6, Leading zero omitted, Abs format (unit mm)*
G04 Created by KiCad (PCBNEW 5.1.6-c6e7f7d~87~ubuntu18.04.1) date 2020-07-20 20:37:32*
%MOMM*%
%LPD*%
G01*
G04 APERTURE LIST*
%ADD10C,0.100000*%
%ADD11O,1.800000X1.800000*%
%ADD12R,1.800000X1.800000*%
G04 APERTURE END LIST*
D10*
G36*
X124550000Y-72880000D02*
G01*
X125300000Y-75490000D01*
X124060000Y-77550000D01*
X122940000Y-76080000D01*
X123760000Y-75340000D01*
X123440000Y-73850000D01*
X122250000Y-72530000D01*
X120980000Y-72290000D01*
X119540000Y-73130000D01*
X119440000Y-73920000D01*
X119860000Y-75760000D01*
X120680000Y-76730000D01*
X122020000Y-76730000D01*
X122590000Y-76580000D01*
X122820000Y-76300000D01*
X123710000Y-77640000D01*
X122620000Y-78020000D01*
X121720000Y-78210000D01*
X120380000Y-77740000D01*
X118750000Y-76450000D01*
X118570000Y-74340000D01*
X118670000Y-72760000D01*
X119590000Y-72040000D01*
X120830000Y-71270000D01*
X122870000Y-71270000D01*
X124550000Y-72880000D01*
G37*
X124550000Y-72880000D02*
X125300000Y-75490000D01*
X124060000Y-77550000D01*
X122940000Y-76080000D01*
X123760000Y-75340000D01*
X123440000Y-73850000D01*
X122250000Y-72530000D01*
X120980000Y-72290000D01*
X119540000Y-73130000D01*
X119440000Y-73920000D01*
X119860000Y-75760000D01*
X120680000Y-76730000D01*
X122020000Y-76730000D01*
X122590000Y-76580000D01*
X122820000Y-76300000D01*
X123710000Y-77640000D01*
X122620000Y-78020000D01*
X121720000Y-78210000D01*
X120380000Y-77740000D01*
X118750000Y-76450000D01*
X118570000Y-74340000D01*
X118670000Y-72760000D01*
X119590000Y-72040000D01*
X120830000Y-71270000D01*
X122870000Y-71270000D01*
X124550000Y-72880000D01*
G36*
X143360000Y-71470000D02*
G01*
X144080000Y-72390000D01*
X144850000Y-73630000D01*
X144850000Y-75670000D01*
X143240000Y-77350000D01*
X140630000Y-78100000D01*
X138570000Y-76860000D01*
X140040000Y-75740000D01*
X140780000Y-76560000D01*
X142270000Y-76240000D01*
X143590000Y-75050000D01*
X143830000Y-73780000D01*
X142990000Y-72340000D01*
X142200000Y-72240000D01*
X140360000Y-72660000D01*
X139390000Y-73480000D01*
X139390000Y-74820000D01*
X139540000Y-75390000D01*
X139820000Y-75620000D01*
X138480000Y-76510000D01*
X138100000Y-75420000D01*
X137910000Y-74520000D01*
X138380000Y-73180000D01*
X139670000Y-71550000D01*
X141780000Y-71370000D01*
X143360000Y-71470000D01*
G37*
X143360000Y-71470000D02*
X144080000Y-72390000D01*
X144850000Y-73630000D01*
X144850000Y-75670000D01*
X143240000Y-77350000D01*
X140630000Y-78100000D01*
X138570000Y-76860000D01*
X140040000Y-75740000D01*
X140780000Y-76560000D01*
X142270000Y-76240000D01*
X143590000Y-75050000D01*
X143830000Y-73780000D01*
X142990000Y-72340000D01*
X142200000Y-72240000D01*
X140360000Y-72660000D01*
X139390000Y-73480000D01*
X139390000Y-74820000D01*
X139540000Y-75390000D01*
X139820000Y-75620000D01*
X138480000Y-76510000D01*
X138100000Y-75420000D01*
X137910000Y-74520000D01*
X138380000Y-73180000D01*
X139670000Y-71550000D01*
X141780000Y-71370000D01*
X143360000Y-71470000D01*
G36*
G01*
X131831738Y-83715000D02*
X132788262Y-83715000D01*
G75*
G02*
X133060000Y-83986738I0J-271738D01*
G01*
X133060000Y-84693262D01*
G75*
G02*
X132788262Y-84965000I-271738J0D01*
G01*
X131831738Y-84965000D01*
G75*
G02*
X131560000Y-84693262I0J271738D01*
G01*
X131560000Y-83986738D01*
G75*
G02*
X131831738Y-83715000I271738J0D01*
G01*
G37*
G36*
G01*
X131831738Y-81665000D02*
X132788262Y-81665000D01*
G75*
G02*
X133060000Y-81936738I0J-271738D01*
G01*
X133060000Y-82643262D01*
G75*
G02*
X132788262Y-82915000I-271738J0D01*
G01*
X131831738Y-82915000D01*
G75*
G02*
X131560000Y-82643262I0J271738D01*
G01*
X131560000Y-81936738D01*
G75*
G02*
X131831738Y-81665000I271738J0D01*
G01*
G37*
G36*
G01*
X129601738Y-83715000D02*
X130558262Y-83715000D01*
G75*
G02*
X130830000Y-83986738I0J-271738D01*
G01*
X130830000Y-84693262D01*
G75*
G02*
X130558262Y-84965000I-271738J0D01*
G01*
X129601738Y-84965000D01*
G75*
G02*
X129330000Y-84693262I0J271738D01*
G01*
X129330000Y-83986738D01*
G75*
G02*
X129601738Y-83715000I271738J0D01*
G01*
G37*
G36*
G01*
X129601738Y-81665000D02*
X130558262Y-81665000D01*
G75*
G02*
X130830000Y-81936738I0J-271738D01*
G01*
X130830000Y-82643262D01*
G75*
G02*
X130558262Y-82915000I-271738J0D01*
G01*
X129601738Y-82915000D01*
G75*
G02*
X129330000Y-82643262I0J271738D01*
G01*
X129330000Y-81936738D01*
G75*
G02*
X129601738Y-81665000I271738J0D01*
G01*
G37*
G36*
G01*
X140908975Y-74424660D02*
X141585340Y-75101024D01*
G75*
G02*
X141585340Y-75485320I-192148J-192148D01*
G01*
X141085752Y-75984908D01*
G75*
G02*
X140701456Y-75984908I-192148J192148D01*
G01*
X140025092Y-75308544D01*
G75*
G02*
X140025092Y-74924248I192148J192148D01*
G01*
X140524680Y-74424660D01*
G75*
G02*
X140908976Y-74424660I192148J-192148D01*
G01*
G37*
G36*
G01*
X142358543Y-72975092D02*
X143034908Y-73651456D01*
G75*
G02*
X143034908Y-74035752I-192148J-192148D01*
G01*
X142535320Y-74535340D01*
G75*
G02*
X142151024Y-74535340I-192148J192148D01*
G01*
X141474660Y-73858976D01*
G75*
G02*
X141474660Y-73474680I192148J192148D01*
G01*
X141974248Y-72975092D01*
G75*
G02*
X142358544Y-72975092I192148J-192148D01*
G01*
G37*
G36*
G01*
X121709444Y-75005809D02*
X122385808Y-74329444D01*
G75*
G02*
X122770104Y-74329444I192148J-192148D01*
G01*
X123269692Y-74829032D01*
G75*
G02*
X123269692Y-75213328I-192148J-192148D01*
G01*
X122593328Y-75889692D01*
G75*
G02*
X122209032Y-75889692I-192148J192148D01*
G01*
X121709444Y-75390104D01*
G75*
G02*
X121709444Y-75005808I192148J192148D01*
G01*
G37*
G36*
G01*
X120259876Y-73556241D02*
X120936240Y-72879876D01*
G75*
G02*
X121320536Y-72879876I192148J-192148D01*
G01*
X121820124Y-73379464D01*
G75*
G02*
X121820124Y-73763760I-192148J-192148D01*
G01*
X121143760Y-74440124D01*
G75*
G02*
X120759464Y-74440124I-192148J192148D01*
G01*
X120259876Y-73940536D01*
G75*
G02*
X120259876Y-73556240I192148J192148D01*
G01*
G37*
D11*
X132840000Y-91985000D03*
X130300000Y-91985000D03*
X132840000Y-94525000D03*
D12*
X130300000Y-94525000D03*
M02*
