G04 #@! TF.GenerationSoftware,KiCad,Pcbnew,5.1.6-c6e7f7d~87~ubuntu18.04.1*
G04 #@! TF.CreationDate,2020-07-20T20:37:32+02:00*
G04 #@! TF.ProjectId,cat-demo,6361742d-6465-46d6-9f2e-6b696361645f,rev?*
G04 #@! TF.SameCoordinates,Original*
G04 #@! TF.FileFunction,Legend,Bot*
G04 #@! TF.FilePolarity,Positive*
%FSLAX46Y46*%
G04 Gerber Fmt 4.6, Leading zero omitted, Abs format (unit mm)*
G04 Created by KiCad (PCBNEW 5.1.6-c6e7f7d~87~ubuntu18.04.1) date 2020-07-20 20:37:32*
%MOMM*%
%LPD*%
G01*
G04 APERTURE LIST*
%ADD10C,0.120000*%
%ADD11C,0.150000*%
%ADD12C,0.100000*%
%ADD13O,1.800000X1.800000*%
%ADD14R,1.800000X1.800000*%
G04 APERTURE END LIST*
D10*
X133020000Y-83053748D02*
X133020000Y-83576252D01*
X131600000Y-83053748D02*
X131600000Y-83576252D01*
X130790000Y-83053748D02*
X130790000Y-83576252D01*
X129370000Y-83053748D02*
X129370000Y-83576252D01*
X143524041Y-73843604D02*
X141501716Y-75865929D01*
X142166396Y-72485959D02*
X143524041Y-73843604D01*
X140144071Y-74508284D02*
X142166396Y-72485959D01*
X121128388Y-72390743D02*
X123150713Y-74413068D01*
X119770743Y-73748388D02*
X121128388Y-72390743D01*
X121793068Y-75770713D02*
X119770743Y-73748388D01*
X128970000Y-95855000D02*
X130300000Y-95855000D01*
X128970000Y-94525000D02*
X128970000Y-95855000D01*
X131570000Y-95855000D02*
X134170000Y-95855000D01*
X131570000Y-93255000D02*
X131570000Y-95855000D01*
X128970000Y-93255000D02*
X131570000Y-93255000D01*
X134170000Y-95855000D02*
X134170000Y-90655000D01*
X128970000Y-93255000D02*
X128970000Y-90655000D01*
X128970000Y-90655000D02*
X134170000Y-90655000D01*
D11*
X131112380Y-83148333D02*
X130636190Y-82815000D01*
X131112380Y-82576904D02*
X130112380Y-82576904D01*
X130112380Y-82957857D01*
X130160000Y-83053095D01*
X130207619Y-83100714D01*
X130302857Y-83148333D01*
X130445714Y-83148333D01*
X130540952Y-83100714D01*
X130588571Y-83053095D01*
X130636190Y-82957857D01*
X130636190Y-82576904D01*
X130207619Y-83529285D02*
X130160000Y-83576904D01*
X130112380Y-83672142D01*
X130112380Y-83910238D01*
X130160000Y-84005476D01*
X130207619Y-84053095D01*
X130302857Y-84100714D01*
X130398095Y-84100714D01*
X130540952Y-84053095D01*
X131112380Y-83481666D01*
X131112380Y-84100714D01*
X128882380Y-83148333D02*
X128406190Y-82815000D01*
X128882380Y-82576904D02*
X127882380Y-82576904D01*
X127882380Y-82957857D01*
X127930000Y-83053095D01*
X127977619Y-83100714D01*
X128072857Y-83148333D01*
X128215714Y-83148333D01*
X128310952Y-83100714D01*
X128358571Y-83053095D01*
X128406190Y-82957857D01*
X128406190Y-82576904D01*
X128882380Y-84100714D02*
X128882380Y-83529285D01*
X128882380Y-83815000D02*
X127882380Y-83815000D01*
X128025238Y-83719761D01*
X128120476Y-83624523D01*
X128168095Y-83529285D01*
X141205067Y-73111243D02*
X140497961Y-72404136D01*
X140329602Y-72572495D01*
X140262258Y-72707182D01*
X140262258Y-72841869D01*
X140295930Y-72942884D01*
X140396945Y-73111243D01*
X140497961Y-73212258D01*
X140666319Y-73313274D01*
X140767335Y-73346945D01*
X140902022Y-73346945D01*
X141036709Y-73279602D01*
X141205067Y-73111243D01*
X139891869Y-73144915D02*
X139824525Y-73144915D01*
X139723510Y-73178586D01*
X139555151Y-73346945D01*
X139521480Y-73447961D01*
X139521480Y-73515304D01*
X139555151Y-73616319D01*
X139622495Y-73683663D01*
X139757182Y-73751006D01*
X140565304Y-73751006D01*
X140127571Y-74188739D01*
X120800088Y-76393303D02*
X121507195Y-75686197D01*
X121338836Y-75517838D01*
X121204149Y-75450494D01*
X121069462Y-75450494D01*
X120968447Y-75484166D01*
X120800088Y-75585181D01*
X120699073Y-75686197D01*
X120598058Y-75854555D01*
X120564386Y-75955571D01*
X120564386Y-76090258D01*
X120631729Y-76224945D01*
X120800088Y-76393303D01*
X119722592Y-75315807D02*
X120126653Y-75719868D01*
X119924622Y-75517838D02*
X120631729Y-74810731D01*
X120598058Y-74979090D01*
X120598058Y-75113777D01*
X120631729Y-75214792D01*
X127763333Y-92932380D02*
X127763333Y-93646666D01*
X127810952Y-93789523D01*
X127906190Y-93884761D01*
X128049047Y-93932380D01*
X128144285Y-93932380D01*
X126763333Y-93932380D02*
X127334761Y-93932380D01*
X127049047Y-93932380D02*
X127049047Y-92932380D01*
X127144285Y-93075238D01*
X127239523Y-93170476D01*
X127334761Y-93218095D01*
%LPC*%
D12*
G36*
X124550000Y-72880000D02*
G01*
X125300000Y-75490000D01*
X124060000Y-77550000D01*
X122940000Y-76080000D01*
X123760000Y-75340000D01*
X123440000Y-73850000D01*
X122250000Y-72530000D01*
X120980000Y-72290000D01*
X119540000Y-73130000D01*
X119440000Y-73920000D01*
X119860000Y-75760000D01*
X120680000Y-76730000D01*
X122020000Y-76730000D01*
X122590000Y-76580000D01*
X122820000Y-76300000D01*
X123710000Y-77640000D01*
X122620000Y-78020000D01*
X121720000Y-78210000D01*
X120380000Y-77740000D01*
X118750000Y-76450000D01*
X118570000Y-74340000D01*
X118670000Y-72760000D01*
X119590000Y-72040000D01*
X120830000Y-71270000D01*
X122870000Y-71270000D01*
X124550000Y-72880000D01*
G37*
X124550000Y-72880000D02*
X125300000Y-75490000D01*
X124060000Y-77550000D01*
X122940000Y-76080000D01*
X123760000Y-75340000D01*
X123440000Y-73850000D01*
X122250000Y-72530000D01*
X120980000Y-72290000D01*
X119540000Y-73130000D01*
X119440000Y-73920000D01*
X119860000Y-75760000D01*
X120680000Y-76730000D01*
X122020000Y-76730000D01*
X122590000Y-76580000D01*
X122820000Y-76300000D01*
X123710000Y-77640000D01*
X122620000Y-78020000D01*
X121720000Y-78210000D01*
X120380000Y-77740000D01*
X118750000Y-76450000D01*
X118570000Y-74340000D01*
X118670000Y-72760000D01*
X119590000Y-72040000D01*
X120830000Y-71270000D01*
X122870000Y-71270000D01*
X124550000Y-72880000D01*
G36*
X143360000Y-71470000D02*
G01*
X144080000Y-72390000D01*
X144850000Y-73630000D01*
X144850000Y-75670000D01*
X143240000Y-77350000D01*
X140630000Y-78100000D01*
X138570000Y-76860000D01*
X140040000Y-75740000D01*
X140780000Y-76560000D01*
X142270000Y-76240000D01*
X143590000Y-75050000D01*
X143830000Y-73780000D01*
X142990000Y-72340000D01*
X142200000Y-72240000D01*
X140360000Y-72660000D01*
X139390000Y-73480000D01*
X139390000Y-74820000D01*
X139540000Y-75390000D01*
X139820000Y-75620000D01*
X138480000Y-76510000D01*
X138100000Y-75420000D01*
X137910000Y-74520000D01*
X138380000Y-73180000D01*
X139670000Y-71550000D01*
X141780000Y-71370000D01*
X143360000Y-71470000D01*
G37*
X143360000Y-71470000D02*
X144080000Y-72390000D01*
X144850000Y-73630000D01*
X144850000Y-75670000D01*
X143240000Y-77350000D01*
X140630000Y-78100000D01*
X138570000Y-76860000D01*
X140040000Y-75740000D01*
X140780000Y-76560000D01*
X142270000Y-76240000D01*
X143590000Y-75050000D01*
X143830000Y-73780000D01*
X142990000Y-72340000D01*
X142200000Y-72240000D01*
X140360000Y-72660000D01*
X139390000Y-73480000D01*
X139390000Y-74820000D01*
X139540000Y-75390000D01*
X139820000Y-75620000D01*
X138480000Y-76510000D01*
X138100000Y-75420000D01*
X137910000Y-74520000D01*
X138380000Y-73180000D01*
X139670000Y-71550000D01*
X141780000Y-71370000D01*
X143360000Y-71470000D01*
G36*
G01*
X131831738Y-83715000D02*
X132788262Y-83715000D01*
G75*
G02*
X133060000Y-83986738I0J-271738D01*
G01*
X133060000Y-84693262D01*
G75*
G02*
X132788262Y-84965000I-271738J0D01*
G01*
X131831738Y-84965000D01*
G75*
G02*
X131560000Y-84693262I0J271738D01*
G01*
X131560000Y-83986738D01*
G75*
G02*
X131831738Y-83715000I271738J0D01*
G01*
G37*
G36*
G01*
X131831738Y-81665000D02*
X132788262Y-81665000D01*
G75*
G02*
X133060000Y-81936738I0J-271738D01*
G01*
X133060000Y-82643262D01*
G75*
G02*
X132788262Y-82915000I-271738J0D01*
G01*
X131831738Y-82915000D01*
G75*
G02*
X131560000Y-82643262I0J271738D01*
G01*
X131560000Y-81936738D01*
G75*
G02*
X131831738Y-81665000I271738J0D01*
G01*
G37*
G36*
G01*
X129601738Y-83715000D02*
X130558262Y-83715000D01*
G75*
G02*
X130830000Y-83986738I0J-271738D01*
G01*
X130830000Y-84693262D01*
G75*
G02*
X130558262Y-84965000I-271738J0D01*
G01*
X129601738Y-84965000D01*
G75*
G02*
X129330000Y-84693262I0J271738D01*
G01*
X129330000Y-83986738D01*
G75*
G02*
X129601738Y-83715000I271738J0D01*
G01*
G37*
G36*
G01*
X129601738Y-81665000D02*
X130558262Y-81665000D01*
G75*
G02*
X130830000Y-81936738I0J-271738D01*
G01*
X130830000Y-82643262D01*
G75*
G02*
X130558262Y-82915000I-271738J0D01*
G01*
X129601738Y-82915000D01*
G75*
G02*
X129330000Y-82643262I0J271738D01*
G01*
X129330000Y-81936738D01*
G75*
G02*
X129601738Y-81665000I271738J0D01*
G01*
G37*
G36*
G01*
X140908975Y-74424660D02*
X141585340Y-75101024D01*
G75*
G02*
X141585340Y-75485320I-192148J-192148D01*
G01*
X141085752Y-75984908D01*
G75*
G02*
X140701456Y-75984908I-192148J192148D01*
G01*
X140025092Y-75308544D01*
G75*
G02*
X140025092Y-74924248I192148J192148D01*
G01*
X140524680Y-74424660D01*
G75*
G02*
X140908976Y-74424660I192148J-192148D01*
G01*
G37*
G36*
G01*
X142358543Y-72975092D02*
X143034908Y-73651456D01*
G75*
G02*
X143034908Y-74035752I-192148J-192148D01*
G01*
X142535320Y-74535340D01*
G75*
G02*
X142151024Y-74535340I-192148J192148D01*
G01*
X141474660Y-73858976D01*
G75*
G02*
X141474660Y-73474680I192148J192148D01*
G01*
X141974248Y-72975092D01*
G75*
G02*
X142358544Y-72975092I192148J-192148D01*
G01*
G37*
G36*
G01*
X121709444Y-75005809D02*
X122385808Y-74329444D01*
G75*
G02*
X122770104Y-74329444I192148J-192148D01*
G01*
X123269692Y-74829032D01*
G75*
G02*
X123269692Y-75213328I-192148J-192148D01*
G01*
X122593328Y-75889692D01*
G75*
G02*
X122209032Y-75889692I-192148J192148D01*
G01*
X121709444Y-75390104D01*
G75*
G02*
X121709444Y-75005808I192148J192148D01*
G01*
G37*
G36*
G01*
X120259876Y-73556241D02*
X120936240Y-72879876D01*
G75*
G02*
X121320536Y-72879876I192148J-192148D01*
G01*
X121820124Y-73379464D01*
G75*
G02*
X121820124Y-73763760I-192148J-192148D01*
G01*
X121143760Y-74440124D01*
G75*
G02*
X120759464Y-74440124I-192148J192148D01*
G01*
X120259876Y-73940536D01*
G75*
G02*
X120259876Y-73556240I192148J192148D01*
G01*
G37*
D13*
X132840000Y-91985000D03*
X130300000Y-91985000D03*
X132840000Y-94525000D03*
D14*
X130300000Y-94525000D03*
M02*
