G04 #@! TF.GenerationSoftware,KiCad,Pcbnew,5.1.6-c6e7f7d~87~ubuntu18.04.1*
G04 #@! TF.CreationDate,2020-07-20T20:37:32+02:00*
G04 #@! TF.ProjectId,cat-demo,6361742d-6465-46d6-9f2e-6b696361645f,rev?*
G04 #@! TF.SameCoordinates,Original*
G04 #@! TF.FileFunction,Copper,L1,Top*
G04 #@! TF.FilePolarity,Positive*
%FSLAX46Y46*%
G04 Gerber Fmt 4.6, Leading zero omitted, Abs format (unit mm)*
G04 Created by KiCad (PCBNEW 5.1.6-c6e7f7d~87~ubuntu18.04.1) date 2020-07-20 20:37:32*
%MOMM*%
%LPD*%
G01*
G04 APERTURE LIST*
G04 #@! TA.AperFunction,ComponentPad*
%ADD10O,1.700000X1.700000*%
G04 #@! TD*
G04 #@! TA.AperFunction,ComponentPad*
%ADD11R,1.700000X1.700000*%
G04 #@! TD*
G04 #@! TA.AperFunction,NonConductor*
%ADD12C,0.254000*%
G04 #@! TD*
G04 APERTURE END LIST*
D10*
X132840000Y-91985000D03*
X130300000Y-91985000D03*
X132840000Y-94525000D03*
D11*
X130300000Y-94525000D03*
D12*
G36*
X131893368Y-95678475D02*
G01*
X132136589Y-95840990D01*
X132248599Y-95887386D01*
X132037324Y-95928411D01*
X131654425Y-95865004D01*
X131654282Y-95864994D01*
X131651825Y-95864579D01*
X131570456Y-95851404D01*
X131601185Y-95826185D01*
X131680537Y-95729494D01*
X131739502Y-95619180D01*
X131761513Y-95546620D01*
X131893368Y-95678475D01*
G37*
X131893368Y-95678475D02*
X132136589Y-95840990D01*
X132248599Y-95887386D01*
X132037324Y-95928411D01*
X131654425Y-95865004D01*
X131654282Y-95864994D01*
X131651825Y-95864579D01*
X131570456Y-95851404D01*
X131601185Y-95826185D01*
X131680537Y-95729494D01*
X131739502Y-95619180D01*
X131761513Y-95546620D01*
X131893368Y-95678475D01*
G36*
X154152202Y-41362534D02*
G01*
X154160768Y-41368186D01*
X154407550Y-41528530D01*
X154422181Y-41536119D01*
X154435505Y-41545817D01*
X154444387Y-41550956D01*
X154708183Y-41701124D01*
X154964225Y-41848284D01*
X155194011Y-41999121D01*
X155402281Y-42169384D01*
X155606568Y-42388825D01*
X155692606Y-42504629D01*
X155784871Y-42650548D01*
X155875231Y-42819713D01*
X155962893Y-43015607D01*
X156046665Y-43241328D01*
X156125189Y-43499777D01*
X156196965Y-43793405D01*
X156260531Y-44124576D01*
X156314444Y-44495369D01*
X156357339Y-44907734D01*
X156387948Y-45363717D01*
X156405054Y-45865158D01*
X156407518Y-46414019D01*
X156394251Y-47012137D01*
X156364205Y-47661479D01*
X156316363Y-48364055D01*
X156249737Y-49121844D01*
X156162743Y-49942645D01*
X156162559Y-49966109D01*
X156159293Y-49989348D01*
X156158935Y-49999604D01*
X156148631Y-50368726D01*
X156136968Y-50737946D01*
X156123826Y-51108648D01*
X156109140Y-51480414D01*
X156092798Y-51854045D01*
X156074744Y-52229009D01*
X156054874Y-52605809D01*
X156033112Y-52984447D01*
X156009371Y-53365007D01*
X155983580Y-53747406D01*
X155955634Y-54132041D01*
X155925465Y-54518792D01*
X155893007Y-54907538D01*
X155858118Y-55299043D01*
X155820789Y-55692572D01*
X155780879Y-56088832D01*
X155738317Y-56487749D01*
X155693032Y-56889289D01*
X155644935Y-57293609D01*
X155593949Y-57700743D01*
X155539961Y-58110984D01*
X155482921Y-58524174D01*
X155422717Y-58940601D01*
X155359274Y-59360274D01*
X155292537Y-59783101D01*
X155222356Y-60209581D01*
X155148718Y-60639366D01*
X155071470Y-61072934D01*
X154990571Y-61510127D01*
X154905956Y-61950937D01*
X154817488Y-62395725D01*
X154727656Y-62832058D01*
X154682624Y-63012398D01*
X154632405Y-63200389D01*
X154579355Y-63388722D01*
X154523951Y-63577715D01*
X154466681Y-63767713D01*
X154407847Y-63959753D01*
X154348580Y-64152228D01*
X154348566Y-64152297D01*
X154348217Y-64153409D01*
X154288927Y-64347117D01*
X154288895Y-64347273D01*
X154287906Y-64350481D01*
X154229432Y-64544839D01*
X154229396Y-64545019D01*
X154227792Y-64550367D01*
X154170663Y-64745799D01*
X154170637Y-64745935D01*
X154168468Y-64753462D01*
X154113212Y-64950392D01*
X154113208Y-64950413D01*
X154110546Y-64960152D01*
X154057693Y-65159002D01*
X154057537Y-65159954D01*
X154057203Y-65160856D01*
X154054662Y-65170799D01*
X154004740Y-65371994D01*
X154004457Y-65373923D01*
X154003815Y-65375764D01*
X154001466Y-65385754D01*
X153955005Y-65589716D01*
X153954643Y-65592566D01*
X153953756Y-65595299D01*
X153951625Y-65605337D01*
X153909153Y-65812489D01*
X153908764Y-65816196D01*
X153907700Y-65819764D01*
X153905810Y-65829850D01*
X153867855Y-66040617D01*
X153867493Y-66045107D01*
X153866321Y-66049448D01*
X153864696Y-66059580D01*
X153831789Y-66274383D01*
X153831508Y-66279559D01*
X153830298Y-66284596D01*
X153828957Y-66294770D01*
X153801626Y-66514035D01*
X153801474Y-66519802D01*
X153800295Y-66525443D01*
X153799256Y-66535652D01*
X153778029Y-66759800D01*
X153778050Y-66766051D01*
X153776960Y-66772207D01*
X153776237Y-66782444D01*
X153761644Y-67011899D01*
X153761871Y-67018530D01*
X153760925Y-67025087D01*
X153760529Y-67035342D01*
X153753099Y-67270525D01*
X153753555Y-67277407D01*
X153752793Y-67284267D01*
X153752732Y-67294529D01*
X153752993Y-67535867D01*
X153753691Y-67542905D01*
X153753144Y-67549946D01*
X153753423Y-67560204D01*
X153761905Y-67808118D01*
X153762843Y-67815188D01*
X153762528Y-67822312D01*
X153763148Y-67832555D01*
X153780379Y-68087471D01*
X153781548Y-68094482D01*
X153781470Y-68101582D01*
X153782430Y-68111799D01*
X153808940Y-68374136D01*
X153810318Y-68380989D01*
X153810471Y-68387970D01*
X153811767Y-68398150D01*
X153848083Y-68668335D01*
X153849642Y-68674953D01*
X153850011Y-68681741D01*
X153851636Y-68691874D01*
X153898289Y-68970327D01*
X153899995Y-68976643D01*
X153900556Y-68983156D01*
X153902501Y-68993232D01*
X153960018Y-69280378D01*
X153961832Y-69286338D01*
X153962558Y-69292526D01*
X153964813Y-69302538D01*
X154033724Y-69598800D01*
X154035607Y-69604365D01*
X154036466Y-69610178D01*
X154039019Y-69620117D01*
X154119853Y-69925919D01*
X154121768Y-69931068D01*
X154122726Y-69936466D01*
X154125564Y-69946328D01*
X154218850Y-70262092D01*
X154220757Y-70266797D01*
X154221781Y-70271767D01*
X154224892Y-70281546D01*
X154310601Y-70544602D01*
X154349383Y-70830358D01*
X154393060Y-71177900D01*
X154433092Y-71524584D01*
X154469496Y-71870896D01*
X154502200Y-72216579D01*
X154531153Y-72561510D01*
X154556338Y-72905952D01*
X154577695Y-73249694D01*
X154595192Y-73592808D01*
X154608790Y-73935432D01*
X154618436Y-74277204D01*
X154624099Y-74618478D01*
X154625734Y-74959163D01*
X154623300Y-75299086D01*
X154616756Y-75638332D01*
X154606056Y-75977076D01*
X154591167Y-76315057D01*
X154572038Y-76652467D01*
X154548638Y-76989131D01*
X154520913Y-77325224D01*
X154488840Y-77660526D01*
X154452342Y-77995375D01*
X154411424Y-78329362D01*
X154366004Y-78662806D01*
X154316057Y-78995570D01*
X154261527Y-79327739D01*
X154202401Y-79659122D01*
X154138599Y-79989948D01*
X154070101Y-80320080D01*
X153996854Y-80649568D01*
X153918812Y-80978413D01*
X153834640Y-81311734D01*
X153834049Y-81315655D01*
X153832749Y-81319397D01*
X153830412Y-81329390D01*
X153771539Y-81589423D01*
X153711696Y-81846513D01*
X153650141Y-82101988D01*
X153586371Y-82356115D01*
X153520007Y-82608681D01*
X153450634Y-82859640D01*
X153377816Y-83109048D01*
X153301143Y-83356871D01*
X153220230Y-83603018D01*
X153134634Y-83847592D01*
X153043977Y-84090504D01*
X152947806Y-84331874D01*
X152845721Y-84571682D01*
X152737306Y-84809947D01*
X152622132Y-85046708D01*
X152499738Y-85282059D01*
X152369680Y-85516040D01*
X152231497Y-85748709D01*
X152084719Y-85980123D01*
X151928852Y-86210353D01*
X151763402Y-86439449D01*
X151587825Y-86667507D01*
X151401660Y-86894496D01*
X151204306Y-87120541D01*
X150995312Y-87345565D01*
X150774040Y-87569687D01*
X150540024Y-87792826D01*
X150292668Y-88015018D01*
X150031463Y-88236207D01*
X149755905Y-88456325D01*
X149465390Y-88675383D01*
X149191267Y-88870615D01*
X148530661Y-89219768D01*
X147838562Y-89581378D01*
X147156894Y-89933288D01*
X146485241Y-90275713D01*
X145824094Y-90608406D01*
X145173204Y-90931496D01*
X144532759Y-91244892D01*
X143902404Y-91548772D01*
X143282601Y-91842916D01*
X142672966Y-92127509D01*
X142073701Y-92402461D01*
X141484808Y-92667773D01*
X140906331Y-92923432D01*
X140338232Y-93169462D01*
X139780586Y-93405835D01*
X139233212Y-93632632D01*
X138696570Y-93849674D01*
X138170108Y-94057191D01*
X137654237Y-94255027D01*
X137148838Y-94443241D01*
X136653943Y-94621828D01*
X136169628Y-94790776D01*
X135695885Y-94950100D01*
X135232737Y-95099808D01*
X134780237Y-95239900D01*
X134338490Y-95370362D01*
X133997193Y-95466068D01*
X134155990Y-95228411D01*
X134267932Y-94958158D01*
X134325000Y-94671260D01*
X134325000Y-94378740D01*
X134267932Y-94091842D01*
X134155990Y-93821589D01*
X133993475Y-93578368D01*
X133786632Y-93371525D01*
X133612240Y-93255000D01*
X133786632Y-93138475D01*
X133993475Y-92931632D01*
X134155990Y-92688411D01*
X134267932Y-92418158D01*
X134325000Y-92131260D01*
X134325000Y-91838740D01*
X134267932Y-91551842D01*
X134155990Y-91281589D01*
X133993475Y-91038368D01*
X133786632Y-90831525D01*
X133543411Y-90669010D01*
X133273158Y-90557068D01*
X132986260Y-90500000D01*
X132693740Y-90500000D01*
X132406842Y-90557068D01*
X132136589Y-90669010D01*
X131893368Y-90831525D01*
X131686525Y-91038368D01*
X131570000Y-91212760D01*
X131453475Y-91038368D01*
X131246632Y-90831525D01*
X131003411Y-90669010D01*
X130733158Y-90557068D01*
X130446260Y-90500000D01*
X130153740Y-90500000D01*
X129866842Y-90557068D01*
X129596589Y-90669010D01*
X129353368Y-90831525D01*
X129146525Y-91038368D01*
X128984010Y-91281589D01*
X128872068Y-91551842D01*
X128815000Y-91838740D01*
X128815000Y-92131260D01*
X128872068Y-92418158D01*
X128984010Y-92688411D01*
X129146525Y-92931632D01*
X129278380Y-93063487D01*
X129205820Y-93085498D01*
X129095506Y-93144463D01*
X128998815Y-93223815D01*
X128919463Y-93320506D01*
X128860498Y-93430820D01*
X128824188Y-93550518D01*
X128811928Y-93675000D01*
X128811928Y-95375000D01*
X128815692Y-95413217D01*
X128571593Y-95374096D01*
X128061101Y-95290741D01*
X127551112Y-95205360D01*
X127041774Y-95117416D01*
X126533369Y-95026398D01*
X126025721Y-94931721D01*
X125518715Y-94832805D01*
X125012431Y-94729115D01*
X124506991Y-94620127D01*
X124002221Y-94505256D01*
X123498101Y-94383952D01*
X122994601Y-94255661D01*
X122491759Y-94119853D01*
X121989511Y-93975966D01*
X121487883Y-93823471D01*
X120986668Y-93661762D01*
X120486058Y-93490361D01*
X119985759Y-93308629D01*
X119485910Y-93116074D01*
X118986396Y-92912113D01*
X118487166Y-92696181D01*
X117988129Y-92467694D01*
X117489279Y-92226103D01*
X116990547Y-91970827D01*
X116491835Y-91701261D01*
X116000459Y-91421024D01*
X115720595Y-91243905D01*
X115428380Y-91057479D01*
X115137819Y-90870007D01*
X114849194Y-90681071D01*
X114562460Y-90490047D01*
X114278137Y-90296691D01*
X113996038Y-90100284D01*
X113716549Y-89900508D01*
X113439821Y-89696881D01*
X113165989Y-89488917D01*
X112895187Y-89276130D01*
X112627607Y-89058078D01*
X112363405Y-88834297D01*
X112102707Y-88604294D01*
X111845649Y-88367586D01*
X111592352Y-88123670D01*
X111342960Y-87872065D01*
X111097576Y-87612239D01*
X110856363Y-87343713D01*
X110619443Y-87065968D01*
X110386901Y-86778413D01*
X110158942Y-86480605D01*
X109935623Y-86171891D01*
X109717158Y-85851810D01*
X109503629Y-85519711D01*
X109295268Y-85175136D01*
X109092217Y-84817487D01*
X108894638Y-84446174D01*
X108702729Y-84060649D01*
X108516689Y-83660363D01*
X108336737Y-83244789D01*
X108182852Y-82862492D01*
X108096167Y-82462442D01*
X108015971Y-82024163D01*
X107951791Y-81595955D01*
X107902497Y-81176816D01*
X107866975Y-80765623D01*
X107844148Y-80361397D01*
X107832963Y-79963099D01*
X107832379Y-79569667D01*
X107841380Y-79180078D01*
X107858947Y-78793470D01*
X107884078Y-78408739D01*
X107915747Y-78025130D01*
X107952939Y-77641565D01*
X107994583Y-77257478D01*
X108039667Y-76871585D01*
X108087057Y-76483476D01*
X108135605Y-76092675D01*
X108135606Y-76092628D01*
X108135696Y-76091939D01*
X108184154Y-75698622D01*
X108184158Y-75698479D01*
X108184514Y-75695655D01*
X108231643Y-75299874D01*
X108231647Y-75299684D01*
X108232237Y-75294727D01*
X108276904Y-74895685D01*
X108276906Y-74895525D01*
X108277680Y-74888426D01*
X108318751Y-74485334D01*
X108318751Y-74485265D01*
X108319638Y-74476050D01*
X108322490Y-74444032D01*
X117823064Y-74444032D01*
X117826290Y-74468718D01*
X117840346Y-74529264D01*
X118086290Y-75588718D01*
X118093668Y-75610949D01*
X118693668Y-76980949D01*
X118701456Y-76995934D01*
X118716405Y-77015843D01*
X118734950Y-77032453D01*
X118756380Y-77045126D01*
X119476025Y-77380303D01*
X120626691Y-78193705D01*
X120651399Y-78207333D01*
X120675224Y-78214560D01*
X120700000Y-78217000D01*
X122020000Y-78217000D01*
X122050049Y-78213394D01*
X123980049Y-77743394D01*
X124004247Y-77734832D01*
X124025607Y-77722042D01*
X124044062Y-77705331D01*
X124058902Y-77685341D01*
X124958902Y-76185341D01*
X124969788Y-76162189D01*
X125529788Y-74572189D01*
X125533547Y-74559412D01*
X125536911Y-74534744D01*
X125537314Y-74523938D01*
X137583145Y-74523938D01*
X137584400Y-74548802D01*
X137834400Y-76218802D01*
X137841728Y-76246268D01*
X137853027Y-76268453D01*
X137868437Y-76288007D01*
X138858437Y-77318007D01*
X138879536Y-77335659D01*
X138901503Y-77347376D01*
X140571503Y-78037376D01*
X140602386Y-78045773D01*
X140627261Y-78046792D01*
X142897261Y-77916792D01*
X142930257Y-77910451D01*
X142952982Y-77900283D01*
X142973287Y-77885877D01*
X144953287Y-76165877D01*
X144962844Y-76156654D01*
X144977965Y-76136876D01*
X144988938Y-76114528D01*
X144995340Y-76090469D01*
X144996925Y-76065623D01*
X144946925Y-74615623D01*
X144946273Y-74606433D01*
X144816273Y-73396433D01*
X144810159Y-73368881D01*
X144799828Y-73346229D01*
X144079828Y-72106229D01*
X144069054Y-72090519D01*
X144051645Y-72072721D01*
X142931645Y-71132721D01*
X142911181Y-71118708D01*
X142888294Y-71108911D01*
X142863935Y-71103767D01*
X141323935Y-70933767D01*
X141310000Y-70933000D01*
X141285224Y-70935440D01*
X141261399Y-70942667D01*
X141239443Y-70954403D01*
X141220197Y-70970197D01*
X141204403Y-70989443D01*
X141192667Y-71011399D01*
X141185440Y-71035224D01*
X141183000Y-71060000D01*
X141183000Y-71070751D01*
X141161592Y-71064849D01*
X141136762Y-71063041D01*
X141112055Y-71066113D01*
X139782055Y-71366113D01*
X139768972Y-71369810D01*
X139746312Y-71380123D01*
X139726100Y-71394659D01*
X138226100Y-72714659D01*
X138215222Y-72725465D01*
X138200551Y-72745580D01*
X138190087Y-72768170D01*
X137755033Y-74015323D01*
X137590087Y-74488170D01*
X137583145Y-74523938D01*
X125537314Y-74523938D01*
X125576911Y-73464744D01*
X125573555Y-73430622D01*
X125565450Y-73407082D01*
X125552908Y-73385576D01*
X124742908Y-72265576D01*
X124726758Y-72247253D01*
X124706997Y-72232109D01*
X123466997Y-71462109D01*
X123438136Y-71448861D01*
X122358136Y-71108861D01*
X122344776Y-71105440D01*
X122320000Y-71103000D01*
X121500000Y-71103000D01*
X121474186Y-71105651D01*
X121450423Y-71113076D01*
X121428565Y-71124995D01*
X121409452Y-71140949D01*
X121393819Y-71160325D01*
X121387213Y-71172936D01*
X121376000Y-71084097D01*
X121370977Y-71061354D01*
X121361113Y-71038495D01*
X121346979Y-71018000D01*
X121329118Y-71000656D01*
X121308217Y-70987129D01*
X121285079Y-70977941D01*
X121260592Y-70973442D01*
X121235698Y-70973808D01*
X119735698Y-71143808D01*
X119703451Y-71151838D01*
X119681294Y-71163190D01*
X119661776Y-71178646D01*
X119645649Y-71197613D01*
X119633532Y-71219362D01*
X119347615Y-71876970D01*
X118476400Y-72496501D01*
X118460842Y-72509558D01*
X118444911Y-72528689D01*
X118064911Y-73088689D01*
X118051437Y-73114482D01*
X118044835Y-73138487D01*
X117824835Y-74418487D01*
X117823064Y-74444032D01*
X108322490Y-74444032D01*
X108355979Y-74068114D01*
X108355975Y-74067620D01*
X108356064Y-74067143D01*
X108356890Y-74056914D01*
X108387368Y-73643342D01*
X108387334Y-73641956D01*
X108387565Y-73640593D01*
X108388210Y-73630351D01*
X108411691Y-73210351D01*
X108411599Y-73208147D01*
X108411923Y-73205966D01*
X108412363Y-73195713D01*
X108427712Y-72768491D01*
X108427530Y-72765555D01*
X108427899Y-72762637D01*
X108428114Y-72752377D01*
X108434199Y-72317142D01*
X108433898Y-72313561D01*
X108434264Y-72309989D01*
X108434236Y-72299727D01*
X108429922Y-71855687D01*
X108429477Y-71851561D01*
X108429795Y-71847427D01*
X108429509Y-71837169D01*
X108413663Y-71383529D01*
X108413053Y-71378959D01*
X108413285Y-71374358D01*
X108412727Y-71364111D01*
X108384215Y-70900081D01*
X108383427Y-70895171D01*
X108383541Y-70890201D01*
X108382703Y-70879973D01*
X108340391Y-70404759D01*
X108339419Y-70399607D01*
X108339391Y-70394373D01*
X108338265Y-70384173D01*
X108281021Y-69896984D01*
X108279868Y-69891694D01*
X108279684Y-69886282D01*
X108278266Y-69876118D01*
X108204954Y-69376160D01*
X108201879Y-69363772D01*
X108200827Y-69351050D01*
X108198917Y-69340967D01*
X108096241Y-68818874D01*
X107997570Y-68299568D01*
X107901878Y-67779890D01*
X107808888Y-67260563D01*
X107718064Y-66740898D01*
X107628968Y-66220754D01*
X107541258Y-65700551D01*
X107454402Y-65179601D01*
X107368123Y-64658757D01*
X107368123Y-64658756D01*
X107281892Y-64137367D01*
X107281887Y-64137350D01*
X107281830Y-64136988D01*
X107195280Y-63615362D01*
X107195265Y-63615304D01*
X107195122Y-63614414D01*
X107107851Y-63092668D01*
X107107828Y-63092583D01*
X107107596Y-63091152D01*
X107019170Y-62569213D01*
X107019139Y-62569101D01*
X107018815Y-62567136D01*
X106928803Y-62044932D01*
X106928766Y-62044796D01*
X106928343Y-62042294D01*
X106836312Y-61519756D01*
X106836270Y-61519607D01*
X106835743Y-61516565D01*
X106741260Y-60993617D01*
X106741212Y-60993448D01*
X106740574Y-60989879D01*
X106643207Y-60466450D01*
X106643158Y-60466282D01*
X106642399Y-60462173D01*
X106541715Y-59938191D01*
X106541662Y-59938011D01*
X106540775Y-59933385D01*
X106436342Y-59408779D01*
X106436287Y-59408597D01*
X106435261Y-59403453D01*
X106326646Y-58878151D01*
X106326592Y-58877976D01*
X106325416Y-58872319D01*
X106212185Y-58346247D01*
X106212133Y-58346085D01*
X106210795Y-58339924D01*
X106092518Y-57813010D01*
X106092466Y-57812854D01*
X106090958Y-57806209D01*
X105967202Y-57278383D01*
X105967153Y-57278240D01*
X105965461Y-57271123D01*
X105835793Y-56742312D01*
X105835746Y-56742177D01*
X105833860Y-56734609D01*
X105697847Y-56204740D01*
X105697806Y-56204628D01*
X105695712Y-56196615D01*
X105552921Y-55665617D01*
X105552884Y-55665519D01*
X105550574Y-55657095D01*
X105400574Y-55124896D01*
X105400547Y-55124826D01*
X105398005Y-55115997D01*
X105240363Y-54582524D01*
X105240345Y-54582480D01*
X105237563Y-54573272D01*
X105071845Y-54038454D01*
X105071834Y-54038429D01*
X105068806Y-54028878D01*
X104894581Y-53492643D01*
X104894551Y-53492574D01*
X104894536Y-53492506D01*
X104891295Y-53482769D01*
X104708130Y-52945044D01*
X104708030Y-52944823D01*
X104707975Y-52944591D01*
X104704593Y-52934902D01*
X104550349Y-52502871D01*
X104542317Y-52276496D01*
X104542292Y-52276313D01*
X104542104Y-52271061D01*
X104527366Y-51927457D01*
X104527343Y-51927296D01*
X104527212Y-51924062D01*
X104510734Y-51577342D01*
X104510722Y-51577259D01*
X104510665Y-51575922D01*
X104493375Y-51226379D01*
X104476292Y-50876115D01*
X104460314Y-50525025D01*
X104446375Y-50174019D01*
X104435352Y-49823094D01*
X104428128Y-49472709D01*
X104425566Y-49123195D01*
X104428512Y-48774673D01*
X104437803Y-48427569D01*
X104454255Y-48082218D01*
X104478675Y-47738840D01*
X104511855Y-47397706D01*
X104554575Y-47059095D01*
X104607587Y-46723318D01*
X104671672Y-46390476D01*
X104747572Y-46060828D01*
X104836057Y-45734494D01*
X104937925Y-45411505D01*
X105053944Y-45092026D01*
X105184977Y-44776005D01*
X105331901Y-44463437D01*
X105495643Y-44154297D01*
X105677195Y-43848533D01*
X105877590Y-43546123D01*
X106097926Y-43247038D01*
X106339359Y-42951280D01*
X106603051Y-42658924D01*
X106890210Y-42370076D01*
X106980097Y-42287873D01*
X107025159Y-42291272D01*
X107353479Y-42333780D01*
X107668299Y-42392125D01*
X107970629Y-42465577D01*
X108261488Y-42553492D01*
X108541839Y-42655296D01*
X108812725Y-42770538D01*
X109074944Y-42898750D01*
X109329366Y-43039568D01*
X109576702Y-43192604D01*
X109817631Y-43357499D01*
X110052692Y-43533822D01*
X110282411Y-43721142D01*
X110507249Y-43918971D01*
X110727682Y-44126826D01*
X110944055Y-44344074D01*
X111156838Y-44570174D01*
X111366393Y-44804444D01*
X111573168Y-45046260D01*
X111777540Y-45294882D01*
X111979961Y-45549626D01*
X112180876Y-45809761D01*
X112380763Y-46074578D01*
X112580157Y-46343407D01*
X112779366Y-46615248D01*
X112979282Y-46889871D01*
X112979289Y-46889878D01*
X113179476Y-47165202D01*
X113179528Y-47165260D01*
X113180352Y-47166406D01*
X113381222Y-47441494D01*
X113381328Y-47441612D01*
X113383230Y-47444231D01*
X113585073Y-47717989D01*
X113585195Y-47718125D01*
X113588247Y-47722262D01*
X113791613Y-47993943D01*
X113791716Y-47994056D01*
X113796000Y-47999745D01*
X114001436Y-48268604D01*
X114001483Y-48268655D01*
X114007104Y-48275926D01*
X114142860Y-48449030D01*
X114214268Y-48645303D01*
X114218002Y-48653100D01*
X114220345Y-48661415D01*
X114224145Y-48670948D01*
X114345761Y-48969933D01*
X114349718Y-48977459D01*
X114352324Y-48985549D01*
X114356474Y-48994935D01*
X114487956Y-49286744D01*
X114492094Y-49293953D01*
X114494928Y-49301763D01*
X114499418Y-49310991D01*
X114640480Y-49595833D01*
X114644748Y-49602678D01*
X114647769Y-49610155D01*
X114652587Y-49619216D01*
X114802938Y-49897301D01*
X114807293Y-49903758D01*
X114810457Y-49910862D01*
X114815589Y-49919749D01*
X114974945Y-50191285D01*
X114979329Y-50197317D01*
X114982593Y-50204020D01*
X114988026Y-50212726D01*
X115156100Y-50477923D01*
X115160465Y-50483516D01*
X115163779Y-50489785D01*
X115169497Y-50498306D01*
X115346001Y-50757373D01*
X115350298Y-50762518D01*
X115353615Y-50768332D01*
X115359604Y-50776665D01*
X115544249Y-51029812D01*
X115548432Y-51034506D01*
X115551711Y-51039860D01*
X115557955Y-51048004D01*
X115750456Y-51295436D01*
X115754475Y-51299674D01*
X115757672Y-51304561D01*
X115764157Y-51312515D01*
X115964225Y-51554445D01*
X115968049Y-51558243D01*
X115971124Y-51562664D01*
X115977833Y-51570430D01*
X116185181Y-51807064D01*
X116188769Y-51810430D01*
X116191685Y-51814387D01*
X116198603Y-51821967D01*
X116412944Y-52053517D01*
X116416268Y-52056469D01*
X116418999Y-52059980D01*
X116426112Y-52067377D01*
X116647158Y-52294049D01*
X116650193Y-52296606D01*
X116652704Y-52299675D01*
X116659998Y-52306894D01*
X116887462Y-52528899D01*
X116890185Y-52531081D01*
X116892455Y-52533726D01*
X116899916Y-52540773D01*
X117133511Y-52758320D01*
X117135905Y-52760147D01*
X117137916Y-52762389D01*
X117145531Y-52769268D01*
X117384969Y-52982565D01*
X117387021Y-52984061D01*
X117388752Y-52985911D01*
X117396509Y-52992631D01*
X117641503Y-53201887D01*
X117643202Y-53203072D01*
X117644643Y-53204553D01*
X117652529Y-53211120D01*
X117902792Y-53416545D01*
X117904134Y-53417443D01*
X117905274Y-53418572D01*
X117913279Y-53424993D01*
X118168524Y-53626795D01*
X118169497Y-53627420D01*
X118170330Y-53628218D01*
X118178444Y-53634501D01*
X118438382Y-53832889D01*
X118438989Y-53833264D01*
X118439509Y-53833747D01*
X118447721Y-53839900D01*
X118712065Y-54035083D01*
X118712305Y-54035226D01*
X118712508Y-54035409D01*
X118720810Y-54041441D01*
X118989274Y-54233629D01*
X118989296Y-54233642D01*
X118997416Y-54239375D01*
X119269711Y-54428775D01*
X119269784Y-54428816D01*
X119277242Y-54433943D01*
X119553081Y-54620766D01*
X119553188Y-54620824D01*
X119559998Y-54625394D01*
X119839095Y-54809848D01*
X119839228Y-54809918D01*
X119845397Y-54813967D01*
X120127464Y-54996261D01*
X120127618Y-54996340D01*
X120133148Y-54999897D01*
X120417896Y-55180240D01*
X120418060Y-55180323D01*
X120422966Y-55183422D01*
X120710111Y-55362023D01*
X120710277Y-55362105D01*
X120714563Y-55364770D01*
X121003815Y-55541839D01*
X121003978Y-55541918D01*
X121007657Y-55544175D01*
X121298729Y-55719919D01*
X121298881Y-55719992D01*
X121301959Y-55721858D01*
X121594565Y-55896488D01*
X121639717Y-55917763D01*
X121683506Y-55941683D01*
X121704454Y-55948266D01*
X121724329Y-55957631D01*
X121772753Y-55969730D01*
X121820355Y-55984690D01*
X121842189Y-55987080D01*
X121863498Y-55992404D01*
X121913343Y-55994868D01*
X121962950Y-56000297D01*
X121984829Y-55998401D01*
X122006769Y-55999485D01*
X122056143Y-55992219D01*
X122105861Y-55987910D01*
X122115937Y-55985960D01*
X122569649Y-55894855D01*
X123023095Y-55811577D01*
X123482438Y-55734834D01*
X123947659Y-55664575D01*
X124418585Y-55600774D01*
X124895168Y-55543379D01*
X125377572Y-55492322D01*
X125865458Y-55447581D01*
X126358961Y-55409091D01*
X126857963Y-55376810D01*
X127362340Y-55350688D01*
X127872171Y-55330671D01*
X128387303Y-55316709D01*
X128907704Y-55308749D01*
X129433443Y-55306740D01*
X129964155Y-55310628D01*
X130500098Y-55320360D01*
X131041175Y-55335885D01*
X131587013Y-55357139D01*
X132137963Y-55384079D01*
X132693773Y-55416643D01*
X133254417Y-55454777D01*
X133819847Y-55498426D01*
X134389904Y-55547523D01*
X134964772Y-55602035D01*
X135544120Y-55661879D01*
X136128036Y-55727008D01*
X136716448Y-55797366D01*
X137309379Y-55872904D01*
X137906575Y-55953539D01*
X138508201Y-56039241D01*
X139116569Y-56130308D01*
X139170940Y-56133075D01*
X139225102Y-56138406D01*
X139242431Y-56136714D01*
X139259830Y-56137599D01*
X139313712Y-56129752D01*
X139367869Y-56124462D01*
X139384539Y-56119436D01*
X139401780Y-56116925D01*
X139453104Y-56098764D01*
X139505209Y-56083054D01*
X139514671Y-56079081D01*
X139779632Y-55965637D01*
X139791060Y-55959360D01*
X139803335Y-55954988D01*
X139812590Y-55950554D01*
X140074028Y-55823018D01*
X140084256Y-55816725D01*
X140095366Y-55812175D01*
X140104405Y-55807315D01*
X140362452Y-55666214D01*
X140371508Y-55660043D01*
X140381457Y-55655452D01*
X140390275Y-55650201D01*
X140645063Y-55496062D01*
X140653004Y-55490128D01*
X140661827Y-55485610D01*
X140670423Y-55480004D01*
X140922082Y-55313354D01*
X140928979Y-55307747D01*
X140936723Y-55303402D01*
X140945100Y-55297473D01*
X141193763Y-55118838D01*
X141199687Y-55113635D01*
X141206419Y-55109539D01*
X141214581Y-55103318D01*
X141460379Y-54913227D01*
X141465415Y-54908478D01*
X141471203Y-54904692D01*
X141479157Y-54898208D01*
X141722223Y-54697187D01*
X141726453Y-54692929D01*
X141731368Y-54689497D01*
X141739122Y-54682775D01*
X141979588Y-54471350D01*
X141983086Y-54467609D01*
X141987205Y-54464559D01*
X141994769Y-54457623D01*
X142232765Y-54236321D01*
X142235610Y-54233103D01*
X142238990Y-54230464D01*
X142246374Y-54223338D01*
X142482032Y-53992688D01*
X142484288Y-53990001D01*
X142487001Y-53987778D01*
X142494215Y-53980480D01*
X142727669Y-53741008D01*
X142729402Y-53738843D01*
X142731500Y-53737047D01*
X142738557Y-53729596D01*
X142969937Y-53481830D01*
X142971197Y-53480184D01*
X142972745Y-53478806D01*
X142979654Y-53471218D01*
X143209091Y-53215682D01*
X143209929Y-53214542D01*
X143210966Y-53213585D01*
X143217740Y-53205875D01*
X143445366Y-52943099D01*
X143445826Y-52942449D01*
X143446396Y-52941906D01*
X143453045Y-52934089D01*
X143678993Y-52664599D01*
X143679109Y-52664429D01*
X143679256Y-52664285D01*
X143685790Y-52656371D01*
X143910191Y-52380694D01*
X143910225Y-52380643D01*
X143916179Y-52373239D01*
X144139165Y-52091902D01*
X144139227Y-52091806D01*
X144144413Y-52085201D01*
X144366115Y-51798731D01*
X144366197Y-51798601D01*
X144370678Y-51792772D01*
X144591229Y-51501696D01*
X144591319Y-51501549D01*
X144595160Y-51496461D01*
X144814691Y-51201305D01*
X144814788Y-51201145D01*
X144818030Y-51196780D01*
X145036672Y-50898074D01*
X145036765Y-50897917D01*
X145039456Y-50894245D01*
X145257342Y-50592514D01*
X145257430Y-50592364D01*
X145259600Y-50589369D01*
X145476862Y-50285140D01*
X145476940Y-50285005D01*
X145478616Y-50282672D01*
X145695385Y-49976472D01*
X145695446Y-49976366D01*
X145696657Y-49974669D01*
X145913066Y-49667025D01*
X145913109Y-49666949D01*
X145913867Y-49665883D01*
X146130045Y-49357323D01*
X146130064Y-49357289D01*
X146130385Y-49356837D01*
X146346465Y-49047886D01*
X146562000Y-48739903D01*
X146777693Y-48432590D01*
X146992838Y-48127665D01*
X147203219Y-47831747D01*
X147382759Y-47593631D01*
X147384506Y-47590771D01*
X147386751Y-47588286D01*
X147392797Y-47579994D01*
X147572395Y-47330025D01*
X147573414Y-47328267D01*
X147574744Y-47326736D01*
X147580628Y-47318327D01*
X147755048Y-47065314D01*
X147755386Y-47064704D01*
X147755831Y-47064175D01*
X147761581Y-47055674D01*
X147931798Y-46800188D01*
X147931839Y-46800112D01*
X147936715Y-46792710D01*
X148103707Y-46535327D01*
X148103790Y-46535167D01*
X148107089Y-46530065D01*
X148271829Y-46271357D01*
X148271902Y-46271214D01*
X148273727Y-46268361D01*
X148437191Y-46008902D01*
X148437213Y-46008858D01*
X148437635Y-46008197D01*
X148600392Y-45749209D01*
X148762359Y-45492931D01*
X148924647Y-45239656D01*
X149088067Y-44990100D01*
X149253466Y-44744857D01*
X149421732Y-44504410D01*
X149593755Y-44269189D01*
X149770414Y-44039597D01*
X149952567Y-43816036D01*
X150141116Y-43598826D01*
X150336991Y-43388246D01*
X150541112Y-43184591D01*
X150754494Y-42988072D01*
X150978180Y-42798915D01*
X151213345Y-42617279D01*
X151461125Y-42443422D01*
X151722797Y-42277568D01*
X151999638Y-42120025D01*
X152292986Y-41971139D01*
X152604185Y-41831330D01*
X152934540Y-41701100D01*
X153285392Y-41580993D01*
X153657979Y-41471634D01*
X154053551Y-41373673D01*
X154143391Y-41355293D01*
X154152202Y-41362534D01*
G37*
X154152202Y-41362534D02*
X154160768Y-41368186D01*
X154407550Y-41528530D01*
X154422181Y-41536119D01*
X154435505Y-41545817D01*
X154444387Y-41550956D01*
X154708183Y-41701124D01*
X154964225Y-41848284D01*
X155194011Y-41999121D01*
X155402281Y-42169384D01*
X155606568Y-42388825D01*
X155692606Y-42504629D01*
X155784871Y-42650548D01*
X155875231Y-42819713D01*
X155962893Y-43015607D01*
X156046665Y-43241328D01*
X156125189Y-43499777D01*
X156196965Y-43793405D01*
X156260531Y-44124576D01*
X156314444Y-44495369D01*
X156357339Y-44907734D01*
X156387948Y-45363717D01*
X156405054Y-45865158D01*
X156407518Y-46414019D01*
X156394251Y-47012137D01*
X156364205Y-47661479D01*
X156316363Y-48364055D01*
X156249737Y-49121844D01*
X156162743Y-49942645D01*
X156162559Y-49966109D01*
X156159293Y-49989348D01*
X156158935Y-49999604D01*
X156148631Y-50368726D01*
X156136968Y-50737946D01*
X156123826Y-51108648D01*
X156109140Y-51480414D01*
X156092798Y-51854045D01*
X156074744Y-52229009D01*
X156054874Y-52605809D01*
X156033112Y-52984447D01*
X156009371Y-53365007D01*
X155983580Y-53747406D01*
X155955634Y-54132041D01*
X155925465Y-54518792D01*
X155893007Y-54907538D01*
X155858118Y-55299043D01*
X155820789Y-55692572D01*
X155780879Y-56088832D01*
X155738317Y-56487749D01*
X155693032Y-56889289D01*
X155644935Y-57293609D01*
X155593949Y-57700743D01*
X155539961Y-58110984D01*
X155482921Y-58524174D01*
X155422717Y-58940601D01*
X155359274Y-59360274D01*
X155292537Y-59783101D01*
X155222356Y-60209581D01*
X155148718Y-60639366D01*
X155071470Y-61072934D01*
X154990571Y-61510127D01*
X154905956Y-61950937D01*
X154817488Y-62395725D01*
X154727656Y-62832058D01*
X154682624Y-63012398D01*
X154632405Y-63200389D01*
X154579355Y-63388722D01*
X154523951Y-63577715D01*
X154466681Y-63767713D01*
X154407847Y-63959753D01*
X154348580Y-64152228D01*
X154348566Y-64152297D01*
X154348217Y-64153409D01*
X154288927Y-64347117D01*
X154288895Y-64347273D01*
X154287906Y-64350481D01*
X154229432Y-64544839D01*
X154229396Y-64545019D01*
X154227792Y-64550367D01*
X154170663Y-64745799D01*
X154170637Y-64745935D01*
X154168468Y-64753462D01*
X154113212Y-64950392D01*
X154113208Y-64950413D01*
X154110546Y-64960152D01*
X154057693Y-65159002D01*
X154057537Y-65159954D01*
X154057203Y-65160856D01*
X154054662Y-65170799D01*
X154004740Y-65371994D01*
X154004457Y-65373923D01*
X154003815Y-65375764D01*
X154001466Y-65385754D01*
X153955005Y-65589716D01*
X153954643Y-65592566D01*
X153953756Y-65595299D01*
X153951625Y-65605337D01*
X153909153Y-65812489D01*
X153908764Y-65816196D01*
X153907700Y-65819764D01*
X153905810Y-65829850D01*
X153867855Y-66040617D01*
X153867493Y-66045107D01*
X153866321Y-66049448D01*
X153864696Y-66059580D01*
X153831789Y-66274383D01*
X153831508Y-66279559D01*
X153830298Y-66284596D01*
X153828957Y-66294770D01*
X153801626Y-66514035D01*
X153801474Y-66519802D01*
X153800295Y-66525443D01*
X153799256Y-66535652D01*
X153778029Y-66759800D01*
X153778050Y-66766051D01*
X153776960Y-66772207D01*
X153776237Y-66782444D01*
X153761644Y-67011899D01*
X153761871Y-67018530D01*
X153760925Y-67025087D01*
X153760529Y-67035342D01*
X153753099Y-67270525D01*
X153753555Y-67277407D01*
X153752793Y-67284267D01*
X153752732Y-67294529D01*
X153752993Y-67535867D01*
X153753691Y-67542905D01*
X153753144Y-67549946D01*
X153753423Y-67560204D01*
X153761905Y-67808118D01*
X153762843Y-67815188D01*
X153762528Y-67822312D01*
X153763148Y-67832555D01*
X153780379Y-68087471D01*
X153781548Y-68094482D01*
X153781470Y-68101582D01*
X153782430Y-68111799D01*
X153808940Y-68374136D01*
X153810318Y-68380989D01*
X153810471Y-68387970D01*
X153811767Y-68398150D01*
X153848083Y-68668335D01*
X153849642Y-68674953D01*
X153850011Y-68681741D01*
X153851636Y-68691874D01*
X153898289Y-68970327D01*
X153899995Y-68976643D01*
X153900556Y-68983156D01*
X153902501Y-68993232D01*
X153960018Y-69280378D01*
X153961832Y-69286338D01*
X153962558Y-69292526D01*
X153964813Y-69302538D01*
X154033724Y-69598800D01*
X154035607Y-69604365D01*
X154036466Y-69610178D01*
X154039019Y-69620117D01*
X154119853Y-69925919D01*
X154121768Y-69931068D01*
X154122726Y-69936466D01*
X154125564Y-69946328D01*
X154218850Y-70262092D01*
X154220757Y-70266797D01*
X154221781Y-70271767D01*
X154224892Y-70281546D01*
X154310601Y-70544602D01*
X154349383Y-70830358D01*
X154393060Y-71177900D01*
X154433092Y-71524584D01*
X154469496Y-71870896D01*
X154502200Y-72216579D01*
X154531153Y-72561510D01*
X154556338Y-72905952D01*
X154577695Y-73249694D01*
X154595192Y-73592808D01*
X154608790Y-73935432D01*
X154618436Y-74277204D01*
X154624099Y-74618478D01*
X154625734Y-74959163D01*
X154623300Y-75299086D01*
X154616756Y-75638332D01*
X154606056Y-75977076D01*
X154591167Y-76315057D01*
X154572038Y-76652467D01*
X154548638Y-76989131D01*
X154520913Y-77325224D01*
X154488840Y-77660526D01*
X154452342Y-77995375D01*
X154411424Y-78329362D01*
X154366004Y-78662806D01*
X154316057Y-78995570D01*
X154261527Y-79327739D01*
X154202401Y-79659122D01*
X154138599Y-79989948D01*
X154070101Y-80320080D01*
X153996854Y-80649568D01*
X153918812Y-80978413D01*
X153834640Y-81311734D01*
X153834049Y-81315655D01*
X153832749Y-81319397D01*
X153830412Y-81329390D01*
X153771539Y-81589423D01*
X153711696Y-81846513D01*
X153650141Y-82101988D01*
X153586371Y-82356115D01*
X153520007Y-82608681D01*
X153450634Y-82859640D01*
X153377816Y-83109048D01*
X153301143Y-83356871D01*
X153220230Y-83603018D01*
X153134634Y-83847592D01*
X153043977Y-84090504D01*
X152947806Y-84331874D01*
X152845721Y-84571682D01*
X152737306Y-84809947D01*
X152622132Y-85046708D01*
X152499738Y-85282059D01*
X152369680Y-85516040D01*
X152231497Y-85748709D01*
X152084719Y-85980123D01*
X151928852Y-86210353D01*
X151763402Y-86439449D01*
X151587825Y-86667507D01*
X151401660Y-86894496D01*
X151204306Y-87120541D01*
X150995312Y-87345565D01*
X150774040Y-87569687D01*
X150540024Y-87792826D01*
X150292668Y-88015018D01*
X150031463Y-88236207D01*
X149755905Y-88456325D01*
X149465390Y-88675383D01*
X149191267Y-88870615D01*
X148530661Y-89219768D01*
X147838562Y-89581378D01*
X147156894Y-89933288D01*
X146485241Y-90275713D01*
X145824094Y-90608406D01*
X145173204Y-90931496D01*
X144532759Y-91244892D01*
X143902404Y-91548772D01*
X143282601Y-91842916D01*
X142672966Y-92127509D01*
X142073701Y-92402461D01*
X141484808Y-92667773D01*
X140906331Y-92923432D01*
X140338232Y-93169462D01*
X139780586Y-93405835D01*
X139233212Y-93632632D01*
X138696570Y-93849674D01*
X138170108Y-94057191D01*
X137654237Y-94255027D01*
X137148838Y-94443241D01*
X136653943Y-94621828D01*
X136169628Y-94790776D01*
X135695885Y-94950100D01*
X135232737Y-95099808D01*
X134780237Y-95239900D01*
X134338490Y-95370362D01*
X133997193Y-95466068D01*
X134155990Y-95228411D01*
X134267932Y-94958158D01*
X134325000Y-94671260D01*
X134325000Y-94378740D01*
X134267932Y-94091842D01*
X134155990Y-93821589D01*
X133993475Y-93578368D01*
X133786632Y-93371525D01*
X133612240Y-93255000D01*
X133786632Y-93138475D01*
X133993475Y-92931632D01*
X134155990Y-92688411D01*
X134267932Y-92418158D01*
X134325000Y-92131260D01*
X134325000Y-91838740D01*
X134267932Y-91551842D01*
X134155990Y-91281589D01*
X133993475Y-91038368D01*
X133786632Y-90831525D01*
X133543411Y-90669010D01*
X133273158Y-90557068D01*
X132986260Y-90500000D01*
X132693740Y-90500000D01*
X132406842Y-90557068D01*
X132136589Y-90669010D01*
X131893368Y-90831525D01*
X131686525Y-91038368D01*
X131570000Y-91212760D01*
X131453475Y-91038368D01*
X131246632Y-90831525D01*
X131003411Y-90669010D01*
X130733158Y-90557068D01*
X130446260Y-90500000D01*
X130153740Y-90500000D01*
X129866842Y-90557068D01*
X129596589Y-90669010D01*
X129353368Y-90831525D01*
X129146525Y-91038368D01*
X128984010Y-91281589D01*
X128872068Y-91551842D01*
X128815000Y-91838740D01*
X128815000Y-92131260D01*
X128872068Y-92418158D01*
X128984010Y-92688411D01*
X129146525Y-92931632D01*
X129278380Y-93063487D01*
X129205820Y-93085498D01*
X129095506Y-93144463D01*
X128998815Y-93223815D01*
X128919463Y-93320506D01*
X128860498Y-93430820D01*
X128824188Y-93550518D01*
X128811928Y-93675000D01*
X128811928Y-95375000D01*
X128815692Y-95413217D01*
X128571593Y-95374096D01*
X128061101Y-95290741D01*
X127551112Y-95205360D01*
X127041774Y-95117416D01*
X126533369Y-95026398D01*
X126025721Y-94931721D01*
X125518715Y-94832805D01*
X125012431Y-94729115D01*
X124506991Y-94620127D01*
X124002221Y-94505256D01*
X123498101Y-94383952D01*
X122994601Y-94255661D01*
X122491759Y-94119853D01*
X121989511Y-93975966D01*
X121487883Y-93823471D01*
X120986668Y-93661762D01*
X120486058Y-93490361D01*
X119985759Y-93308629D01*
X119485910Y-93116074D01*
X118986396Y-92912113D01*
X118487166Y-92696181D01*
X117988129Y-92467694D01*
X117489279Y-92226103D01*
X116990547Y-91970827D01*
X116491835Y-91701261D01*
X116000459Y-91421024D01*
X115720595Y-91243905D01*
X115428380Y-91057479D01*
X115137819Y-90870007D01*
X114849194Y-90681071D01*
X114562460Y-90490047D01*
X114278137Y-90296691D01*
X113996038Y-90100284D01*
X113716549Y-89900508D01*
X113439821Y-89696881D01*
X113165989Y-89488917D01*
X112895187Y-89276130D01*
X112627607Y-89058078D01*
X112363405Y-88834297D01*
X112102707Y-88604294D01*
X111845649Y-88367586D01*
X111592352Y-88123670D01*
X111342960Y-87872065D01*
X111097576Y-87612239D01*
X110856363Y-87343713D01*
X110619443Y-87065968D01*
X110386901Y-86778413D01*
X110158942Y-86480605D01*
X109935623Y-86171891D01*
X109717158Y-85851810D01*
X109503629Y-85519711D01*
X109295268Y-85175136D01*
X109092217Y-84817487D01*
X108894638Y-84446174D01*
X108702729Y-84060649D01*
X108516689Y-83660363D01*
X108336737Y-83244789D01*
X108182852Y-82862492D01*
X108096167Y-82462442D01*
X108015971Y-82024163D01*
X107951791Y-81595955D01*
X107902497Y-81176816D01*
X107866975Y-80765623D01*
X107844148Y-80361397D01*
X107832963Y-79963099D01*
X107832379Y-79569667D01*
X107841380Y-79180078D01*
X107858947Y-78793470D01*
X107884078Y-78408739D01*
X107915747Y-78025130D01*
X107952939Y-77641565D01*
X107994583Y-77257478D01*
X108039667Y-76871585D01*
X108087057Y-76483476D01*
X108135605Y-76092675D01*
X108135606Y-76092628D01*
X108135696Y-76091939D01*
X108184154Y-75698622D01*
X108184158Y-75698479D01*
X108184514Y-75695655D01*
X108231643Y-75299874D01*
X108231647Y-75299684D01*
X108232237Y-75294727D01*
X108276904Y-74895685D01*
X108276906Y-74895525D01*
X108277680Y-74888426D01*
X108318751Y-74485334D01*
X108318751Y-74485265D01*
X108319638Y-74476050D01*
X108322490Y-74444032D01*
X117823064Y-74444032D01*
X117826290Y-74468718D01*
X117840346Y-74529264D01*
X118086290Y-75588718D01*
X118093668Y-75610949D01*
X118693668Y-76980949D01*
X118701456Y-76995934D01*
X118716405Y-77015843D01*
X118734950Y-77032453D01*
X118756380Y-77045126D01*
X119476025Y-77380303D01*
X120626691Y-78193705D01*
X120651399Y-78207333D01*
X120675224Y-78214560D01*
X120700000Y-78217000D01*
X122020000Y-78217000D01*
X122050049Y-78213394D01*
X123980049Y-77743394D01*
X124004247Y-77734832D01*
X124025607Y-77722042D01*
X124044062Y-77705331D01*
X124058902Y-77685341D01*
X124958902Y-76185341D01*
X124969788Y-76162189D01*
X125529788Y-74572189D01*
X125533547Y-74559412D01*
X125536911Y-74534744D01*
X125537314Y-74523938D01*
X137583145Y-74523938D01*
X137584400Y-74548802D01*
X137834400Y-76218802D01*
X137841728Y-76246268D01*
X137853027Y-76268453D01*
X137868437Y-76288007D01*
X138858437Y-77318007D01*
X138879536Y-77335659D01*
X138901503Y-77347376D01*
X140571503Y-78037376D01*
X140602386Y-78045773D01*
X140627261Y-78046792D01*
X142897261Y-77916792D01*
X142930257Y-77910451D01*
X142952982Y-77900283D01*
X142973287Y-77885877D01*
X144953287Y-76165877D01*
X144962844Y-76156654D01*
X144977965Y-76136876D01*
X144988938Y-76114528D01*
X144995340Y-76090469D01*
X144996925Y-76065623D01*
X144946925Y-74615623D01*
X144946273Y-74606433D01*
X144816273Y-73396433D01*
X144810159Y-73368881D01*
X144799828Y-73346229D01*
X144079828Y-72106229D01*
X144069054Y-72090519D01*
X144051645Y-72072721D01*
X142931645Y-71132721D01*
X142911181Y-71118708D01*
X142888294Y-71108911D01*
X142863935Y-71103767D01*
X141323935Y-70933767D01*
X141310000Y-70933000D01*
X141285224Y-70935440D01*
X141261399Y-70942667D01*
X141239443Y-70954403D01*
X141220197Y-70970197D01*
X141204403Y-70989443D01*
X141192667Y-71011399D01*
X141185440Y-71035224D01*
X141183000Y-71060000D01*
X141183000Y-71070751D01*
X141161592Y-71064849D01*
X141136762Y-71063041D01*
X141112055Y-71066113D01*
X139782055Y-71366113D01*
X139768972Y-71369810D01*
X139746312Y-71380123D01*
X139726100Y-71394659D01*
X138226100Y-72714659D01*
X138215222Y-72725465D01*
X138200551Y-72745580D01*
X138190087Y-72768170D01*
X137755033Y-74015323D01*
X137590087Y-74488170D01*
X137583145Y-74523938D01*
X125537314Y-74523938D01*
X125576911Y-73464744D01*
X125573555Y-73430622D01*
X125565450Y-73407082D01*
X125552908Y-73385576D01*
X124742908Y-72265576D01*
X124726758Y-72247253D01*
X124706997Y-72232109D01*
X123466997Y-71462109D01*
X123438136Y-71448861D01*
X122358136Y-71108861D01*
X122344776Y-71105440D01*
X122320000Y-71103000D01*
X121500000Y-71103000D01*
X121474186Y-71105651D01*
X121450423Y-71113076D01*
X121428565Y-71124995D01*
X121409452Y-71140949D01*
X121393819Y-71160325D01*
X121387213Y-71172936D01*
X121376000Y-71084097D01*
X121370977Y-71061354D01*
X121361113Y-71038495D01*
X121346979Y-71018000D01*
X121329118Y-71000656D01*
X121308217Y-70987129D01*
X121285079Y-70977941D01*
X121260592Y-70973442D01*
X121235698Y-70973808D01*
X119735698Y-71143808D01*
X119703451Y-71151838D01*
X119681294Y-71163190D01*
X119661776Y-71178646D01*
X119645649Y-71197613D01*
X119633532Y-71219362D01*
X119347615Y-71876970D01*
X118476400Y-72496501D01*
X118460842Y-72509558D01*
X118444911Y-72528689D01*
X118064911Y-73088689D01*
X118051437Y-73114482D01*
X118044835Y-73138487D01*
X117824835Y-74418487D01*
X117823064Y-74444032D01*
X108322490Y-74444032D01*
X108355979Y-74068114D01*
X108355975Y-74067620D01*
X108356064Y-74067143D01*
X108356890Y-74056914D01*
X108387368Y-73643342D01*
X108387334Y-73641956D01*
X108387565Y-73640593D01*
X108388210Y-73630351D01*
X108411691Y-73210351D01*
X108411599Y-73208147D01*
X108411923Y-73205966D01*
X108412363Y-73195713D01*
X108427712Y-72768491D01*
X108427530Y-72765555D01*
X108427899Y-72762637D01*
X108428114Y-72752377D01*
X108434199Y-72317142D01*
X108433898Y-72313561D01*
X108434264Y-72309989D01*
X108434236Y-72299727D01*
X108429922Y-71855687D01*
X108429477Y-71851561D01*
X108429795Y-71847427D01*
X108429509Y-71837169D01*
X108413663Y-71383529D01*
X108413053Y-71378959D01*
X108413285Y-71374358D01*
X108412727Y-71364111D01*
X108384215Y-70900081D01*
X108383427Y-70895171D01*
X108383541Y-70890201D01*
X108382703Y-70879973D01*
X108340391Y-70404759D01*
X108339419Y-70399607D01*
X108339391Y-70394373D01*
X108338265Y-70384173D01*
X108281021Y-69896984D01*
X108279868Y-69891694D01*
X108279684Y-69886282D01*
X108278266Y-69876118D01*
X108204954Y-69376160D01*
X108201879Y-69363772D01*
X108200827Y-69351050D01*
X108198917Y-69340967D01*
X108096241Y-68818874D01*
X107997570Y-68299568D01*
X107901878Y-67779890D01*
X107808888Y-67260563D01*
X107718064Y-66740898D01*
X107628968Y-66220754D01*
X107541258Y-65700551D01*
X107454402Y-65179601D01*
X107368123Y-64658757D01*
X107368123Y-64658756D01*
X107281892Y-64137367D01*
X107281887Y-64137350D01*
X107281830Y-64136988D01*
X107195280Y-63615362D01*
X107195265Y-63615304D01*
X107195122Y-63614414D01*
X107107851Y-63092668D01*
X107107828Y-63092583D01*
X107107596Y-63091152D01*
X107019170Y-62569213D01*
X107019139Y-62569101D01*
X107018815Y-62567136D01*
X106928803Y-62044932D01*
X106928766Y-62044796D01*
X106928343Y-62042294D01*
X106836312Y-61519756D01*
X106836270Y-61519607D01*
X106835743Y-61516565D01*
X106741260Y-60993617D01*
X106741212Y-60993448D01*
X106740574Y-60989879D01*
X106643207Y-60466450D01*
X106643158Y-60466282D01*
X106642399Y-60462173D01*
X106541715Y-59938191D01*
X106541662Y-59938011D01*
X106540775Y-59933385D01*
X106436342Y-59408779D01*
X106436287Y-59408597D01*
X106435261Y-59403453D01*
X106326646Y-58878151D01*
X106326592Y-58877976D01*
X106325416Y-58872319D01*
X106212185Y-58346247D01*
X106212133Y-58346085D01*
X106210795Y-58339924D01*
X106092518Y-57813010D01*
X106092466Y-57812854D01*
X106090958Y-57806209D01*
X105967202Y-57278383D01*
X105967153Y-57278240D01*
X105965461Y-57271123D01*
X105835793Y-56742312D01*
X105835746Y-56742177D01*
X105833860Y-56734609D01*
X105697847Y-56204740D01*
X105697806Y-56204628D01*
X105695712Y-56196615D01*
X105552921Y-55665617D01*
X105552884Y-55665519D01*
X105550574Y-55657095D01*
X105400574Y-55124896D01*
X105400547Y-55124826D01*
X105398005Y-55115997D01*
X105240363Y-54582524D01*
X105240345Y-54582480D01*
X105237563Y-54573272D01*
X105071845Y-54038454D01*
X105071834Y-54038429D01*
X105068806Y-54028878D01*
X104894581Y-53492643D01*
X104894551Y-53492574D01*
X104894536Y-53492506D01*
X104891295Y-53482769D01*
X104708130Y-52945044D01*
X104708030Y-52944823D01*
X104707975Y-52944591D01*
X104704593Y-52934902D01*
X104550349Y-52502871D01*
X104542317Y-52276496D01*
X104542292Y-52276313D01*
X104542104Y-52271061D01*
X104527366Y-51927457D01*
X104527343Y-51927296D01*
X104527212Y-51924062D01*
X104510734Y-51577342D01*
X104510722Y-51577259D01*
X104510665Y-51575922D01*
X104493375Y-51226379D01*
X104476292Y-50876115D01*
X104460314Y-50525025D01*
X104446375Y-50174019D01*
X104435352Y-49823094D01*
X104428128Y-49472709D01*
X104425566Y-49123195D01*
X104428512Y-48774673D01*
X104437803Y-48427569D01*
X104454255Y-48082218D01*
X104478675Y-47738840D01*
X104511855Y-47397706D01*
X104554575Y-47059095D01*
X104607587Y-46723318D01*
X104671672Y-46390476D01*
X104747572Y-46060828D01*
X104836057Y-45734494D01*
X104937925Y-45411505D01*
X105053944Y-45092026D01*
X105184977Y-44776005D01*
X105331901Y-44463437D01*
X105495643Y-44154297D01*
X105677195Y-43848533D01*
X105877590Y-43546123D01*
X106097926Y-43247038D01*
X106339359Y-42951280D01*
X106603051Y-42658924D01*
X106890210Y-42370076D01*
X106980097Y-42287873D01*
X107025159Y-42291272D01*
X107353479Y-42333780D01*
X107668299Y-42392125D01*
X107970629Y-42465577D01*
X108261488Y-42553492D01*
X108541839Y-42655296D01*
X108812725Y-42770538D01*
X109074944Y-42898750D01*
X109329366Y-43039568D01*
X109576702Y-43192604D01*
X109817631Y-43357499D01*
X110052692Y-43533822D01*
X110282411Y-43721142D01*
X110507249Y-43918971D01*
X110727682Y-44126826D01*
X110944055Y-44344074D01*
X111156838Y-44570174D01*
X111366393Y-44804444D01*
X111573168Y-45046260D01*
X111777540Y-45294882D01*
X111979961Y-45549626D01*
X112180876Y-45809761D01*
X112380763Y-46074578D01*
X112580157Y-46343407D01*
X112779366Y-46615248D01*
X112979282Y-46889871D01*
X112979289Y-46889878D01*
X113179476Y-47165202D01*
X113179528Y-47165260D01*
X113180352Y-47166406D01*
X113381222Y-47441494D01*
X113381328Y-47441612D01*
X113383230Y-47444231D01*
X113585073Y-47717989D01*
X113585195Y-47718125D01*
X113588247Y-47722262D01*
X113791613Y-47993943D01*
X113791716Y-47994056D01*
X113796000Y-47999745D01*
X114001436Y-48268604D01*
X114001483Y-48268655D01*
X114007104Y-48275926D01*
X114142860Y-48449030D01*
X114214268Y-48645303D01*
X114218002Y-48653100D01*
X114220345Y-48661415D01*
X114224145Y-48670948D01*
X114345761Y-48969933D01*
X114349718Y-48977459D01*
X114352324Y-48985549D01*
X114356474Y-48994935D01*
X114487956Y-49286744D01*
X114492094Y-49293953D01*
X114494928Y-49301763D01*
X114499418Y-49310991D01*
X114640480Y-49595833D01*
X114644748Y-49602678D01*
X114647769Y-49610155D01*
X114652587Y-49619216D01*
X114802938Y-49897301D01*
X114807293Y-49903758D01*
X114810457Y-49910862D01*
X114815589Y-49919749D01*
X114974945Y-50191285D01*
X114979329Y-50197317D01*
X114982593Y-50204020D01*
X114988026Y-50212726D01*
X115156100Y-50477923D01*
X115160465Y-50483516D01*
X115163779Y-50489785D01*
X115169497Y-50498306D01*
X115346001Y-50757373D01*
X115350298Y-50762518D01*
X115353615Y-50768332D01*
X115359604Y-50776665D01*
X115544249Y-51029812D01*
X115548432Y-51034506D01*
X115551711Y-51039860D01*
X115557955Y-51048004D01*
X115750456Y-51295436D01*
X115754475Y-51299674D01*
X115757672Y-51304561D01*
X115764157Y-51312515D01*
X115964225Y-51554445D01*
X115968049Y-51558243D01*
X115971124Y-51562664D01*
X115977833Y-51570430D01*
X116185181Y-51807064D01*
X116188769Y-51810430D01*
X116191685Y-51814387D01*
X116198603Y-51821967D01*
X116412944Y-52053517D01*
X116416268Y-52056469D01*
X116418999Y-52059980D01*
X116426112Y-52067377D01*
X116647158Y-52294049D01*
X116650193Y-52296606D01*
X116652704Y-52299675D01*
X116659998Y-52306894D01*
X116887462Y-52528899D01*
X116890185Y-52531081D01*
X116892455Y-52533726D01*
X116899916Y-52540773D01*
X117133511Y-52758320D01*
X117135905Y-52760147D01*
X117137916Y-52762389D01*
X117145531Y-52769268D01*
X117384969Y-52982565D01*
X117387021Y-52984061D01*
X117388752Y-52985911D01*
X117396509Y-52992631D01*
X117641503Y-53201887D01*
X117643202Y-53203072D01*
X117644643Y-53204553D01*
X117652529Y-53211120D01*
X117902792Y-53416545D01*
X117904134Y-53417443D01*
X117905274Y-53418572D01*
X117913279Y-53424993D01*
X118168524Y-53626795D01*
X118169497Y-53627420D01*
X118170330Y-53628218D01*
X118178444Y-53634501D01*
X118438382Y-53832889D01*
X118438989Y-53833264D01*
X118439509Y-53833747D01*
X118447721Y-53839900D01*
X118712065Y-54035083D01*
X118712305Y-54035226D01*
X118712508Y-54035409D01*
X118720810Y-54041441D01*
X118989274Y-54233629D01*
X118989296Y-54233642D01*
X118997416Y-54239375D01*
X119269711Y-54428775D01*
X119269784Y-54428816D01*
X119277242Y-54433943D01*
X119553081Y-54620766D01*
X119553188Y-54620824D01*
X119559998Y-54625394D01*
X119839095Y-54809848D01*
X119839228Y-54809918D01*
X119845397Y-54813967D01*
X120127464Y-54996261D01*
X120127618Y-54996340D01*
X120133148Y-54999897D01*
X120417896Y-55180240D01*
X120418060Y-55180323D01*
X120422966Y-55183422D01*
X120710111Y-55362023D01*
X120710277Y-55362105D01*
X120714563Y-55364770D01*
X121003815Y-55541839D01*
X121003978Y-55541918D01*
X121007657Y-55544175D01*
X121298729Y-55719919D01*
X121298881Y-55719992D01*
X121301959Y-55721858D01*
X121594565Y-55896488D01*
X121639717Y-55917763D01*
X121683506Y-55941683D01*
X121704454Y-55948266D01*
X121724329Y-55957631D01*
X121772753Y-55969730D01*
X121820355Y-55984690D01*
X121842189Y-55987080D01*
X121863498Y-55992404D01*
X121913343Y-55994868D01*
X121962950Y-56000297D01*
X121984829Y-55998401D01*
X122006769Y-55999485D01*
X122056143Y-55992219D01*
X122105861Y-55987910D01*
X122115937Y-55985960D01*
X122569649Y-55894855D01*
X123023095Y-55811577D01*
X123482438Y-55734834D01*
X123947659Y-55664575D01*
X124418585Y-55600774D01*
X124895168Y-55543379D01*
X125377572Y-55492322D01*
X125865458Y-55447581D01*
X126358961Y-55409091D01*
X126857963Y-55376810D01*
X127362340Y-55350688D01*
X127872171Y-55330671D01*
X128387303Y-55316709D01*
X128907704Y-55308749D01*
X129433443Y-55306740D01*
X129964155Y-55310628D01*
X130500098Y-55320360D01*
X131041175Y-55335885D01*
X131587013Y-55357139D01*
X132137963Y-55384079D01*
X132693773Y-55416643D01*
X133254417Y-55454777D01*
X133819847Y-55498426D01*
X134389904Y-55547523D01*
X134964772Y-55602035D01*
X135544120Y-55661879D01*
X136128036Y-55727008D01*
X136716448Y-55797366D01*
X137309379Y-55872904D01*
X137906575Y-55953539D01*
X138508201Y-56039241D01*
X139116569Y-56130308D01*
X139170940Y-56133075D01*
X139225102Y-56138406D01*
X139242431Y-56136714D01*
X139259830Y-56137599D01*
X139313712Y-56129752D01*
X139367869Y-56124462D01*
X139384539Y-56119436D01*
X139401780Y-56116925D01*
X139453104Y-56098764D01*
X139505209Y-56083054D01*
X139514671Y-56079081D01*
X139779632Y-55965637D01*
X139791060Y-55959360D01*
X139803335Y-55954988D01*
X139812590Y-55950554D01*
X140074028Y-55823018D01*
X140084256Y-55816725D01*
X140095366Y-55812175D01*
X140104405Y-55807315D01*
X140362452Y-55666214D01*
X140371508Y-55660043D01*
X140381457Y-55655452D01*
X140390275Y-55650201D01*
X140645063Y-55496062D01*
X140653004Y-55490128D01*
X140661827Y-55485610D01*
X140670423Y-55480004D01*
X140922082Y-55313354D01*
X140928979Y-55307747D01*
X140936723Y-55303402D01*
X140945100Y-55297473D01*
X141193763Y-55118838D01*
X141199687Y-55113635D01*
X141206419Y-55109539D01*
X141214581Y-55103318D01*
X141460379Y-54913227D01*
X141465415Y-54908478D01*
X141471203Y-54904692D01*
X141479157Y-54898208D01*
X141722223Y-54697187D01*
X141726453Y-54692929D01*
X141731368Y-54689497D01*
X141739122Y-54682775D01*
X141979588Y-54471350D01*
X141983086Y-54467609D01*
X141987205Y-54464559D01*
X141994769Y-54457623D01*
X142232765Y-54236321D01*
X142235610Y-54233103D01*
X142238990Y-54230464D01*
X142246374Y-54223338D01*
X142482032Y-53992688D01*
X142484288Y-53990001D01*
X142487001Y-53987778D01*
X142494215Y-53980480D01*
X142727669Y-53741008D01*
X142729402Y-53738843D01*
X142731500Y-53737047D01*
X142738557Y-53729596D01*
X142969937Y-53481830D01*
X142971197Y-53480184D01*
X142972745Y-53478806D01*
X142979654Y-53471218D01*
X143209091Y-53215682D01*
X143209929Y-53214542D01*
X143210966Y-53213585D01*
X143217740Y-53205875D01*
X143445366Y-52943099D01*
X143445826Y-52942449D01*
X143446396Y-52941906D01*
X143453045Y-52934089D01*
X143678993Y-52664599D01*
X143679109Y-52664429D01*
X143679256Y-52664285D01*
X143685790Y-52656371D01*
X143910191Y-52380694D01*
X143910225Y-52380643D01*
X143916179Y-52373239D01*
X144139165Y-52091902D01*
X144139227Y-52091806D01*
X144144413Y-52085201D01*
X144366115Y-51798731D01*
X144366197Y-51798601D01*
X144370678Y-51792772D01*
X144591229Y-51501696D01*
X144591319Y-51501549D01*
X144595160Y-51496461D01*
X144814691Y-51201305D01*
X144814788Y-51201145D01*
X144818030Y-51196780D01*
X145036672Y-50898074D01*
X145036765Y-50897917D01*
X145039456Y-50894245D01*
X145257342Y-50592514D01*
X145257430Y-50592364D01*
X145259600Y-50589369D01*
X145476862Y-50285140D01*
X145476940Y-50285005D01*
X145478616Y-50282672D01*
X145695385Y-49976472D01*
X145695446Y-49976366D01*
X145696657Y-49974669D01*
X145913066Y-49667025D01*
X145913109Y-49666949D01*
X145913867Y-49665883D01*
X146130045Y-49357323D01*
X146130064Y-49357289D01*
X146130385Y-49356837D01*
X146346465Y-49047886D01*
X146562000Y-48739903D01*
X146777693Y-48432590D01*
X146992838Y-48127665D01*
X147203219Y-47831747D01*
X147382759Y-47593631D01*
X147384506Y-47590771D01*
X147386751Y-47588286D01*
X147392797Y-47579994D01*
X147572395Y-47330025D01*
X147573414Y-47328267D01*
X147574744Y-47326736D01*
X147580628Y-47318327D01*
X147755048Y-47065314D01*
X147755386Y-47064704D01*
X147755831Y-47064175D01*
X147761581Y-47055674D01*
X147931798Y-46800188D01*
X147931839Y-46800112D01*
X147936715Y-46792710D01*
X148103707Y-46535327D01*
X148103790Y-46535167D01*
X148107089Y-46530065D01*
X148271829Y-46271357D01*
X148271902Y-46271214D01*
X148273727Y-46268361D01*
X148437191Y-46008902D01*
X148437213Y-46008858D01*
X148437635Y-46008197D01*
X148600392Y-45749209D01*
X148762359Y-45492931D01*
X148924647Y-45239656D01*
X149088067Y-44990100D01*
X149253466Y-44744857D01*
X149421732Y-44504410D01*
X149593755Y-44269189D01*
X149770414Y-44039597D01*
X149952567Y-43816036D01*
X150141116Y-43598826D01*
X150336991Y-43388246D01*
X150541112Y-43184591D01*
X150754494Y-42988072D01*
X150978180Y-42798915D01*
X151213345Y-42617279D01*
X151461125Y-42443422D01*
X151722797Y-42277568D01*
X151999638Y-42120025D01*
X152292986Y-41971139D01*
X152604185Y-41831330D01*
X152934540Y-41701100D01*
X153285392Y-41580993D01*
X153657979Y-41471634D01*
X154053551Y-41373673D01*
X154143391Y-41355293D01*
X154152202Y-41362534D01*
G36*
X121383004Y-72431058D02*
G01*
X121385858Y-72456792D01*
X121393470Y-72480496D01*
X121405561Y-72502260D01*
X121421665Y-72521246D01*
X121441163Y-72536726D01*
X121463307Y-72548105D01*
X122304006Y-72880474D01*
X122789873Y-73290127D01*
X123183000Y-73756394D01*
X123183000Y-74870000D01*
X123183151Y-74876188D01*
X123221561Y-75663592D01*
X123044244Y-76026670D01*
X122366838Y-76379292D01*
X121611232Y-76537876D01*
X120807828Y-76220251D01*
X120081171Y-75569091D01*
X119764702Y-74529264D01*
X120226142Y-74103320D01*
X120249179Y-74074876D01*
X120259738Y-74052329D01*
X120265696Y-74028156D01*
X120390881Y-73161491D01*
X120949485Y-72444616D01*
X121381634Y-72266672D01*
X121383004Y-72431058D01*
G37*
X121383004Y-72431058D02*
X121385858Y-72456792D01*
X121393470Y-72480496D01*
X121405561Y-72502260D01*
X121421665Y-72521246D01*
X121441163Y-72536726D01*
X121463307Y-72548105D01*
X122304006Y-72880474D01*
X122789873Y-73290127D01*
X123183000Y-73756394D01*
X123183000Y-74870000D01*
X123183151Y-74876188D01*
X123221561Y-75663592D01*
X123044244Y-76026670D01*
X122366838Y-76379292D01*
X121611232Y-76537876D01*
X120807828Y-76220251D01*
X120081171Y-75569091D01*
X119764702Y-74529264D01*
X120226142Y-74103320D01*
X120249179Y-74074876D01*
X120259738Y-74052329D01*
X120265696Y-74028156D01*
X120390881Y-73161491D01*
X120949485Y-72444616D01*
X121381634Y-72266672D01*
X121383004Y-72431058D01*
G36*
X141189837Y-72431108D02*
G01*
X141200166Y-72453761D01*
X141214716Y-72473963D01*
X141232927Y-72490939D01*
X141254100Y-72504036D01*
X141746970Y-72745639D01*
X142553064Y-73502581D01*
X142558901Y-73507734D01*
X143014176Y-73885515D01*
X143159019Y-74107041D01*
X143353759Y-75294022D01*
X142698497Y-75913379D01*
X141557209Y-76160658D01*
X140338079Y-75951120D01*
X139835392Y-75493316D01*
X139511188Y-74015323D01*
X139788214Y-73110371D01*
X140753441Y-72463762D01*
X141188801Y-72426711D01*
X141189837Y-72431108D01*
G37*
X141189837Y-72431108D02*
X141200166Y-72453761D01*
X141214716Y-72473963D01*
X141232927Y-72490939D01*
X141254100Y-72504036D01*
X141746970Y-72745639D01*
X142553064Y-73502581D01*
X142558901Y-73507734D01*
X143014176Y-73885515D01*
X143159019Y-74107041D01*
X143353759Y-75294022D01*
X142698497Y-75913379D01*
X141557209Y-76160658D01*
X140338079Y-75951120D01*
X139835392Y-75493316D01*
X139511188Y-74015323D01*
X139788214Y-73110371D01*
X140753441Y-72463762D01*
X141188801Y-72426711D01*
X141189837Y-72431108D01*
G36*
X131686525Y-92931632D02*
G01*
X131893368Y-93138475D01*
X132067760Y-93255000D01*
X131893368Y-93371525D01*
X131761513Y-93503380D01*
X131739502Y-93430820D01*
X131680537Y-93320506D01*
X131601185Y-93223815D01*
X131504494Y-93144463D01*
X131394180Y-93085498D01*
X131321620Y-93063487D01*
X131453475Y-92931632D01*
X131570000Y-92757240D01*
X131686525Y-92931632D01*
G37*
X131686525Y-92931632D02*
X131893368Y-93138475D01*
X132067760Y-93255000D01*
X131893368Y-93371525D01*
X131761513Y-93503380D01*
X131739502Y-93430820D01*
X131680537Y-93320506D01*
X131601185Y-93223815D01*
X131504494Y-93144463D01*
X131394180Y-93085498D01*
X131321620Y-93063487D01*
X131453475Y-92931632D01*
X131570000Y-92757240D01*
X131686525Y-92931632D01*
M02*
