G04 #@! TF.GenerationSoftware,KiCad,Pcbnew,5.1.6-c6e7f7d~87~ubuntu18.04.1*
G04 #@! TF.CreationDate,2020-07-20T20:37:32+02:00*
G04 #@! TF.ProjectId,cat-demo,6361742d-6465-46d6-9f2e-6b696361645f,rev?*
G04 #@! TF.SameCoordinates,Original*
G04 #@! TF.FileFunction,Paste,Bot*
G04 #@! TF.FilePolarity,Positive*
%FSLAX46Y46*%
G04 Gerber Fmt 4.6, Leading zero omitted, Abs format (unit mm)*
G04 Created by KiCad (PCBNEW 5.1.6-c6e7f7d~87~ubuntu18.04.1) date 2020-07-20 20:37:32*
%MOMM*%
%LPD*%
G01*
G04 APERTURE LIST*
G04 APERTURE END LIST*
G36*
G01*
X131859999Y-83765000D02*
X132760001Y-83765000D01*
G75*
G02*
X133010000Y-84014999I0J-249999D01*
G01*
X133010000Y-84665001D01*
G75*
G02*
X132760001Y-84915000I-249999J0D01*
G01*
X131859999Y-84915000D01*
G75*
G02*
X131610000Y-84665001I0J249999D01*
G01*
X131610000Y-84014999D01*
G75*
G02*
X131859999Y-83765000I249999J0D01*
G01*
G37*
G36*
G01*
X131859999Y-81715000D02*
X132760001Y-81715000D01*
G75*
G02*
X133010000Y-81964999I0J-249999D01*
G01*
X133010000Y-82615001D01*
G75*
G02*
X132760001Y-82865000I-249999J0D01*
G01*
X131859999Y-82865000D01*
G75*
G02*
X131610000Y-82615001I0J249999D01*
G01*
X131610000Y-81964999D01*
G75*
G02*
X131859999Y-81715000I249999J0D01*
G01*
G37*
G36*
G01*
X129629999Y-83765000D02*
X130530001Y-83765000D01*
G75*
G02*
X130780000Y-84014999I0J-249999D01*
G01*
X130780000Y-84665001D01*
G75*
G02*
X130530001Y-84915000I-249999J0D01*
G01*
X129629999Y-84915000D01*
G75*
G02*
X129380000Y-84665001I0J249999D01*
G01*
X129380000Y-84014999D01*
G75*
G02*
X129629999Y-83765000I249999J0D01*
G01*
G37*
G36*
G01*
X129629999Y-81715000D02*
X130530001Y-81715000D01*
G75*
G02*
X130780000Y-81964999I0J-249999D01*
G01*
X130780000Y-82615001D01*
G75*
G02*
X130530001Y-82865000I-249999J0D01*
G01*
X129629999Y-82865000D01*
G75*
G02*
X129380000Y-82615001I0J249999D01*
G01*
X129380000Y-81964999D01*
G75*
G02*
X129629999Y-81715000I249999J0D01*
G01*
G37*
G36*
G01*
X140893604Y-74479999D02*
X141530001Y-75116396D01*
G75*
G02*
X141530001Y-75469948I-176776J-176776D01*
G01*
X141070380Y-75929569D01*
G75*
G02*
X140716828Y-75929569I-176776J176776D01*
G01*
X140080431Y-75293172D01*
G75*
G02*
X140080431Y-74939620I176776J176776D01*
G01*
X140540052Y-74479999D01*
G75*
G02*
X140893604Y-74479999I176776J-176776D01*
G01*
G37*
G36*
G01*
X142343172Y-73030431D02*
X142979569Y-73666828D01*
G75*
G02*
X142979569Y-74020380I-176776J-176776D01*
G01*
X142519948Y-74480001D01*
G75*
G02*
X142166396Y-74480001I-176776J176776D01*
G01*
X141529999Y-73843604D01*
G75*
G02*
X141529999Y-73490052I176776J176776D01*
G01*
X141989620Y-73030431D01*
G75*
G02*
X142343172Y-73030431I176776J-176776D01*
G01*
G37*
G36*
G01*
X121764783Y-75021180D02*
X122401180Y-74384783D01*
G75*
G02*
X122754732Y-74384783I176776J-176776D01*
G01*
X123214353Y-74844404D01*
G75*
G02*
X123214353Y-75197956I-176776J-176776D01*
G01*
X122577956Y-75834353D01*
G75*
G02*
X122224404Y-75834353I-176776J176776D01*
G01*
X121764783Y-75374732D01*
G75*
G02*
X121764783Y-75021180I176776J176776D01*
G01*
G37*
G36*
G01*
X120315215Y-73571612D02*
X120951612Y-72935215D01*
G75*
G02*
X121305164Y-72935215I176776J-176776D01*
G01*
X121764785Y-73394836D01*
G75*
G02*
X121764785Y-73748388I-176776J-176776D01*
G01*
X121128388Y-74384785D01*
G75*
G02*
X120774836Y-74384785I-176776J176776D01*
G01*
X120315215Y-73925164D01*
G75*
G02*
X120315215Y-73571612I176776J176776D01*
G01*
G37*
M02*
